#N canvas 97 124 505 639 10;
#X declare -lib zexy -lib iemlib;
#X obj 82 37 inlet;
#X obj 186 44 inlet;
#X text 180 24 pitch bend;
#X text 80 15 pitch;
#X obj 127 38 inlet;
#X text 120 19 velocity;
#X obj 145 339 * 0.00787402;
#X obj 99 556 outlet~;
#X obj 384 42 inlet;
#X obj 276 42 inlet;
#X text 273 24 modwheel;
#X obj 99 431 pack f f f 0;
#X obj 85 510 *~ 0.5;
#X obj 97 533 *~ 1;
#X obj 195 518 list split 1;
#X msg 203 391 \$1 getpitch bang;
#X obj 231 544 route 0 1;
#X obj 240 611 b;
#X obj 168 402 f;
#X obj 76 67 t f f;
#N canvas 637 238 450 300 mono 0;
#X obj 79 50 inlet;
#X obj 214 54 inlet;
#X obj 79 236 outlet;
#X obj 188 237 outlet;
#X obj 108 111 instr/monoctl 0;
#X obj 264 246 outlet;
#X obj 105 137 t f b;
#X connect 0 0 4 0;
#X connect 1 0 4 1;
#X connect 4 0 6 0;
#X connect 4 1 3 0;
#X connect 6 0 2 0;
#X connect 6 1 5 0;
#X restore 148 225 pd mono;
#X obj 147 259 t b f;
#X obj 146 379 sqrt;
#X obj 200 365 f;
#N canvas 0 23 450 300 clear 0;
#X obj 265 75 inlet;
#X obj 208 243 outlet;
#X obj 238 162 pack f 0 0 0;
#X obj 246 112 b;
#X obj 246 133 iterate 10;
#X connect 0 0 3 0;
#X connect 2 0 1 0;
#X connect 3 0 4 0;
#X connect 4 0 2 0;
#X restore 18 461 pd clear;
#N canvas 259 95 450 300 poly 0;
#X obj 25 32 inlet;
#X obj 117 16 inlet;
#X obj 17 260 outlet;
#X obj 86 268 outlet;
#X obj 168 263 outlet;
#X obj 246 270 outlet;
#X obj 27 96 - 1;
#X obj 218 42 inlet;
#X obj 162 131 instr/monoctl 0;
#X text 189 107 keep track of which notes are still on;
#X obj 246 219 spigot;
#X obj 36 218 f;
#X obj 50 117 t f f;
#X obj 114 219 f;
#X obj 40 146 t b f b;
#X obj 246 251 f;
#X obj 300 45 inlet;
#X obj 182 226 spigot;
#X obj 50 76 poly 10 0;
#X obj 26 179 demultiplex;
#X obj 158 164 f;
#X connect 0 0 18 0;
#X connect 1 0 18 1;
#X connect 6 0 12 0;
#X connect 7 0 19 1;
#X connect 8 0 20 0;
#X connect 10 0 15 0;
#X connect 11 0 15 1;
#X connect 12 0 14 0;
#X connect 12 1 8 0;
#X connect 13 0 17 0;
#X connect 14 0 19 0;
#X connect 14 1 2 0;
#X connect 14 1 13 1;
#X connect 14 2 10 0;
#X connect 15 0 5 0;
#X connect 16 0 18 0;
#X connect 16 0 8 0;
#X connect 17 0 15 1;
#X connect 18 0 6 0;
#X connect 18 1 3 0;
#X connect 18 2 4 0;
#X connect 18 2 17 1;
#X connect 18 2 10 1;
#X connect 18 2 8 1;
#X connect 19 0 11 0;
#X connect 19 1 13 0;
#X connect 20 0 11 1;
#X restore 83 206 pd poly;
#X obj 291 152 route gain panic mono last;
#X obj 88 488 clone ./datavoice~ 10;
#X obj 276 106 iem_prepend mwheel;
#X obj 236 418 iem_prepend pbend;
#X obj 231 467 iem_prepend all;
#X obj 75 102 demultiplex;
#X obj 244 586 demultiplex;
#X obj 206 7 declare -lib zexy -lib iemlib;
#X msg 332 203 stop;
#X msg 326 242 clear;
#X obj 367 177 b;
#X connect 0 0 19 0;
#X connect 1 0 29 0;
#X connect 4 0 20 1;
#X connect 4 0 25 1;
#X connect 6 0 22 0;
#X connect 8 0 26 0;
#X connect 9 0 28 0;
#X connect 11 0 27 0;
#X connect 12 0 13 0;
#X connect 13 0 7 0;
#X connect 14 1 16 0;
#X connect 15 0 27 0;
#X connect 16 0 32 0;
#X connect 16 1 11 3;
#X connect 17 0 18 0;
#X connect 18 0 11 3;
#X connect 19 0 31 0;
#X connect 19 1 18 1;
#X connect 20 0 21 0;
#X connect 20 1 6 0;
#X connect 20 2 23 0;
#X connect 21 0 11 0;
#X connect 21 1 11 1;
#X connect 22 0 11 2;
#X connect 23 0 15 0;
#X connect 24 0 27 0;
#X connect 25 0 23 1;
#X connect 25 0 11 0;
#X connect 25 1 11 1;
#X connect 25 2 6 0;
#X connect 25 3 15 0;
#X connect 26 0 13 1;
#X connect 26 1 34 0;
#X connect 26 1 24 0;
#X connect 26 1 35 0;
#X connect 26 2 31 1;
#X connect 26 2 36 0;
#X connect 26 3 25 2;
#X connect 26 3 32 1;
#X connect 26 4 30 0;
#X connect 27 0 12 0;
#X connect 27 1 14 0;
#X connect 28 0 30 0;
#X connect 29 0 30 0;
#X connect 30 0 27 1;
#X connect 31 0 25 0;
#X connect 31 1 20 0;
#X connect 32 0 17 0;
#X connect 32 1 11 3;
#X connect 34 0 20 0;
#X connect 34 0 25 3;
#X connect 35 0 30 0;
#X connect 36 0 34 0;
