#N canvas 313 23 720 843 10;
#X declare -stdlib iemmatrix;
#X obj 144 26 inlet;
#X obj 235 32 inlet;
#X obj 213 536 mtof~;
#X obj 353 533 noise~;
#X obj 250 644 *~ 2;
#X obj 254 664 wrap~;
#X obj 251 684 cos~;
#X obj 206 725 mtx_*~ 1 5 10;
#X obj 212 201 line~;
#X obj 282 222 line~;
#X obj 344 633 mtx_sum;
#X obj 206 755 /~ 1;
#X obj 481 26 declare -stdlib iemmatrix;
#X obj 396 929 outlet~;
#X obj 121 282 line~;
#X obj 200 514 +~ 0;
#X obj 198 483 +~ 60;
#X obj 150 141 - 60;
#X obj 250 522 +~ 0.5;
#X obj 384 902 bob~;
#X obj 412 606 mtof~;
#X obj 492 689 *~ 2;
#X obj 496 709 wrap~;
#X obj 493 729 cos~;
#X obj 448 770 mtx_*~ 1 5 10;
#X obj 540 742 mtx_sum;
#X obj 448 800 /~ 1;
#X obj 410 586 +~ 0;
#X obj 403 559 +~ 60;
#X obj 481 604 +~ 0.5;
#N canvas 302 290 450 300 env1 0;
#X obj 75 52 inlet;
#X obj 285 52 inlet;
#X obj 218 91 route attack decay sustain release;
#X obj 269 264 outlet~;
#X obj 169 228 shadylib/neadsr~ 10 10 0.5 1000;
#X connect 0 0 4 0;
#X connect 1 0 2 0;
#X connect 2 0 4 1;
#X connect 2 1 4 2;
#X connect 2 2 4 3;
#X connect 2 3 4 4;
#X connect 4 0 3 0;
#X restore 296 158 pd env1;
#N canvas 0 23 450 300 env2 0;
#X obj 75 52 inlet;
#X obj 285 52 inlet;
#X obj 269 264 outlet~;
#X obj 218 91 route attack decay sustain release;
#X obj 185 224 shadylib/neadsr~ 10 10 0.5 1000;
#X connect 0 0 4 0;
#X connect 1 0 3 0;
#X connect 3 0 4 1;
#X connect 3 1 4 2;
#X connect 3 2 4 3;
#X connect 3 3 4 4;
#X connect 4 0 2 0;
#X restore 365 159 pd env2;
#N canvas 32 23 696 625 lfo1 0;
#X obj 187 15 inlet~;
#X obj 244 15 inlet;
#X obj 246 577 outlet~;
#X obj 187 294 phasor~;
#X obj 187 45 mtof~;
#X obj 272 392 sel 0 1;
#X msg 272 435 1;
#X msg 300 435 0;
#X msg 328 435 0.5;
#X msg 208 225 0.5 \$1;
#X obj 208 250 /;
#X obj 187 367 min~ 0.5;
#X obj 199 201 sel 0 1;
#X obj 238 252 expr .5/(1 - $f1);
#X obj 187 344 *~ 1;
#X obj 217 323 *~ 1;
#X obj 238 275 - 0.5;
#X obj 217 394 max~ 0;
#X obj 360 15 inlet;
#X obj 360 130 spigot;
#X obj 360 105 bangif != 0;
#X obj 360 155 f;
#X obj 217 344 -~ 0.5;
#X obj 187 427 +~ 0;
#X obj 454 83 clip 0 1;
#X obj 241 488 shadylib/multatord~ 1 0 0;
#X obj 232 97 * 0.122312;
#X obj 194 131 *~ 0;
#X obj 244 44 route bfreq wav polar pw retrig phase offset noise;
#X obj 500 364 dsrand~;
#X obj 364 308 moses 4;
#X msg 374 328 0;
#X obj 245 519 zexy/multiplex~ wav noise;
#X obj 426 453 zexy/multiplex~ sh lin cos;
#X msg 401 332 1;
#X obj 490 422 linterp~;
#X obj 556 429 cosinterp~;
#X obj 422 486 scaler~ 1 0;
#X obj 270 540 lop~ 300;
#X connect 0 0 4 0;
#X connect 1 0 28 0;
#X connect 3 0 14 0;
#X connect 3 0 15 0;
#X connect 3 0 29 0;
#X connect 3 0 35 0;
#X connect 3 0 36 0;
#X connect 4 0 27 0;
#X connect 5 0 6 0;
#X connect 5 0 7 0;
#X connect 5 1 8 0;
#X connect 6 0 25 1;
#X connect 6 0 37 1;
#X connect 7 0 25 2;
#X connect 7 0 37 2;
#X connect 8 0 25 1;
#X connect 8 0 25 2;
#X connect 8 0 37 2;
#X connect 8 0 37 1;
#X connect 9 0 10 0;
#X connect 10 0 14 1;
#X connect 11 0 23 0;
#X connect 12 2 9 0;
#X connect 12 2 13 0;
#X connect 13 0 15 1;
#X connect 13 0 16 0;
#X connect 14 0 11 0;
#X connect 15 0 22 0;
#X connect 16 0 22 1;
#X connect 17 0 23 0;
#X connect 18 0 20 0;
#X connect 19 0 21 0;
#X connect 20 0 19 0;
#X connect 21 0 3 1;
#X connect 22 0 17 0;
#X connect 23 0 25 0;
#X connect 24 0 23 1;
#X connect 25 0 32 0;
#X connect 26 0 27 1;
#X connect 27 0 3 0;
#X connect 28 0 26 0;
#X connect 28 1 30 0;
#X connect 28 2 5 0;
#X connect 28 3 12 0;
#X connect 28 4 19 1;
#X connect 28 5 21 1;
#X connect 28 6 24 0;
#X connect 28 7 33 0;
#X connect 29 0 35 1;
#X connect 29 0 36 1;
#X connect 29 0 33 0;
#X connect 29 1 35 2;
#X connect 29 1 36 2;
#X connect 30 0 31 0;
#X connect 30 0 25 3;
#X connect 30 1 34 0;
#X connect 31 0 32 0;
#X connect 32 0 38 0;
#X connect 33 0 37 0;
#X connect 34 0 32 0;
#X connect 35 0 33 1;
#X connect 36 0 33 2;
#X connect 37 0 32 1;
#X connect 38 0 2 0;
#X restore 310 356 pd lfo1;
#X obj 252 293 mtx_*~ 2 5 10 ----;
#X obj 374 803 mtof~;
#N canvas 0 23 576 380 mul1--------- 0;
#X obj 36 26 inlet~;
#X obj 88 22 inlet~;
#X obj 147 25 inlet~;
#X obj 199 21 inlet~;
#X obj 249 22 inlet~;
#X obj 301 18 inlet~;
#X obj 360 21 inlet~;
#X obj 412 17 inlet;
#X obj 263 273 outlet~;
#X obj 125 123 zexy/multiplex~ . . . . . . .;
#X obj 319 140 zexy/multiplex~ . . . . . . .;
#X obj 270 226 *~;
#X obj 412 50 route src1 src2;
#X connect 0 0 9 0;
#X connect 0 0 10 0;
#X connect 1 0 9 1;
#X connect 1 0 10 1;
#X connect 2 0 9 2;
#X connect 2 0 10 2;
#X connect 3 0 9 3;
#X connect 3 0 10 3;
#X connect 4 0 9 4;
#X connect 4 0 10 4;
#X connect 5 0 9 5;
#X connect 5 0 10 5;
#X connect 6 0 9 6;
#X connect 6 0 10 6;
#X connect 7 0 12 0;
#X connect 9 0 11 0;
#X connect 10 0 11 1;
#X connect 11 0 8 0;
#X connect 12 0 9 0;
#X connect 12 1 10 0;
#X restore 301 385 pd mul1---------;
#N canvas 0 23 576 380 mul2--------- 0;
#X obj 36 26 inlet~;
#X obj 88 22 inlet~;
#X obj 147 25 inlet~;
#X obj 199 21 inlet~;
#X obj 249 22 inlet~;
#X obj 301 18 inlet~;
#X obj 360 21 inlet~;
#X obj 495 26 inlet;
#X obj 263 273 outlet~;
#X obj 270 226 *~;
#X obj 319 140 zexy/multiplex~ . . . . . . . .;
#X obj 409 25 inlet~;
#X obj 125 123 zexy/multiplex~ . . . . . . . .;
#X obj 483 61 route src1 src2;
#X connect 0 0 10 0;
#X connect 0 0 12 0;
#X connect 1 0 10 1;
#X connect 1 0 12 1;
#X connect 2 0 10 2;
#X connect 2 0 12 2;
#X connect 3 0 10 3;
#X connect 3 0 12 3;
#X connect 4 0 10 4;
#X connect 4 0 12 4;
#X connect 5 0 10 5;
#X connect 5 0 12 5;
#X connect 6 0 10 6;
#X connect 6 0 12 6;
#X connect 7 0 13 0;
#X connect 9 0 8 0;
#X connect 10 0 9 1;
#X connect 11 0 10 7;
#X connect 11 0 12 7;
#X connect 12 0 9 0;
#X connect 13 0 12 0;
#X connect 13 1 10 0;
#X restore 245 418 pd mul2---------;
#X obj 302 813 *~;
#X obj 427 823 *~;
#X obj 351 655 max 1;
#X obj 543 764 max 1;
#N canvas 330 135 696 712 lfo2 1;
#X obj 187 25 inlet~;
#X obj 244 25 inlet;
#X obj 248 608 outlet~;
#X obj 360 25 inlet;
#X obj 187 304 phasor~;
#X obj 187 55 mtof~;
#X obj 272 402 sel 0 1;
#X msg 272 445 1;
#X msg 300 445 0;
#X msg 328 445 0.5;
#X msg 208 235 0.5 \$1;
#X obj 208 260 /;
#X obj 187 377 min~ 0.5;
#X obj 199 211 sel 0 1;
#X obj 238 262 expr .5/(1 - $f1);
#X obj 187 354 *~ 1;
#X obj 217 333 *~ 1;
#X obj 238 285 - 0.5;
#X obj 217 404 max~ 0;
#X obj 360 140 spigot;
#X obj 360 115 bangif != 0;
#X obj 360 165 f;
#X obj 217 354 -~ 0.5;
#X obj 187 437 +~ 0;
#X obj 454 93 clip 0 1;
#X obj 241 498 shadylib/multatord~ 1 0 0;
#X obj 232 107 * 0.122312;
#X obj 194 141 *~ 0;
#X obj 244 54 route bfreq wav polar pw retrig phase offset noise;
#X obj 500 374 dsrand~;
#X obj 364 318 moses 4;
#X msg 374 338 0;
#X obj 245 529 zexy/multiplex~ wav noise;
#X obj 426 463 zexy/multiplex~ sh lin cos;
#X msg 401 342 1;
#X obj 490 432 linterp~;
#X obj 556 439 cosinterp~;
#X obj 413 494 scaler~ 1 0;
#X obj 245 565 lop~ 300;
#X connect 0 0 5 0;
#X connect 1 0 28 0;
#X connect 3 0 20 0;
#X connect 4 0 15 0;
#X connect 4 0 16 0;
#X connect 4 0 29 0;
#X connect 4 0 35 0;
#X connect 4 0 36 0;
#X connect 5 0 27 0;
#X connect 6 0 7 0;
#X connect 6 0 8 0;
#X connect 6 1 9 0;
#X connect 7 0 25 1;
#X connect 7 0 37 1;
#X connect 8 0 25 2;
#X connect 8 0 37 2;
#X connect 9 0 25 1;
#X connect 9 0 25 2;
#X connect 9 0 37 1;
#X connect 9 0 37 2;
#X connect 10 0 11 0;
#X connect 11 0 15 1;
#X connect 12 0 23 0;
#X connect 13 2 10 0;
#X connect 13 2 14 0;
#X connect 14 0 16 1;
#X connect 14 0 17 0;
#X connect 15 0 12 0;
#X connect 16 0 22 0;
#X connect 17 0 22 1;
#X connect 18 0 23 0;
#X connect 19 0 21 0;
#X connect 20 0 19 0;
#X connect 21 0 4 1;
#X connect 22 0 18 0;
#X connect 23 0 25 0;
#X connect 24 0 23 1;
#X connect 25 0 32 0;
#X connect 26 0 27 1;
#X connect 27 0 4 0;
#X connect 28 0 26 0;
#X connect 28 1 30 0;
#X connect 28 2 6 0;
#X connect 28 3 13 0;
#X connect 28 4 19 1;
#X connect 28 5 21 1;
#X connect 28 6 24 0;
#X connect 28 7 33 0;
#X connect 29 0 35 1;
#X connect 29 0 36 1;
#X connect 29 0 33 0;
#X connect 29 1 35 2;
#X connect 29 1 36 2;
#X connect 30 0 31 0;
#X connect 30 0 25 3;
#X connect 30 1 34 0;
#X connect 31 0 32 0;
#X connect 32 0 2 0;
#X connect 33 0 37 0;
#X connect 34 0 32 0;
#X connect 35 0 33 1;
#X connect 36 0 33 2;
#X connect 37 0 32 1;
#X connect 38 0 2 0;
#X restore 409 357 pd lfo2;
#X obj 201 618 shadylib/blsasqri~;
#X obj 443 663 shadylib/blsasqri~;
#X obj 26 435 iemlib/iem_prepend matrix 1 5;
#X obj 407 438 iemlib/iem_prepend matrix 1 5;
#X obj 127 234 spigot;
#X obj 134 211 pack f 0 f;
#X msg 122 258 \$3 \, \$1 \$2;
#X obj 221 172 pack f 10;
#X obj 271 200 pack f 10;
#X obj 355 558 vcf~;
#X obj 565 650 vcf~;
#X obj 297 684 *~ 1;
#X obj 537 722 *~ 1;
#X obj 616 698 max 0.5;
#X obj 541 526 clip 0.5 100;
#X obj 357 592 vcf~;
#X obj 566 677 vcf~;
#X obj 432 177 line 0.5;
#X obj 521 189 line 0.5;
#X obj 429 150 pack f 50;
#X obj 518 163 pack f 50;
#X obj 372 843 min~ 17700;
#X obj 150 105 unpack f f f;
#X obj 64 383 snapshot~;
#X obj 531 912 outlet;
#X obj 182 167 - 60;
#X obj 99 402 + 60;
#X obj 44 193 sel 0;
#X msg 82 231 1;
#X obj 42 256 spigot 1;
#X msg 54 228 0;
#X obj 12 200 b;
#X msg 27 280 0;
#X obj 22 323 zexy/nop;
#X obj 13 162 spigot;
#X obj 140 537 pack f f;
#X msg 133 474 0;
#X msg 160 471 1;
#X obj 125 505 swap 0;
#X obj 211 561 +~ 0;
#X obj 417 636 +~ 0;
#X obj 212 457 mtx_*~ 8 9 10 ----;
#N canvas 436 53 542 363 upsample_ring 0;
#X obj 125 62 inlet~;
#X obj 374 63 inlet~;
#X obj 274 71 loadbang;
#X obj 281 98 samplerate~;
#X obj 227 233 iemlib/lp4_butt~;
#X obj 230 190 *~;
#X obj 226 272 outlet~;
#X obj 53 160 block~ 128 1 2;
#X obj 128 116 iemlib/lp4_butt~;
#X obj 257 157 iemlib/lp4_butt~;
#X obj 280 119 * 0.2;
#X connect 0 0 8 0;
#X connect 1 0 9 0;
#X connect 2 0 3 0;
#X connect 3 0 10 0;
#X connect 4 0 6 0;
#X connect 5 0 4 0;
#X connect 8 0 5 0;
#X connect 9 0 5 1;
#X connect 10 0 8 1;
#X connect 10 0 9 1;
#X connect 10 0 4 1;
#X restore 178 822 pd upsample_ring;
#X obj 246 879 *~;
#X obj 330 874 cyclone/svf~;
#X obj 337 801 +~ 0;
#X obj 337 771 *~ 0;
#X obj 341 826 mtof~;
#X obj 97 69 route getpitch;
#X msg 536 816 clear;
#X obj 235 58 route env1 env2 lfo1 lfo2 bmidi pbend mwheel porta lfo_mtx
sig_mtx wav_mtx1 wav_mtx2 pw1 pw2 bmidi1 bmidi2 bfmidi bres mul1 mul2
noiseq1 noiseq2 legato bhz1 bhz2 bhfmidi bhktrk bhq clear;
#X obj 399 713 line~;
#X obj 372 778 +~;
#X obj 397 682 pack f 50;
#X connect 0 0 90 0;
#X connect 1 0 92 0;
#X connect 2 0 81 0;
#X connect 3 0 51 0;
#X connect 3 0 52 0;
#X connect 4 0 5 0;
#X connect 5 0 6 0;
#X connect 6 0 7 4;
#X connect 7 0 11 0;
#X connect 7 0 84 0;
#X connect 8 0 33 2;
#X connect 8 0 35 1;
#X connect 8 0 36 1;
#X connect 8 0 83 2;
#X connect 9 0 35 2;
#X connect 9 0 36 2;
#X connect 9 0 33 3;
#X connect 9 0 83 3;
#X connect 10 0 39 0;
#X connect 11 0 37 0;
#X connect 14 0 33 1;
#X connect 14 0 35 0;
#X connect 14 0 36 0;
#X connect 14 0 65 0;
#X connect 14 0 83 1;
#X connect 14 0 88 0;
#X connect 15 0 2 0;
#X connect 16 0 15 0;
#X connect 17 0 47 0;
#X connect 18 0 42 1;
#X connect 19 0 13 0;
#X connect 20 0 82 0;
#X connect 21 0 22 0;
#X connect 22 0 23 0;
#X connect 23 0 24 4;
#X connect 24 0 26 0;
#X connect 24 0 84 1;
#X connect 25 0 40 0;
#X connect 26 0 38 1;
#X connect 27 0 20 0;
#X connect 28 0 27 0;
#X connect 29 0 43 1;
#X connect 30 0 35 3;
#X connect 30 0 36 3;
#X connect 30 0 33 4;
#X connect 30 0 83 4;
#X connect 31 0 33 5;
#X connect 31 0 35 4;
#X connect 31 0 36 4;
#X connect 31 0 83 5;
#X connect 32 0 35 5;
#X connect 32 0 36 5;
#X connect 32 0 83 6;
#X connect 33 0 32 0;
#X connect 33 1 41 0;
#X connect 34 0 63 0;
#X connect 35 0 36 7;
#X connect 35 0 83 8;
#X connect 36 0 83 9;
#X connect 37 0 86 0;
#X connect 38 0 86 0;
#X connect 39 0 11 1;
#X connect 40 0 26 1;
#X connect 41 0 35 6;
#X connect 41 0 36 6;
#X connect 41 0 83 7;
#X connect 42 0 7 1;
#X connect 42 1 7 2;
#X connect 42 2 7 3;
#X connect 42 3 4 0;
#X connect 43 0 24 1;
#X connect 43 1 24 2;
#X connect 43 2 24 3;
#X connect 43 3 21 0;
#X connect 44 0 7 0;
#X connect 45 0 24 0;
#X connect 46 0 48 0;
#X connect 47 0 46 0;
#X connect 48 0 14 0;
#X connect 49 0 8 0;
#X connect 50 0 9 0;
#X connect 51 0 57 0;
#X connect 52 0 58 0;
#X connect 53 0 7 5;
#X connect 54 0 24 5;
#X connect 55 0 54 1;
#X connect 56 0 53 1;
#X connect 57 0 53 0;
#X connect 58 0 54 0;
#X connect 59 0 18 1;
#X connect 60 0 29 1;
#X connect 61 0 59 0;
#X connect 62 0 60 0;
#X connect 63 0 19 1;
#X connect 64 0 17 0;
#X connect 64 1 32 2;
#X connect 64 1 41 2;
#X connect 64 1 46 1;
#X connect 64 1 69 0;
#X connect 64 2 67 0;
#X connect 65 0 68 0;
#X connect 67 0 47 2;
#X connect 68 0 80 0;
#X connect 69 0 70 0;
#X connect 69 0 74 0;
#X connect 69 0 78 0;
#X connect 69 1 71 0;
#X connect 69 1 79 0;
#X connect 70 0 71 1;
#X connect 71 0 75 0;
#X connect 71 0 76 0;
#X connect 72 0 71 1;
#X connect 73 0 72 0;
#X connect 74 0 75 0;
#X connect 75 0 30 0;
#X connect 75 0 31 0;
#X connect 76 0 73 0;
#X connect 77 0 66 0;
#X connect 78 0 80 1;
#X connect 79 0 80 1;
#X connect 80 0 77 0;
#X connect 80 1 77 1;
#X connect 81 0 42 0;
#X connect 81 0 51 1;
#X connect 81 0 57 1;
#X connect 82 0 43 0;
#X connect 82 0 52 1;
#X connect 82 0 58 1;
#X connect 83 0 16 0;
#X connect 83 1 18 0;
#X connect 83 2 28 0;
#X connect 83 3 29 0;
#X connect 83 4 94 0;
#X connect 83 5 37 1;
#X connect 83 6 38 0;
#X connect 83 7 85 1;
#X connect 84 0 85 0;
#X connect 85 0 86 0;
#X connect 86 1 19 0;
#X connect 87 0 89 0;
#X connect 88 0 87 0;
#X connect 89 0 86 1;
#X connect 90 0 65 0;
#X connect 90 1 64 0;
#X connect 91 0 86 0;
#X connect 92 0 30 1;
#X connect 92 1 31 1;
#X connect 92 2 32 1;
#X connect 92 3 41 1;
#X connect 92 4 16 1;
#X connect 92 4 17 1;
#X connect 92 4 28 1;
#X connect 92 4 67 1;
#X connect 92 4 68 1;
#X connect 92 5 49 0;
#X connect 92 6 50 0;
#X connect 92 7 47 1;
#X connect 92 8 33 0;
#X connect 92 9 83 0;
#X connect 92 10 10 0;
#X connect 92 10 44 0;
#X connect 92 11 25 0;
#X connect 92 11 45 0;
#X connect 92 12 61 0;
#X connect 92 13 62 0;
#X connect 92 14 15 1;
#X connect 92 15 27 1;
#X connect 92 16 95 0;
#X connect 92 17 19 2;
#X connect 92 18 35 7;
#X connect 92 19 36 8;
#X connect 92 20 51 2;
#X connect 92 20 57 2;
#X connect 92 20 56 0;
#X connect 92 21 52 2;
#X connect 92 21 58 2;
#X connect 92 21 55 0;
#X connect 92 22 76 1;
#X connect 92 23 81 1;
#X connect 92 24 82 1;
#X connect 92 25 87 1;
#X connect 92 26 88 1;
#X connect 92 27 86 2;
#X connect 92 28 91 0;
#X connect 93 0 94 1;
#X connect 94 0 34 0;
#X connect 95 0 93 0;
