#N canvas 180 26 1207 852 10;
#X declare -stdpath iemgui -stdlib iemmatrix;
#X msg 390 102 numberbox_matrix 8 9 5 14 -3.40282e+38 3.40282e+38 0
empty empty #000000 3 14;
#X obj -224 1 inlet;
#X obj 100 203 cnv 15 685 538 empty empty Datalogue_Editor_V1 5 12
0 14 -4032 -4160 0;
#X obj 187 607 cnv 15 63 14 empty empty Key_Trk 2 8 0 12 -31361 -257985
0;
#X obj 251 607 cnv 15 63 14 empty empty PitchBend 2 8 0 12 -31361 -257985
0;
#X obj 315 607 cnv 15 63 14 empty empty ModWheel 2 8 0 12 -31361 -257985
0;
#X obj 379 607 cnv 15 63 14 empty empty Env_1 2 8 0 12 -31361 -257985
0;
#X obj 443 607 cnv 15 63 14 empty empty Env_2 2 8 0 12 -31361 -257985
0;
#X obj 507 607 cnv 15 63 14 empty empty LFO_1 2 8 0 12 -31361 -257985
0;
#X obj 571 607 cnv 15 63 14 empty empty LFO_2 2 8 0 12 -31361 -257985
0;
#X obj 635 607 cnv 15 63 14 empty empty Mult_1 2 8 0 12 -31361 -257985
0;
#X obj 699 607 cnv 15 63 14 empty empty Mult_2 2 8 0 12 -31361 -257985
0;
#X obj 106 622 cnv 15 80 13 empty empty Osc_1_Pitch 2 8 0 12 -31361
-257985 0;
#X obj 106 636 cnv 15 80 13 empty empty Osc_1_PW 2 8 0 12 -31361 -257985
0;
#X obj 106 650 cnv 15 80 13 empty empty Osc_2_Pitch 2 8 0 12 -31361
-257985 0;
#X obj 106 664 cnv 15 80 13 empty empty Osc_2_PW 2 8 0 12 -31361 -257985
0;
#X obj 106 678 cnv 15 80 13 empty empty LPF_MIDI 2 8 0 12 -31361 -257985
0;
#X obj 106 692 cnv 15 80 13 empty empty VCA_Osc1 2 8 0 12 -31361 -257985
0;
#X obj 106 706 cnv 15 80 13 empty empty VCA_Osc2 2 8 0 12 -31361 -257985
0;
#X obj 106 586 cnv 15 180 20 empty empty Signal_Routing 2 10 0 15 -18561
-4160 0;
#X floatatom 115 376 5 0 0 1 LPF_MIDI_Note #0-bfmidi #0-bfmidis;
#X obj 256 375 hsl 80 15 0 4 0 0 \$0-bress \$0-bres LPF_Resonance 2
8 0 10 -4160 -260097 -204786 3300 1;
#X obj 471 228 cnv 15 145 141 empty empty Mult_1 20 12 0 14 -4160 -4034
0;
#X obj 476 260 vradio 15 1 0 7 \$0-mul1src1s \$0-mul1src1 source1 -5
-8 0 10 -262144 -1 -257985 0;
#X obj 524 260 vradio 15 1 0 7 \$0-mul1src2s \$0-mul1src2 source2 -5
-8 0 10 -262144 -1 -257985 0;
#X obj 544 260 cnv 15 63 14 empty empty Key_Trk 2 8 0 12 -31361 -257985
0;
#X obj 544 275 cnv 15 63 14 empty empty PitchBend 2 8 0 12 -31361 -257985
0;
#X obj 544 290 cnv 15 63 14 empty empty ModWheel 2 8 0 12 -31361 -257985
0;
#X obj 544 305 cnv 15 63 14 empty empty Env_1 2 8 0 12 -31361 -257985
0;
#X obj 544 320 cnv 15 63 14 empty empty Env_2 2 8 0 12 -31361 -257985
0;
#X obj 544 334 cnv 15 63 14 empty empty LFO_1 2 8 0 12 -31361 -257985
0;
#X obj 544 349 cnv 15 63 14 empty empty LFO_2 2 8 0 12 -31361 -257985
0;
#X obj 625 214 cnv 15 145 155 empty empty Mult_2 20 12 0 14 -4160 -4034
0;
#X obj 630 246 vradio 15 1 0 8 \$0-mul2src1s \$0-mul2src1 source1 -5
-8 0 10 -262144 -1 -257985 0;
#X obj 678 246 vradio 15 1 0 8 \$0-mul2src2s \$0-mul2src2 source2 -5
-8 0 10 -262144 -1 -257985 0;
#X obj 698 246 cnv 15 63 14 empty empty Key_Trk 2 8 0 12 -31361 -257985
0;
#X obj 698 261 cnv 15 63 14 empty empty PitchBend 2 8 0 12 -31361 -257985
0;
#X obj 698 276 cnv 15 63 14 empty empty ModWheel 2 8 0 12 -31361 -257985
0;
#X obj 698 291 cnv 15 63 14 empty empty Env_1 2 8 0 12 -31361 -257985
0;
#X obj 698 306 cnv 15 63 14 empty empty Env_2 2 8 0 12 -31361 -257985
0;
#X obj 698 320 cnv 15 63 14 empty empty LFO_1 2 8 0 12 -31361 -257985
0;
#X obj 698 335 cnv 15 63 14 empty empty LFO_2 2 8 0 12 -31361 -257985
0;
#X obj 698 350 cnv 15 63 14 empty empty Mult_1 2 8 0 12 -31361 -257985
0;
#X obj 105 229 cnv 15 120 141 empty empty Osc1_Waves 20 12 0 14 -159808
-232576 0;
#X obj 109 262 vsl 15 102 0 1 0 0 \$0-osc1saws \$0-osc1saw saw 0 -9
0 10 -4160 -4032 -4032 10100 1;
#X obj 129 262 vsl 15 102 0 1 0 0 \$0-osc1sqrs \$0-osc1sqr sqr 0 -9
0 10 -258113 -257985 -4032 0 1;
#X obj 150 262 vsl 15 102 0 1 0 0 \$0-osc1tris \$0-osc1tri tri 0 -9
0 10 -257985 -30401 -4032 0 1;
#X obj 171 262 vsl 15 102 0 1 0 0 \$0-osc1sins \$0-osc1sin sin 0 -9
0 10 -27201 -4160 -4032 0 1;
#X obj 191 262 vsl 15 102 0 1 0 0 \$0-osc1noises \$0-osc1noise noise
0 -9 0 10 -262144 -159808 -4032 0 1;
#X msg 513 59 numberbox_matrix 2 5 5 14 -3.40282e+38 3.40282e+38 0
empty empty #000000 3 14;
#X obj 106 396 cnv 15 180 20 empty empty LFO_Freq_Routing 2 10 0 15
-18561 -4160 0;
#X obj 106 432 cnv 15 73 14 empty empty LFO_1_Freq 2 8 0 12 -31361
-257985 0;
#X obj 106 447 cnv 15 73 14 empty empty LFO_2_Freq 2 8 0 12 -31361
-257985 0;
#X obj 180 417 cnv 15 63 14 empty empty Key_Trk 2 8 0 12 -31361 -257985
0;
#X obj 244 417 cnv 15 63 14 empty empty PitchBend 2 8 0 12 -31361 -257985
0;
#X obj 308 417 cnv 15 63 14 empty empty ModWheel 2 8 0 12 -31361 -257985
0;
#X obj 372 417 cnv 15 63 14 empty empty Env_1 2 8 0 12 -31361 -257985
0;
#X obj 436 417 cnv 15 63 14 empty empty Env_2 2 8 0 12 -31361 -257985
0;
#X obj 662 402 cnv 15 120 96 empty empty Env1 5 8 0 14 -260097 -4160
0;
#X obj 355 215 cnv 15 110 85 empty empty empty 20 12 0 14 -257985 -66577
0;
#X obj 362 260 hsl 80 15 0 1 0 0 \$0-pw1s \$0-pw1 Osc_1_PW 10 8 0 10
-159808 -4034 -262144 3950 1;
#X floatatom 359 219 5 0 0 1 Tune_Osc1 #0-bmidi1 #0-bmidi1s;
#X obj 231 229 cnv 15 120 141 empty empty Osc2_Waves 20 12 0 14 -159808
-232576 0;
#X obj 195 29 declare -stdpath iemgui -stdlib iemmatrix;
#X obj 187 622 numberbox_matrix 8 9 5 14 -3.40282e+38 3.40282e+38 0
empty empty #000000 0 14;
#X obj 180 432 numberbox_matrix 2 5 5 14 -3.40282e+38 3.40282e+38 0
empty empty #000000 0 14;
#X obj 106 473 cnv 15 275 110 empty empty LFO_1 5 10 0 14 -36034 -159808
0;
#X floatatom 188 477 5 0 0 1 Base_Freq #0-lfo1bfreq #0-lfo1bfreqs;
#X obj 112 505 vradio 15 1 0 5 \$0-lfo1wavs \$0-lfo1wav wave 0 -8 0
10 -1 -4032 -4160 0;
#X obj 128 505 cnv 15 63 14 empty empty Sine 2 8 0 12 -4160 -257985
0;
#X obj 128 520 cnv 15 63 14 empty empty Square 2 8 0 12 -4160 -257985
0;
#X obj 128 535 cnv 15 63 14 empty empty Triangle 2 8 0 12 -4160 -257985
0;
#X obj 128 550 cnv 15 63 14 empty empty Sawtooth 2 8 0 12 -4160 -257985
0;
#X obj 196 527 vradio 15 1 0 2 \$0-lfo1polars \$0-lfo1polar polarity
0 -8 0 10 -1 -4032 -4160 0;
#X obj 212 527 cnv 15 63 14 empty empty bipolar 2 8 0 12 -4160 -257985
0;
#X obj 212 542 cnv 15 63 14 empty empty unipolar 2 8 0 12 -4160 -257985
0;
#X obj 289 524 hsl 80 15 0 1 0 0 \$0-lfo1pws \$0-lfo1pw Pulse_Width
10 8 0 10 -1 -260097 -4032 3950 1;
#X obj 355 313 cnv 15 110 85 empty empty empty 22 12 0 14 -257985 -66577
0;
#X obj 362 359 hsl 80 15 0 1 0 0 \$0-pw2s \$0-pw2 Osc_2_PW 10 8 0 10
-159808 -4034 -262144 3950 1;
#X floatatom 359 317 5 0 0 1 Tune_Osc_2 #0-bmidi2 #0-bmidi2s;
#X obj 197 497 tgl 15 0 \$0-lfo1retrigs \$0-lfo1retrig Reset_Phase
17 7 0 10 -1 -4032 -1 0 1;
#X obj 289 480 hsl 80 15 0 1 0 0 \$0-lfo1phases \$0-lfo1phase Phase
10 8 0 10 -1 -260097 -4032 0 1;
#X obj 289 548 hsl 80 15 0 1 0 0 \$0-lfo1offsets \$0-lfo1offset PW_Offset
10 8 0 10 -1 -260097 -4032 0 1;
#X obj 384 473 cnv 15 275 110 empty empty LFO_2 5 10 0 14 -36034 -159808
0;
#X floatatom 466 477 5 0 0 1 Base_Freq #0-lfo2bfreq #0-lfo2bfreqs;
#X obj 390 505 vradio 15 1 0 5 \$0-lfo2wavs \$0-lfo2wav wave 0 -8 0
10 -1 -4032 -4160 0;
#X obj 406 505 cnv 15 63 14 empty empty Sine 2 8 0 12 -4160 -257985
0;
#X obj 406 520 cnv 15 63 14 empty empty Square 2 8 0 12 -4160 -257985
0;
#X obj 406 535 cnv 15 63 14 empty empty Triangle 2 8 0 12 -4160 -257985
0;
#X obj 406 550 cnv 15 63 14 empty empty Sawtooth 2 8 0 12 -4160 -257985
0;
#X obj 474 529 vradio 15 1 0 2 \$0-lfo2polars \$0-lfo2polar polarity
0 -8 0 10 -1 -4032 -4160 0;
#X obj 490 529 cnv 15 63 14 empty empty bipolar 2 8 0 12 -4160 -257985
0;
#X obj 490 544 cnv 15 63 14 empty empty unipolar 2 8 0 12 -4160 -257985
0;
#X obj 567 524 hsl 80 15 0 1 0 0 \$0-lfo2pws \$0-lfo2pw Pulse_Width
10 8 0 10 -1 -260097 -4032 3950 1;
#X obj 475 499 tgl 15 0 \$0-lfo2retrigs \$0-lfo2retrig Reset_Phase
17 7 0 10 -1 -4032 -1 0 1;
#X obj 567 480 hsl 80 15 0 1 0 0 \$0-lfo2phases \$0-lfo2phase Phase
10 8 0 10 -1 -260097 -4032 0 1;
#X obj 567 548 hsl 80 15 0 1 0 0 \$0-lfo2offsets \$0-lfo2offset PW_Offset
10 8 0 10 -1 -260097 -4032 0 1;
#X floatatom 666 419 6 0 0 1 Attack #0-env1attack #0-env1attacks;
#X floatatom 666 439 6 0 0 1 Decay #0-env1decay #0-env1decays;
#X floatatom 666 479 6 0 0 1 Release #0-env1release #0-env1releases
;
#X obj 669 459 hsl 75 15 0 1 0 0 \$0-env1sustains \$0-env1sustain Sustain
10 8 0 10 -99865 -4034 -262144 3700 1;
#X obj 662 502 cnv 15 120 96 empty empty Env2 5 8 0 14 -260097 -4160
0;
#X floatatom 666 519 6 0 0 1 Attack #0-env2attack #0-env2attacks;
#X floatatom 666 539 6 0 0 1 Decay #0-env2decay #0-env2decays;
#X floatatom 666 579 6 0 0 1 Release #0-env2release #0-env2releases
;
#X obj 669 559 hsl 75 15 0 1 0 0 \$0-env2sustains \$0-env2sustain Sustain
10 8 0 10 -99865 -4034 -262144 3700 1;
#X obj 505 404 cnv 15 153 63 empty empty empty 20 12 0 14 -233017 -66577
0;
#X floatatom 511 448 5 0 0 1 Base_Ktrk_Key #0-bmidi #0-bmidis;
#X floatatom 511 428 5 0 0 1 Portamento #0-porta #0-portas;
#X obj 512 408 tgl 15 0 empty empty Mono 17 7 0 10 -4160 -260097 -16662
0 1;
#X obj -39 863 outlet;
#X obj 608 428 bng 15 250 50 0 empty empty Panic 17 7 0 10 -258113
-1 -258113;
#X obj 552 207 bng 15 250 50 0 empty empty Send_All 17 7 0 10 -262144
-1 -1;
#X obj 235 262 vsl 15 102 0 1 0 0 \$0-osc2saws \$0-osc2saw saw 0 -9
0 10 -4160 -4032 -4032 0 1;
#X obj 255 262 vsl 15 102 0 1 0 0 \$0-osc2sqrs \$0-osc2sqr sqr 0 -9
0 10 -258113 -257985 -4032 0 1;
#X obj 297 262 vsl 15 102 0 1 0 0 \$0-osc2sins \$0-osc2sin sin 0 -9
0 10 -27201 -4160 -4032 0 1;
#X obj 317 262 vsl 15 102 0 1 0 0 \$0-osc2noises \$0-osc2noise noise
0 -9 0 10 -262144 -159808 -4032 0 1;
#N canvas 41 141 400 431 env1route 0;
#X obj 108 50 inlet;
#X obj 124 213 s;
#X obj 156 144 pack s \$0;
#X msg 156 168 symbol \$2-env1\$1;
#X obj 56 147 list split 1;
#X obj 108 99 t l s;
#X obj 104 73 list;
#X obj 100 365 s;
#X obj 133 312 pack s \$0;
#X msg 133 336 symbol \$2-env1\$1;
#X obj 186 218 route attack decay release;
#X obj 63 211 t l f;
#X obj 66 248 list split 1;
#X obj 181 197 list trim;
#X obj 132 291 symbol;
#X obj 106 272 t f b;
#X msg 178 243 symbol alin;
#X msg 228 238 symbol dlin;
#X msg 279 249 symbol rlin;
#X obj 47 180 route list;
#X connect 0 0 6 0;
#X connect 2 0 3 0;
#X connect 3 0 1 1;
#X connect 4 1 19 0;
#X connect 5 0 4 0;
#X connect 5 1 2 0;
#X connect 5 1 13 0;
#X connect 6 0 5 0;
#X connect 8 0 9 0;
#X connect 9 0 7 1;
#X connect 10 0 16 0;
#X connect 10 1 17 0;
#X connect 10 2 18 0;
#X connect 11 0 12 0;
#X connect 11 1 1 0;
#X connect 12 1 15 0;
#X connect 13 0 10 0;
#X connect 14 0 8 0;
#X connect 15 0 7 0;
#X connect 15 1 14 0;
#X connect 16 0 14 1;
#X connect 17 0 14 1;
#X connect 18 0 14 1;
#X connect 19 0 11 0;
#X connect 19 1 1 0;
#X restore -240 152 pd env1route;
#X obj -119 194 s \$0-bmidi;
#X obj -107 112 s \$0-porta;
#X obj 294 399 bng 15 250 50 0 empty empty clr_mtx 17 7 0 10 -262144
-1 -1;
#X obj 294 589 bng 15 250 50 0 empty empty clr_mtx 17 7 0 10 -262144
-1 -1;
#X obj -199 759 iemlib/iem_prepend lfo_mtx;
#X msg -103 391 matrix 2 5 0 0 0 0 0 0 0 0 0 0;
#N canvas 227 397 450 300 wav_mtx1 0;
#X obj 170 49 inlet;
#X obj 84 154 s \$0-osc1saw;
#X obj 169 143 s \$0-osc1sqr;
#X obj 199 212 s \$0-osc1tri;
#X obj 158 86 unpack f f f f f;
#X obj 228 164 s \$0-osc1sin;
#X obj 251 191 s \$0-osc1noise;
#X connect 0 0 4 0;
#X connect 4 0 1 0;
#X connect 4 0 1 0;
#X connect 4 1 2 0;
#X connect 4 1 2 0;
#X connect 4 2 3 0;
#X connect 4 2 3 0;
#X connect 4 3 5 0;
#X connect 4 3 5 0;
#X connect 4 4 6 0;
#X connect 4 4 6 0;
#X restore -68 226 pd wav_mtx1;
#N canvas 227 397 450 300 wav_mtx2 0;
#X obj 170 49 inlet;
#X obj 159 77 unpack f f f f f;
#X obj 79 167 s \$0-osc2saw;
#X obj 159 203 s \$0-osc2sqr;
#X obj 197 251 s \$0-osc2tri;
#X obj 228 164 s \$0-osc2sin;
#X obj 251 191 s \$0-osc2noise;
#X connect 0 0 1 0;
#X connect 1 0 2 0;
#X connect 1 0 2 0;
#X connect 1 1 3 0;
#X connect 1 1 3 0;
#X connect 1 2 4 0;
#X connect 1 2 4 0;
#X connect 1 3 5 0;
#X connect 1 3 5 0;
#X connect 1 4 6 0;
#X connect 1 4 6 0;
#X restore -54 182 pd wav_mtx2;
#X obj 276 262 vsl 15 102 0 1 0 0 \$0-osc2tris \$0-osc2tri tri 0 -9
0 10 -257985 -30401 -4032 0 1;
#X obj -30 114 s \$0-pw1;
#X obj -18 141 s \$0-pw2;
#X obj 27 123 s \$0-bmidi1;
#X obj 51 152 s \$0-bmidi2;
#X obj 68 175 s \$0-bfmidi;
#X obj 107 120 s \$0-bres;
#X obj -11 817 zexy/demultiplex;
#N canvas 29 424 719 300 receivers 0;
#X obj 107 234 outlet;
#N canvas 480 420 558 300 wavs1 0;
#X obj 118 61 r \$0-osc1sqrs;
#X obj 28 63 r \$0-osc1saws;
#X obj 179 258 outlet;
#X obj 388 72 r \$0-osc1noises;
#X obj 304 67 r \$0-osc1sins;
#X obj 214 69 r \$0-osc1tris;
#X obj 103 184 pack f f f f f;
#X obj 165 225 iemlib/iem_prepend wav_mtx1;
#X obj 124 112 t b f;
#X obj 208 114 t b f;
#X obj 301 101 t b f;
#X obj 391 107 t b f;
#X obj 136 19 inlet;
#X connect 0 0 8 0;
#X connect 1 0 6 0;
#X connect 3 0 11 0;
#X connect 4 0 10 0;
#X connect 5 0 9 0;
#X connect 6 0 7 0;
#X connect 7 0 2 0;
#X connect 8 0 6 0;
#X connect 8 1 6 1;
#X connect 9 0 6 0;
#X connect 9 1 6 2;
#X connect 10 0 6 0;
#X connect 10 1 6 3;
#X connect 11 0 6 0;
#X connect 11 1 6 4;
#X connect 12 0 6 0;
#X restore 37 35 pd wavs1;
#N canvas 480 420 558 300 wavs2 0;
#X obj 179 258 outlet;
#X obj 103 184 pack f f f f f;
#X obj 124 112 t b f;
#X obj 208 114 t b f;
#X obj 301 101 t b f;
#X obj 391 107 t b f;
#X obj 28 63 r \$0-osc2saws;
#X obj 118 61 r \$0-osc2sqrs;
#X obj 214 69 r \$0-osc2tris;
#X obj 304 67 r \$0-osc2sins;
#X obj 388 72 r \$0-osc2noises;
#X obj 165 225 iemlib/iem_prepend wav_mtx2;
#X obj 206 27 inlet;
#X connect 1 0 11 0;
#X connect 2 0 1 0;
#X connect 2 1 1 1;
#X connect 3 0 1 0;
#X connect 3 1 1 2;
#X connect 4 0 1 0;
#X connect 4 1 1 3;
#X connect 5 0 1 0;
#X connect 5 1 1 4;
#X connect 6 0 1 0;
#X connect 7 0 2 0;
#X connect 8 0 3 0;
#X connect 9 0 4 0;
#X connect 10 0 5 0;
#X connect 11 0 0 0;
#X connect 12 0 1 0;
#X restore 95 39 pd wavs2;
#N canvas 316 132 653 300 lfo1 0;
#X obj 6 44 r \$0-lfo1bfreqs;
#X obj 107 44 r \$0-lfo1wavs;
#X obj 299 46 r \$0-lfo1pws;
#X obj 198 46 r \$0-lfo1polars;
#X obj 400 46 r \$0-lfo1retrigs;
#X obj 443 85 r \$0-lfo1phases;
#X obj 409 114 r \$0-lfo1offsets;
#X obj 149 225 iemlib/iem_prepend lfo1;
#X obj 153 264 outlet;
#X obj 94 184 shadylib/prepender bfreq wav polar pw retrig phase offset
noise;
#X obj 474 130 r \$0-lfo1noises;
#X connect 0 0 9 0;
#X connect 1 0 9 1;
#X connect 2 0 9 3;
#X connect 3 0 9 2;
#X connect 4 0 9 4;
#X connect 5 0 9 5;
#X connect 6 0 9 6;
#X connect 7 0 8 0;
#X connect 9 0 7 0;
#X connect 10 0 9 7;
#X restore 154 38 pd lfo1;
#X obj 252 45 r \$0-bmidis;
#X obj 328 39 r \$0-portas;
#N canvas 123 23 685 300 env1 0;
#X obj 3 8 r \$0-env1attacks;
#X obj 149 7 r \$0-env1decays;
#X obj 216 97 r \$0-env1sustains;
#X obj 315 16 r \$0-env1releases;
#X obj 127 215 iemlib/iem_prepend env1;
#X obj 135 248 outlet;
#X obj 64 125 pack f f;
#X obj 64 101 swap;
#X obj 53 28 r \$0-env1alins;
#X obj 42 157 shadylib/prepender attack decay sustain release;
#X obj 136 128 pack f f;
#X obj 136 104 swap;
#X obj 154 42 r \$0-env1dlins;
#X obj 340 120 pack f f;
#X obj 339 102 swap;
#X obj 329 46 r \$0-env1rlins;
#X obj 24 70 iemlib/speedlim 2000;
#X obj 122 79 iemlib/speedlim 2000;
#X obj 333 75 iemlib/speedlim 2000;
#X connect 0 0 7 1;
#X connect 0 0 9 0;
#X connect 1 0 9 1;
#X connect 1 0 11 1;
#X connect 2 0 9 2;
#X connect 3 0 9 3;
#X connect 3 0 14 1;
#X connect 4 0 5 0;
#X connect 6 0 9 0;
#X connect 7 0 6 0;
#X connect 7 1 6 1;
#X connect 8 0 16 0;
#X connect 9 0 4 0;
#X connect 10 0 9 1;
#X connect 11 0 10 0;
#X connect 11 1 10 1;
#X connect 12 0 17 0;
#X connect 13 0 9 3;
#X connect 14 0 13 0;
#X connect 14 1 13 1;
#X connect 15 0 18 0;
#X connect 16 0 7 0;
#X connect 17 0 11 0;
#X connect 18 0 14 0;
#X restore 41 79 pd env1;
#N canvas 164 110 653 300 lfo2 0;
#X obj 153 264 outlet;
#X obj 6 44 r \$0-lfo2bfreqs;
#X obj 107 44 r \$0-lfo2wavs;
#X obj 198 46 r \$0-lfo2polars;
#X obj 299 46 r \$0-lfo2pws;
#X obj 400 46 r \$0-lfo2retrigs;
#X obj 415 78 r \$0-lfo2phases;
#X obj 449 128 r \$0-lfo2offsets;
#X obj 149 225 iemlib/iem_prepend lfo2;
#X obj 94 184 shadylib/prepender bfreq wav polar pw retrig phase offset
noise;
#X obj 499 160 r \$0-lfo2noises;
#X connect 1 0 9 0;
#X connect 2 0 9 1;
#X connect 3 0 9 2;
#X connect 4 0 9 3;
#X connect 5 0 9 4;
#X connect 6 0 9 5;
#X connect 7 0 9 6;
#X connect 8 0 0 0;
#X connect 9 0 8 0;
#X connect 10 0 9 7;
#X restore 202 47 pd lfo2;
#N canvas 0 23 450 300 env2 0;
#X obj 135 248 outlet;
#X obj 13 48 r \$0-env2attacks;
#X obj 117 31 r \$0-env2decays;
#X obj 207 111 r \$0-env2sustains;
#X obj 314 44 r \$0-env2releases;
#X obj 127 215 iemlib/iem_prepend env2;
#X obj 42 157 shadylib/prepender attack decay sustain release;
#X obj 64 125 pack f f;
#X obj 64 101 swap;
#X obj 136 128 pack f f;
#X obj 136 104 swap;
#X obj 340 120 pack f f;
#X obj 339 102 swap;
#X obj 144 4 r \$0-env2dlins;
#X obj 33 5 r \$0-env2alins;
#X obj 291 15 r \$0-env2rlins;
#X obj 37 68 iemlib/speedlim 2000;
#X obj 147 50 iemlib/speedlim 2000;
#X obj 297 70 iemlib/speedlim 2000;
#X connect 1 0 6 0;
#X connect 1 0 8 1;
#X connect 2 0 6 1;
#X connect 2 0 10 1;
#X connect 3 0 6 2;
#X connect 4 0 6 3;
#X connect 4 0 12 1;
#X connect 5 0 0 0;
#X connect 6 0 5 0;
#X connect 7 0 6 0;
#X connect 8 0 7 0;
#X connect 8 1 7 1;
#X connect 9 0 6 1;
#X connect 10 0 9 0;
#X connect 10 1 9 1;
#X connect 11 0 6 3;
#X connect 12 0 11 0;
#X connect 12 1 11 1;
#X connect 13 0 17 0;
#X connect 14 0 16 0;
#X connect 15 0 18 0;
#X connect 16 0 8 0;
#X connect 17 0 10 0;
#X connect 18 0 12 0;
#X restore 107 85 pd env2;
#X obj 402 39 r \$0-pw1s;
#X obj 474 36 r \$0-pw2s;
#X obj 546 38 r \$0-bfmidis;
#N canvas 0 23 450 300 muls 0;
#X obj 29 94 shadylib/prepender src1 src2;
#X obj 42 57 r \$0-mul1src1s;
#X obj 135 53 r \$0-mul1src2s;
#X obj 245 62 r \$0-mul2src1s;
#X obj 338 58 r \$0-mul2src2s;
#X obj 86 162 shadylib/prepender mul1 mul2;
#X obj 231 109 shadylib/prepender src1 src2;
#X obj 100 211 outlet;
#X connect 0 0 5 0;
#X connect 1 0 0 0;
#X connect 2 0 0 1;
#X connect 3 0 6 0;
#X connect 4 0 6 1;
#X connect 5 0 7 0;
#X connect 6 0 5 1;
#X restore 168 123 pd muls;
#X obj 632 37 r \$0-bress;
#X obj 548 65 r \$0-bmidi1s;
#X obj 588 100 r \$0-bmidi2s;
#X obj 579 125 r \$0-noiseq1s;
#X obj 611 144 r \$0-noiseq2s;
#X obj 195 16 inlet;
#X obj 643 76 r \$0-gains;
#X obj 565 172 r \$0-bhz1s;
#X obj 635 174 r \$0-bhz2s;
#X obj 443 150 r \$0-bhfmidis;
#X obj 478 185 r \$0-bhktrks;
#X obj 246 224 shadylib/prepender bmidi porta pw1 pw2 bfmidi bres bmidi1
bmidi2 noiseq1 noiseq2 gain bhz1 bhz2 bhfmidi bhktrk bhq;
#X obj 621 202 r \$0-bhqs;
#X connect 1 0 0 0;
#X connect 2 0 0 0;
#X connect 3 0 0 0;
#X connect 4 0 24 0;
#X connect 5 0 24 1;
#X connect 6 0 0 0;
#X connect 7 0 0 0;
#X connect 8 0 0 0;
#X connect 9 0 24 2;
#X connect 10 0 24 3;
#X connect 11 0 24 4;
#X connect 12 0 0 0;
#X connect 13 0 24 5;
#X connect 14 0 24 6;
#X connect 15 0 24 7;
#X connect 16 0 24 8;
#X connect 17 0 24 9;
#X connect 18 0 2 0;
#X connect 18 0 1 0;
#X connect 19 0 24 10;
#X connect 20 0 24 11;
#X connect 21 0 24 12;
#X connect 22 0 24 13;
#X connect 23 0 24 14;
#X connect 24 0 0 0;
#X connect 25 0 24 15;
#X restore 16 701 pd receivers;
#X obj 310 845 outlet;
#X obj 283 67 inlet;
#X obj 277 94 t b b b;
#X msg 208 789 1;
#X msg 160 789 0;
#X obj -21 752 matrix 8 9;
#X obj -13 787 iemlib/iem_prepend sig_mtx;
#X obj 166 768 iemlib/iem_prepend element;
#X obj -209 728 matrix 2 5;
#X obj -179 697 iemlib/iem_prepend element;
#N canvas 181 196 731 611 triglist 0;
#X obj 106 9 inlet;
#X obj 268 578 outlet;
#X obj 455 266 pack s s;
#X msg 449 229 env1;
#X obj 494 185 zexy/drip;
#X obj 483 214 t b s;
#X obj 506 132 t b b b;
#X obj 442 95 t b b;
#X obj 418 131 t b b b;
#X msg 422 240 env2;
#X obj 250 273 pack s s;
#X obj 289 192 zexy/drip;
#X obj 278 221 t b s;
#X obj 301 139 t b b b;
#X obj 237 102 t b b;
#X obj 213 138 t b b b;
#X msg 328 221 symbol bfreq;
#X msg 244 236 lfo1;
#X msg 211 247 lfo2;
#X obj 55 315 pack s s;
#X obj 83 263 t b s;
#X obj 106 181 t b b b;
#X obj 42 144 t b b;
#X obj 18 180 t b b b;
#X msg 49 278 mul1;
#X msg 16 289 mul2;
#X msg 65 232 symbol src1;
#X obj 151 474 outlet;
#X obj 227 357 zexy/drip;
#X msg 133 263 symbol src2;
#X obj 102 31 t b b b b b b;
#X msg 236 168 wav polar pw phase offset noise;
#X msg 563 214 symbol alin;
#X msg 455 156 dlin sustain rlin;
#X msg 202 315 bmidi porta pw1 pw2 bmidi1 bmidi2 bfmidi bres noiseq1
noiseq2 gain bhz1 bhz2 bhfmidi bhktrk bhq;
#X connect 0 0 30 0;
#X connect 2 0 1 0;
#X connect 3 0 2 0;
#X connect 4 0 5 0;
#X connect 5 0 2 0;
#X connect 5 1 2 1;
#X connect 6 0 33 0;
#X connect 6 1 3 0;
#X connect 6 2 32 0;
#X connect 7 0 8 0;
#X connect 7 1 6 0;
#X connect 8 0 33 0;
#X connect 8 1 9 0;
#X connect 8 2 32 0;
#X connect 9 0 2 0;
#X connect 10 0 1 0;
#X connect 11 0 12 0;
#X connect 12 0 10 0;
#X connect 12 1 10 1;
#X connect 13 0 31 0;
#X connect 13 1 17 0;
#X connect 13 2 16 0;
#X connect 14 0 15 0;
#X connect 14 1 13 0;
#X connect 15 0 31 0;
#X connect 15 1 18 0;
#X connect 15 2 16 0;
#X connect 16 0 10 1;
#X connect 17 0 10 0;
#X connect 18 0 10 0;
#X connect 19 0 1 0;
#X connect 20 0 19 0;
#X connect 20 1 19 1;
#X connect 21 0 26 0;
#X connect 21 1 24 0;
#X connect 21 2 29 0;
#X connect 22 0 23 0;
#X connect 22 1 21 0;
#X connect 23 0 26 0;
#X connect 23 1 25 0;
#X connect 23 2 29 0;
#X connect 24 0 19 0;
#X connect 25 0 19 0;
#X connect 26 0 20 0;
#X connect 28 0 1 0;
#X connect 29 0 19 1;
#X connect 30 0 27 0;
#X connect 30 1 34 0;
#X connect 30 2 22 0;
#X connect 30 3 14 0;
#X connect 30 4 7 0;
#X connect 31 0 11 0;
#X connect 32 0 2 1;
#X connect 33 0 4 0;
#X connect 34 0 28 0;
#X restore 297 122 pd triglist;
#X obj 349 148 list trim;
#N canvas 126 156 378 300 lfo1route 0;
#X obj 108 50 inlet;
#X obj 124 213 s;
#X obj 156 144 pack s \$0;
#X obj 56 147 list split 1;
#X obj 91 171 list trim;
#X obj 108 99 t l s;
#X obj 104 73 list;
#X msg 156 168 symbol \$2-lfo1\$1;
#X connect 0 0 6 0;
#X connect 2 0 7 0;
#X connect 3 1 4 0;
#X connect 4 0 1 0;
#X connect 5 0 3 0;
#X connect 5 1 2 0;
#X connect 6 0 5 0;
#X connect 7 0 1 1;
#X restore -163 161 pd lfo1route;
#N canvas 126 156 378 300 lfo2route 0;
#X obj 108 50 inlet;
#X obj 124 213 s;
#X obj 156 144 pack s \$0;
#X obj 56 147 list split 1;
#X obj 91 171 list trim;
#X obj 108 99 t l s;
#X obj 104 73 list;
#X msg 156 168 symbol \$2-lfo2\$1;
#X connect 0 0 6 0;
#X connect 2 0 7 0;
#X connect 3 1 4 0;
#X connect 4 0 1 0;
#X connect 5 0 3 0;
#X connect 5 1 2 0;
#X connect 6 0 5 0;
#X connect 7 0 1 1;
#X restore -139 143 pd lfo2route;
#N canvas 126 156 378 300 mul1route 0;
#X obj 108 50 inlet;
#X obj 124 213 s;
#X obj 156 144 pack s \$0;
#X obj 56 147 list split 1;
#X obj 91 171 list trim;
#X obj 108 99 t l s;
#X obj 104 73 list;
#X msg 156 168 symbol \$2-mul1\$1;
#X connect 0 0 6 0;
#X connect 2 0 7 0;
#X connect 3 1 4 0;
#X connect 4 0 1 0;
#X connect 5 0 3 0;
#X connect 5 1 2 0;
#X connect 6 0 5 0;
#X connect 7 0 1 1;
#X restore 144 161 pd mul1route;
#N canvas 126 156 378 300 mul2route 0;
#X obj 108 50 inlet;
#X obj 124 213 s;
#X obj 156 144 pack s \$0;
#X obj 56 147 list split 1;
#X obj 91 171 list trim;
#X obj 108 99 t l s;
#X obj 104 73 list;
#X msg 156 168 symbol \$2-mul2\$1;
#X connect 0 0 6 0;
#X connect 2 0 7 0;
#X connect 3 1 4 0;
#X connect 4 0 1 0;
#X connect 5 0 3 0;
#X connect 5 1 2 0;
#X connect 6 0 5 0;
#X connect 7 0 1 1;
#X restore 8 216 pd mul2route;
#X obj -142 317 f;
#X obj -73 303 f;
#X obj 286 152 t b b;
#X obj -142 343 iem_prepend retrig;
#X obj -16 344 iem_prepend retrig;
#X obj -25 298 f;
#X floatatom 359 281 5 0 0 1 Noise_Q_1 #0-noiseq1 #0-noiseq1s;
#X floatatom 359 379 5 0 0 1 Noise_Q_2 #0-noiseq2 #0-noiseq2s;
#X obj 185 112 s \$0-noiseq1;
#X obj 187 59 s \$0-noiseq2;
#X obj 475 207 bng 15 250 50 0 empty empty Clear_All 17 7 0 10 -262144
-1 -1;
#X obj -230 322 zexy/nop;
#N canvas 124 103 779 775 clear 0;
#X obj 208 60 inlet;
#X obj 240 646 outlet;
#X msg 203 116 wav_mtx1 1 0 0 0 0 \, wav_mtx2 0 0 0 0 0 \, env1 attack
10 0.84096 \, env1 decay 500 0 \, env1 sustain 0.5 \, env1 release
500 0 \, env2 attack 10 0.84096 \, env2 decay 500 0 \, env2 sustain
0.5 \, env2 release 500 0 \, lfo1 bfreq 3 \, lfo1 wav 0 \, lfo1 polar
0 \, lfo1 pw 0.5 \, lfo1 phase 0 \, lfo1 offset 0 \, lfo2 bfreq 3 \,
lfo2 wav 0 \, lfo2 polar 0 \, lfo2 pw 0.5 \, lfo2 phase 0 \, lfo2 offset
0 \, mul1 src2 0 \, mul1 src1 0 \, mul2 src2 0 \, mul2 src1 0 \, bmidi
60 \, porta 0 \, pw1 0.5 \, pw2 0.5 \, bmidi1 0 \, bmidi2 0 \, bhz1
0 \, bhz2 0 \, bfmidi 127 \, bres 0 \, bhfmidi 60 \, bhktrk 1 \, bhq
0.01 \, noiseq1 0 \, noiseq2 0 \, lfo2 retrig 0 \, lfo1 retrig 0 \,
lfo1 noise 0 \, lfo2 noise 0 \, mono 0 \, gain 0.75 \, legato 1 \,
last 0 \, sig_mtx matrix 8 9 1 1 0 0 0 0 0 0 0 0 0 0 0 0 0 0 0 0 1
1 0 0 0 0 0 0 0 0 0 0 0 0 0 0 0 0 0 0 0 0 0 0 0 0 0 0 0 0 0.5 0 0 0
0 0 0 0 0 0.5 0 0 0 0 0 0 0 0 0 0 0 0 0 0;
#X connect 0 0 2 0;
#X connect 2 0 1 0;
#X restore -254 381 pd clear;
#X obj 590 503 bng 15 250 50 0 empty empty mid_PW 17 7 0 10 -1 -260097
-1;
#X obj 311 503 bng 15 250 50 0 empty empty mid_PW 17 7 0 10 -1 -260097
-1;
#X msg 829 476 0.5;
#X msg 51 486 0.5;
#X obj 447 260 bng 15 250 50 0 empty empty empty 17 7 0 10 -159808
-4034 -1;
#X obj 447 359 bng 15 250 50 0 empty empty empty 17 7 0 10 -159808
-4034 -1;
#X msg 815 320 0.5;
#X msg 812 352 0.5;
#X obj 400 587 hsl 180 15 0 1.5 0 0 \$0-gains \$0-gain output_gain
-2 8 0 10 -260097 -4160 -45076 8950 1;
#X obj 184 181 s \$0-gain;
#X floatatom 593 587 5 0 1.2 0 - - -;
#X msg 541 750 set \$1;
#X obj 128 565 cnv 15 63 14 empty empty Noise 2 8 0 12 -4160 -257985
0;
#X obj 406 565 cnv 15 63 14 empty empty Noise 2 8 0 12 -4160 -257985
0;
#X obj 192 564 hradio 15 1 0 3 \$0-lfo1noises \$0-lfo1noise s&h/lin/cos
48 8 0 10 -1 -4032 -4160 0;
#X obj 470 564 hradio 15 1 0 3 \$0-lfo2noises \$0-lfo2noise s&h/lin/cos
48 8 0 10 -1 -4032 -4160 0;
#X floatatom 748 419 5 0 1 2 - #0-env1alin #0-env1alins;
#X obj 729 402 cnv 15 53 14 empty empty exp/lin 2 8 0 12 -260097 -4160
0;
#X floatatom 748 439 5 0 1 2 - #0-env1dlin #0-env1dlins;
#X floatatom 748 479 5 0 1 2 - #0-env1rlin #0-env1rlins;
#X floatatom 748 519 5 0 1 2 - #0-env2alin #0-env2alins;
#X obj 729 502 cnv 15 53 14 empty empty exp/lin 2 8 0 12 -260097 -4160
0;
#X floatatom 748 539 5 0 1 2 - #0-env2dlin #0-env2dlins;
#X floatatom 748 579 5 0 1 2 - #0-env2rlin #0-env2rlins;
#N canvas 1005 155 400 431 env2route 0;
#X obj 108 50 inlet;
#X obj 124 213 s;
#X obj 156 144 pack s \$0;
#X obj 56 147 list split 1;
#X obj 108 99 t l s;
#X obj 104 73 list;
#X obj 100 365 s;
#X obj 133 312 pack s \$0;
#X obj 186 218 route attack decay release;
#X obj 63 211 t l f;
#X obj 66 248 list split 1;
#X obj 181 197 list trim;
#X obj 132 291 symbol;
#X obj 106 272 t f b;
#X msg 156 168 symbol \$2-env2\$1;
#X msg 133 336 symbol \$2-env2\$1;
#X msg 178 243 symbol alin;
#X msg 230 268 symbol dlin;
#X msg 279 249 symbol rlin;
#X obj 47 180 route list;
#X connect 0 0 5 0;
#X connect 2 0 14 0;
#X connect 3 1 19 0;
#X connect 4 0 3 0;
#X connect 4 1 2 0;
#X connect 4 1 11 0;
#X connect 5 0 4 0;
#X connect 7 0 15 0;
#X connect 8 0 16 0;
#X connect 8 1 17 0;
#X connect 8 2 18 0;
#X connect 9 0 10 0;
#X connect 9 1 1 0;
#X connect 10 1 13 0;
#X connect 11 0 8 0;
#X connect 12 0 7 0;
#X connect 13 0 6 0;
#X connect 13 1 12 0;
#X connect 14 0 1 1;
#X connect 15 0 6 1;
#X connect 16 0 12 1;
#X connect 17 0 12 1;
#X connect 18 0 12 1;
#X connect 19 0 9 0;
#X connect 19 1 1 0;
#X restore -187 118 pd env2route;
#X msg 464 757 panic;
#X obj 557 408 tgl 15 0 empty empty Legato 17 7 0 10 -4160 -260097
-16662 1 1;
#X obj 13 299 f;
#X obj 615 408 tgl 15 0 empty empty Last 17 7 0 10 -4160 -260097 -16662
0 1;
#X obj -188 364 shadylib/prepender lfo1 lfo2 mono legato last;
#X obj 62 315 f;
#X obj -52 526 t b b b b;
#X floatatom 359 240 5 0 0 1 Hz_Tune_Osc1 #0-bhz1 #0-bhz1s;
#X floatatom 359 338 5 0 0 1 Hz_Tune_Osc2 #0-bhz2 #0-bhz2s;
#X obj 152 138 s \$0-bhz1;
#X obj 223 149 s \$0-bhz2;
#X floatatom 748 458 5 0 1 2 - - -;
#X floatatom 748 558 5 0 1 2 - - -;
#X msg 794 431 set \$1;
#X msg 799 531 set \$1;
#X obj 106 720 cnv 15 80 13 empty empty VCA_Ring 2 8 0 12 -31361 -257985
0;
#X msg -276 593 matrix 8 9 0 0 0 0 0 0 0 0 0 0 0 0 0 0 0 0 0 0 0 0
0 0 0 0 0 0 0 0 0 0 0 0 0 0 0 0 0 0 0 0 0 0 0 0 0 0 0 0 0 0 0 0 0 0
0 0 0 0 0 0 0 0 0 0 0 0 0 0 0 0 0 0;
#X floatatom 468 378 5 0 0 1 HPF_MIDI_Note #0-bhfmidi #0-bhfmidis;
#X floatatom 582 378 5 0 0 1 HPF_MIDI_Ktrk #0-bhktrk #0-bhktrks;
#X obj 64 89 s \$0-bhfmidi;
#X obj 165 89 s \$0-bhktrk;
#X obj -214 30 route env1 env2 lfo1 lfo2 bmidi porta lfo_mtx sig_mtx
wav_mtx1 wav_mtx2 pw1 pw2 bmidi1 bmidi2 bfmidi bres mul1 mul2 mono
noiseq1 noiseq2 gain legato last bhz1 bhz2 bhfmidi bhktrk bhq;
#X obj 176 8 s \$0-bhq;
#X obj 700 378 hsl 80 15 0 1 0 0 \$0-bhqs \$0-bhq HPF_Q 20 8 0 10 -4160
-260097 -204786 79 1;
#X connect 1 0 210 0;
#X connect 64 0 142 0;
#X connect 65 0 144 0;
#X connect 80 0 151 0;
#X connect 94 0 152 0;
#X connect 100 0 202 0;
#X connect 105 0 203 0;
#X connect 109 0 156 0;
#X connect 111 0 189 0;
#X connect 112 0 145 0;
#X connect 120 0 123 0;
#X connect 121 0 205 0;
#X connect 122 0 133 0;
#X connect 123 0 65 0;
#X connect 123 0 143 0;
#X connect 133 0 110 0;
#X connect 133 1 135 0;
#X connect 134 0 133 0;
#X connect 136 0 137 0;
#X connect 137 0 139 0;
#X connect 137 1 145 0;
#X connect 137 2 138 0;
#X connect 138 0 133 1;
#X connect 139 0 133 1;
#X connect 140 0 141 0;
#X connect 141 0 133 0;
#X connect 142 0 140 0;
#X connect 142 0 141 0;
#X connect 143 0 122 0;
#X connect 144 0 143 0;
#X connect 144 0 122 0;
#X connect 145 0 153 0;
#X connect 145 1 146 0;
#X connect 146 0 210 0;
#X connect 151 0 154 0;
#X connect 152 0 155 0;
#X connect 153 0 195 0;
#X connect 153 1 152 0;
#X connect 153 1 151 0;
#X connect 153 1 156 0;
#X connect 153 1 191 0;
#X connect 153 1 194 0;
#X connect 154 0 193 0;
#X connect 155 0 193 1;
#X connect 156 0 193 2;
#X connect 161 0 162 0;
#X connect 162 0 123 0;
#X connect 162 0 205 0;
#X connect 162 0 163 0;
#X connect 163 0 210 0;
#X connect 164 0 166 0;
#X connect 165 0 167 0;
#X connect 166 0 93 0;
#X connect 167 0 76 0;
#X connect 168 0 170 0;
#X connect 169 0 171 0;
#X connect 170 0 60 0;
#X connect 171 0 78 0;
#X connect 172 0 175 0;
#X connect 174 0 172 0;
#X connect 175 0 174 0;
#X connect 189 0 110 0;
#X connect 190 0 191 0;
#X connect 191 0 193 3;
#X connect 192 0 194 0;
#X connect 193 0 133 0;
#X connect 194 0 193 4;
#X connect 195 0 189 0;
#X connect 195 1 140 0;
#X connect 195 2 143 0;
#X connect 195 3 134 0;
#X connect 200 0 100 0;
#X connect 201 0 105 0;
#X connect 202 0 200 0;
#X connect 203 0 201 0;
#X connect 205 0 64 0;
#X connect 205 0 140 0;
#X connect 210 0 117 0;
#X connect 210 1 188 0;
#X connect 210 2 147 0;
#X connect 210 3 148 0;
#X connect 210 4 118 0;
#X connect 210 5 119 0;
#X connect 210 6 65 0;
#X connect 210 6 143 0;
#X connect 210 7 64 0;
#X connect 210 7 140 0;
#X connect 210 8 124 0;
#X connect 210 9 125 0;
#X connect 210 10 127 0;
#X connect 210 11 128 0;
#X connect 210 12 129 0;
#X connect 210 13 130 0;
#X connect 210 14 131 0;
#X connect 210 15 132 0;
#X connect 210 16 149 0;
#X connect 210 17 150 0;
#X connect 210 18 109 0;
#X connect 210 19 159 0;
#X connect 210 20 160 0;
#X connect 210 21 173 0;
#X connect 210 22 190 0;
#X connect 210 23 192 0;
#X connect 210 24 198 0;
#X connect 210 25 199 0;
#X connect 210 26 208 0;
#X connect 210 27 209 0;
#X connect 210 28 211 0;
#X coords 0 -1 1 1 685 545 2 100 200;
