#N canvas 525 80 505 639 10;
#X obj 82 31 inlet;
#X obj 186 38 inlet;
#X text 180 18 pitch bend;
#X text 80 9 pitch;
#X obj 127 32 inlet;
#X text 120 13 velocity;
#X obj 141 321 * 0.00787402;
#X obj 231 461 iemlib/iem_prepend all;
#X obj 99 550 outlet~;
#X obj 236 412 iemlib/iem_prepend pbend;
#X obj 384 36 inlet;
#X obj 276 36 inlet;
#X obj 276 100 iemlib/iem_prepend mwheel;
#X text 273 18 modwheel;
#X obj 99 425 pack f f f 0;
#X obj 88 482 clone ./datavoice~ 8;
#X obj 85 504 *~ 0.5;
#X obj 97 527 *~ 1;
#X obj 195 512 list split 1;
#X msg 203 385 \$1 getpitch bang;
#X obj 231 538 route 0 1;
#X obj 244 580 zexy/demultiplex;
#X obj 240 605 b;
#X obj 168 396 f;
#X obj 76 61 t f f;
#X obj 75 96 zexy/demultiplex;
#N canvas 0 23 450 300 mono 0;
#X obj 79 50 inlet;
#X obj 214 54 inlet;
#X obj 79 236 outlet;
#X obj 188 237 outlet;
#X obj 108 111 instr/monoctl 0;
#X obj 163 131 sel 0;
#X msg 160 151 0;
#X obj 156 201 f;
#X obj 158 172 t b f;
#X obj 105 137 t f f b;
#X obj 264 246 outlet;
#X connect 0 0 4 0;
#X connect 1 0 4 1;
#X connect 4 0 9 0;
#X connect 4 1 5 0;
#X connect 5 0 6 0;
#X connect 5 1 3 0;
#X connect 6 0 8 0;
#X connect 7 0 9 0;
#X connect 8 0 7 0;
#X connect 8 1 3 0;
#X connect 9 0 2 0;
#X connect 9 1 7 1;
#X connect 9 2 10 0;
#X restore 166 122 pd mono;
#X obj 157 149 t b f;
#X obj 145 350 sqrt;
#X obj 200 359 f;
#N canvas 0 23 450 300 clear 0;
#X obj 265 75 inlet;
#X obj 208 243 outlet;
#X obj 246 133 iterate 8;
#X obj 238 162 pack f 0 0 0;
#X obj 246 112 b;
#X connect 0 0 4 0;
#X connect 2 0 3 0;
#X connect 3 0 1 0;
#X connect 4 0 2 0;
#X restore 18 455 pd clear;
#N canvas 0 107 450 300 poly 0;
#X obj 25 32 inlet;
#X obj 117 16 inlet;
#X obj 17 260 outlet;
#X obj 86 268 outlet;
#X obj 168 263 outlet;
#X obj 246 270 outlet;
#X obj 27 96 - 1;
#X obj 50 76 poly 8 0;
#X obj 218 42 inlet;
#X obj 26 179 zexy/demultiplex;
#X obj 162 131 instr/monoctl 0;
#X obj 221 153 sel 0;
#X obj 215 174 f;
#X text 189 107 keep track of which notes are still on;
#X obj 246 219 spigot;
#X obj 36 218 f;
#X obj 50 117 t f f;
#X obj 113 207 f;
#X obj 40 146 t b f b;
#X obj 246 251 f;
#X obj 163 166 t f;
#X obj 300 45 inlet;
#X obj 166 222 spigot;
#X connect 0 0 7 0;
#X connect 1 0 7 1;
#X connect 6 0 16 0;
#X connect 7 0 6 0;
#X connect 7 1 3 0;
#X connect 7 2 4 0;
#X connect 7 2 10 1;
#X connect 7 2 22 1;
#X connect 7 2 14 1;
#X connect 8 0 9 1;
#X connect 9 0 15 0;
#X connect 9 1 17 0;
#X connect 10 0 20 0;
#X connect 10 1 11 0;
#X connect 11 0 12 0;
#X connect 12 0 15 1;
#X connect 14 0 19 0;
#X connect 15 0 19 1;
#X connect 16 0 18 0;
#X connect 16 1 10 0;
#X connect 17 0 22 0;
#X connect 18 0 9 0;
#X connect 18 1 2 0;
#X connect 18 1 17 1;
#X connect 18 2 14 0;
#X connect 19 0 5 0;
#X connect 20 0 15 1;
#X connect 20 0 12 1;
#X connect 21 0 7 0;
#X connect 21 0 10 0;
#X connect 22 0 19 1;
#X restore 86 161 pd poly;
#X msg 342 203 clear;
#X text 46 276 todo: control legato from this patch rather than datavoice~
(add method for changeing pitch & velocity independantly);
#X obj 291 146 route gain panic mono last;
#X connect 0 0 24 0;
#X connect 1 0 9 0;
#X connect 4 0 26 1;
#X connect 4 0 31 1;
#X connect 6 0 28 0;
#X connect 7 0 15 1;
#X connect 9 0 7 0;
#X connect 10 0 34 0;
#X connect 11 0 12 0;
#X connect 12 0 7 0;
#X connect 14 0 15 0;
#X connect 15 0 16 0;
#X connect 15 1 18 0;
#X connect 16 0 17 0;
#X connect 17 0 8 0;
#X connect 18 1 20 0;
#X connect 19 0 15 0;
#X connect 20 0 21 0;
#X connect 20 1 14 3;
#X connect 21 0 22 0;
#X connect 21 1 14 3;
#X connect 22 0 23 0;
#X connect 23 0 14 3;
#X connect 24 0 25 0;
#X connect 24 1 23 1;
#X connect 25 0 31 0;
#X connect 25 1 26 0;
#X connect 26 0 27 0;
#X connect 26 1 6 0;
#X connect 26 2 29 0;
#X connect 27 0 14 0;
#X connect 27 1 14 1;
#X connect 28 0 14 2;
#X connect 29 0 19 0;
#X connect 30 0 15 0;
#X connect 31 0 29 1;
#X connect 31 0 14 0;
#X connect 31 1 14 1;
#X connect 31 2 6 0;
#X connect 31 3 19 0;
#X connect 32 0 26 0;
#X connect 32 0 31 3;
#X connect 32 0 7 0;
#X connect 34 0 17 1;
#X connect 34 1 32 0;
#X connect 34 1 30 0;
#X connect 34 2 25 1;
#X connect 34 3 21 1;
#X connect 34 3 31 2;
#X connect 34 4 7 0;
