#N canvas 208 207 434 474 10;
#X obj 32 31 inlet;
#X obj 136 38 inlet;
#X text 130 18 pitch bend;
#X text 30 9 pitch;
#X obj 77 32 inlet;
#X text 70 13 velocity;
#X obj 32 220 - 1;
#X obj 78 284 sqrt;
#X obj 78 262 * 0.00787402;
#X obj 32 186 poly 8 0;
#X obj 32 58 route float;
#X obj 127 386 iemlib/iem_prepend all;
#X obj 32 442 outlet~;
#X obj 172 278 iemlib/iem_prepend pbend;
#X obj 384 65 inlet;
#X obj 226 36 inlet;
#X obj 226 100 iemlib/iem_prepend mwheel;
#X text 223 18 modwheel;
#X obj 32 378 pack f f f 0;
#X obj 20 327 iterate 8;
#X obj 18 355 pack f 0 0 0;
#X obj 20 306 b;
#X obj 98 81 route panic mono;
#X msg 99 109 panic;
#X obj 16 141 zexy/demultiplex;
#X obj 100 169 instr/monoctl 0;
#X obj 99 196 t b f;
#X obj 164 340 != 0;
#X obj 109 359 spigot;
#X msg 125 302 \$2;
#X obj 14 399 t l l l;
#X msg 173 309 \$3;
#X obj 32 419 clone ./datavoice~ 8;
#X connect 0 0 10 0;
#X connect 1 0 13 0;
#X connect 4 0 9 1;
#X connect 4 0 25 1;
#X connect 6 0 18 0;
#X connect 7 0 18 2;
#X connect 8 0 7 0;
#X connect 9 0 6 0;
#X connect 9 1 18 1;
#X connect 9 2 8 0;
#X connect 10 0 24 0;
#X connect 10 1 22 0;
#X connect 11 0 32 1;
#X connect 13 0 11 0;
#X connect 14 0 11 0;
#X connect 15 0 16 0;
#X connect 16 0 11 0;
#X connect 18 0 30 0;
#X connect 19 0 20 0;
#X connect 20 0 30 0;
#X connect 21 0 19 0;
#X connect 22 0 21 0;
#X connect 22 0 23 0;
#X connect 22 1 24 1;
#X connect 22 2 11 0;
#X connect 23 0 25 0;
#X connect 24 0 9 0;
#X connect 24 1 25 0;
#X connect 25 0 26 0;
#X connect 25 1 8 0;
#X connect 26 0 18 0;
#X connect 26 1 18 1;
#X connect 27 0 28 1;
#X connect 28 0 18 3;
#X connect 29 0 28 0;
#X connect 30 0 29 0;
#X connect 30 1 31 0;
#X connect 30 2 32 0;
#X connect 31 0 27 0;
#X connect 32 0 12 0;
