#N canvas 345 35 720 843 10;
#X declare -stdlib iemmatrix;
#X obj 53 31 inlet;
#X obj 235 32 inlet;
#X obj 213 536 mtof~;
#X obj 353 533 noise~;
#X obj 250 644 *~ 2;
#X obj 254 664 wrap~;
#X obj 251 684 cos~;
#X obj 206 725 mtx_*~ 1 5 10;
#X obj 212 201 line~;
#X obj 282 222 line~;
#X obj 344 633 mtx_sum;
#X obj 206 755 /~ 1;
#X obj 481 26 declare -stdlib iemmatrix;
#X obj 396 929 outlet~;
#X obj 121 282 line~;
#X obj 200 514 +~ 0;
#X obj 198 483 +~ 60;
#X obj 105 123 - 60;
#X obj 250 522 +~ 0.5;
#X obj 412 606 mtof~;
#X obj 492 689 *~ 2;
#X obj 496 709 wrap~;
#X obj 493 729 cos~;
#X obj 448 770 mtx_*~ 1 5 10;
#X obj 540 742 mtx_sum;
#X obj 448 800 /~ 1;
#X obj 410 586 +~ 0;
#X obj 403 559 +~ 60;
#X obj 481 604 +~ 0.5;
#N canvas 235 238 579 422 env1 0;
#X obj 62 13 inlet;
#X obj 229 15 inlet;
#X obj 120 378 outlet~;
#X obj 103 218 shadylib/neadsr~ 10 10 0.5 1000;
#X obj 186 17 inlet;
#X obj 147 17 inlet;
#X obj 103 127 f;
#N canvas 0 23 450 300 addchng 0;
#X obj 213 39 inlet;
#X obj 135 43 inlet;
#X obj 179 149 +;
#X obj 188 242 outlet;
#X obj 210 60 route float list;
#X obj 256 107 t f l;
#X obj 179 175 change 10;
#X connect 0 0 4 0;
#X connect 1 0 2 0;
#X connect 2 0 6 0;
#X connect 4 0 2 1;
#X connect 4 1 5 0;
#X connect 5 0 2 1;
#X connect 5 1 3 0;
#X connect 6 0 3 0;
#X restore 148 132 pd addchng;
#N canvas 0 23 450 300 addchng 0;
#X obj 213 39 inlet;
#X obj 135 43 inlet;
#X obj 179 149 +;
#X obj 188 242 outlet;
#X obj 210 60 route float list;
#X obj 256 107 t f l;
#X obj 179 175 change 10;
#X connect 0 0 4 0;
#X connect 1 0 2 0;
#X connect 2 0 6 0;
#X connect 4 0 2 1;
#X connect 4 1 5 0;
#X connect 5 0 2 1;
#X connect 5 1 3 0;
#X connect 6 0 3 0;
#X restore 197 154 pd addchng;
#N canvas 429 119 450 300 addchng 0;
#X obj 213 39 inlet;
#X obj 135 43 inlet;
#X obj 179 149 +;
#X obj 188 242 outlet;
#X obj 185 209 clip 0 1;
#X obj 179 175 change 0.5;
#X connect 0 0 2 1;
#X connect 1 0 2 0;
#X connect 2 0 5 0;
#X connect 4 0 3 0;
#X connect 5 0 4 0;
#X restore 240 129 pd addchng;
#N canvas 0 23 450 300 addchng 0;
#X obj 213 39 inlet;
#X obj 135 43 inlet;
#X obj 188 242 outlet;
#X obj 179 149 +;
#X obj 210 60 route float list;
#X obj 256 107 t f l;
#X obj 179 175 change 1000;
#X connect 0 0 4 0;
#X connect 1 0 3 0;
#X connect 3 0 6 0;
#X connect 4 0 3 1;
#X connect 4 1 5 0;
#X connect 5 0 3 1;
#X connect 5 1 2 0;
#X connect 6 0 2 0;
#X restore 284 198 pd addchng;
#N canvas 133 182 552 561 mtxmul 0;
#X obj 301 26 inlet;
#X obj 61 26 inlet;
#X obj 152 370 outlet;
#X obj 199 369 outlet;
#X obj 258 369 outlet;
#X obj 345 366 outlet;
#X msg 96 209 row \$1;
#X obj 87 131 ekext/cup;
#X msg 106 103 0;
#X obj 62 53 t b b l;
#X obj 62 102 until;
#X obj 98 184 + 1;
#N canvas 0 23 450 300 mullist 0;
#X obj 217 40 inlet;
#X obj 95 37 inlet;
#N canvas 96 200 450 300 list-dripslow 0;
#X obj 148 186 list split 1;
#X obj 148 161 list append;
#X obj 148 237 outlet;
#X obj 148 37 inlet;
#X obj 222 35 inlet;
#X obj 148 72 b;
#X text 265 36 list;
#X text 103 37 bang;
#X text 89 236 element;
#X text 243 113 from list-abs;
#X connect 0 0 2 0;
#X connect 0 1 1 1;
#X connect 1 0 0 0;
#X connect 3 0 5 0;
#X connect 4 0 1 1;
#X connect 5 0 1 0;
#X restore 139 137 pd list-dripslow;
#X obj 113 92 zexy/drip;
#X obj 114 180 +;
#X obj 79 207 f;
#X obj 78 229 outlet;
#X msg 171 161 0;
#X obj 111 114 t f b;
#X obj 150 186 t f;
#X obj 114 161 *;
#X obj 215 113 list;
#X obj 98 63 t b l b;
#X connect 0 0 11 1;
#X connect 1 0 12 0;
#X connect 2 0 10 1;
#X connect 3 0 8 0;
#X connect 4 0 9 0;
#X connect 5 0 6 0;
#X connect 7 0 9 0;
#X connect 8 0 10 0;
#X connect 8 1 2 0;
#X connect 9 0 5 1;
#X connect 9 0 4 1;
#X connect 10 0 4 0;
#X connect 11 0 2 1;
#X connect 12 0 5 0;
#X connect 12 1 3 0;
#X connect 12 2 11 0;
#X connect 12 2 7 0;
#X restore 136 292 pd mullist;
#X obj 95 157 t f f;
#X obj 269 101 route element;
#X obj 258 137 iemlib/iem_prepend element;
#X obj 101 232 matrix 5 3;
#X obj 148 316 zexy/demultiplex 1 2 3 4;
#X msg 62 76 4;
#X connect 0 0 14 0;
#X connect 1 0 9 0;
#X connect 6 0 16 0;
#X connect 7 0 13 0;
#X connect 8 0 7 0;
#X connect 9 0 18 0;
#X connect 9 1 8 0;
#X connect 9 2 12 1;
#X connect 10 0 7 0;
#X connect 11 0 6 0;
#X connect 12 0 17 0;
#X connect 13 0 11 0;
#X connect 13 1 17 1;
#X connect 14 0 15 0;
#X connect 14 1 16 1;
#X connect 15 0 16 0;
#X connect 16 0 12 0;
#X connect 17 0 2 0;
#X connect 17 1 3 0;
#X connect 17 2 4 0;
#X connect 17 3 5 0;
#X connect 18 0 10 0;
#X restore 148 103 pd mtxmul;
#X obj 148 80 pack f f f;
#X obj 113 58 spigot;
#X obj 107 13 inlet;
#X obj 205 48 route attack decay sustain release mtx;
#X connect 0 0 6 0;
#X connect 1 0 15 0;
#X connect 3 0 2 0;
#X connect 4 0 12 2;
#X connect 5 0 6 1;
#X connect 5 0 12 1;
#X connect 5 0 13 1;
#X connect 6 0 3 0;
#X connect 7 0 3 1;
#X connect 8 0 3 2;
#X connect 9 0 3 3;
#X connect 10 0 3 4;
#X connect 11 0 7 0;
#X connect 11 1 8 0;
#X connect 11 2 9 0;
#X connect 11 3 10 0;
#X connect 12 0 11 0;
#X connect 13 0 12 0;
#X connect 14 0 13 0;
#X connect 15 0 7 1;
#X connect 15 1 8 1;
#X connect 15 2 9 1;
#X connect 15 3 10 1;
#X connect 15 4 11 1;
#X restore 305 246 pd env1;
#N canvas 32 23 696 625 lfo1 0;
#X obj 187 15 inlet~;
#X obj 244 15 inlet;
#X obj 246 577 outlet~;
#X obj 187 294 phasor~;
#X obj 187 45 mtof~;
#X obj 272 392 sel 0 1;
#X msg 272 435 1;
#X msg 300 435 0;
#X msg 328 435 0.5;
#X msg 208 225 0.5 \$1;
#X obj 208 250 /;
#X obj 187 367 min~ 0.5;
#X obj 199 201 sel 0 1;
#X obj 238 252 expr .5/(1 - $f1);
#X obj 187 344 *~ 1;
#X obj 217 323 *~ 1;
#X obj 238 275 - 0.5;
#X obj 217 394 max~ 0;
#X obj 360 15 inlet;
#X obj 360 130 spigot;
#X obj 360 155 f;
#X obj 217 344 -~ 0.5;
#X obj 187 427 +~ 0;
#X obj 454 83 clip 0 1;
#X obj 241 488 shadylib/multatord~ 1 0 0;
#X obj 232 97 * 0.122312;
#X obj 194 131 *~ 0;
#X obj 244 44 route bfreq wav polar pw retrig phase offset noise;
#X obj 500 364 dsrand~;
#X obj 364 308 moses 4;
#X msg 374 328 0;
#X obj 245 519 zexy/multiplex~ wav noise;
#X obj 426 453 zexy/multiplex~ sh lin cos;
#X msg 401 332 1;
#X obj 490 422 linterp~;
#X obj 556 429 cosinterp~;
#X obj 422 486 scaler~ 1 0;
#X obj 270 540 lop~ 300;
#X obj 360 105 b;
#X connect 0 0 4 0;
#X connect 1 0 27 0;
#X connect 3 0 14 0;
#X connect 3 0 15 0;
#X connect 3 0 28 0;
#X connect 3 0 34 0;
#X connect 3 0 35 0;
#X connect 4 0 26 0;
#X connect 5 0 6 0;
#X connect 5 0 7 0;
#X connect 5 1 8 0;
#X connect 6 0 24 1;
#X connect 6 0 36 1;
#X connect 7 0 24 2;
#X connect 7 0 36 2;
#X connect 8 0 24 1;
#X connect 8 0 24 2;
#X connect 8 0 36 2;
#X connect 8 0 36 1;
#X connect 9 0 10 0;
#X connect 10 0 14 1;
#X connect 11 0 22 0;
#X connect 12 2 9 0;
#X connect 12 2 13 0;
#X connect 13 0 15 1;
#X connect 13 0 16 0;
#X connect 14 0 11 0;
#X connect 15 0 21 0;
#X connect 16 0 21 1;
#X connect 17 0 22 0;
#X connect 18 0 38 0;
#X connect 19 0 20 0;
#X connect 20 0 3 1;
#X connect 21 0 17 0;
#X connect 22 0 24 0;
#X connect 23 0 22 1;
#X connect 24 0 31 0;
#X connect 25 0 26 1;
#X connect 26 0 3 0;
#X connect 27 0 25 0;
#X connect 27 1 29 0;
#X connect 27 2 5 0;
#X connect 27 3 12 0;
#X connect 27 4 19 1;
#X connect 27 5 20 1;
#X connect 27 6 23 0;
#X connect 27 7 32 0;
#X connect 28 0 34 1;
#X connect 28 0 35 1;
#X connect 28 0 32 0;
#X connect 28 1 34 2;
#X connect 28 1 35 2;
#X connect 29 0 30 0;
#X connect 29 0 24 3;
#X connect 29 1 33 0;
#X connect 30 0 31 0;
#X connect 31 0 37 0;
#X connect 32 0 36 0;
#X connect 33 0 31 0;
#X connect 34 0 32 1;
#X connect 35 0 32 2;
#X connect 36 0 31 1;
#X connect 37 0 2 0;
#X connect 38 0 19 0;
#X restore 249 321 pd lfo1;
#X obj 374 803 mtof~;
#N canvas 0 23 576 380 mul1--------- 0;
#X obj 36 26 inlet~;
#X obj 88 22 inlet~;
#X obj 147 25 inlet~;
#X obj 199 21 inlet~;
#X obj 249 22 inlet~;
#X obj 301 18 inlet~;
#X obj 360 21 inlet~;
#X obj 475 27 inlet;
#X obj 263 273 outlet~;
#X obj 270 226 *~;
#X obj 475 60 route src1 src2;
#X obj 319 140 zexy/multiplex~ . . . . . . . .;
#X obj 98 135 zexy/multiplex~ . . . . . . . .;
#X obj 428 22 inlet~;
#X connect 0 0 11 0;
#X connect 0 0 12 0;
#X connect 1 0 11 1;
#X connect 1 0 12 1;
#X connect 2 0 11 2;
#X connect 2 0 12 2;
#X connect 3 0 11 3;
#X connect 3 0 12 3;
#X connect 4 0 11 4;
#X connect 4 0 12 4;
#X connect 5 0 11 5;
#X connect 5 0 12 5;
#X connect 6 0 11 6;
#X connect 6 0 12 6;
#X connect 7 0 10 0;
#X connect 9 0 8 0;
#X connect 10 0 12 0;
#X connect 10 1 11 0;
#X connect 11 0 9 1;
#X connect 12 0 9 0;
#X connect 13 0 12 7;
#X connect 13 0 11 7;
#X restore 290 379 pd mul1---------;
#N canvas 0 23 576 380 mul2--------- 0;
#X obj 36 26 inlet~;
#X obj 88 22 inlet~;
#X obj 147 25 inlet~;
#X obj 199 21 inlet~;
#X obj 249 22 inlet~;
#X obj 301 18 inlet~;
#X obj 360 21 inlet~;
#X obj 495 26 inlet;
#X obj 263 273 outlet~;
#X obj 270 226 *~;
#X obj 409 25 inlet~;
#X obj 483 61 route src1 src2;
#X obj 319 140 zexy/multiplex~ . . . . . . . . .;
#X obj 125 123 zexy/multiplex~ . . . . . . . . .;
#X obj 457 34 inlet~;
#X connect 0 0 12 0;
#X connect 0 0 13 0;
#X connect 1 0 12 1;
#X connect 1 0 13 1;
#X connect 2 0 12 2;
#X connect 2 0 13 2;
#X connect 3 0 12 3;
#X connect 3 0 13 3;
#X connect 4 0 12 4;
#X connect 4 0 13 4;
#X connect 5 0 12 5;
#X connect 5 0 13 5;
#X connect 6 0 12 6;
#X connect 6 0 13 6;
#X connect 7 0 11 0;
#X connect 9 0 8 0;
#X connect 10 0 12 7;
#X connect 10 0 13 7;
#X connect 11 0 13 0;
#X connect 11 1 12 0;
#X connect 12 0 9 1;
#X connect 13 0 9 0;
#X connect 14 0 12 8;
#X connect 14 0 13 8;
#X restore 295 405 pd mul2---------;
#X obj 302 813 *~;
#X obj 427 823 *~;
#X obj 351 655 max 1;
#X obj 543 764 max 1;
#N canvas 330 135 696 712 lfo2 0;
#X obj 187 25 inlet~;
#X obj 244 25 inlet;
#X obj 248 608 outlet~;
#X obj 360 25 inlet;
#X obj 187 304 phasor~;
#X obj 187 55 mtof~;
#X obj 272 402 sel 0 1;
#X msg 272 445 1;
#X msg 300 445 0;
#X msg 328 445 0.5;
#X msg 208 235 0.5 \$1;
#X obj 208 260 /;
#X obj 187 377 min~ 0.5;
#X obj 199 211 sel 0 1;
#X obj 238 262 expr .5/(1 - $f1);
#X obj 187 354 *~ 1;
#X obj 217 333 *~ 1;
#X obj 238 285 - 0.5;
#X obj 217 404 max~ 0;
#X obj 360 140 spigot;
#X obj 360 165 f;
#X obj 217 354 -~ 0.5;
#X obj 187 437 +~ 0;
#X obj 454 93 clip 0 1;
#X obj 241 498 shadylib/multatord~ 1 0 0;
#X obj 232 107 * 0.122312;
#X obj 194 141 *~ 0;
#X obj 244 54 route bfreq wav polar pw retrig phase offset noise;
#X obj 500 374 dsrand~;
#X obj 364 318 moses 4;
#X msg 374 338 0;
#X obj 245 529 zexy/multiplex~ wav noise;
#X obj 426 463 zexy/multiplex~ sh lin cos;
#X msg 401 342 1;
#X obj 490 432 linterp~;
#X obj 556 439 cosinterp~;
#X obj 413 494 scaler~ 1 0;
#X obj 245 565 lop~ 300;
#X obj 360 115 b;
#X connect 0 0 5 0;
#X connect 1 0 27 0;
#X connect 3 0 38 0;
#X connect 4 0 15 0;
#X connect 4 0 16 0;
#X connect 4 0 28 0;
#X connect 4 0 34 0;
#X connect 4 0 35 0;
#X connect 5 0 26 0;
#X connect 6 0 7 0;
#X connect 6 0 8 0;
#X connect 6 1 9 0;
#X connect 7 0 24 1;
#X connect 7 0 36 1;
#X connect 8 0 24 2;
#X connect 8 0 36 2;
#X connect 9 0 24 1;
#X connect 9 0 24 2;
#X connect 9 0 36 1;
#X connect 9 0 36 2;
#X connect 10 0 11 0;
#X connect 11 0 15 1;
#X connect 12 0 22 0;
#X connect 13 2 10 0;
#X connect 13 2 14 0;
#X connect 14 0 16 1;
#X connect 14 0 17 0;
#X connect 15 0 12 0;
#X connect 16 0 21 0;
#X connect 17 0 21 1;
#X connect 18 0 22 0;
#X connect 19 0 20 0;
#X connect 20 0 4 1;
#X connect 21 0 18 0;
#X connect 22 0 24 0;
#X connect 23 0 22 1;
#X connect 24 0 31 0;
#X connect 25 0 26 1;
#X connect 26 0 4 0;
#X connect 27 0 25 0;
#X connect 27 1 29 0;
#X connect 27 2 6 0;
#X connect 27 3 13 0;
#X connect 27 4 19 1;
#X connect 27 5 20 1;
#X connect 27 6 23 0;
#X connect 27 7 32 0;
#X connect 28 0 34 1;
#X connect 28 0 35 1;
#X connect 28 0 32 0;
#X connect 28 1 34 2;
#X connect 28 1 35 2;
#X connect 29 0 30 0;
#X connect 29 0 24 3;
#X connect 29 1 33 0;
#X connect 30 0 31 0;
#X connect 31 0 2 0;
#X connect 32 0 36 0;
#X connect 33 0 31 0;
#X connect 34 0 32 1;
#X connect 35 0 32 2;
#X connect 36 0 31 1;
#X connect 37 0 2 0;
#X connect 38 0 19 0;
#X restore 269 346 pd lfo2;
#X obj 201 618 shadylib/blsasqri~;
#X obj 443 663 shadylib/blsasqri~;
#X obj 26 435 iemlib/iem_prepend matrix 1 5;
#X obj 460 561 iemlib/iem_prepend matrix 1 5;
#X obj 127 234 spigot;
#X obj 128 205 pack f 0 f;
#X msg 122 258 \$3 \, \$1 \$2;
#X obj 221 172 pack f 10;
#X obj 271 200 pack f 10;
#X obj 355 558 vcf~;
#X obj 565 650 vcf~;
#X obj 297 684 *~ 1;
#X obj 537 722 *~ 1;
#X obj 616 698 max 0.5;
#X obj 547 522 clip 0.5 100;
#X obj 357 592 vcf~;
#X obj 566 677 vcf~;
#X obj 432 177 line 0.5;
#X obj 521 189 line 0.5;
#X obj 429 150 pack f 50;
#X obj 518 163 pack f 50;
#X obj 372 843 min~ 17700;
#X obj 105 84 unpack f f f;
#X obj 64 383 snapshot~;
#X obj 531 912 outlet;
#X obj 193 158 - 60;
#X obj 73 411 + 60;
#X obj 139 112 sel 0;
#X obj 140 537 pack f f;
#X msg 133 474 0;
#X msg 160 471 1;
#X obj 125 505 swap 0;
#X obj 211 561 +~ 0;
#X obj 417 636 +~ 0;
#N canvas 436 53 542 363 upsample_ring 0;
#X obj 125 62 inlet~;
#X obj 374 63 inlet~;
#X obj 274 71 loadbang;
#X obj 281 98 samplerate~;
#X obj 227 233 iemlib/lp4_butt~;
#X obj 230 190 *~;
#X obj 226 272 outlet~;
#X obj 53 160 block~ 128 1 2;
#X obj 128 116 iemlib/lp4_butt~;
#X obj 257 157 iemlib/lp4_butt~;
#X obj 280 119 * 0.2;
#X connect 0 0 8 0;
#X connect 1 0 9 0;
#X connect 2 0 3 0;
#X connect 3 0 10 0;
#X connect 4 0 6 0;
#X connect 5 0 4 0;
#X connect 8 0 5 0;
#X connect 9 0 5 1;
#X connect 10 0 8 1;
#X connect 10 0 9 1;
#X connect 10 0 4 1;
#X restore 178 822 pd upsample_ring;
#X obj 246 879 *~;
#X obj 371 905 cyclone/svf~;
#X obj 337 801 +~ 0;
#X obj 337 771 *~ 0;
#X obj 341 826 mtof~;
#X msg 536 816 clear;
#X obj 399 713 line~;
#X obj 372 778 +~;
#X obj 397 682 pack f 50;
#X obj 212 457 mtx_*~ 8 11 10 ----;
#N canvas 0 23 699 380 mul3----------- 0;
#X obj 36 26 inlet~;
#X obj 88 22 inlet~;
#X obj 147 25 inlet~;
#X obj 199 21 inlet~;
#X obj 249 22 inlet~;
#X obj 301 18 inlet~;
#X obj 360 21 inlet~;
#X obj 559 23 inlet;
#X obj 263 273 outlet~;
#X obj 270 226 *~;
#X obj 409 25 inlet~;
#X obj 532 65 route src1 src2;
#X obj 319 140 zexy/multiplex~ . . . . . . . . . .;
#X obj 458 21 inlet~;
#X obj 74 146 zexy/multiplex~ . . . . . . . . . .;
#X obj 504 22 inlet~;
#X connect 0 0 12 0;
#X connect 0 0 14 0;
#X connect 1 0 12 1;
#X connect 1 0 14 1;
#X connect 2 0 12 2;
#X connect 2 0 14 2;
#X connect 3 0 12 3;
#X connect 3 0 14 3;
#X connect 4 0 12 4;
#X connect 4 0 14 4;
#X connect 5 0 12 5;
#X connect 5 0 14 5;
#X connect 6 0 12 6;
#X connect 6 0 14 6;
#X connect 7 0 11 0;
#X connect 9 0 8 0;
#X connect 10 0 12 7;
#X connect 10 0 14 7;
#X connect 11 0 14 0;
#X connect 11 1 12 0;
#X connect 12 0 9 1;
#X connect 13 0 12 8;
#X connect 13 0 14 8;
#X connect 14 0 9 0;
#X connect 15 0 12 9;
#X connect 15 0 14 9;
#X restore 306 429 pd mul3-----------;
#N canvas 397 67 528 330 env2 0;
#X obj 58 5 inlet;
#X obj 244 15 inlet;
#X obj 203 254 outlet~;
#X obj 103 178 shadylib/neadsr~ 10 10 0.5 1000;
#X obj 199 17 inlet;
#X obj 160 17 inlet;
#X obj 103 127 f;
#N canvas 0 23 450 300 addchng 0;
#X obj 213 39 inlet;
#X obj 135 43 inlet;
#X obj 179 149 +;
#X obj 188 242 outlet;
#X obj 210 60 route float list;
#X obj 256 107 t f l;
#X obj 179 175 change 10;
#X connect 0 0 4 0;
#X connect 1 0 2 0;
#X connect 2 0 6 0;
#X connect 4 0 2 1;
#X connect 4 1 5 0;
#X connect 5 0 2 1;
#X connect 5 1 3 0;
#X connect 6 0 3 0;
#X restore 148 132 pd addchng;
#N canvas 0 23 450 300 addchng 0;
#X obj 213 39 inlet;
#X obj 135 43 inlet;
#X obj 179 149 +;
#X obj 188 242 outlet;
#X obj 210 60 route float list;
#X obj 256 107 t f l;
#X obj 179 175 change 10;
#X connect 0 0 4 0;
#X connect 1 0 2 0;
#X connect 2 0 6 0;
#X connect 4 0 2 1;
#X connect 4 1 5 0;
#X connect 5 0 2 1;
#X connect 5 1 3 0;
#X connect 6 0 3 0;
#X restore 197 154 pd addchng;
#N canvas 0 23 450 300 addchng 0;
#X obj 213 39 inlet;
#X obj 135 43 inlet;
#X obj 179 149 +;
#X obj 188 242 outlet;
#X obj 185 209 clip 0 1;
#X obj 179 175 change 0.5;
#X connect 0 0 2 1;
#X connect 1 0 2 0;
#X connect 2 0 5 0;
#X connect 4 0 3 0;
#X connect 5 0 4 0;
#X restore 240 129 pd addchng;
#N canvas 0 23 450 300 addchng 0;
#X obj 213 39 inlet;
#X obj 135 43 inlet;
#X obj 179 149 +;
#X obj 188 242 outlet;
#X obj 210 60 route float list;
#X obj 256 107 t f l;
#X obj 179 175 change 1000;
#X connect 0 0 4 0;
#X connect 1 0 2 0;
#X connect 2 0 6 0;
#X connect 4 0 2 1;
#X connect 4 1 5 0;
#X connect 5 0 2 1;
#X connect 5 1 3 0;
#X connect 6 0 3 0;
#X restore 284 158 pd addchng;
#N canvas 16 252 552 561 mtxmul 0;
#X obj 301 26 inlet;
#X obj 61 26 inlet;
#X obj 152 370 outlet;
#X obj 199 369 outlet;
#X obj 258 369 outlet;
#X obj 345 366 outlet;
#X obj 148 316 zexy/demultiplex 1 2 3 4;
#X msg 96 209 row \$1;
#X obj 87 131 ekext/cup;
#X msg 106 103 0;
#X obj 62 53 t b b l;
#X obj 62 102 until;
#X obj 98 184 + 1;
#X msg 62 76 4;
#N canvas 0 23 450 300 mullist 0;
#X obj 217 40 inlet;
#X obj 95 37 inlet;
#N canvas 96 200 450 300 list-dripslow 0;
#X obj 148 186 list split 1;
#X obj 148 161 list append;
#X obj 148 237 outlet;
#X obj 148 37 inlet;
#X obj 222 35 inlet;
#X obj 148 72 b;
#X text 265 36 list;
#X text 103 37 bang;
#X text 89 236 element;
#X text 243 113 from list-abs;
#X connect 0 0 2 0;
#X connect 0 1 1 1;
#X connect 1 0 0 0;
#X connect 3 0 5 0;
#X connect 4 0 1 1;
#X connect 5 0 1 0;
#X restore 139 137 pd list-dripslow;
#X obj 113 92 zexy/drip;
#X obj 114 180 +;
#X obj 79 207 f;
#X obj 78 229 outlet;
#X msg 171 161 0;
#X obj 111 114 t f b;
#X obj 150 186 t f;
#X obj 114 161 *;
#X obj 215 113 list;
#X obj 98 63 t b l b;
#X connect 0 0 11 1;
#X connect 1 0 12 0;
#X connect 2 0 10 1;
#X connect 3 0 8 0;
#X connect 4 0 9 0;
#X connect 5 0 6 0;
#X connect 7 0 9 0;
#X connect 8 0 10 0;
#X connect 8 1 2 0;
#X connect 9 0 5 1;
#X connect 9 0 4 1;
#X connect 10 0 4 0;
#X connect 11 0 2 1;
#X connect 12 0 5 0;
#X connect 12 1 3 0;
#X connect 12 2 11 0;
#X connect 12 2 7 0;
#X restore 136 292 pd mullist;
#X obj 95 157 t f f;
#X obj 269 101 route element;
#X obj 258 137 iemlib/iem_prepend element;
#X obj 101 232 matrix 4 3;
#X connect 0 0 16 0;
#X connect 1 0 10 0;
#X connect 6 0 2 0;
#X connect 6 1 3 0;
#X connect 6 2 4 0;
#X connect 6 3 5 0;
#X connect 7 0 18 0;
#X connect 8 0 15 0;
#X connect 9 0 8 0;
#X connect 10 0 13 0;
#X connect 10 1 9 0;
#X connect 10 2 14 1;
#X connect 11 0 8 0;
#X connect 12 0 7 0;
#X connect 13 0 11 0;
#X connect 14 0 6 0;
#X connect 15 0 12 0;
#X connect 15 1 6 1;
#X connect 16 0 17 0;
#X connect 16 1 18 1;
#X connect 17 0 18 0;
#X connect 18 0 14 0;
#X restore 148 103 pd mtxmul;
#X obj 244 42 route attack decay sustain release mtx;
#X obj 148 80 pack f f f;
#X obj 101 56 spigot;
#X obj 109 9 inlet;
#X connect 0 0 6 0;
#X connect 1 0 12 0;
#X connect 3 0 2 0;
#X connect 4 0 13 2;
#X connect 5 0 6 1;
#X connect 5 0 14 1;
#X connect 5 0 13 1;
#X connect 6 0 3 0;
#X connect 7 0 3 1;
#X connect 8 0 3 2;
#X connect 9 0 3 3;
#X connect 10 0 3 4;
#X connect 11 0 7 0;
#X connect 11 1 8 0;
#X connect 11 2 9 0;
#X connect 11 3 10 0;
#X connect 12 0 7 1;
#X connect 12 1 8 1;
#X connect 12 2 9 1;
#X connect 12 3 10 1;
#X connect 12 4 11 1;
#X connect 13 0 11 0;
#X connect 14 0 13 0;
#X connect 15 0 14 0;
#X restore 366 238 pd env2;
#X obj 230 291 mtx_*~ 2 6 10 ----;
#X obj 594 368 mtx_*~ 3 2;
#X obj 304 529 +~ 1;
#X obj 313 577 *~;
#X obj 329 492 +~ 1;
#X obj 331 546 *~;
#X obj 280 836 +~ 1;
#X obj 281 865 *~;
#X obj 54 57 route getpitch;
#N canvas 0 23 450 300 legato 0;
#X obj 179 71 inlet;
#X obj 246 71 inlet;
#X obj 375 68 inlet;
#X obj 227 189 spigot;
#X obj 263 240 outlet;
#X obj 298 78 inlet;
#X msg 251 110 1;
#X obj 271 156 spigot 1;
#X obj 340 89 spigot;
#X obj 336 133 f 0;
#X msg 377 106 0;
#X connect 0 0 3 0;
#X connect 1 0 6 0;
#X connect 2 0 8 1;
#X connect 3 0 8 0;
#X connect 3 0 4 0;
#X connect 5 0 7 0;
#X connect 6 0 3 1;
#X connect 6 0 9 1;
#X connect 7 0 3 1;
#X connect 7 0 10 0;
#X connect 8 0 9 0;
#X connect 9 0 7 1;
#X connect 9 0 3 1;
#X connect 10 0 9 1;
#X restore 131 165 pd legato;
#X obj 188 237 zexy/nop;
#N canvas 0 23 450 300 vel 0;
#X obj 266 33 inlet;
#X obj 98 52 inlet;
#X obj 104 177 line~;
#N canvas 348 104 507 370 rexpline~ 0;
#X obj 207 16 inlet;
#X obj 286 35 inlet;
#X obj 225 322 outlet~;
#X obj 319 141 snapshot~;
#X obj 223 289 scaler~;
#X obj 199 194 shadylook~ rexp;
#X obj 210 166 line~;
#X obj 219 68 pack;
#X obj 331 264 -;
#X obj 209 117 unpack;
#X msg 241 42 0;
#X obj 332 190 ==;
#X obj 333 212 sel 0 1;
#X obj 346 236 f;
#X obj 219 91 t f b l;
#X obj 321 238 f;
#X obj 327 164 t f f f;
#X obj 152 44 route stop;
#X msg 169 139 stop;
#X msg 207 138 0 \, 1 \$1;
#X connect 0 0 17 0;
#X connect 1 0 7 1;
#X connect 3 0 16 0;
#X connect 4 0 3 0;
#X connect 4 0 2 0;
#X connect 5 0 4 0;
#X connect 6 0 5 0;
#X connect 7 0 14 0;
#X connect 8 0 4 1;
#X connect 9 0 8 1;
#X connect 9 0 4 2;
#X connect 9 1 19 0;
#X connect 10 0 7 1;
#X connect 11 0 12 0;
#X connect 12 0 15 0;
#X connect 12 1 13 0;
#X connect 13 0 8 0;
#X connect 14 0 13 1;
#X connect 14 1 3 0;
#X connect 14 1 10 0;
#X connect 14 2 9 0;
#X connect 15 0 8 0;
#X connect 16 0 11 1;
#X connect 16 1 11 0;
#X connect 16 2 15 1;
#X connect 17 0 18 0;
#X connect 17 1 7 0;
#X connect 18 0 6 0;
#X connect 19 0 6 0;
#X restore 149 178 pd rexpline~;
#X obj 195 130 1-0switch;
#X obj 118 248 outlet~;
#X obj 106 213 *~ 0.84096;
#X obj 176 223 *~ 0.15904;
#X obj 163 44 inlet;
#X obj 117 149 pack f 10;
#X obj 141 114 pack 0 10;
#X obj 178 87 route lin attack release delay;
#X obj 285 189 del;
#X obj 273 140 b;
#X obj 277 165 spigot;
#X connect 0 0 11 0;
#X connect 1 0 9 0;
#X connect 1 0 13 0;
#X connect 2 0 6 0;
#X connect 3 0 7 0;
#X connect 4 0 7 1;
#X connect 6 0 5 0;
#X connect 7 0 5 0;
#X connect 8 0 10 0;
#X connect 9 0 2 0;
#X connect 9 0 3 0;
#X connect 10 0 3 0;
#X connect 10 0 2 0;
#X connect 11 0 4 0;
#X connect 11 0 6 1;
#X connect 11 1 9 1;
#X connect 11 2 10 1;
#X connect 11 3 12 1;
#X connect 11 3 14 1;
#X connect 12 0 10 0;
#X connect 13 0 14 0;
#X connect 14 0 12 0;
#X restore 179 334 pd vel;
#X obj 187 281 sel 0;
#X obj 128 146 t b f;
#X obj 235 58 route env1 env2 lfo1 lfo2 bmidi pbend mwheel porta lfo_mtx
sig_mtx wav_mtx1 wav_mtx2 pw1 pw2 bmidi1 bmidi2 bfmidi bres mul1 mul2
noiseq1 noiseq2 legato bhz1 bhz2 bhfmidi bhktrk bhq clear mul3 vca_mtx
vel ftype;
#N canvas 103 64 450 300 lpswitch 1;
#X obj 63 43 inlet~;
#X obj 183 55 inlet~;
#X obj 288 62 inlet;
#X obj 355 60 inlet;
#N canvas 0 23 450 300 bob 0;
#X obj 108 53 inlet~;
#X obj 178 53 inlet~;
#X obj 294 54 inlet;
#X obj 358 48 inlet;
#X obj 121 237 outlet~;
#X obj 334 212 switch~;
#X obj 305 146 shadylib/1-0switch;
#X obj 133 160 bob~;
#X connect 0 0 7 0;
#X connect 1 0 7 1;
#X connect 2 0 7 2;
#X connect 3 0 6 0;
#X connect 6 0 5 0;
#X connect 7 0 4 0;
#X restore 149 153 pd bob;
#N canvas 195 267 450 300 cyclone 1;
#X obj 38 36 inlet~;
#X obj 125 36 inlet~;
#X obj 217 38 inlet;
#X obj 324 42 inlet;
#X obj 198 257 outlet~;
#X obj 311 207 switch~;
#X obj 372 119 loadbang;
#X msg 361 165 0;
#X obj 384 44 inlet;
#X text 380 27 clear;
#X obj 99 114 cyclone/svf~;
#X obj 215 78 * 0.24;
#X connect 0 0 10 0;
#X connect 1 0 10 1;
#X connect 2 0 11 0;
#X connect 3 0 5 0;
#X connect 6 0 7 0;
#X connect 7 0 5 0;
#X connect 8 0 10 0;
#X connect 10 0 4 0;
#X connect 11 0 10 2;
#X restore 232 148 pd cyclone;
#X obj 238 243 outlet~;
#X obj 408 68 inlet;
#X connect 0 0 4 0;
#X connect 0 0 5 0;
#X connect 1 0 4 1;
#X connect 1 0 5 1;
#X connect 2 0 4 2;
#X connect 2 0 5 2;
#X connect 3 0 5 3;
#X connect 3 0 4 3;
#X connect 4 0 6 0;
#X connect 5 0 6 0;
#X connect 7 0 5 4;
#X restore 358 874 pd lpswitch;
#X connect 0 0 94 0;
#X connect 1 0 100 0;
#X connect 2 0 71 0;
#X connect 3 0 48 0;
#X connect 3 0 49 0;
#X connect 4 0 5 0;
#X connect 5 0 6 0;
#X connect 6 0 7 4;
#X connect 7 0 11 0;
#X connect 7 0 73 0;
#X connect 8 0 32 1;
#X connect 8 0 33 1;
#X connect 8 0 83 2;
#X connect 8 0 84 1;
#X connect 8 0 86 2;
#X connect 9 0 32 2;
#X connect 9 0 33 2;
#X connect 9 0 83 3;
#X connect 9 0 84 2;
#X connect 9 0 86 3;
#X connect 10 0 36 0;
#X connect 11 0 34 0;
#X connect 14 0 32 0;
#X connect 14 0 33 0;
#X connect 14 0 62 0;
#X connect 14 0 77 0;
#X connect 14 0 83 1;
#X connect 14 0 84 0;
#X connect 14 0 86 1;
#X connect 15 0 2 0;
#X connect 16 0 15 0;
#X connect 17 0 44 0;
#X connect 17 0 99 0;
#X connect 18 0 39 1;
#X connect 19 0 72 0;
#X connect 20 0 21 0;
#X connect 21 0 22 0;
#X connect 22 0 23 4;
#X connect 23 0 25 0;
#X connect 23 0 73 1;
#X connect 24 0 37 0;
#X connect 25 0 35 1;
#X connect 26 0 19 0;
#X connect 27 0 26 0;
#X connect 28 0 40 1;
#X connect 29 0 32 3;
#X connect 29 0 33 3;
#X connect 29 0 83 4;
#X connect 29 0 84 3;
#X connect 29 0 86 4;
#X connect 29 0 87 1;
#X connect 30 0 32 5;
#X connect 30 0 33 5;
#X connect 30 0 83 6;
#X connect 30 0 84 5;
#X connect 31 0 60 0;
#X connect 32 0 33 7;
#X connect 32 0 83 8;
#X connect 32 0 84 7;
#X connect 33 0 83 9;
#X connect 33 0 84 8;
#X connect 34 0 101 0;
#X connect 35 0 101 0;
#X connect 36 0 11 1;
#X connect 37 0 25 1;
#X connect 38 0 32 6;
#X connect 38 0 33 6;
#X connect 38 0 83 7;
#X connect 38 0 84 6;
#X connect 39 0 7 1;
#X connect 39 1 7 2;
#X connect 39 2 7 3;
#X connect 39 3 4 0;
#X connect 40 0 23 1;
#X connect 40 1 23 2;
#X connect 40 2 23 3;
#X connect 40 3 20 0;
#X connect 41 0 7 0;
#X connect 42 0 23 0;
#X connect 43 0 45 0;
#X connect 44 0 43 0;
#X connect 45 0 14 0;
#X connect 46 0 8 0;
#X connect 47 0 9 0;
#X connect 48 0 54 0;
#X connect 49 0 55 0;
#X connect 50 0 7 5;
#X connect 51 0 23 5;
#X connect 52 0 51 1;
#X connect 53 0 50 1;
#X connect 54 0 50 0;
#X connect 55 0 51 0;
#X connect 56 0 18 1;
#X connect 57 0 28 1;
#X connect 58 0 56 0;
#X connect 59 0 57 0;
#X connect 60 0 101 1;
#X connect 61 0 17 0;
#X connect 61 1 43 1;
#X connect 61 1 66 0;
#X connect 61 1 96 0;
#X connect 61 2 64 0;
#X connect 62 0 65 0;
#X connect 64 0 44 2;
#X connect 65 0 70 0;
#X connect 66 0 68 0;
#X connect 66 0 95 1;
#X connect 66 1 69 0;
#X connect 66 1 95 2;
#X connect 67 0 63 0;
#X connect 68 0 70 1;
#X connect 69 0 70 1;
#X connect 70 0 67 0;
#X connect 70 1 67 1;
#X connect 71 0 39 0;
#X connect 71 0 48 1;
#X connect 71 0 54 1;
#X connect 72 0 40 0;
#X connect 72 0 49 1;
#X connect 72 0 55 1;
#X connect 73 0 74 0;
#X connect 74 0 101 0;
#X connect 75 1 13 0;
#X connect 76 0 78 0;
#X connect 77 0 76 0;
#X connect 78 0 75 1;
#X connect 79 0 75 0;
#X connect 79 0 101 4;
#X connect 80 0 81 1;
#X connect 81 0 31 0;
#X connect 82 0 80 0;
#X connect 83 0 16 0;
#X connect 83 1 18 0;
#X connect 83 2 27 0;
#X connect 83 3 28 0;
#X connect 83 4 81 0;
#X connect 83 5 88 0;
#X connect 83 6 90 0;
#X connect 83 7 92 0;
#X connect 84 0 83 10;
#X connect 85 0 33 4;
#X connect 85 0 32 4;
#X connect 85 0 83 5;
#X connect 85 0 84 4;
#X connect 85 0 86 5;
#X connect 85 0 87 2;
#X connect 86 0 30 0;
#X connect 86 1 38 0;
#X connect 87 0 89 1;
#X connect 87 1 91 1;
#X connect 87 2 93 1;
#X connect 88 0 89 0;
#X connect 89 0 34 1;
#X connect 90 0 91 0;
#X connect 91 0 35 0;
#X connect 92 0 93 0;
#X connect 93 0 74 1;
#X connect 94 0 62 0;
#X connect 94 1 61 0;
#X connect 95 0 29 0;
#X connect 95 0 85 0;
#X connect 96 0 29 2;
#X connect 96 0 85 2;
#X connect 96 0 98 0;
#X connect 97 0 86 6;
#X connect 97 0 32 7;
#X connect 97 0 33 8;
#X connect 97 0 84 9;
#X connect 97 0 83 11;
#X connect 98 0 97 1;
#X connect 98 1 97 0;
#X connect 98 1 30 2;
#X connect 98 1 38 2;
#X connect 99 0 95 0;
#X connect 99 1 29 1;
#X connect 99 1 85 1;
#X connect 100 0 29 4;
#X connect 100 1 85 4;
#X connect 100 2 30 1;
#X connect 100 3 38 1;
#X connect 100 4 16 1;
#X connect 100 4 17 1;
#X connect 100 4 27 1;
#X connect 100 4 64 1;
#X connect 100 4 65 1;
#X connect 100 5 46 0;
#X connect 100 6 47 0;
#X connect 100 6 29 3;
#X connect 100 6 85 3;
#X connect 100 7 44 1;
#X connect 100 8 86 0;
#X connect 100 9 83 0;
#X connect 100 10 10 0;
#X connect 100 10 41 0;
#X connect 100 11 24 0;
#X connect 100 11 42 0;
#X connect 100 12 58 0;
#X connect 100 13 59 0;
#X connect 100 14 15 1;
#X connect 100 15 26 1;
#X connect 100 16 82 0;
#X connect 100 17 101 2;
#X connect 100 18 32 8;
#X connect 100 19 33 9;
#X connect 100 20 48 2;
#X connect 100 20 54 2;
#X connect 100 20 53 0;
#X connect 100 21 49 2;
#X connect 100 21 55 2;
#X connect 100 21 52 0;
#X connect 100 22 95 3;
#X connect 100 23 71 1;
#X connect 100 24 72 1;
#X connect 100 25 76 1;
#X connect 100 26 77 1;
#X connect 100 27 75 2;
#X connect 100 28 79 0;
#X connect 100 29 84 10;
#X connect 100 30 87 0;
#X connect 100 31 97 2;
#X connect 100 32 101 3;
#X connect 101 0 75 0;
