#N canvas 609 23 603 554 10;
#X obj 43 24 notein 1;
#X obj 38 50 pack f f;
#X floatatom 138 55 5 0 0 0 - - -, f 5;
#X obj 35 77 mellotron 9 4000 0.1 0.1;
#X text 220 298 2nd outlet: parameters;
#X obj 204 324 print;
#X text 208 60 2nd inlet: parameters;
#X text 224 144 args in order: patch \, tone frequency \, wow \, flutter
\, pitch;
#X msg 204 36 49 127, f 7;
#X obj 43 354 shadylib/outputc~;
#X obj 276 365 shadylib/oscope~;
#X connect 0 0 1 0;
#X connect 0 0 2 0;
#X connect 0 1 1 1;
#X connect 1 0 3 0;
#X connect 3 0 9 1;
#X connect 3 0 9 0;
#X connect 3 0 10 0;
#X connect 3 1 5 0;
#X connect 8 0 3 0;
