#N canvas 176 48 864 636 10;
#X declare -lib iemlib;
#X obj 272 68 vradio 15 1 0 10 empty empty empty 0 -8 0 10 #fcfcfc
#000000 #000000 0;
#N canvas 434 97 721 689 loadsamps 0;
#X obj 83 21 inlet;
#X obj 101 100 sel 0 1 2 3 4 5 6 7 8 9;
#X msg 54 128 Cello;
#X msg 94 146 CombinedChoir;
#X msg 126 172 GC3Brass;
#X msg 148 195 M300A;
#X obj 94 309 until;
#X msg 162 218 M300B;
#X msg 178 243 MKIIBrass;
#X msg 200 265 MKIIFlute;
#X msg 239 318 MKIIViolins;
#X msg 267 359 StringSection;
#X msg 292 393 Woodwind2;
#X obj 87 441 % 12;
#X msg 100 495 C;
#X msg 114 511 C#;
#X msg 129 496 D;
#X msg 143 512 D#;
#X msg 157 495 E;
#X msg 171 511 F;
#X msg 186 496 F#;
#X msg 200 512 G;
#X msg 211 493 G#;
#X msg 229 514 A;
#X msg 237 493 A#;
#X obj 93 470 sel 0 1 2 3 4 5 6 7 8 9 10 11;
#X msg 256 514 B;
#X obj 167 380 div 12;
#X obj 209 406 + 2;
#X obj 134 540 symbol;
#X obj 90 422 + 7;
#X msg 122 331 0;
#X msg 142 596 read -resize \$4/\$1\$2.wav \$5-mello-\$3;
#X obj 143 566 pack s f f s \$0;
#X obj 212 542 symbol;
#X obj 112 375 t f f;
#X msg 82 268 35;
#X obj 77 77 t b b f;
#X obj 142 629 soundfiler;
#X obj 89 55 change -1;
#X obj 95 352 ekext/cup;
#X connect 0 0 39 0;
#X connect 1 0 2 0;
#X connect 1 1 3 0;
#X connect 1 2 4 0;
#X connect 1 3 5 0;
#X connect 1 4 7 0;
#X connect 1 5 8 0;
#X connect 1 6 9 0;
#X connect 1 7 10 0;
#X connect 1 8 11 0;
#X connect 1 9 12 0;
#X connect 2 0 34 0;
#X connect 3 0 34 0;
#X connect 4 0 34 0;
#X connect 5 0 34 0;
#X connect 6 0 40 0;
#X connect 7 0 34 0;
#X connect 8 0 34 0;
#X connect 9 0 34 0;
#X connect 10 0 34 0;
#X connect 11 0 34 0;
#X connect 12 0 34 0;
#X connect 13 0 25 0;
#X connect 14 0 29 0;
#X connect 15 0 29 0;
#X connect 16 0 29 0;
#X connect 17 0 29 0;
#X connect 18 0 29 0;
#X connect 19 0 29 0;
#X connect 20 0 29 0;
#X connect 21 0 29 0;
#X connect 22 0 29 0;
#X connect 23 0 29 0;
#X connect 24 0 29 0;
#X connect 25 0 14 0;
#X connect 25 1 15 0;
#X connect 25 2 16 0;
#X connect 25 3 17 0;
#X connect 25 4 18 0;
#X connect 25 5 19 0;
#X connect 25 6 20 0;
#X connect 25 7 21 0;
#X connect 25 8 22 0;
#X connect 25 9 23 0;
#X connect 25 10 24 0;
#X connect 25 11 26 0;
#X connect 26 0 29 0;
#X connect 27 0 28 0;
#X connect 28 0 33 1;
#X connect 29 0 33 0;
#X connect 30 0 27 0;
#X connect 30 0 13 0;
#X connect 31 0 40 0;
#X connect 32 0 38 0;
#X connect 33 0 32 0;
#X connect 34 0 33 3;
#X connect 35 0 30 0;
#X connect 35 1 33 2;
#X connect 36 0 6 0;
#X connect 37 0 36 0;
#X connect 37 1 31 0;
#X connect 37 2 1 0;
#X connect 39 0 37 0;
#X connect 40 0 35 0;
#X restore 265 329 pd loadsamps;
#X floatatom 329 62 5 0 0 0 - - - 0;
#N canvas 474 274 826 440 arrs 0;
#X obj 13 16 table \$0-mello-0;
#X obj 120 15 table \$0-mello-1;
#X obj 223 14 table \$0-mello-2;
#X obj 330 13 table \$0-mello-3;
#X obj 442 14 table \$0-mello-4;
#X obj 549 13 table \$0-mello-5;
#X obj 10 42 table \$0-mello-6;
#X obj 117 41 table \$0-mello-7;
#X obj 220 40 table \$0-mello-8;
#X obj 327 39 table \$0-mello-9;
#X obj 439 40 table \$0-mello-10;
#X obj 550 41 table \$0-mello-11;
#X obj 12 72 table \$0-mello-12;
#X obj 119 71 table \$0-mello-13;
#X obj 222 70 table \$0-mello-14;
#X obj 329 69 table \$0-mello-15;
#X obj 441 70 table \$0-mello-16;
#X obj 548 69 table \$0-mello-17;
#X obj 9 98 table \$0-mello-18;
#X obj 116 97 table \$0-mello-19;
#X obj 219 96 table \$0-mello-20;
#X obj 326 95 table \$0-mello-21;
#X obj 438 96 table \$0-mello-22;
#X obj 549 97 table \$0-mello-23;
#X obj 9 130 table \$0-mello-24;
#X obj 116 129 table \$0-mello-25;
#X obj 219 128 table \$0-mello-26;
#X obj 326 127 table \$0-mello-27;
#X obj 438 128 table \$0-mello-28;
#X obj 545 127 table \$0-mello-29;
#X obj 6 156 table \$0-mello-30;
#X obj 113 155 table \$0-mello-31;
#X obj 216 154 table \$0-mello-32;
#X obj 323 153 table \$0-mello-33;
#X obj 435 154 table \$0-mello-34;
#X obj 546 155 table \$0-mello-35;
#X restore 466 144 pd arrs;
#X obj 153 3 loadbang;
#X obj 77 93 inlet;
#X obj 86 195 poly 10 0;
#X obj 62 137 unpack f f;
#X obj 78 295 pack f f f;
#X obj 79 328 route 1 2 3 4 5 6 7 8 9 10;
#X obj 164 608 outlet~;
#X text 291 66 Cello;
#X text 291 82 CombinedChoir;
#X text 291 97 GC3Brass;
#X text 289 111 M300A;
#X text 290 127 M300B;
#X text 289 143 MKIIBrass;
#X text 289 159 MKIIFlute;
#X text 289 172 MKIIViolins;
#X text 290 186 StringSection;
#X text 290 202 Woodwind2;
#X obj 448 -8 inlet;
#X obj 113 31 f \$2;
#X obj 123 75 f \$3;
#X obj 139 104 f \$4;
#X obj 168 141 f \$5;
#X obj 166 183 + 1;
#X obj 235 283 - 1;
#X obj 294 21 f \$1;
#X obj 457 27 route tone wow flutter patch pitch;
#X obj 173 584 *~ 0.25;
#X obj 195 366 mellovoice \$0;
#X obj 133 432 mellovoice \$0;
#X obj 100 383 mellovoice \$0;
#X obj 175 478 mellovoice \$0;
#X obj 215 392 mellovoice \$0;
#X obj 7 375 mellovoice \$0;
#X obj 113 406 mellovoice \$0;
#X obj 155 452 mellovoice \$0;
#X obj 188 501 mellovoice \$0;
#X obj 208 527 mellovoice \$0;
#X obj 405 351 outlet;
#X obj 217 70 flatgui/knob 32 32 500 20000 0 0 empty empty tone_control
0 -10 0 13 -1.55067e+09 21959 -1.55071e+09 556 1;
#X obj 217 123 flatgui/knob 32 32 0 1 0 0 empty empty wow 0 -10 0 13
-1.55067e+09 21959 -1.55071e+09 310 1;
#X obj 215 178 flatgui/knob 32 32 0 1 0 0 empty empty flutter 0 -10
0 13 -1.55067e+09 21959 -1.55071e+09 310 1;
#X obj 216 233 flatgui/knob 32 32 0 2 0 0 empty empty pitch 0 -10 0
13 -1.55067e+09 21959 -1.55071e+09 1550 1;
#X obj 171 214 zexy/nop;
#X obj 163 560 iemlib/lp2_butt~ 20000 100;
#X obj 356 289 zexy/nop;
#X obj 411 300 shadylib/prepender tone wow flutter patch pitch;
#X obj 26 167 shadylib/inrange 43 78;
#X obj 70 52 shadylib/if 0 20000;
#X obj 589 167 declare -lib iemlib;
#X connect 0 0 2 0;
#X connect 0 0 1 0;
#X connect 0 0 49 3;
#X connect 4 0 22 0;
#X connect 4 0 23 0;
#X connect 4 0 24 0;
#X connect 4 0 25 0;
#X connect 4 0 28 0;
#X connect 5 0 7 0;
#X connect 6 0 8 0;
#X connect 6 1 8 1;
#X connect 6 2 8 2;
#X connect 7 0 50 0;
#X connect 7 1 6 1;
#X connect 8 0 9 0;
#X connect 9 0 36 0;
#X connect 9 1 33 0;
#X connect 9 2 37 0;
#X connect 9 3 32 0;
#X connect 9 4 38 0;
#X connect 9 5 34 0;
#X connect 9 6 39 0;
#X connect 9 7 40 0;
#X connect 9 8 31 0;
#X connect 9 9 35 0;
#X connect 21 0 29 0;
#X connect 22 0 51 0;
#X connect 23 0 43 0;
#X connect 24 0 44 0;
#X connect 25 0 26 0;
#X connect 26 0 45 0;
#X connect 27 0 31 3;
#X connect 27 0 32 3;
#X connect 27 0 33 3;
#X connect 27 0 34 3;
#X connect 27 0 35 3;
#X connect 27 0 36 3;
#X connect 27 0 37 3;
#X connect 27 0 38 3;
#X connect 27 0 39 3;
#X connect 27 0 40 3;
#X connect 28 0 0 0;
#X connect 29 0 42 0;
#X connect 29 1 43 0;
#X connect 29 2 44 0;
#X connect 29 3 0 0;
#X connect 29 4 45 0;
#X connect 30 0 10 0;
#X connect 31 0 47 0;
#X connect 32 0 47 0;
#X connect 33 0 47 0;
#X connect 34 0 47 0;
#X connect 35 0 47 0;
#X connect 36 0 47 0;
#X connect 37 0 47 0;
#X connect 38 0 47 0;
#X connect 39 0 47 0;
#X connect 40 0 47 0;
#X connect 42 0 47 1;
#X connect 42 0 49 0;
#X connect 43 0 46 0;
#X connect 43 0 49 1;
#X connect 44 0 48 0;
#X connect 44 0 49 2;
#X connect 45 0 27 0;
#X connect 45 0 49 4;
#X connect 46 0 31 1;
#X connect 46 0 32 1;
#X connect 46 0 33 1;
#X connect 46 0 34 1;
#X connect 46 0 35 1;
#X connect 46 0 36 1;
#X connect 46 0 37 1;
#X connect 46 0 38 1;
#X connect 46 0 39 1;
#X connect 46 0 40 1;
#X connect 47 0 30 0;
#X connect 48 0 31 2;
#X connect 48 0 32 2;
#X connect 48 0 33 2;
#X connect 48 0 34 2;
#X connect 48 0 35 2;
#X connect 48 0 36 2;
#X connect 48 0 37 2;
#X connect 48 0 38 2;
#X connect 48 0 39 2;
#X connect 48 0 40 2;
#X connect 49 0 41 0;
#X connect 50 0 6 0;
#X connect 51 0 42 0;
#X coords 0 -1 1 1 165 240 1 210 35;
