#N canvas 372 144 1068 597 10;
#X obj 110 19 inlet;
#X obj 168 63 sel 0;
#X msg 213 241 1 \$1;
#X obj 246 50 noise~;
#X obj 112 39 unpack f f;
#X obj 113 122 spigot;
#X msg 154 98 0;
#X msg 195 86 1;
#X obj 325 338 tabread4;
#X msg 342 317 1;
#X obj 294 155 *~ 0;
#X obj 451 54 inlet;
#X obj 116 152 t b f;
#X obj 347 496 *~;
#X obj 363 549 outlet~;
#X obj 176 169 - 43;
#X obj 503 56 inlet;
#X obj 372 131 *~ 20;
#X obj 379 158 *~ 0;
#X obj 342 86 lop~ 3;
#X obj 343 109 lop~ 3;
#X obj 350 62 noise~;
#X obj 385 185 +~ 1;
#X obj 367 478 *~;
#X msg 309 179 2;
#X obj 154 201 f;
#X obj 257 83 lop~ 5;
#X obj 258 106 lop~ 5;
#X obj 287 128 *~ 12;
#X obj 634 110 inlet;
#X obj 280 202 +~ 0;
#X obj 204 132 -;
#X msg 201 110 127 \$1;
#X obj 36 309 *~;
#X obj 114 294 *~;
#X msg 66 236 0 \$1;
#X obj 360 521 hip~ 5;
#X obj 207 156 * 4;
#X msg 27 236 \$1 5;
#X obj 99 174 del 5;
#X obj 35 152 * 0.01;
#X obj 113 349 *~ 0.03125;
#X obj 136 383 -~ 0;
#X obj 218 284 tof/phasorshot~;
#X obj 269 337 *~ 1;
#X obj 271 261 *~ 1;
#X obj 269 367 +~ 1;
#X msg 242 260 0;
#X obj 137 412 hip~ 7;
#X obj 371 214 pack f \$1;
#X obj 182 353 * 0.015625;
#X msg 165 225 0 150;
#X obj 268 239 shadylib/transpose~;
#X obj 180 316 shadylib/rexpline~;
#X obj 351 396 shadylib/tabread4hs~;
#X obj 31 265 shadylib/rexpline~;
#X obj 366 446 shadylib/switchnramp~;
#X obj -17 207 shadylib/rndmrange 100 1 27;
#X msg 401 237 symbol \$2-mello-\$1;
#X msg 457 295 set \$1;
#X obj 362 259 t b s;
#X obj 371 294 array size;
#X obj 389 318 shadylib/stoms;
#X obj 393 354 shadylib/mstof;
#X connect 0 0 4 0;
#X connect 1 0 51 0;
#X connect 1 0 6 0;
#X connect 1 1 7 0;
#X connect 1 1 32 0;
#X connect 1 1 40 0;
#X connect 2 0 53 0;
#X connect 3 0 26 0;
#X connect 4 0 5 0;
#X connect 4 1 1 0;
#X connect 5 0 12 0;
#X connect 6 0 5 1;
#X connect 7 0 5 1;
#X connect 8 0 56 1;
#X connect 9 0 8 0;
#X connect 10 0 30 0;
#X connect 11 0 10 1;
#X connect 12 0 25 0;
#X connect 12 0 39 0;
#X connect 12 0 47 0;
#X connect 12 1 15 0;
#X connect 13 0 36 0;
#X connect 15 0 49 0;
#X connect 16 0 18 1;
#X connect 17 0 18 0;
#X connect 18 0 22 0;
#X connect 19 0 20 0;
#X connect 20 0 17 0;
#X connect 20 0 34 1;
#X connect 21 0 19 0;
#X connect 22 0 23 1;
#X connect 23 0 13 1;
#X connect 24 0 49 0;
#X connect 25 0 45 1;
#X connect 26 0 27 0;
#X connect 27 0 28 0;
#X connect 28 0 10 0;
#X connect 28 0 33 1;
#X connect 29 0 30 1;
#X connect 30 0 52 0;
#X connect 31 0 37 0;
#X connect 32 0 31 0;
#X connect 33 0 30 0;
#X connect 34 0 22 0;
#X connect 35 0 55 0;
#X connect 36 0 14 0;
#X connect 37 0 2 0;
#X connect 38 0 55 0;
#X connect 39 0 57 0;
#X connect 40 0 38 0;
#X connect 40 0 50 0;
#X connect 41 0 42 0;
#X connect 42 0 48 0;
#X connect 43 0 44 0;
#X connect 44 0 46 0;
#X connect 45 0 43 0;
#X connect 46 0 54 0;
#X connect 47 0 43 1;
#X connect 48 0 30 0;
#X connect 49 0 58 0;
#X connect 50 0 42 1;
#X connect 51 0 53 0;
#X connect 52 0 45 0;
#X connect 53 0 13 0;
#X connect 54 0 56 0;
#X connect 55 0 33 0;
#X connect 55 0 34 0;
#X connect 55 0 13 0;
#X connect 55 0 41 0;
#X connect 56 0 23 0;
#X connect 57 0 35 0;
#X connect 58 0 60 0;
#X connect 59 0 8 0;
#X connect 59 0 54 0;
#X connect 60 0 9 0;
#X connect 60 0 61 0;
#X connect 60 1 59 0;
#X connect 60 1 61 1;
#X connect 61 0 44 1;
#X connect 61 0 62 0;
#X connect 62 0 63 0;
#X connect 63 0 25 1;
