#N canvas 294 154 572 467 10;
#X floatatom 184 146 5 0 1.5 0 - - - 0;
#X floatatom 279 149 5 0 50 0 - - - 0;
#X obj 243 261 zexy/nop;
#X floatatom 98 47 5 0 0 0 - - - 0;
#X obj 97 68 mtof;
#X obj 252 233 shadylib/prepender osc1 osc2;
#X floatatom 376 150 5 0 1.5 0 - - - 0;
#X floatatom 471 153 5 0 50 0 - - - 0;
#X msg 186 185 depth \$1;
#X msg 281 188 freq \$1;
#X msg 378 189 depth \$1;
#X msg 473 192 freq \$1;
#X obj 221 85 route float list;
#X obj 252 110 unpack f f;
#X obj 382 106 unpack f f;
#X msg 375 47 0.3 3;
#X floatatom 225 45 5 0 0 0 - - - 0;
#X msg 311 62 0.25 0.15;
#X obj 158 328 *~ 1;
#X obj 82 333 *~ 0;
#X obj 215 293 hsl 128 15 0 1 0 0 empty empty empty -2 -8 0 10 #fcfcfc
#000000 #000000 0 1;
#X obj 119 281 *~ 0.333333;
#X msg 414 45 0.6 6;
#X obj 271 6 loadbang;
#X msg 453 269 phase 0;
#X msg 267 37 0.14 0.1;
#X msg 202 265 1;
#X obj 132 211 lop~ 5000;
#X obj 125 188 lop~ 5000;
#X msg 154 52 0.14 0.28;
#X text 173 383 two-oscillators chorusing \, each with 3 taps equally
spaced around a circle (loosely based around solina chorus);
#X obj 98 87 shadylib/smoother~;
#X obj 94 127 shadylib/blsqr~ 0.5;
#X obj 102 307 shadylib/1-0switch;
#X obj 88 361 shadylib/outputc~;
#X obj 115 243 ./3phase~;
#X connect 0 0 8 0;
#X connect 1 0 9 0;
#X connect 2 0 35 1;
#X connect 3 0 4 0;
#X connect 4 0 31 0;
#X connect 5 0 2 0;
#X connect 6 0 10 0;
#X connect 7 0 11 0;
#X connect 8 0 5 0;
#X connect 9 0 5 0;
#X connect 10 0 5 1;
#X connect 11 0 5 1;
#X connect 12 0 0 0;
#X connect 12 0 6 0;
#X connect 12 1 13 0;
#X connect 13 0 0 0;
#X connect 13 1 6 0;
#X connect 14 0 1 0;
#X connect 14 1 7 0;
#X connect 15 0 14 0;
#X connect 16 0 12 0;
#X connect 17 0 12 0;
#X connect 18 0 34 1;
#X connect 18 0 34 0;
#X connect 19 0 34 0;
#X connect 19 0 34 1;
#X connect 20 0 18 1;
#X connect 20 0 33 0;
#X connect 21 0 18 0;
#X connect 22 0 14 0;
#X connect 23 0 22 0;
#X connect 23 0 29 0;
#X connect 23 0 26 0;
#X connect 24 0 5 1;
#X connect 24 0 5 0;
#X connect 25 0 12 0;
#X connect 26 0 20 0;
#X connect 27 0 35 0;
#X connect 28 0 27 0;
#X connect 29 0 12 0;
#X connect 31 0 32 0;
#X connect 32 0 28 0;
#X connect 32 0 19 0;
#X connect 33 0 19 1;
#X connect 35 0 21 0;
#X connect 35 1 21 0;
#X connect 35 2 21 0;
