#N canvas 171 142 583 402 10;
#X obj 27 24 inlet~;
#X obj 269 12 inlet;
#X obj 80 147 cos~;
#X obj 156 146 +~ 0.333333;
#X obj 218 182 +~ 0.333333;
#X obj 30 339 outlet~;
#X obj 154 304 outlet~;
#X obj 210 316 outlet~;
#X obj 172 201 cos~;
#X obj 226 206 cos~;
#N canvas 0 23 450 300 delwriter~ 0;
#X obj 172 78 inlet~;
#X obj 194 218 outlet~;
#X obj 142 145 shadylib/delwritec~ \$0-3phs 5;
#X connect 0 0 2 0;
#X restore 53 52 pd delwriter~;
#N canvas 0 23 450 300 sigflwphasor1~ 0;
#X obj 175 57 inlet~;
#X obj 195 202 outlet~;
#X obj 263 64 inlet;
#X obj 332 84 inlet;
#X obj 188 143 phasor~;
#X connect 2 0 4 0;
#X connect 3 0 4 1;
#X connect 4 0 1 0;
#X restore 102 109 pd sigflwphasor1~;
#X obj 262 34 route osc1 osc2;
#X obj 261 54 route freq depth phase;
#N canvas 0 23 450 300 sigflwphasor2~ 0;
#X obj 175 57 inlet~;
#X obj 195 202 outlet~;
#X obj 263 64 inlet;
#X obj 332 84 inlet;
#X obj 188 143 phasor~;
#X connect 2 0 4 0;
#X connect 3 0 4 1;
#X connect 4 0 1 0;
#X restore 317 110 pd sigflwphasor2~;
#X obj 335 84 route freq depth phase;
#X obj 312 137 cos~;
#X obj 397 162 +~ 0.333333;
#X obj 459 198 +~ 0.333333;
#X obj 396 191 cos~;
#X obj 467 222 cos~;
#X obj 285 223 *~ 0;
#X obj 402 226 *~ 0;
#X obj 480 255 *~ 0;
#X obj 212 228 *~ 0;
#X obj 139 227 *~ 0;
#X obj 47 230 *~ 0;
#X obj 322 193 clip 0 1;
#X obj 81 177 clip 0 1;
#X obj 214 250 +~ 2.5;
#X obj 131 252 +~ 2.5;
#X obj 53 259 +~ 2.5;
#X obj 121 274 shadylib/vdhs~ \$0-3phs;
#X obj 282 285 shadylib/vdhs~ \$0-3phs;
#X obj 14 308 shadylib/vdhs~ \$0-3phs;
#X connect 0 0 10 0;
#X connect 1 0 12 0;
#X connect 2 0 26 0;
#X connect 3 0 4 0;
#X connect 3 0 8 0;
#X connect 4 0 9 0;
#X connect 8 0 25 0;
#X connect 9 0 24 0;
#X connect 10 0 11 0;
#X connect 10 0 14 0;
#X connect 11 0 2 0;
#X connect 11 0 3 0;
#X connect 12 0 13 0;
#X connect 12 1 15 0;
#X connect 13 0 11 1;
#X connect 13 1 28 0;
#X connect 13 2 11 2;
#X connect 14 0 16 0;
#X connect 14 0 17 0;
#X connect 15 0 14 1;
#X connect 15 1 27 0;
#X connect 15 2 14 2;
#X connect 16 0 21 0;
#X connect 17 0 18 0;
#X connect 17 0 19 0;
#X connect 18 0 20 0;
#X connect 19 0 22 0;
#X connect 20 0 23 0;
#X connect 21 0 31 0;
#X connect 22 0 30 0;
#X connect 23 0 29 0;
#X connect 24 0 29 0;
#X connect 25 0 30 0;
#X connect 26 0 31 0;
#X connect 27 0 21 1;
#X connect 27 0 22 1;
#X connect 27 0 23 1;
#X connect 28 0 24 1;
#X connect 28 0 25 1;
#X connect 28 0 26 1;
#X connect 29 0 33 0;
#X connect 30 0 32 0;
#X connect 31 0 34 0;
#X connect 32 0 6 0;
#X connect 33 0 7 0;
#X connect 34 0 5 0;
