#N canvas 217 23 1223 855 10;
#N canvas 110 161 600 368 upsamp 0;
#X obj 83 17 tabreceive~ \$0-freqs;
#X obj 323 66 table \$0-phases 64;
#X obj 276 195 cos~;
#X obj 220 111 tabreceive~ \$0-phases;
#X obj 156 165 +~;
#X obj 153 204 wrap~;
#X obj 140 229 tabsend~ \$0-phases;
#X obj 278 337 outlet~;
#X obj 156 140 *~ 0;
#X obj 233 24 inlet;
#X obj 334 219 tabreceive~ \$0-amps;
#X obj 279 283 *~;
#X obj 279 309 rfft~;
#X obj 229 61 swap 1;
#X obj 229 82 /;
#X obj 356 268 *~;
#X obj 429 161 * 0.5;
#X obj 364 199 expr~ $v1 < $f2;
#X obj 187 43 inlet~;
#X obj 155 93 *~;
#X obj 512 170 bng 15 250 50 0 empty empty empty 17 7 0 10 -262144
-1 -1;
#X obj 411 343 print~;
#X obj 431 306 bng 15 250 50 0 empty empty empty 17 7 0 10 -262144
-1 -1;
#X obj 286 249 print~ cos;
#X obj 345 302 print~ env;
#X obj 467 240 print~ amps;
#X obj 91 306 block~ 64 1 64;
#X connect 0 0 19 0;
#X connect 2 0 11 0;
#X connect 2 0 23 0;
#X connect 3 0 4 1;
#X connect 3 0 2 0;
#X connect 4 0 5 0;
#X connect 5 0 6 0;
#X connect 8 0 4 0;
#X connect 9 0 13 0;
#X connect 9 0 16 0;
#X connect 10 0 15 0;
#X connect 10 0 25 0;
#X connect 11 0 12 0;
#X connect 11 0 24 0;
#X connect 12 0 7 0;
#X connect 12 0 21 0;
#X connect 13 0 14 0;
#X connect 13 1 14 1;
#X connect 14 0 8 1;
#X connect 15 0 11 1;
#X connect 16 0 17 1;
#X connect 17 0 15 1;
#X connect 18 0 19 1;
#X connect 19 0 8 0;
#X connect 19 0 17 0;
#X connect 20 0 21 0;
#X connect 20 0 24 0;
#X connect 20 0 23 0;
#X connect 20 0 25 0;
#X connect 22 0 21 0;
#X restore 247 231 pd upsamp;
#N canvas 0 22 450 278 (subpatch) 0;
#X array \$0-freqs 64 float 3;
#A 0 523.251 130.813 523.251 311.127 195.998 233.082 391.995 130.813
155.563 349.228 466.164 523.251 391.995 261.626 155.563 195.998 466.164
391.995 195.998 391.995 698.456 155.563 195.998 391.995 233.082 174.614
523.251 261.626 523.251 466.164 174.614 261.626 523.251 130.813 466.164
311.127 311.127 311.127 466.164 174.614 233.082 466.164 523.251 391.995
466.164 466.164 698.456 349.228 261.626 523.251 391.995 391.995 622.254
622.254 391.995 195.998 130.813 261.626 466.164 349.228 195.998 155.563
155.563 233.082;
#X coords 0 1000 64 0 200 140 1 0 0;
#X restore 470 312 graph;
#X obj 781 730 s \$0-freqs;
#X msg 781 689 yticks 0 50 2 \, ylabel 0 0 500 1000 \, xticks 0 4 2
\, xlabel -25 16 32 48 64;
#X obj 240 291 output~;
#X obj 487 509 tabwrite \$0-freqs;
#X floatatom 577 488 5 0 0 0 - - -;
#X floatatom 488 489 5 0 0 0 - - -;
#X obj 412 23 loadbang;
#X obj 362 99 samplerate~;
#X obj 427 78 bng 15 250 50 0 empty empty empty 17 7 0 10 -262144 -1
-1;
#N canvas 0 22 450 278 (subpatch) 0;
#X array \$0-amps 64 float 3;
#A 0 0.015625 0.015625 0.015625 0.015625 0.015625 0.015625 0.015625
0.015625 0.015625 0.015625 0.015625 0.015625 0.015625 0.015625 0.015625
0.015625 0.015625 0.015625 0.015625 0.015625 0.015625 0.015625 0.015625
0.015625 0.015625 0.015625 0.015625 0.015625 0.015625 0.015625 0.015625
0.015625 0.015625 0.015625 0.015625 0.015625 0.015625 0.015625 0.015625
0.015625 0.015625 0.015625 0.015625 0.015625 0.015625 0.015625 0.015625
0.015625 0.015625 0.015625 0.015625 0.015625 0.015625 0.015625 0.015625
0.015625 0.015625 0.015625 0.015625 0.015625 0.015625 0.015625 0.015625
0.015625;
#X coords 0 1 64 0 200 140 1 0 0;
#X restore 705 314 graph;
#X obj 789 806 s \$0-amps;
#X msg 786 766 yticks 0 0.2 5 \, ylabel 0 0 0.5 1 \, xticks 0 4 2 \,
xlabel -0.1 16 32 48 64;
#X floatatom 856 485 5 0 0 0 - - -;
#X floatatom 767 486 5 0 0 0 - - -;
#X obj 763 508 tabwrite \$0-amps;
#X text 324 255 *2/64;
#X floatatom 151 295 5 0 0 0 - - -;
#X obj 79 380 until;
#X msg 85 359 64;
#X obj 91 315 f;
#X obj 89 279 bng 15 250 50 0 empty empty generate 17 7 0 10 -262144
-1 -1;
#X floatatom 124 217 5 0 0 0 set&generate - -;
#X obj 120 240 t b f;
#X obj 90 441 *;
#X obj 91 336 t b f b;
#X obj 85 400 f;
#X obj 135 399 + 1;
#X obj 88 467 tabwrite \$0-freqs;
#X obj 85 419 t f f;
#X obj 321 553 s \$0-phases;
#X msg 305 522 const 0;
#X text 302 495 set phases;
#X text 11 197 set and generate frequency:;
#X text 479 279 x-axis is oscillator #;
#X obj 95 714 list prepend;
#X obj 96 746 route 0 1 2;
#X obj 321 127 r \$0-autogain;
#X obj 131 874 s \$0-autogain;
#X obj 16 2 hradio 15 1 0 3 empty empty tri/sqr/saw 0 -8 0 10 -262144
-1 -1 2;
#X obj 161 442 - 1;
#X msg 140 375 1;
#X obj 95 647 until;
#X msg 101 626 64;
#X obj 101 667 f;
#X obj 151 666 + 1;
#X obj 101 686 t f f;
#X msg 156 642 1;
#X obj 66 823 f;
#X obj 33 821 +;
#X msg 61 763 0;
#X obj 110 840 tabwrite \$0-amps;
#X obj 85 600 t b b f b;
#X obj 15 846 f;
#N canvas 32 305 450 300 tri 0;
#X obj 157 17 inlet;
#X obj 157 259 outlet;
#X obj 157 66 % 2;
#X obj 157 45 t f f;
#X obj 157 87 sel 0 1;
#X msg 157 118 0;
#X obj 187 117 f;
#X obj 319 108 div 2;
#X obj 320 210 outlet;
#X obj 319 133 % 2;
#X obj 319 154 * 0.5;
#X obj 189 162 *;
#X obj 187 138 t f f;
#X obj 189 183 swap 1;
#X obj 189 204 /;
#X obj 319 175 + 0.25;
#X connect 0 0 3 0;
#X connect 2 0 4 0;
#X connect 3 0 2 0;
#X connect 3 0 7 0;
#X connect 3 1 6 1;
#X connect 4 0 5 0;
#X connect 4 1 6 0;
#X connect 5 0 1 0;
#X connect 6 0 12 0;
#X connect 7 0 9 0;
#X connect 9 0 10 0;
#X connect 10 0 15 0;
#X connect 11 0 13 0;
#X connect 12 0 11 0;
#X connect 12 1 11 1;
#X connect 13 0 14 0;
#X connect 13 1 14 1;
#X connect 14 0 1 0;
#X connect 15 0 8 0;
#X restore 96 770 pd tri;
#X obj 203 712 - 1;
#X obj 268 836 tabwrite \$0-phases;
#X obj 248 255 *~ 0.03125;
#X floatatom 333 228 5 0 1 0 - - -;
#X obj 321 148 swap 1;
#X obj 321 169 /;
#X obj 379 175 tgl 15 0 empty empty turn_on/off_autogain 17 7 0 10
-262144 -1 -1 1 1;
#X msg 371 151 1;
#N canvas 0 22 450 300 nothing 0;
#X obj 240 56 inlet;
#X obj 240 183 outlet;
#X connect 0 0 1 0;
#X restore 98 802 pd nothing;
#N canvas 0 22 450 300 sqr 0;
#X obj 124 35 inlet;
#X obj 82 239 outlet;
#X obj 296 234 outlet;
#X obj 119 78 % 2;
#X obj 119 99 sel 0 1;
#X msg 119 130 0;
#X obj 149 129 f;
#X obj 151 195 swap 1;
#X obj 151 216 /;
#X obj 119 57 t f f b;
#X msg 256 137 0.25;
#X connect 0 0 9 0;
#X connect 3 0 4 0;
#X connect 4 0 5 0;
#X connect 4 1 6 0;
#X connect 5 0 1 0;
#X connect 6 0 7 0;
#X connect 7 0 8 0;
#X connect 7 1 8 1;
#X connect 8 0 1 0;
#X connect 9 0 3 0;
#X connect 9 1 6 1;
#X connect 9 2 10 0;
#X connect 10 0 2 0;
#X restore 161 776 pd sqr;
#X text 465 535 set waveform/fix phases:;
#N canvas 0 22 450 300 saw 0;
#X obj 124 35 inlet;
#X obj 82 239 outlet;
#X obj 296 234 outlet;
#X obj 203 78 % 2;
#X obj 104 127 swap 1;
#X obj 104 148 /;
#X obj 121 57 t f f;
#X obj 203 99 * 0.5;
#X obj 203 120 + 0.25;
#X connect 0 0 6 0;
#X connect 3 0 7 0;
#X connect 4 0 5 0;
#X connect 4 1 5 1;
#X connect 5 0 1 0;
#X connect 6 0 4 0;
#X connect 6 1 3 0;
#X connect 7 0 8 0;
#X connect 8 0 2 0;
#X restore 219 785 pd saw;
#N canvas 0 22 450 278 (subpatch) 0;
#X array \$0-scope 1024 float 0;
#X coords 0 1 1023 -1 200 140 1 0 0;
#X restore 426 590 graph;
#X obj 353 317 tgl 15 0 empty empty empty 17 7 0 10 -262144 -1 -1 1
1;
#X obj 316 440 tabwrite~ \$0-scope;
#X obj 320 192 spigot;
#X obj 321 411 spigot;
#X obj 163 153 osc~;
#X floatatom 160 133 5 0 0 1 mod_freq - -;
#X obj 186 175 *~ 0;
#X obj 185 2 vsl 15 128 0 0.5 0 0 empty empty freq_mod_depth 0 -9 0
10 -262144 -1 -1 0 1;
#X obj 299 -15 vsl 15 128 0 4 0 0 empty empty freq_mod_offset 0 -9
0 10 -262144 -1 -1 3175 1;
#X floatatom 167 -31 5 0 0 0 - - -;
#X msg 138 -12 set \$1;
#X floatatom 272 -50 5 0 0 0 - - -;
#X msg 242 34 set \$1;
#X text 9 78 exponential frequency mod;
#X floatatom 107 36 5 0 0 0 set_midi_note - -;
#X obj 110 178 mtof;
#X msg 160 109 6;
#X floatatom 661 51 5 0 0 0 high - -;
#X obj 554 130 until;
#X msg 560 109 64;
#X obj 568 37 bng 15 250 50 0 empty empty generate 17 7 0 10 -262144
-1 -1;
#X obj 629 192 f;
#X obj 659 191 + 1;
#X obj 557 243 tabwrite \$0-freqs;
#X text 487 -79 random frequencies in a range \, linear;
#X obj 627 118 -;
#X floatatom 617 68 5 0 0 0 low - -;
#X obj 617 88 t b f;
#X msg 639 168 0;
#X obj 566 86 t b b;
#X obj 560 220 +;
#N canvas 0 22 450 300 float_rand 0;
#X obj 312 43 inlet;
#X obj 201 130 random 1.67772e+07;
#X obj 324 91 / 1.67772e+07;
#X obj 200 170 *;
#X obj 194 85 inlet;
#X obj 201 212 outlet;
#X connect 0 0 2 0;
#X connect 1 0 3 0;
#X connect 2 0 3 1;
#X connect 3 0 5 0;
#X connect 4 0 1 0;
#X restore 540 190 pd float_rand;
#X obj 557 158 t b b;
#X floatatom 900 36 5 0 0 0 high - -;
#X obj 766 116 until;
#X msg 772 95 64;
#X obj 776 15 bng 15 250 50 0 empty empty generate 17 7 0 10 -262144
-1 -1;
#X obj 841 178 f;
#X obj 871 177 + 1;
#X obj 765 244 tabwrite \$0-freqs;
#X obj 872 101 -;
#X floatatom 862 51 5 0 0 0 low - -;
#X obj 862 71 t b f;
#X msg 851 154 0;
#X obj 778 72 t b b;
#X obj 767 198 +;
#N canvas 0 22 450 300 float_rand 0;
#X obj 312 43 inlet;
#X obj 201 130 random 1.67772e+07;
#X obj 324 91 / 1.67772e+07;
#X obj 200 170 *;
#X obj 194 85 inlet;
#X obj 201 212 outlet;
#X connect 0 0 2 0;
#X connect 1 0 3 0;
#X connect 2 0 3 1;
#X connect 3 0 5 0;
#X connect 4 0 1 0;
#X restore 752 176 pd float_rand;
#X obj 769 144 t b b;
#X obj 765 220 mtof;
#X obj 204 563 s \$0-amps;
#X obj 419 -31 bng 15 250 50 0 empty empty equal_amps 17 7 0 10 -262144
-1 -1;
#X msg 175 541 1;
#X text 789 -76 random range by midi note;
#X floatatom 809 -38 5 0 0 0 center - -;
#X floatatom 906 -54 5 0 0 0 range - -;
#X obj 890 -34 * 0.5;
#X obj 845 15 -;
#X obj 895 14 +;
#X obj 811 -14 t b f;
#X obj 866 -13 t b b f;
#X floatatom 567 -36 5 0 0 0 center - -;
#X floatatom 662 -54 5 0 0 0 range - -;
#X obj 646 -34 * 0.5;
#X obj 601 15 -;
#X obj 651 14 +;
#X obj 567 -14 t b f;
#X obj 622 -13 t b b f;
#X msg 371 514 const 0.25;
#X msg 270 -71 1;
#X floatatom 1120 204 5 0 0 0 high - -;
#X obj 986 284 until;
#X msg 992 263 64;
#X obj 996 183 bng 15 250 50 0 empty empty generate 17 7 0 10 -262144
-1 -1;
#X obj 1061 346 f;
#X obj 1091 345 + 1;
#X obj 985 412 tabwrite \$0-freqs;
#X obj 1092 269 -;
#X floatatom 1082 219 5 0 0 0 low - -;
#X obj 1082 239 t b f;
#X msg 1071 322 0;
#X obj 998 240 t b b;
#X obj 987 366 +;
#N canvas 0 22 450 300 float_rand 0;
#X obj 312 43 inlet;
#X obj 201 130 random 1.67772e+07;
#X obj 324 91 / 1.67772e+07;
#X obj 200 170 *;
#X obj 194 85 inlet;
#X obj 201 212 outlet;
#X connect 0 0 2 0;
#X connect 1 0 3 0;
#X connect 2 0 3 1;
#X connect 3 0 5 0;
#X connect 4 0 1 0;
#X restore 972 344 pd float_rand;
#X obj 989 312 t b b;
#X floatatom 1041 94 5 0 0 0 center - -;
#X floatatom 1115 95 5 0 0 0 range - -;
#X obj 1110 134 * 0.5;
#X obj 1065 183 -;
#X obj 1115 182 +;
#X obj 1031 154 t b f;
#X obj 1086 155 t b b f;
#X obj 423 46 s \$0-lbang;
#X obj 144 -64 r \$0-lbang;
#X floatatom 974 -40 5 0 11 1 root_pitch_class - -;
#X text 1077 -10 pentatonic;
#X text 1094 30 harmonic minor;
#X text 1098 68 diatonic;
#X obj 108 16 b;
#X obj 114 126 line;
#X msg 108 97 \$1 50;
#N canvas 327 61 471 704 toscale 0;
#X obj 102 24 inlet;
#X obj 193 50 inlet;
#X obj 297 49 inlet;
#X obj 116 693 outlet;
#X obj 129 165 +;
#X obj 129 115 div 12;
#X obj 129 136 * 12;
#X obj 129 95 -;
#X obj 102 72 t f f;
#X obj 106 195 -;
#X obj 119 640 +;
#X obj 106 347 list store;
#X obj 102 45 int;
#X obj 107 268 f;
#X obj 106 219 t b f b;
#X msg 145 241 0;
#X msg 105 318 get \$1 2;
#X obj 146 268 + 1;
#X obj 166 372 swap;
#X obj 134 436 sel 1 0;
#X obj 133 482 -;
#X obj 120 459 f;
#X obj 145 395 t f f;
#X obj 133 503 * 0.5;
#X obj 104 526 +;
#X obj 109 552 >=;
#X obj 116 583 sel 1 0;
#X obj 113 609 f;
#X obj 141 609 f;
#X obj 119 661 mtof;
#X obj 104 289 t f f;
#X obj 142 414 >=;
#X connect 0 0 12 0;
#X connect 1 0 11 1;
#X connect 2 0 4 1;
#X connect 2 0 7 1;
#X connect 4 0 10 1;
#X connect 4 0 9 1;
#X connect 5 0 6 0;
#X connect 6 0 4 0;
#X connect 7 0 5 0;
#X connect 8 0 9 0;
#X connect 8 1 7 0;
#X connect 9 0 14 0;
#X connect 10 0 29 0;
#X connect 11 0 18 0;
#X connect 12 0 8 0;
#X connect 13 0 30 0;
#X connect 14 0 13 0;
#X connect 14 1 24 1;
#X connect 14 1 31 1;
#X connect 14 2 15 0;
#X connect 15 0 13 1;
#X connect 16 0 11 0;
#X connect 17 0 13 1;
#X connect 18 0 22 0;
#X connect 18 1 20 1;
#X connect 18 1 28 1;
#X connect 19 0 21 0;
#X connect 19 1 13 0;
#X connect 20 0 23 0;
#X connect 21 0 20 0;
#X connect 22 0 31 0;
#X connect 22 1 21 1;
#X connect 22 1 25 1;
#X connect 22 1 27 1;
#X connect 23 0 24 0;
#X connect 24 0 25 0;
#X connect 25 0 26 0;
#X connect 26 0 27 0;
#X connect 26 1 28 0;
#X connect 27 0 10 0;
#X connect 28 0 10 0;
#X connect 29 0 3 0;
#X connect 30 0 16 0;
#X connect 30 1 17 0;
#X connect 31 0 19 0;
#X restore 988 388 pd toscale;
#X obj 953 -5 t b f;
#X obj 987 126 t b l;
#X msg 996 -9 0 3 5 7 10;
#X msg 994 28 0 2 3 5 7 8 11;
#X msg 997 67 0 2 4 5 7 9 11;
#X obj 326 346 metro 150;
#X obj 255 148 line~;
#X obj 217 203 +~;
#X obj 258 125 pack f 100;
#X text 8 -41 change wave & note:;
#X text 323 11 shift freq;
#X text 979 -69 set to specific scale (midi notes):;
#X msg 203 540 const 0.015625;
#X obj 429 261 print~;
#X obj 477 230 bng 15 250 50 0 empty empty empty 17 7 0 10 -262144
-1 -1;
#X msg 901 512 64;
#X obj 901 533 until;
#X obj 908 556 f;
#X obj 939 558 + 1;
#X obj 882 612 random 100;
#X obj 882 633 * 0.01;
#X obj 885 655 tabwrite \$0-phases;
#X obj 896 580 t b f;
#X text 964 490 randomize phase;
#X obj 448 -7 bng 15 250 50 0 \$0-randphs empty random_phase 17 7 0
10 -262144 -1 -1;
#X obj 915 446 r \$0-randphs;
#X obj 910 486 t b b;
#X msg 945 518 0;
#X obj 936 466 bng 15 250 50 0 empty empty empty 17 7 0 10 -262144
-1 -1;
#X connect 0 0 58 0;
#X connect 3 0 2 0;
#X connect 6 0 5 1;
#X connect 7 0 5 0;
#X connect 8 0 9 0;
#X connect 8 0 63 0;
#X connect 8 0 160 0;
#X connect 9 0 0 1;
#X connect 10 0 9 0;
#X connect 13 0 12 0;
#X connect 14 0 16 1;
#X connect 15 0 16 0;
#X connect 18 0 21 1;
#X connect 19 0 27 0;
#X connect 20 0 19 0;
#X connect 21 0 26 0;
#X connect 22 0 21 0;
#X connect 23 0 24 0;
#X connect 24 0 21 0;
#X connect 24 1 18 0;
#X connect 25 0 29 0;
#X connect 26 0 20 0;
#X connect 26 1 25 1;
#X connect 26 2 42 0;
#X connect 27 0 30 0;
#X connect 27 0 28 0;
#X connect 28 0 27 1;
#X connect 30 0 25 0;
#X connect 30 1 41 0;
#X connect 32 0 31 0;
#X connect 36 0 37 0;
#X connect 37 0 55 0;
#X connect 37 1 65 0;
#X connect 37 2 67 0;
#X connect 38 0 60 0;
#X connect 40 0 53 0;
#X connect 40 0 166 0;
#X connect 41 0 29 1;
#X connect 42 0 27 1;
#X connect 43 0 45 0;
#X connect 44 0 43 0;
#X connect 45 0 47 0;
#X connect 45 0 46 0;
#X connect 46 0 45 1;
#X connect 47 0 36 0;
#X connect 47 1 56 0;
#X connect 48 0 45 1;
#X connect 49 0 50 1;
#X connect 50 0 49 0;
#X connect 50 0 54 1;
#X connect 51 0 49 0;
#X connect 53 0 54 0;
#X connect 53 1 44 0;
#X connect 53 2 36 1;
#X connect 53 3 48 0;
#X connect 53 3 51 0;
#X connect 54 0 39 0;
#X connect 55 0 64 0;
#X connect 55 1 57 0;
#X connect 56 0 52 1;
#X connect 56 0 57 1;
#X connect 58 0 4 0;
#X connect 58 0 4 1;
#X connect 58 0 70 0;
#X connect 58 0 183 0;
#X connect 59 0 58 1;
#X connect 60 0 61 0;
#X connect 60 1 61 1;
#X connect 61 0 71 0;
#X connect 62 0 71 1;
#X connect 63 0 62 0;
#X connect 63 0 69 0;
#X connect 64 0 50 0;
#X connect 64 0 52 0;
#X connect 65 0 64 0;
#X connect 65 1 57 0;
#X connect 67 0 64 0;
#X connect 67 1 57 0;
#X connect 69 0 72 1;
#X connect 69 0 175 0;
#X connect 71 0 59 0;
#X connect 72 0 70 0;
#X connect 73 0 75 0;
#X connect 74 0 73 0;
#X connect 75 0 177 0;
#X connect 76 0 75 1;
#X connect 76 0 79 0;
#X connect 77 0 81 0;
#X connect 77 0 178 0;
#X connect 78 0 76 0;
#X connect 79 0 78 0;
#X connect 80 0 77 0;
#X connect 81 0 80 0;
#X connect 83 0 168 0;
#X connect 84 0 23 0;
#X connect 85 0 74 0;
#X connect 86 0 94 0;
#X connect 87 0 101 0;
#X connect 88 0 87 0;
#X connect 89 0 98 0;
#X connect 90 0 91 0;
#X connect 90 0 92 1;
#X connect 91 0 90 1;
#X connect 94 0 100 1;
#X connect 95 0 96 0;
#X connect 96 0 94 0;
#X connect 96 1 94 1;
#X connect 96 1 99 1;
#X connect 97 0 90 1;
#X connect 98 0 88 0;
#X connect 98 1 97 0;
#X connect 99 0 92 0;
#X connect 100 0 99 0;
#X connect 101 0 100 0;
#X connect 101 1 90 0;
#X connect 102 0 109 0;
#X connect 103 0 116 0;
#X connect 104 0 103 0;
#X connect 105 0 113 0;
#X connect 106 0 107 0;
#X connect 106 0 108 1;
#X connect 107 0 106 1;
#X connect 109 0 115 1;
#X connect 110 0 111 0;
#X connect 111 0 109 0;
#X connect 111 1 109 1;
#X connect 111 1 114 1;
#X connect 112 0 106 1;
#X connect 113 0 104 0;
#X connect 113 1 112 0;
#X connect 114 0 117 0;
#X connect 115 0 114 0;
#X connect 116 0 115 0;
#X connect 116 1 106 0;
#X connect 117 0 108 0;
#X connect 119 0 182 0;
#X connect 119 0 120 0;
#X connect 120 0 39 0;
#X connect 122 0 127 0;
#X connect 123 0 124 0;
#X connect 124 0 128 0;
#X connect 125 0 110 0;
#X connect 126 0 102 0;
#X connect 127 0 113 0;
#X connect 127 1 125 0;
#X connect 127 1 126 0;
#X connect 128 0 113 0;
#X connect 128 1 126 0;
#X connect 128 1 125 0;
#X connect 128 2 126 1;
#X connect 128 2 125 1;
#X connect 129 0 134 0;
#X connect 130 0 131 0;
#X connect 131 0 135 0;
#X connect 132 0 95 0;
#X connect 133 0 86 0;
#X connect 134 0 98 0;
#X connect 134 1 132 0;
#X connect 134 1 133 0;
#X connect 135 0 98 0;
#X connect 135 1 133 0;
#X connect 135 1 132 0;
#X connect 135 2 133 1;
#X connect 135 2 132 1;
#X connect 136 0 31 0;
#X connect 137 0 80 0;
#X connect 138 0 145 0;
#X connect 139 0 152 0;
#X connect 140 0 139 0;
#X connect 141 0 149 0;
#X connect 142 0 143 0;
#X connect 142 0 144 1;
#X connect 143 0 142 1;
#X connect 145 0 151 1;
#X connect 146 0 147 0;
#X connect 147 0 145 0;
#X connect 147 1 145 1;
#X connect 147 1 150 1;
#X connect 148 0 142 1;
#X connect 149 0 140 0;
#X connect 149 1 148 0;
#X connect 150 0 169 0;
#X connect 151 0 150 0;
#X connect 152 0 151 0;
#X connect 152 1 142 0;
#X connect 153 0 158 0;
#X connect 154 0 155 0;
#X connect 155 0 159 0;
#X connect 156 0 146 0;
#X connect 157 0 138 0;
#X connect 158 0 149 0;
#X connect 158 1 156 0;
#X connect 158 1 157 0;
#X connect 159 0 149 0;
#X connect 159 1 157 0;
#X connect 159 1 156 0;
#X connect 159 2 157 1;
#X connect 159 2 156 1;
#X connect 161 0 85 0;
#X connect 161 0 137 0;
#X connect 162 0 170 0;
#X connect 166 0 83 0;
#X connect 167 0 84 0;
#X connect 168 0 167 0;
#X connect 169 0 144 0;
#X connect 170 0 149 0;
#X connect 170 1 169 2;
#X connect 171 0 149 0;
#X connect 171 1 169 1;
#X connect 172 0 171 0;
#X connect 173 0 171 0;
#X connect 174 0 171 0;
#X connect 175 0 72 0;
#X connect 176 0 177 1;
#X connect 177 0 0 0;
#X connect 178 0 176 0;
#X connect 182 0 118 0;
#X connect 184 0 183 0;
#X connect 185 0 186 0;
#X connect 186 0 187 0;
#X connect 187 0 188 0;
#X connect 187 0 192 0;
#X connect 188 0 187 1;
#X connect 189 0 190 0;
#X connect 190 0 191 0;
#X connect 192 0 189 0;
#X connect 192 1 191 1;
#X connect 195 0 196 0;
#X connect 196 0 185 0;
#X connect 196 1 197 0;
#X connect 197 0 187 1;
#X connect 198 0 196 0;
