#N canvas -1 92 450 300 10;
#X obj 171 64 inlet;
#X obj 185 100 unpack f f;
#X obj 192 199 osc~;
#X obj 182 160 line~;
#X obj 193 124 pack f 5;
#X obj 256 128 pack f 5;
#X obj 202 233 *~;
#X obj 253 153 line~;
#X obj 212 254 outlet~;
#X connect 0 0 1 0;
#X connect 1 0 4 0;
#X connect 1 1 5 0;
#X connect 2 0 6 0;
#X connect 3 0 2 0;
#X connect 4 0 3 0;
#X connect 5 0 7 0;
#X connect 6 0 8 0;
#X connect 7 0 6 1;
