#N canvas 436 34 806 612 10;
#X obj 209 224 gabsender;
#X msg 215 366 1 113 15 5 89 \, 2 38 22 6 0 \, 3 29 51 65 14 \,;
#X text 206 23 gabsaver uses a receive name and a global send name
to communicate state saving info. arguments are: disable if nonzero
\, name-of-receiver \, name-of-state-saver;
#X obj 391 123 testabs;
#X text 20 71 every message to the leftmost inlet will be saved in
gabsender until "save" is hit \, upon which all saved messages will
be sent to the message box connected to it;
#X text -46 173 note: use of multiple gabsenders is untested at the
time of this writing. Whitout arguments \, default symbols based on
the root patch path will be used;
#X obj 232 339 demux 1 2 3 4;
#X msg 234 400 1 10 127 0 108 \, 2 127 0 127 13 \, 3 0 0 0 0 \,;
#X msg 257 433 1 0 14 41 38 \, 2 26 127 127 74 \, 3 2 70 1 4 \,;
#X msg 259 462 1 0 14 41 38 \, 2 26 127 127 74 \, 3 0 0 15 25 \,;
#X obj 328 313 hradio 15 1 0 4 empty empty empty 0 -8 0 10 -262144
-1 -1 0;
#X text 286 290 simple preset system (select preset \, then load or
save);
#X obj 373 256 show;
#X msg 414 260 /Users/sebshader/Library/Pd/instr/gabsaver-help.pd;
#X msg 76 296 \; aname 2 70 1 4;
#X text 330 523 deleting a gabsender automatically saves;
#X obj 116 488 testabs;
#X obj -26 357 testabs aname;
#X text 416 311 2nd outlet reports the parameters: disable \, receive
name \, and global name;
#X text 31 134 2nd inlet accepts the selectors: disable: state saving
on/off \, names: report names \, rec: set receive name \, glob: switch
gabsender name;
#X text 376 87 the "rem" message in the right inlet deletes a selector
;
#X connect 0 0 6 0;
#X connect 0 1 12 0;
#X connect 1 0 0 0;
#X connect 6 0 1 0;
#X connect 6 1 7 0;
#X connect 6 2 8 0;
#X connect 6 3 9 0;
#X connect 7 0 0 0;
#X connect 8 0 0 0;
#X connect 9 0 0 0;
#X connect 10 0 6 1;
#X connect 12 0 13 0;
