#N canvas 158 23 906 781 10;
#X obj 500 -13 loadbang;
#X obj 107 117 bng 15 250 50 0 empty empty reload 17 7 0 10 -262144
-1 -1;
#X obj 538 111 rootinfo;
#X obj 508 79 sel symbol;
#X msg 592 52 symbol;
#X obj 517 53 symbol \$1;
#X obj 547 172 mergefilename /;
#X obj 540 145 list;
#X obj 161 118 tgl 15 0 empty empty disable 17 7 0 10 -262144 -1 -1
0 1;
#X obj 177 179 == 0;
#X obj 274 98 f \$2;
#X obj 108 135 bng 15 250 50 0 empty empty save 17 7 0 10 -262144 -1
-1;
#X obj 329 123 receiver;
#X msg 144 255 dump;
#X obj 297 672 outlet;
#X msg 184 274 set;
#X msg 291 319 addcomma;
#X obj 344 639 iem_prepend add2;
#X obj 311 242 lolotoa;
#X obj 121 30 inlet;
#X msg 316 211 rem \$1;
#X obj 455 407 s;
#X obj 442 181 list split 1;
#X obj 436 333 list;
#X obj 282 184 t b f;
#X obj 445 368 list trim;
#X obj 228 285 spigot;
#X obj 122 198 spigot;
#X msg 544 196 symbol \$1-s;
#X obj 305 151 route rem reg;
#X obj 395 246 lolotoa;
#X obj 345 565 list prepend;
#X msg 432 213 nth \$1;
#X obj 138 229 t b b b;
#X obj 186 249 s gpresave;
#X obj 421 303 t b s;
#X obj 415 276 symbol;
#X obj 268 8 inlet;
#X obj 185 49 route save load disable;
#X msg 588 221 symbol \$1-r;
#X obj 580 260 s;
#X obj 482 23 t b b b;
#X obj 416 89 del 0;
#X obj 560 391 outlet;
#X obj 575 346 symbol;
#X obj 155 136 bng 15 250 50 0 empty empty get_name 17 7 0 10 -262144
-1 -1;
#X obj 293 269 t b a a;
#X obj 344 535 list prepend;
#X obj 361 435 route list float symbol;
#X obj 474 498 b;
#X msg 359 461 symbol list;
#X msg 439 466 symbol symbol;
#X msg 394 485 symbol float;
#X connect 0 0 41 0;
#X connect 1 0 14 0;
#X connect 2 0 7 0;
#X connect 2 1 7 1;
#X connect 3 0 2 0;
#X connect 3 1 28 0;
#X connect 3 1 39 0;
#X connect 3 1 44 0;
#X connect 4 0 3 1;
#X connect 5 0 3 0;
#X connect 6 0 28 0;
#X connect 6 0 39 0;
#X connect 6 0 44 0;
#X connect 7 0 6 0;
#X connect 8 0 9 0;
#X connect 9 0 26 1;
#X connect 9 0 27 1;
#X connect 10 0 8 0;
#X connect 11 0 27 0;
#X connect 12 0 29 0;
#X connect 13 0 18 0;
#X connect 15 0 14 0;
#X connect 16 0 14 0;
#X connect 17 0 14 0;
#X connect 18 0 46 0;
#X connect 18 3 31 1;
#X connect 19 0 22 0;
#X connect 20 0 18 0;
#X connect 20 0 30 0;
#X connect 22 0 32 0;
#X connect 22 1 23 1;
#X connect 23 0 25 0;
#X connect 24 0 33 0;
#X connect 24 1 20 0;
#X connect 25 0 21 0;
#X connect 26 0 14 0;
#X connect 27 0 33 0;
#X connect 28 0 12 0;
#X connect 29 0 24 0;
#X connect 29 1 30 0;
#X connect 29 2 18 0;
#X connect 30 0 36 0;
#X connect 31 0 17 0;
#X connect 32 0 30 0;
#X connect 33 0 13 0;
#X connect 33 1 15 0;
#X connect 33 2 34 0;
#X connect 35 0 23 0;
#X connect 35 1 21 1;
#X connect 36 0 35 0;
#X connect 37 0 38 0;
#X connect 38 0 11 0;
#X connect 38 1 1 0;
#X connect 38 2 8 0;
#X connect 39 0 40 1;
#X connect 41 0 40 0;
#X connect 41 0 42 0;
#X connect 41 1 5 0;
#X connect 41 1 10 0;
#X connect 41 2 4 0;
#X connect 42 0 26 0;
#X connect 44 0 43 0;
#X connect 45 0 44 0;
#X connect 46 0 16 0;
#X connect 46 1 47 0;
#X connect 46 2 48 0;
#X connect 47 0 31 0;
#X connect 48 0 50 0;
#X connect 48 1 52 0;
#X connect 48 2 51 0;
#X connect 48 3 49 0;
#X connect 49 0 47 1;
#X connect 50 0 47 1;
#X connect 51 0 47 1;
#X connect 52 0 47 1;
#X coords 0 -1 1 1 125 55 1 100 100;
