#N canvas 484 49 757 812 10;
#X obj 153 12 rootinfo;
#X obj 123 -20 sel symbol;
#X obj 152 68 mergefilename /;
#X obj 155 46 list;
#X obj 180 -110 loadbang;
#X obj 386 -27 inlet;
#X obj 175 145 symbol;
#X obj 197 222 == 0;
#X obj 41 69 closebang;
#X obj 180 196 receiver;
#X obj 274 14 rootinfo;
#X obj 244 -18 sel symbol;
#X msg 313 -47 symbol;
#X obj 273 70 mergefilename /;
#X obj 276 48 list;
#X obj 289 92 symbol;
#X obj 174 -73 t b b b;
#X obj 73 34 f \$1;
#X obj 108 28 inlet;
#X obj 50 238 f;
#X obj 217 -43 symbol \$3;
#X obj 122 -50 symbol \$2;
#X msg 409 127 symbol \$1-v;
#X msg 296 128 symbol \$1-s;
#X obj 380 164 valuer;
#X obj 280 576 s;
#X obj 376 98 t b s;
#X obj 350 165 + 1;
#X msg 158 120 symbol \$2-\$1;
#X obj 162 261 spigot;
#X obj 150 470 pack s f;
#X obj 91 482 outlet;
#X msg 74 290 rem \$1;
#X obj 156 98 pack s f;
#X obj 486 44 t b s b;
#X msg 277 535 reg add \$2 \$1;
#X obj 162 319 route list float symbol;
#X obj 233 422 list prepend float;
#X obj 159 382 list prepend list;
#X obj 343 409 list prepend symbol;
#X msg 310 445 add \$1;
#X obj 247 466 iem_prepend;
#X obj 240 205 receiver;
#X msg 239 169 symbol \$1-r;
#X obj 131 436 symbol;
#X obj 119 342 t b s;
#X msg 197 524 create \$2;
#X obj 443 36 t s b;
#X obj 534 281 symbol;
#X obj 491 270 symbol;
#X obj 202 547 spigot 1;
#X msg 243 502 0;
#X msg 282 510 1;
#X obj 117 117 tgl 15 0 empty empty disable 17 7 0 12 -262144 -1 -1
0 1;
#X obj 419 343 outlet;
#X obj 408 315 prepender disable rec glob;
#X obj 534 80 t b b;
#X floatatom 376 217 5 0 0 0 - - -;
#X obj 422 8 route disable rec glob names rem;
#X obj 576 41 route symbol float list;
#X msg 578 69 symbol symbol;
#X msg 618 92 symbol float;
#X msg 671 63 symbol list;
#X obj 683 122 symbol;
#X obj 639 161 pack s f;
#X msg 596 213 remmes \$2 \$1;
#X connect 0 0 3 0;
#X connect 0 1 3 1;
#X connect 1 0 0 0;
#X connect 1 1 6 0;
#X connect 2 0 33 0;
#X connect 3 0 2 0;
#X connect 4 0 16 0;
#X connect 5 0 58 0;
#X connect 6 0 9 0;
#X connect 6 0 45 0;
#X connect 6 0 49 0;
#X connect 7 0 29 1;
#X connect 8 0 19 0;
#X connect 9 0 31 0;
#X connect 10 0 14 0;
#X connect 10 1 14 1;
#X connect 11 0 10 0;
#X connect 11 1 15 0;
#X connect 12 0 11 1;
#X connect 12 0 1 1;
#X connect 13 0 15 0;
#X connect 14 0 13 0;
#X connect 15 0 23 0;
#X connect 15 0 26 0;
#X connect 15 0 43 0;
#X connect 15 0 48 0;
#X connect 16 0 21 0;
#X connect 16 1 17 0;
#X connect 16 1 20 0;
#X connect 16 2 12 0;
#X connect 17 0 53 0;
#X connect 18 0 29 0;
#X connect 19 0 32 0;
#X connect 20 0 11 0;
#X connect 21 0 1 0;
#X connect 22 0 24 1;
#X connect 23 0 25 1;
#X connect 24 0 27 0;
#X connect 26 0 24 0;
#X connect 26 1 22 0;
#X connect 27 0 24 0;
#X connect 27 0 33 1;
#X connect 27 0 40 0;
#X connect 27 0 30 1;
#X connect 27 0 19 1;
#X connect 27 0 57 0;
#X connect 27 0 64 1;
#X connect 28 0 6 0;
#X connect 29 0 36 0;
#X connect 30 0 35 0;
#X connect 30 0 46 0;
#X connect 32 0 25 0;
#X connect 33 0 28 0;
#X connect 34 0 6 0;
#X connect 34 1 15 0;
#X connect 34 2 19 0;
#X connect 34 2 52 0;
#X connect 35 0 25 0;
#X connect 36 0 38 0;
#X connect 36 1 37 0;
#X connect 36 2 39 0;
#X connect 36 3 41 0;
#X connect 37 0 41 0;
#X connect 38 0 41 0;
#X connect 39 0 41 0;
#X connect 40 0 41 1;
#X connect 41 0 25 0;
#X connect 42 0 44 0;
#X connect 43 0 42 0;
#X connect 44 0 30 0;
#X connect 45 0 44 0;
#X connect 45 1 44 1;
#X connect 46 0 50 0;
#X connect 47 0 6 0;
#X connect 47 1 51 0;
#X connect 48 0 55 2;
#X connect 49 0 55 1;
#X connect 50 0 25 0;
#X connect 51 0 50 1;
#X connect 52 0 50 1;
#X connect 53 0 7 0;
#X connect 53 0 55 0;
#X connect 55 0 54 0;
#X connect 56 0 49 0;
#X connect 56 1 48 0;
#X connect 58 0 53 0;
#X connect 58 1 47 0;
#X connect 58 2 34 0;
#X connect 58 3 56 0;
#X connect 58 4 59 0;
#X connect 59 0 60 0;
#X connect 59 1 61 0;
#X connect 59 2 62 0;
#X connect 59 3 63 0;
#X connect 60 0 64 0;
#X connect 61 0 64 0;
#X connect 62 0 64 0;
#X connect 63 0 64 0;
#X connect 64 0 65 0;
#X connect 65 0 25 0;
#X coords 0 -1 1 1 85 35 1 100 100;
