#N canvas 96 23 1210 851 10;
#X declare -path shadylib -lib iemlib;
#X obj 252 136 inlet;
#X msg 279 246 set \$1 \, bang;
#X msg 532 738 set \$1;
#X obj 302 217 symbol;
#X obj 530 65 loadbang;
#X obj 534 85 t b b;
#X obj 522 109 symbol \$1;
#X obj 488 149 sel symbol;
#X msg 560 130 symbol;
#X obj 393 457 stoms;
#X obj 354 850 outlet~;
#X obj 420 816 egrains~;
#X obj 490 549 clip 0 1;
#X obj 260 268 arraysize;
#X obj 244 162 route bang;
#X obj 558 362 mstof;
#X obj 1 4 cnv 15 420 112 empty empty ggrains~ 7 12 0 14 -233017 -66577
0;
#X obj 9 33 hsl 300 30 0 1 0 0 \$0-slide \$0-sslide Position 10 14
0 14 -4032 -159808 -258113 0 1;
#X obj 99 10 bng 15 250 50 0 \$0-play empty Play 20 7 0 12 -4034 -258113
-258113;
#X obj 258 845 s \$0-sslide;
#X obj 287 780 snapshot~;
#X floatatom 6 72 5 0 0 1 speed #0-sspeed #0-speed;
#X obj 448 261 s \$0-sspeed;
#X msg 273 811 set \$1;
#X msg 440 235 set \$1;
#X obj 475 526 r \$0-slide;
#X obj 178 229 r \$0-speed;
#X obj 371 506 t b f;
#X floatatom 82 72 5 0 0 1 transpose #0-strans #0-trans;
#X obj 357 294 s \$0-strans;
#X msg 357 273 set \$1;
#X obj 492 769 r \$0-trans;
#X obj 371 538 *;
#X obj 375 615 tof/phasorshot~;
#X obj 188 71 tgl 15 0 \$0-loop \$0-sloop loop 17 7 0 10 -1 -4032 -4160
0 1;
#X obj 490 622 sig~;
#X obj 493 578 t f b;
#X obj 375 696 *~ 1;
#X obj 473 684 *~ 0;
#X msg 538 617 1;
#X msg 423 673 0;
#X msg 564 610 0;
#X msg 394 672 1;
#X obj 852 220 r \$0-loop;
#X obj 467 212 s \$0-sloop;
#X floatatom 316 25 5 0 0 1 lowrange #0-slrange #0-lrange;
#X floatatom 316 45 5 0 0 1 hirange #0-shrange #0-hrange;
#X obj 589 527 * 1;
#X obj 595 495 t b f;
#X msg 689 443 set \$1;
#X msg 661 537 set \$1;
#X obj 693 474 s \$0-shrange;
#X obj 652 568 s \$0-slrange;
#X obj 638 505 t b f;
#X obj 628 539 * 0;
#X msg 737 417 1;
#X obj 602 465 -;
#X obj 391 773 clip~ 0 0;
#X obj 331 367 r \$0-play;
#X floatatom 233 72 5 0 0 1 window(ms) #0-sms #0-ms;
#X obj 437 460 s \$0-sms;
#X msg 436 431 set \$1;
#X obj 553 317 r \$0-ms;
#X obj 618 268 t b f;
#X obj 544 255 r \$0-lrange;
#X obj 580 290 pack f f;
#X obj 621 241 r \$0-hrange;
#X obj 428 543 < 0;
#X obj 413 587 f;
#X obj 730 826 outlet~;
#X obj 396 725 +~;
#X obj 325 407 t b;
#X obj 148 10 bng 15 250 50 0 \$0-pause empty Pause 20 7 0 12 -258113
-4034 -159808;
#X obj 281 537 r \$0-pause;
#X obj 341 572 f;
#X msg 302 568 0;
#X obj 206 10 bng 15 250 50 0 \$0-res empty Resume 20 7 0 12 -4160
-4034 -4160;
#X obj 267 432 r \$0-res;
#X obj 394 751 scaler~;
#X obj 542 662 spigot;
#X obj 442 583 f;
#X floatatom 343 70 5 0 0 1 (freq) #0-frq #0-sfrq;
#X obj 589 621 s \$0-frq;
#X msg 590 598 set \$1;
#X obj 448 382 r \$0-sfrq;
#X obj 505 386 f;
#X obj 489 315 r \$0-rev;
#X obj 458 303 t f;
#X obj 232 94 bng 15 250 50 0 \$0-rev empty rev-window 17 7 0 10 -262144
-1 -1;
#X obj 526 409 * -1;
#X obj 550 219 s \$0-res;
#X obj 313 94 tgl 15 0 \$0-spdwin \$0-sspdwin speed->win 17 7 0 10
-262144 -1 -1 1 1;
#X msg 617 150 1;
#X obj 175 412 r \$0-spdwin;
#X obj 617 215 s \$0-sspdwin;
#X obj 185 472 f;
#X msg 699 142 1;
#X obj 175 444 sel 1;
#X obj 184 497 *;
#X obj 181 524 < 0;
#X obj 183 553 sel 1;
#X obj 199 591 f;
#X obj 201 615 * -1;
#X obj 459 752 t f;
#X obj 496 361 spigot;
#X obj 526 338 == 0;
#X obj 401 398 t f;
#X obj 222 450 spigot;
#X obj 683 221 s \$0-rev;
#X obj 327 606 f;
#X obj 372 562 t b f;
#X obj 338 676 f;
#X obj 328 630 != 0;
#X obj 333 653 sel 1;
#X obj 377 479 mstof;
#X obj 432 407 mstof;
#X obj 609 842 outlet~;
#X obj 169 333 t b b;
#X obj 269 10 bng 15 250 50 0 \$0-rew empty Rew. 20 7 0 12 -159808
-162280 -13381;
#X obj 167 289 r \$0-rew;
#X obj 526 851 outlet~;
#X obj 462 853 outlet~;
#X text 670 49 sorry for the mess..;
#X obj 843 487 prepender trans freq speed loop range tie;
#X obj 920 593 outlet;
#X obj 608 403 unpack f f;
#X obj 613 433 swap;
#X symbolatom 87 94 20 0 0 0 buffer_name #0-tobox #0-rubbish;
#X obj 254 349 s \$0-tobox;
#X obj 235 192 r \$0-rubbish;
#X obj 276 211 b;
#X obj 252 297 zexy/nop;
#X msg 824 346 dump;
#X obj 605 372 list-abs/list-sort;
#X obj 402 853 outlet~;
#X msg 822 398 0;
#X msg 515 287 115;
#X msg 271 711 1;
#X obj 285 755 metro 50;
#X obj 653 665 f;
#X obj 655 689 sel 0;
#X msg 635 720 0;
#X obj 912 533 lmap;
#X obj 1059 123 inlet;
#X obj 469 115 f \$2;
#X obj 790 116 inlet;
#X obj 327 178 route set trans pos ms freq speed loop range pause res
tie rev rew egrains;
#X obj 257 323 iem_prepend set;
#X obj 867 97 declare -path shadylib -lib iemlib;
#X connect 0 0 14 0;
#X connect 1 0 13 0;
#X connect 2 0 11 3;
#X connect 3 0 1 0;
#X connect 3 0 2 0;
#X connect 3 0 147 0;
#X connect 4 0 5 0;
#X connect 5 0 6 0;
#X connect 5 0 96 0;
#X connect 5 0 144 0;
#X connect 5 1 8 0;
#X connect 5 1 55 0;
#X connect 5 1 136 0;
#X connect 5 1 92 0;
#X connect 5 1 135 0;
#X connect 6 0 7 0;
#X connect 7 1 3 0;
#X connect 8 0 7 1;
#X connect 9 0 114 0;
#X connect 11 0 10 0;
#X connect 11 1 134 0;
#X connect 11 2 121 0;
#X connect 11 3 120 0;
#X connect 11 4 116 0;
#X connect 12 0 36 0;
#X connect 12 0 80 1;
#X connect 13 0 131 0;
#X connect 14 0 71 0;
#X connect 14 1 146 0;
#X connect 15 0 83 0;
#X connect 15 0 85 1;
#X connect 15 0 103 0;
#X connect 20 0 23 0;
#X connect 23 0 19 0;
#X connect 24 0 22 0;
#X connect 25 0 12 0;
#X connect 26 0 106 0;
#X connect 27 0 32 0;
#X connect 27 0 107 0;
#X connect 27 1 32 1;
#X connect 27 1 95 1;
#X connect 30 0 29 0;
#X connect 31 0 11 1;
#X connect 31 0 123 0;
#X connect 32 0 74 1;
#X connect 32 0 110 0;
#X connect 33 0 37 0;
#X connect 33 1 139 0;
#X connect 33 2 139 0;
#X connect 35 0 38 0;
#X connect 36 0 35 0;
#X connect 36 1 39 0;
#X connect 36 1 40 0;
#X connect 37 0 70 0;
#X connect 38 0 70 1;
#X connect 39 0 38 1;
#X connect 39 0 79 1;
#X connect 40 0 37 1;
#X connect 40 0 109 1;
#X connect 41 0 38 1;
#X connect 41 0 79 1;
#X connect 42 0 37 1;
#X connect 43 0 33 2;
#X connect 43 0 123 3;
#X connect 43 0 139 1;
#X connect 47 0 9 0;
#X connect 47 0 78 1;
#X connect 48 0 47 0;
#X connect 48 1 47 1;
#X connect 49 0 51 0;
#X connect 50 0 52 0;
#X connect 53 0 54 0;
#X connect 53 1 54 1;
#X connect 53 1 50 0;
#X connect 54 0 78 2;
#X connect 55 0 51 0;
#X connect 56 0 48 0;
#X connect 57 0 11 0;
#X connect 58 0 71 0;
#X connect 61 0 60 0;
#X connect 62 0 15 0;
#X connect 63 0 65 0;
#X connect 63 1 65 1;
#X connect 64 0 65 0;
#X connect 65 0 133 0;
#X connect 66 0 63 0;
#X connect 67 0 68 1;
#X connect 68 0 33 1;
#X connect 68 0 23 0;
#X connect 70 0 20 0;
#X connect 70 0 69 0;
#X connect 70 0 78 0;
#X connect 71 0 42 0;
#X connect 71 0 41 0;
#X connect 71 0 68 0;
#X connect 71 0 74 0;
#X connect 71 0 137 0;
#X connect 73 0 75 0;
#X connect 74 0 33 0;
#X connect 74 0 109 1;
#X connect 75 0 33 0;
#X connect 75 0 109 1;
#X connect 75 0 138 0;
#X connect 77 0 74 0;
#X connect 77 0 79 0;
#X connect 77 0 137 0;
#X connect 78 0 57 0;
#X connect 79 0 80 0;
#X connect 79 0 42 0;
#X connect 79 0 41 0;
#X connect 80 0 33 1;
#X connect 83 0 82 0;
#X connect 84 0 103 0;
#X connect 84 0 115 0;
#X connect 85 0 89 0;
#X connect 86 0 104 0;
#X connect 87 0 83 0;
#X connect 87 0 85 1;
#X connect 87 0 103 0;
#X connect 87 0 115 0;
#X connect 89 0 87 0;
#X connect 92 0 106 0;
#X connect 92 0 24 0;
#X connect 93 0 97 0;
#X connect 93 0 105 0;
#X connect 93 0 107 1;
#X connect 93 0 123 5;
#X connect 95 0 98 0;
#X connect 96 0 94 0;
#X connect 97 0 95 0;
#X connect 98 0 99 0;
#X connect 99 0 100 0;
#X connect 100 0 101 0;
#X connect 101 0 102 0;
#X connect 102 0 87 0;
#X connect 103 0 11 2;
#X connect 103 0 98 1;
#X connect 103 0 101 1;
#X connect 103 0 123 1;
#X connect 104 0 85 0;
#X connect 105 0 104 1;
#X connect 106 0 27 0;
#X connect 106 0 67 0;
#X connect 106 0 123 2;
#X connect 107 0 95 0;
#X connect 109 0 112 0;
#X connect 110 0 109 0;
#X connect 110 1 111 1;
#X connect 111 0 33 0;
#X connect 112 0 113 0;
#X connect 113 0 111 0;
#X connect 114 0 32 0;
#X connect 115 0 61 0;
#X connect 117 0 75 0;
#X connect 117 1 68 0;
#X connect 119 0 117 0;
#X connect 123 0 142 0;
#X connect 125 0 126 0;
#X connect 125 0 53 0;
#X connect 125 1 49 0;
#X connect 125 1 126 1;
#X connect 126 0 56 0;
#X connect 126 1 56 1;
#X connect 129 0 130 0;
#X connect 130 0 3 0;
#X connect 131 0 57 2;
#X connect 131 0 47 0;
#X connect 131 0 54 0;
#X connect 132 0 142 0;
#X connect 133 0 123 4;
#X connect 133 0 125 0;
#X connect 135 0 123 0;
#X connect 135 0 123 3;
#X connect 136 0 15 0;
#X connect 136 0 61 0;
#X connect 137 0 138 0;
#X connect 138 0 20 0;
#X connect 139 0 140 0;
#X connect 140 0 141 0;
#X connect 141 0 138 0;
#X connect 142 2 124 0;
#X connect 143 0 132 0;
#X connect 145 0 131 0;
#X connect 146 0 3 0;
#X connect 146 1 11 1;
#X connect 146 1 30 0;
#X connect 146 1 123 0;
#X connect 146 2 12 0;
#X connect 146 3 15 0;
#X connect 146 3 61 0;
#X connect 146 4 87 0;
#X connect 146 5 24 0;
#X connect 146 5 106 0;
#X connect 146 6 44 0;
#X connect 146 7 65 0;
#X connect 146 8 75 0;
#X connect 146 9 90 0;
#X connect 146 10 94 0;
#X connect 146 11 108 0;
#X connect 146 12 117 0;
#X connect 146 13 11 3;
#X connect 147 0 128 0;
#X coords 0 -1 1 1 422 120 1 0 0;
