#N canvas 96 23 1210 673 10;
#X declare -path shadylib -lib iemlib;
#X obj 252 136 inlet;
#X msg 532 738 set \$1;
#X obj 302 217 symbol;
#X obj 530 65 loadbang;
#X obj 534 85 t b b;
#X obj 522 109 symbol \$1;
#X obj 488 149 sel symbol;
#X msg 560 130 symbol;
#X obj 393 457 stoms;
#X obj 354 850 outlet~;
#X obj 420 816 egrains~;
#X obj 490 549 clip 0 1;
#X obj 244 162 route bang;
#X obj 558 362 mstof;
#X obj 1 4 cnv 15 420 112 empty empty ggrains~ 7 12 0 14 #e0e0e0 #404040
0;
#X obj 9 33 hsl 300 30 0 1 0 0 \$0-slide \$0-sslide Position 10 14
0 14 #00f8fc #9c00fc #fc0400 0 1;
#X obj 99 10 bng 15 250 50 0 \$0-play empty Play 20 7 0 12 #00fc04
#fc0400 #fc0400;
#X obj 258 845 s \$0-sslide;
#X obj 287 780 snapshot~;
#X floatatom 6 72 5 0 0 1 speed \$0-sspeed \$0-speed 0;
#X obj 448 261 s \$0-sspeed;
#X msg 273 811 set \$1;
#X msg 440 235 set \$1;
#X obj 475 526 r \$0-slide;
#X obj 178 229 r \$0-speed;
#X obj 371 506 t b f;
#X floatatom 82 72 5 0 0 1 transpose \$0-strans \$0-trans 0;
#X obj 357 294 s \$0-strans;
#X msg 357 273 set \$1;
#X obj 492 769 r \$0-trans;
#X obj 371 538 *;
#X obj 375 615 tof/phasorshot~;
#X obj 188 71 tgl 15 0 \$0-loop \$0-sloop loop 17 7 0 10 #000000 #00f8fc
#0400fc 0 1;
#X obj 490 622 sig~;
#X obj 493 578 t f b;
#X obj 375 696 *~ 1;
#X obj 473 684 *~ 0;
#X msg 538 617 1;
#X msg 423 673 0;
#X msg 564 610 0;
#X msg 394 672 1;
#X obj 852 220 r \$0-loop;
#X obj 467 212 s \$0-sloop;
#X floatatom 316 25 5 0 0 1 lowrange \$0-slrange \$0-lrange 0;
#X floatatom 316 45 5 0 0 1 hirange \$0-shrange \$0-hrange 0;
#X obj 589 527 * 1;
#X obj 595 495 t b f;
#X msg 689 443 set \$1;
#X msg 661 537 set \$1;
#X obj 693 474 s \$0-shrange;
#X obj 652 568 s \$0-slrange;
#X obj 638 505 t b f;
#X obj 628 539 * 0;
#X msg 737 417 1;
#X obj 602 465 -;
#X obj 391 773 clip~ 0 0;
#X obj 331 367 r \$0-play;
#X floatatom 233 72 5 0 0 1 window(ms) \$0-sms \$0-ms 0;
#X obj 437 460 s \$0-sms;
#X msg 436 431 set \$1;
#X obj 553 317 r \$0-ms;
#X obj 618 268 t b f;
#X obj 544 255 r \$0-lrange;
#X obj 580 290 pack f f;
#X obj 621 241 r \$0-hrange;
#X obj 428 543 < 0;
#X obj 413 587 f;
#X obj 730 826 outlet~;
#X obj 396 725 +~;
#X obj 325 407 t b;
#X obj 148 10 bng 15 250 50 0 \$0-pause empty Pause 20 7 0 12 #fc0400
#00fc04 #9c00fc;
#X obj 281 537 r \$0-pause;
#X obj 341 572 f;
#X msg 302 568 0;
#X obj 206 10 bng 15 250 50 0 \$0-res empty Resume 20 7 0 12 #0400fc
#00fc04 #0400fc;
#X obj 267 432 r \$0-res;
#X obj 394 751 scaler~;
#X obj 542 662 spigot;
#X obj 442 583 f;
#X floatatom 343 70 5 0 0 1 (freq) \$0-frq \$0-sfrq 0;
#X obj 589 621 s \$0-frq;
#X msg 590 598 set \$1;
#X obj 448 382 r \$0-sfrq;
#X obj 505 386 f;
#X obj 489 315 r \$0-rev;
#X obj 458 303 t f;
#X obj 232 94 bng 15 250 50 0 \$0-rev empty rev-window 17 7 0 10 #fcfcfc
#000000 #000000;
#X obj 526 409 * -1;
#X obj 550 219 s \$0-res;
#X obj 313 94 tgl 15 0 \$0-spdwin \$0-sspdwin speed->win 17 7 0 10
#fcfcfc #000000 #000000 0 1;
#X msg 617 150 1;
#X obj 175 412 r \$0-spdwin;
#X obj 617 215 s \$0-sspdwin;
#X obj 185 472 f;
#X msg 699 142 1;
#X obj 175 444 sel 1;
#X obj 184 497 *;
#X obj 181 524 < 0;
#X obj 183 553 sel 1;
#X obj 199 591 f;
#X obj 201 615 * -1;
#X obj 459 752 t f;
#X obj 496 361 spigot;
#X obj 526 338 == 0;
#X obj 401 398 t f;
#X obj 222 450 spigot;
#X obj 683 221 s \$0-rev;
#X obj 327 606 f;
#X obj 372 562 t b f;
#X obj 338 676 f;
#X obj 328 630 != 0;
#X obj 333 653 sel 1;
#X obj 377 479 mstof;
#X obj 432 407 mstof;
#X obj 609 842 outlet~;
#X obj 169 333 t b b;
#X obj 269 10 bng 15 250 50 0 \$0-rew empty Rew. 20 7 0 12 #9c00fc
#9c9c9c #0c4410;
#X obj 167 289 r \$0-rew;
#X obj 526 851 outlet~;
#X obj 462 853 outlet~;
#X text 670 49 sorry for the mess..;
#X obj 843 487 prepender trans freq speed loop range tie;
#X obj 920 593 outlet;
#X obj 608 403 unpack f f;
#X obj 613 433 swap;
#X symbolatom 87 94 20 0 0 0 buffer_name \$0-tobox \$0-rubbish 0;
#X obj 254 349 s \$0-tobox;
#X obj 235 192 r \$0-rubbish;
#X obj 276 211 b;
#X obj 252 297 zexy/nop;
#X msg 824 346 dump;
#X obj 605 372 list-abs/list-sort;
#X obj 402 853 outlet~;
#X msg 822 398 0;
#X msg 515 287 115;
#X msg 271 711 1;
#X obj 285 755 metro 50;
#X obj 653 665 f;
#X obj 655 689 sel 0;
#X msg 635 720 0;
#X obj 912 533 lmap;
#X obj 1059 123 inlet;
#X obj 469 115 f \$2;
#X obj 790 116 inlet;
#X obj 327 178 route set trans pos ms freq speed loop range pause res
tie rev rew egrains;
#X obj 257 323 iem_prepend set;
#X obj 867 97 declare -path shadylib -lib iemlib;
#X obj 260 268 array size;
#X obj 262 243 t b s;
#X connect 0 0 12 0;
#X connect 1 0 10 3;
#X connect 2 0 1 0;
#X connect 2 0 145 0;
#X connect 2 0 148 0;
#X connect 3 0 4 0;
#X connect 4 0 5 0;
#X connect 4 0 94 0;
#X connect 4 0 142 0;
#X connect 4 1 7 0;
#X connect 4 1 53 0;
#X connect 4 1 134 0;
#X connect 4 1 90 0;
#X connect 4 1 133 0;
#X connect 5 0 6 0;
#X connect 6 1 2 0;
#X connect 7 0 6 1;
#X connect 8 0 112 0;
#X connect 10 0 9 0;
#X connect 10 1 132 0;
#X connect 10 2 119 0;
#X connect 10 3 118 0;
#X connect 10 4 114 0;
#X connect 11 0 34 0;
#X connect 11 0 78 1;
#X connect 12 0 69 0;
#X connect 12 1 144 0;
#X connect 13 0 81 0;
#X connect 13 0 83 1;
#X connect 13 0 101 0;
#X connect 18 0 21 0;
#X connect 21 0 17 0;
#X connect 22 0 20 0;
#X connect 23 0 11 0;
#X connect 24 0 104 0;
#X connect 25 0 30 0;
#X connect 25 0 105 0;
#X connect 25 1 30 1;
#X connect 25 1 93 1;
#X connect 28 0 27 0;
#X connect 29 0 10 1;
#X connect 29 0 121 0;
#X connect 30 0 72 1;
#X connect 30 0 108 0;
#X connect 31 0 35 0;
#X connect 31 1 137 0;
#X connect 31 2 137 0;
#X connect 33 0 36 0;
#X connect 34 0 33 0;
#X connect 34 1 37 0;
#X connect 34 1 38 0;
#X connect 35 0 68 0;
#X connect 36 0 68 1;
#X connect 37 0 36 1;
#X connect 37 0 77 1;
#X connect 38 0 35 1;
#X connect 38 0 107 1;
#X connect 39 0 36 1;
#X connect 39 0 77 1;
#X connect 40 0 35 1;
#X connect 41 0 31 2;
#X connect 41 0 121 3;
#X connect 41 0 137 1;
#X connect 45 0 8 0;
#X connect 45 0 76 1;
#X connect 46 0 45 0;
#X connect 46 1 45 1;
#X connect 47 0 49 0;
#X connect 48 0 50 0;
#X connect 51 0 52 0;
#X connect 51 1 52 1;
#X connect 51 1 48 0;
#X connect 52 0 76 2;
#X connect 53 0 49 0;
#X connect 54 0 46 0;
#X connect 55 0 10 0;
#X connect 56 0 69 0;
#X connect 59 0 58 0;
#X connect 60 0 13 0;
#X connect 61 0 63 0;
#X connect 61 1 63 1;
#X connect 62 0 63 0;
#X connect 63 0 131 0;
#X connect 64 0 61 0;
#X connect 65 0 66 1;
#X connect 66 0 31 1;
#X connect 66 0 21 0;
#X connect 68 0 18 0;
#X connect 68 0 67 0;
#X connect 68 0 76 0;
#X connect 69 0 40 0;
#X connect 69 0 39 0;
#X connect 69 0 66 0;
#X connect 69 0 72 0;
#X connect 69 0 135 0;
#X connect 71 0 73 0;
#X connect 72 0 31 0;
#X connect 72 0 107 1;
#X connect 73 0 31 0;
#X connect 73 0 107 1;
#X connect 73 0 136 0;
#X connect 75 0 72 0;
#X connect 75 0 77 0;
#X connect 75 0 135 0;
#X connect 76 0 55 0;
#X connect 77 0 78 0;
#X connect 77 0 40 0;
#X connect 77 0 39 0;
#X connect 78 0 31 1;
#X connect 81 0 80 0;
#X connect 82 0 101 0;
#X connect 82 0 113 0;
#X connect 83 0 87 0;
#X connect 84 0 102 0;
#X connect 85 0 81 0;
#X connect 85 0 83 1;
#X connect 85 0 101 0;
#X connect 85 0 113 0;
#X connect 87 0 85 0;
#X connect 90 0 104 0;
#X connect 90 0 22 0;
#X connect 91 0 95 0;
#X connect 91 0 103 0;
#X connect 91 0 105 1;
#X connect 91 0 121 5;
#X connect 93 0 96 0;
#X connect 94 0 92 0;
#X connect 95 0 93 0;
#X connect 96 0 97 0;
#X connect 97 0 98 0;
#X connect 98 0 99 0;
#X connect 99 0 100 0;
#X connect 100 0 85 0;
#X connect 101 0 10 2;
#X connect 101 0 96 1;
#X connect 101 0 99 1;
#X connect 101 0 121 1;
#X connect 102 0 83 0;
#X connect 103 0 102 1;
#X connect 104 0 25 0;
#X connect 104 0 65 0;
#X connect 104 0 121 2;
#X connect 105 0 93 0;
#X connect 107 0 110 0;
#X connect 108 0 107 0;
#X connect 108 1 109 1;
#X connect 109 0 31 0;
#X connect 110 0 111 0;
#X connect 111 0 109 0;
#X connect 112 0 30 0;
#X connect 113 0 59 0;
#X connect 115 0 73 0;
#X connect 115 1 66 0;
#X connect 117 0 115 0;
#X connect 121 0 140 0;
#X connect 123 0 124 0;
#X connect 123 0 51 0;
#X connect 123 1 47 0;
#X connect 123 1 124 1;
#X connect 124 0 54 0;
#X connect 124 1 54 1;
#X connect 127 0 128 0;
#X connect 128 0 2 0;
#X connect 129 0 55 2;
#X connect 129 0 45 0;
#X connect 129 0 52 0;
#X connect 130 0 140 0;
#X connect 131 0 121 4;
#X connect 131 0 123 0;
#X connect 133 0 121 0;
#X connect 133 0 121 3;
#X connect 134 0 13 0;
#X connect 134 0 59 0;
#X connect 135 0 136 0;
#X connect 136 0 18 0;
#X connect 137 0 138 0;
#X connect 138 0 139 0;
#X connect 139 0 136 0;
#X connect 140 2 122 0;
#X connect 141 0 130 0;
#X connect 143 0 129 0;
#X connect 144 0 2 0;
#X connect 144 1 10 1;
#X connect 144 1 28 0;
#X connect 144 1 121 0;
#X connect 144 2 11 0;
#X connect 144 3 13 0;
#X connect 144 3 59 0;
#X connect 144 4 85 0;
#X connect 144 5 22 0;
#X connect 144 5 104 0;
#X connect 144 6 42 0;
#X connect 144 7 63 0;
#X connect 144 8 73 0;
#X connect 144 9 88 0;
#X connect 144 10 92 0;
#X connect 144 11 106 0;
#X connect 144 12 115 0;
#X connect 144 13 10 3;
#X connect 145 0 126 0;
#X connect 147 0 129 0;
#X connect 148 0 147 0;
#X connect 148 1 147 1;
#X coords 0 -1 1 1 422 120 1 0 0;
