#N canvas 385 77 1055 673 10;
#X obj 477 279 openpanel;
#X obj 489 261 bng 15 250 50 0 empty empty empty 17 7 0 10 #fcfcfc
#000000 #000000;
#X text 518 248 open stereo soundfile;
#X text 510 6 simple gui for pitchshifting/timestreaching;
#X text 443 481 saves: transposition \, frequency \, speed \, loop
\, ranges (list: low \, high) \, speed->window.;
#X text 440 603 arguments: array name of buffer;
#X msg 677 374 \; eegrains loop 1 \; eegrains tie 1 \; eegrains speed
0.5 \; eegrains freq 9.09091 \; eegrains range 0 1 \; eegrains trans
0 \;;
#X text 36 27 message selectors to 1st inlet: bang: playback from beginning
if speed is positive \, or end if speed is negative set: sets array
arg: symbol trans: transposition arg: float pos: position in overall
soundfile (going from 0-1) arg: float ms: millisecond frequency of
grains arg: float freq: frequency of grains arg: float speed: playback
speed arg: float loop: whether to loop or not arg: float (0 or not)
range: list of 2 inputs: low and high. both scaled to be between 0
and 1 (where 0 is beginning of soundfile and 1 is the end). This is
for looping \, Play and rewind. pause: freeze playback position. no
args res: continue playback from current position no args tie: ties
the sign of the speed to the sign of the grain-reader (so that if speed
is negative \, the samples will be traversed backwards \, as well as
the playback point. Note that the reverse is not true. (this is the
speed->win parameter in the gui). arg: float (0 or not) rev: reverse
window. no args. rew: rewind but don't begin playback. no args phase:
send messages to rightmost inlet of egrains~;
#X text 436 557 outlets: signal1 \, signal2 \, read point \, grain
size \, phase of 1st reader \, overall position(0-1) \, message report
for saving;
#X obj 92 526 shadylib/outputc~;
#X obj 187 418 shadylib/grainyback~ anar2;
#X obj 462 316 shadylib/sampbufs~ anar anar2;
#X obj 679 281 shadylib/saver \$0-guieegrains;
#X obj 680 352 shadylib/msgsave;
#X obj 13 278 ggrains~ anar;
#X text 573 143 3rd inlet bang dumps parameters out last outlet;
#X text 588 175 2nd inlet sets size;
#X obj 482 220 shadylib/stater \$0-guieegrains eegrains;
#X obj 456 138 array size;
#X connect 0 0 11 0;
#X connect 1 0 0 0;
#X connect 10 0 9 1;
#X connect 10 1 9 1;
#X connect 11 0 14 1;
#X connect 12 0 13 0;
#X connect 12 1 13 1;
#X connect 12 2 13 2;
#X connect 13 0 6 0;
#X connect 14 0 9 0;
#X connect 14 1 9 0;
#X connect 14 2 10 0;
#X connect 14 3 10 1;
#X connect 14 4 10 2;
#X connect 14 6 17 0;
#X connect 17 0 14 2;
#X connect 17 1 14 0;
