#N canvas 677 308 450 300 10;
#X obj 99 264 outlet~;
#X obj 275 216 outlet;
#X obj 74 148 inlet~;
#X obj 129 147 inlet~;
#X obj 183 145 inlet~;
#X obj 97 210 instr/phaser24~;
#X obj 254 62 inlet;
#X obj 101 103 cnv 15 108 34 empty empty gphsr~ 20 7 0 14 #e0e0e0 #404040
0;
#X obj 111 120 hradio 15 1 0 6 empty empty empty 0 -8 0 10 #fcfcfc
#000000 #000000 0;
#X obj 196 33 loadbang;
#X obj 199 57 f \$1;
#X connect 2 0 5 0;
#X connect 3 0 5 1;
#X connect 4 0 5 2;
#X connect 5 0 0 0;
#X connect 6 0 8 0;
#X connect 8 0 5 3;
#X connect 8 0 1 0;
#X connect 9 0 10 0;
#X connect 10 0 8 0;
#X coords 0 -1 1 1 110 40 1 100 100;
