#N canvas 412 123 541 370 10;
#X obj 39 240 gphsr~;
#X obj 115 217 line~;
#X msg 116 196 \$1 5;
#X obj 73 216 line~;
#X msg 74 195 \$1 5;
#X msg 380 223 \; gphsr coef 0.338583 \; gphsr fdbk -0.244094 \; gphsr
stage 3 \;;
#X obj 158 47 vsl 15 128 0 1 0 0 empty empty empty 0 -9 0 10 #fcfcfc
#000000 #000000 0 1;
#X obj 193 48 vsl 15 128 -1 1 0 0 empty empty empty 0 -9 0 10 #fcfcfc
#000000 #000000 0 1;
#X text 308 39 gui with save/stage selection for phaser24~;
#X obj 156 15 route coef fdbk stage;
#X obj 165 193 shadylib/prepender coef fdbk stage;
#X obj 352 143 shadylib/msgsave;
#X obj 320 72 shadylib/saver \$0-globname;
#X obj 42 15 shadylib/smoother~;
#X obj 42 55 shadylib/blsaw~;
#X obj 164 247 shadylib/gsave \$0-globname gphsr;
#X obj 38 285 shadylib/outputc~;
#X connect 0 0 16 0;
#X connect 0 0 16 1;
#X connect 0 1 10 2;
#X connect 1 0 0 2;
#X connect 2 0 1 0;
#X connect 3 0 0 1;
#X connect 4 0 3 0;
#X connect 6 0 4 0;
#X connect 6 0 10 0;
#X connect 7 0 2 0;
#X connect 7 0 10 1;
#X connect 9 0 6 0;
#X connect 9 1 7 0;
#X connect 9 2 0 3;
#X connect 10 0 15 0;
#X connect 11 0 5 0;
#X connect 12 0 11 0;
#X connect 12 1 11 1;
#X connect 12 2 11 2;
#X connect 13 0 14 0;
#X connect 14 0 0 0;
#X connect 15 1 9 0;
