#N canvas 522 95 918 386 10;
#X obj 294 276 prepender attack decay pitchenv;
#X obj 320 77 route attack decay pitchenv;
#X obj 562 323 outlet;
#X obj 346 31 inlet;
#X obj 294 302 simplebd~;
#X obj 290 126 loadbang;
#X obj 287 152 f \$1;
#X obj 294 176 sel 0;
#X msg 323 197 attack \$1;
#X obj 403 172 sel 0;
#X obj 396 148 f \$2;
#X msg 425 195 decay \$1;
#X obj 485 171 sel 0;
#X obj 478 147 f \$3;
#X msg 507 194 pitchenv \$1;
#X obj 213 251 f \$4;
#X obj 296 352 outlet~;
#X obj 556 57 inlet;
#X msg 557 92 save;
#X obj 101 103 cnv 15 78 188 empty empty gsbd~ 20 10 0 14 -233017 -4160
0;
#X obj 110 158 vsl 15 128 0 20 0 0 empty empty a 4 5 0 10 -262144 -1
-1 3175 1;
#X obj 133 158 vsl 15 128 0 4000 0 0 empty empty d 4 5 0 10 -262144
-1 -1 6350 1;
#X obj 156 157 vsl 15 128 0 1 0 0 empty empty p 4 5 0 10 -262144 -1
-1 9525 1;
#X floatatom 131 135 5 0 0 2 midi - -, f 5;
#X obj 111 134 bng 15 250 50 0 empty empty t 4 -7 0 10 -262144 -1 -1
;
#X obj 466 99 route float;
#X obj 471 122 t b f;
#X msg 273 201 set 5;
#X msg 393 223 set 500;
#X connect 0 0 4 0;
#X connect 1 0 20 0;
#X connect 1 1 21 0;
#X connect 1 2 22 0;
#X connect 1 3 25 0;
#X connect 3 0 1 0;
#X connect 4 0 16 0;
#X connect 4 1 2 0;
#X connect 5 0 6 0;
#X connect 5 0 10 0;
#X connect 5 0 13 0;
#X connect 6 0 7 0;
#X connect 7 0 27 0;
#X connect 7 1 8 0;
#X connect 8 0 1 0;
#X connect 9 0 28 0;
#X connect 9 1 11 0;
#X connect 10 0 9 0;
#X connect 11 0 1 0;
#X connect 12 1 14 0;
#X connect 13 0 12 0;
#X connect 14 0 1 0;
#X connect 15 0 4 0;
#X connect 17 0 18 0;
#X connect 18 0 4 0;
#X connect 20 0 0 0;
#X connect 21 0 0 1;
#X connect 22 0 0 2;
#X connect 23 0 15 1;
#X connect 24 0 15 0;
#X connect 25 0 26 0;
#X connect 25 1 24 0;
#X connect 26 0 24 0;
#X connect 26 1 23 0;
#X connect 27 0 20 0;
#X connect 28 0 21 0;
#X coords 0 -1 1 1 80 195 1 100 100;
