#N canvas 54 147 588 562 10;
#X obj 150 241 gsbd~;
#X obj 70 23 bng 15 250 50 0 empty empty empty 17 7 0 10 #fcfcfc #000000
#000000;
#X text 90 22 triggers;
#X floatatom 169 18 5 0 0 0 - - - 0;
#X text 213 14 sets midi & triggers;
#X msg 220 143 pitchenv \$1;
#X floatatom 243 115 5 0 1 0 - - - 0;
#X text 286 120 (hold shift);
#X msg 352 173 attack \$1;
#X floatatom 358 145 5 0 0 0 - - - 0;
#X msg 446 178 decay \$1;
#X floatatom 453 155 5 0 0 0 - - - 0;
#X msg 462 112 2000;
#X msg 416 394 \; gsbd1 pitchenv 0.75 \; gsbd1 decay 2000 \; gsbd1
attack 5 \;;
#X obj 235 223 shadylib/gsave \$0-gsbd gsbd1;
#X obj 407 358 shadylib/msgsave;
#X obj 135 459 shadylib/outputc~;
#X obj 401 272 shadylib/saver \$0-gsbd;
#X text 358 25 gui for simplebd~;
#X text 350 65 (input midi number);
#X connect 0 0 16 0;
#X connect 0 0 16 1;
#X connect 0 1 14 0;
#X connect 1 0 0 0;
#X connect 3 0 0 0;
#X connect 5 0 0 0;
#X connect 6 0 5 0;
#X connect 8 0 0 0;
#X connect 9 0 8 0;
#X connect 10 0 0 0;
#X connect 11 0 10 0;
#X connect 12 0 11 0;
#X connect 14 0 0 1;
#X connect 14 1 0 0;
#X connect 15 0 13 0;
#X connect 17 0 15 0;
#X connect 17 1 15 1;
#X connect 17 2 15 2;
