#N canvas 479 49 501 453 10;
#X floatatom 30 94 5 0 0 0 - - - 0;
#X floatatom 61 250 5 0 0 0 - - - 0;
#X obj 39 344 shadylib/outputc~;
#X obj 93 282 tgl 15 0 empty empty empty 17 7 0 10 #fcfcfc #000000
#000000 0 1;
#X text 112 279 3rd inlet/2nd arg is whether to clear the delay line
on new note or not;
#X obj 61 140 spigot;
#X obj 94 120 tgl 15 0 empty empty constant_time 17 7 0 10 #fcfcfc
#000000 #000000 0 1;
#X obj 61 161 mtof;
#X floatatom 113 151 5 0 0 0 - - - 0;
#X text 150 150 time to -60db in ms;
#X text 114 203 convert back to samples;
#X text 104 181 1000 * #ofmultiplications("samples" for sdbpole);
#X obj 61 204 * 0.001;
#X obj 61 225 shadylib/sdbpole;
#X obj 30 113 t f f;
#X obj 61 182 * 5000;
#X text 17 21 karstrongo is a simple karplus-strong algorithm \, a
midi note in the left inlet starts a note and the right inlet/ 1st
argument is the feedback (defaults to 0.98);
#X text 186 233 <- same as;
#X obj 256 231 ksmpole;
#X obj 30 301 ./karstrongo~;
#X connect 0 0 14 0;
#X connect 1 0 19 1;
#X connect 3 0 19 2;
#X connect 5 0 7 0;
#X connect 6 0 5 1;
#X connect 7 0 15 0;
#X connect 8 0 15 1;
#X connect 12 0 13 0;
#X connect 13 0 1 0;
#X connect 14 0 19 0;
#X connect 14 1 5 0;
#X connect 15 0 12 0;
#X connect 19 0 2 1;
#X connect 19 0 2 0;
