#N canvas 507 62 873 490 10;
#X obj 393 158 noise~;
#X obj 512 160 rzero~ -1;
#X obj 516 77 mtof;
#X msg 513 225 clear;
#X obj 417 199 *~;
#X obj 471 214 +~;
#X obj 499 30 inlet;
#X obj 509 53 t f b;
#X obj 434 275 outlet~;
#X obj 639 51 inlet;
#X obj 616 186 * 0.5;
#X obj 699 89 loadbang;
#X obj 502 186 *~ 0;
#X obj 697 114 f \$1;
#X obj 628 272 block~ 1;
#X obj 448 149 vline~;
#X msg 428 119 1 \, 0 0 \$1;
#X obj 496 248 shadylib/delwritec~ \$0-ks 1000;
#X obj 508 125 shadylib/vdhs~ \$0-ks;
#X obj 683 154 shadylib/if 0 0.98;
#X obj 518 98 shadylib/mstof;
#X obj 778 36 inlet;
#X obj 529 200 spigot \$2;
#X connect 0 0 4 0;
#X connect 1 0 12 0;
#X connect 2 0 20 0;
#X connect 3 0 17 0;
#X connect 4 0 5 0;
#X connect 5 0 8 0;
#X connect 5 0 17 0;
#X connect 6 0 7 0;
#X connect 7 0 2 0;
#X connect 7 1 22 0;
#X connect 9 0 10 0;
#X connect 10 0 12 1;
#X connect 11 0 13 0;
#X connect 12 0 5 1;
#X connect 13 0 19 0;
#X connect 15 0 4 1;
#X connect 16 0 15 0;
#X connect 18 0 1 0;
#X connect 19 0 10 0;
#X connect 20 0 16 0;
#X connect 20 0 18 0;
#X connect 21 0 22 1;
#X connect 22 0 3 0;
