#N canvas 166 193 539 454 10;
#X floatatom 30 94 5 0 0 0 - - - 0;
#X floatatom 61 250 5 0 0 0 - - - 0;
#X obj 39 344 shadylib/outputc~;
#X obj 93 282 tgl 15 0 empty empty empty 17 7 0 10 #fcfcfc #000000
#000000 0 1;
#X floatatom 129 151 5 0 0 0 - - - 0;
#X text 166 150 time to -60db in ms;
#X obj 30 113 t f f;
#X text 17 21 this is the same help file as karstrongo~ \, but using
[ksmpole] instead;
#X obj 60 187 ./ksmpole 5000;
#X obj 30 301 ./karstrongo~;
#X connect 0 0 6 0;
#X connect 1 0 9 1;
#X connect 3 0 9 2;
#X connect 4 0 8 1;
#X connect 6 0 9 0;
#X connect 6 1 8 0;
#X connect 8 0 1 0;
#X connect 9 0 2 1;
#X connect 9 0 2 0;
