#N canvas 0 22 450 300 10;
#X obj 270 101 inlet;
#X obj 185 154 * \$1;
#X obj 185 102 inlet;
#X obj 185 123 mtof;
#X obj 185 183 * 0.001;
#X obj 185 204 shadylib/sdbpole;
#X obj 185 233 outlet;
#X connect 0 0 1 1;
#X connect 1 0 4 0;
#X connect 2 0 3 0;
#X connect 3 0 1 0;
#X connect 4 0 5 0;
#X connect 5 0 6 0;
