#N canvas 729 183 644 567 10;
#X obj 76 78 outputc~;
#X obj 72 -57 pack f 1;
#X obj 75 -79 mtof;
#X obj 105 -200 t b b;
#X obj 61 -100 +;
#X obj 48 -167 random 7;
#N canvas 896 62 450 300 major 0;
#X obj 71 38 inlet;
#X obj 63 263 outlet;
#N canvas 0 22 450 278 (subpatch) 0;
#X array major 7 float 3;
#A 0 0 2 4 5 7 9 11;
#X coords 0 11 7 0 200 140 1 0 0;
#X restore 172 51 graph;
#X msg 186 223 \; major 0 0 2 4 5 7 9 11;
#X obj 50 107 tabread major;
#X connect 0 0 4 0;
#X connect 4 0 1 0;
#X restore 49 -133 pd major;
#X msg 148 -88 clear;
#X obj 66 1 hip~ 5;
#X msg 314 -148 panic;
#X obj 52 -36 instr/manyvoice~ 50 davoice 1;
#X obj 113 -168 rndmrange 3 12 44;
#X msg 204 -197 44;
#X obj 298 -193 bng 15 250 50 0 empty empty empty 17 7 0 10 -262144
-1 -1;
#X obj 341 -199 bng 15 250 50 0 empty empty empty 17 7 0 10 -262144
-1 -1;
#X obj 104 -225 metro 50;
#X msg 249 -125 37;
#X obj 310 -243 cyclecount 2;
#X obj 315 -224 sel 0 1;
#X obj 261 -286 tgl 15 0 empty empty empty 17 7 0 10 -262144 -1 -1
0 1;
#X obj 381 -198 random 2;
#X obj 365 -154 sel 0 1;
#X obj 313 -269 metro 2400;
#X msg 252 -145 42;
#X obj 95 31 *~ 2.5;
#X text 28 -285 arguments: # \, name \, voice stealing;
#X text 24 -264 2nd inlet: goes to poly;
#X msg 410 -238 0;
#X text 178 10 kinda like many/polypoly~ but in a different format:
only accepts midi numbers. abstraction must be in same directory as
the containing canvas;
#X text 195 88 the "panic" message sends a "0 0" to all instances;
#X connect 1 0 10 0;
#X connect 2 0 1 0;
#X connect 3 0 5 0;
#X connect 3 1 11 0;
#X connect 4 0 2 0;
#X connect 5 0 6 0;
#X connect 6 0 4 0;
#X connect 7 0 10 0;
#X connect 8 0 24 0;
#X connect 9 0 10 0;
#X connect 10 0 8 0;
#X connect 11 0 4 1;
#X connect 12 0 11 3;
#X connect 13 0 12 0;
#X connect 13 0 9 0;
#X connect 14 0 9 0;
#X connect 15 0 3 0;
#X connect 16 0 11 3;
#X connect 17 0 18 0;
#X connect 18 0 13 0;
#X connect 18 1 14 0;
#X connect 18 1 20 0;
#X connect 19 0 15 0;
#X connect 19 0 22 0;
#X connect 20 0 21 0;
#X connect 21 0 16 0;
#X connect 21 1 23 0;
#X connect 22 0 17 0;
#X connect 23 0 11 3;
#X connect 24 0 0 1;
#X connect 24 0 0 0;
#X connect 27 0 17 2;
#X connect 27 0 9 0;
