#N canvas 591 124 901 571 10;
#X obj 114 38 inlet;
#X obj 128 238 outlet~;
#N canvas 213 574 450 300 \$0-voices 0;
#X restore 118 182 pd \$0-voices;
#X obj 499 405 s pd-\$0-voices;
#X obj 194 57 inlet;
#X obj 130 126 pack f f f;
#X obj 130 148 s \$0-midi;
#X obj 68 324 namecanvas \$0-manyvoice;
#X obj 222 242 s \$0-manyvoice;
#X msg 211 172 connect 2 0 1 0;
#X obj 327 150 iterate \$1;
#X obj 543 189 list;
#X obj 499 163 iterate \$1;
#X obj 500 189 + 1;
#X obj 447 257 list;
#X obj 425 280 list trim;
#X msg 580 348 clear;
#X obj 500 216 list prepend obj 5 40 route;
#X obj 385 22 loadbang;
#X obj 356 101 t b b b;
#X obj 529 271 pack \$0 \$1;
#X msg 558 301 obj 5 5 r \$1-midi \, obj 5 160 /~ \$2 \, obj 5 200
outlet~ \, connect 1 0 2 0;
#X obj 333 276 pack f s f f;
#X obj 321 181 t f f;
#X obj 400 253 + 4;
#X obj 315 207 scaler 50 5;
#X msg 280 338 obj \$1 80 \$2 \, connect 3 \$3 \$4 0 \, connect \$4
0 1 0;
#X msg 334 369 connect 0 0 3 0;
#X obj 127 97 poly \$1 \$3;
#X obj 383 80 spigot \$1;
#X obj 67 73 route panic;
#X obj 48 117 iterate \$1;
#X obj 53 96 bang;
#X obj 44 165 pack f 0 0;
#X msg 142 74 clear;
#X obj 45 141 + 1;
#X obj 372 183 ggee/getdir 1;
#X obj 487 102 bng 15 250 50 0 empty empty empty 17 7 0 10 -262144
-1 -1;
#X obj 367 228 makefilename %s/\$2;
#X obj 344 43 t b b;
#X obj 245 98 s pd-\$0-voices;
#X msg 296 68 loadbang;
#X connect 0 0 30 0;
#X connect 4 0 28 1;
#X connect 5 0 6 0;
#X connect 9 0 8 0;
#X connect 10 0 23 0;
#X connect 11 0 17 1;
#X connect 12 0 13 0;
#X connect 13 0 17 0;
#X connect 14 0 15 0;
#X connect 15 0 3 0;
#X connect 16 0 3 0;
#X connect 17 0 11 0;
#X connect 17 0 14 1;
#X connect 18 0 39 0;
#X connect 19 0 9 0;
#X connect 19 0 10 0;
#X connect 19 0 27 0;
#X connect 19 1 14 0;
#X connect 19 2 12 0;
#X connect 19 2 20 0;
#X connect 19 2 36 0;
#X connect 20 0 21 0;
#X connect 21 0 3 0;
#X connect 22 0 26 0;
#X connect 23 0 25 0;
#X connect 23 1 22 2;
#X connect 23 1 24 0;
#X connect 24 0 22 3;
#X connect 25 0 22 0;
#X connect 26 0 3 0;
#X connect 27 0 3 0;
#X connect 28 0 5 0;
#X connect 28 1 5 1;
#X connect 28 2 5 2;
#X connect 29 0 19 0;
#X connect 30 0 32 0;
#X connect 30 0 34 0;
#X connect 30 1 28 0;
#X connect 31 0 35 0;
#X connect 32 0 31 0;
#X connect 33 0 6 0;
#X connect 34 0 28 0;
#X connect 35 0 33 0;
#X connect 36 0 38 0;
#X connect 37 0 36 0;
#X connect 38 0 22 1;
#X connect 39 0 41 0;
#X connect 39 1 29 0;
#X connect 41 0 40 0;
