#N canvas 720 146 574 637 10;
#X obj 118 22 inlet;
#X obj 118 50 sel 0;
#X obj 202 331 sel 0;
#X msg 201 373 0;
#X obj 201 432 outlet;
#X obj 202 308 change;
#X obj 26 24 inlet;
#X obj 165 22 inlet;
#X obj 67 138 route 0 1;
#X obj 68 406 pack f \$1;
#X obj 68 432 outlet;
#X obj 68 107 list prepend;
#X obj 26 50 route panic;
#X obj 123 189 list append;
#X obj 67 220 list;
#X obj 67 242 list-drip;
#X obj 67 266 sel;
#X obj 158 262 t l;
#X obj 68 311 list;
#X obj 68 357 list split 1;
#X obj 89 286 list prepend;
#X msg 254 385 1;
#X obj 219 409 spigot 1;
#X obj 201 351 t b b;
#X msg 285 385 0;
#X obj 67 189 t b f b;
#X obj 352 436 outlet;
#X obj 26 76 b;
#X obj 202 287 list length;
#X msg 119 73 0;
#X msg 154 75 1;
#X obj 75 380 t l l;
#X floatatom 259 323 5 0 0 0 - - -;
#X obj 161 222 t l;
#X obj 211 217 t l l;
#X connect 0 0 1 0;
#X connect 1 0 29 0;
#X connect 1 1 22 0;
#X connect 1 1 30 0;
#X connect 2 0 23 0;
#X connect 2 1 24 0;
#X connect 3 0 4 0;
#X connect 5 0 2 0;
#X connect 5 0 32 0;
#X connect 6 0 12 0;
#X connect 7 0 9 1;
#X connect 8 0 25 0;
#X connect 8 1 9 0;
#X connect 8 1 13 0;
#X connect 9 0 10 0;
#X connect 11 0 8 0;
#X connect 12 0 27 0;
#X connect 12 1 11 0;
#X connect 13 0 33 0;
#X connect 13 0 34 0;
#X connect 14 0 15 0;
#X connect 15 0 16 0;
#X connect 15 1 18 0;
#X connect 16 1 20 0;
#X connect 17 0 20 1;
#X connect 18 0 19 0;
#X connect 19 0 31 0;
#X connect 19 1 33 0;
#X connect 19 2 33 0;
#X connect 19 2 34 0;
#X connect 20 0 17 0;
#X connect 20 0 18 1;
#X connect 21 0 22 1;
#X connect 22 0 4 0;
#X connect 23 0 3 0;
#X connect 23 1 21 0;
#X connect 24 0 22 1;
#X connect 25 0 14 0;
#X connect 25 1 16 1;
#X connect 25 2 18 1;
#X connect 25 2 20 1;
#X connect 27 0 33 0;
#X connect 28 0 5 0;
#X connect 29 0 11 1;
#X connect 30 0 11 1;
#X connect 31 0 9 0;
#X connect 31 1 13 0;
#X connect 33 0 13 1;
#X connect 33 0 14 1;
#X connect 34 0 28 0;
#X connect 34 1 26 0;
