#N canvas 704 23 348 366 10;
#X obj 137 23 inlet;
#X obj 146 300 outlet;
#X obj 26 24 inlet;
#X obj 242 22 inlet;
#X obj 26 246 pack f \$1;
#X obj 26 301 outlet;
#X obj 242 299 outlet;
#X obj 137 208 f;
#X msg 26 98 flush;
#X msg 164 208 0;
#X obj 164 152 sel 0;
#X obj 137 121 t f f;
#X obj 176 248 f;
#X obj 26 184 t f b l;
#X obj 137 176 t b b;
#X obj 26 152 shadylib/noteson \$2;
#X obj 26 50 route stop list;
#X obj 69 74 unpack f f;
#X connect 0 0 11 0;
#X connect 2 0 16 0;
#X connect 3 0 4 1;
#X connect 4 0 5 0;
#X connect 7 0 5 0;
#X connect 8 0 15 0;
#X connect 9 0 1 0;
#X connect 10 1 12 1;
#X connect 11 0 15 1;
#X connect 11 1 10 0;
#X connect 12 0 1 0;
#X connect 13 0 4 0;
#X connect 13 0 7 1;
#X connect 13 1 12 0;
#X connect 13 2 6 0;
#X connect 14 0 7 0;
#X connect 14 1 9 0;
#X connect 15 0 13 0;
#X connect 15 1 14 0;
#X connect 16 0 8 0;
#X connect 16 1 17 0;
#X connect 16 2 15 0;
#X connect 17 0 15 0;
#X connect 17 1 11 0;
