#N canvas 720 146 574 637 10;
#X obj 118 22 inlet;
#X obj 118 50 sel 0;
#X obj 202 331 sel 0;
#X msg 201 373 0;
#X obj 201 432 outlet;
#X obj 202 308 change;
#X obj 26 24 inlet;
#X obj 165 22 inlet;
#X obj 67 138 route 0 1;
#X obj 56 453 pack f \$1;
#X obj 56 479 outlet;
#X obj 206 158 list append;
#X obj 60 213 list;
#X obj 60 282 sel;
#X obj 151 278 t l;
#X obj 61 327 list;
#X obj 69 358 list split 1;
#X obj 82 302 list prepend;
#X msg 276 364 1;
#X obj 241 388 spigot 1;
#X obj 201 351 t b b;
#X msg 307 364 0;
#X obj 59 169 t b f b;
#X obj 352 436 outlet;
#X obj 26 76 b;
#X obj 202 287 list length;
#X msg 119 73 0;
#X msg 154 75 1;
#X obj 118 187 t l;
#X obj 211 217 t l l;
#X obj 60 258 list-abs/list-drip;
#X obj 68 107 list prepend;
#X obj 68 385 t f f;
#X obj 75 85 t f b;
#X obj 221 409 f;
#X obj 52 235 t l f;
#X obj 65 430 spigot;
#X obj 95 407 !=;
#X obj 26 50 route clear;
#X connect 0 0 1 0;
#X connect 1 0 26 0;
#X connect 1 1 19 0;
#X connect 1 1 27 0;
#X connect 2 0 20 0;
#X connect 2 1 21 0;
#X connect 3 0 4 0;
#X connect 5 0 2 0;
#X connect 6 0 38 0;
#X connect 7 0 9 1;
#X connect 8 0 22 0;
#X connect 8 1 9 0;
#X connect 8 1 11 0;
#X connect 9 0 10 0;
#X connect 11 0 28 0;
#X connect 11 0 29 0;
#X connect 12 0 35 0;
#X connect 13 1 17 0;
#X connect 14 0 17 1;
#X connect 15 0 16 0;
#X connect 16 0 32 0;
#X connect 16 1 28 0;
#X connect 16 2 28 0;
#X connect 16 2 29 0;
#X connect 17 0 14 0;
#X connect 17 0 15 1;
#X connect 18 0 19 1;
#X connect 19 0 34 1;
#X connect 20 0 3 0;
#X connect 20 1 18 0;
#X connect 21 0 19 1;
#X connect 22 0 12 0;
#X connect 22 1 13 1;
#X connect 22 2 15 1;
#X connect 22 2 17 1;
#X connect 24 0 28 0;
#X connect 25 0 5 0;
#X connect 26 0 31 1;
#X connect 27 0 31 1;
#X connect 28 0 11 1;
#X connect 28 0 12 1;
#X connect 29 0 25 0;
#X connect 29 1 23 0;
#X connect 30 0 13 0;
#X connect 30 1 15 0;
#X connect 31 0 8 0;
#X connect 32 0 36 0;
#X connect 32 1 11 0;
#X connect 32 1 37 0;
#X connect 33 0 31 0;
#X connect 33 1 34 0;
#X connect 34 0 4 0;
#X connect 35 0 30 0;
#X connect 35 1 37 1;
#X connect 36 0 9 0;
#X connect 37 0 36 1;
#X connect 38 0 24 0;
#X connect 38 1 33 0;
