#N canvas 214 130 665 300 10;
#X text 41 55 inlets: midi \, velocity \, gliss time;
#X text 68 245 outs: list for line~ (midi + gliss) \, velocity \, list
of current notes on;
#X msg 29 95 64 0;
#X msg 113 94 60 0;
#X msg 148 93 60 60;
#X obj 97 190 print linelist;
#X obj 121 170 print velocity;
#X obj 143 212 print notelist;
#X msg 324 96 stop;
#X text 358 96 output last note with velocity 0 and clear list;
#X msg 324 116 clear;
#X text 363 116 clear list without outputting;
#X text 40 36 args: gliss time \, mode;
#X msg 304 63 mode \$1;
#X text 41 12 note list for monophonic stuff;
#X floatatom 304 38 5 0 2 0 - - - 0;
#X text 287 8 note priority mode: 0: last note \, 1: highest note \,
2:lowest note;
#X text 17 71 1st inlet can also take list of midi \, velocity;
#X msg 65 94 64 120;
#X text 251 178 when monoctl sends a noteoff \, it sends the last note
as a float out of the first outlet;
#X obj 104 146 ./monoctl;
#X connect 2 0 20 0;
#X connect 3 0 20 0;
#X connect 4 0 20 0;
#X connect 8 0 20 0;
#X connect 10 0 20 0;
#X connect 13 0 20 0;
#X connect 15 0 13 0;
#X connect 18 0 20 0;
#X connect 20 0 5 0;
#X connect 20 1 6 0;
#X connect 20 2 7 0;
