#N canvas 228 98 574 637 10;
#X declare -stdlib zexy;
#X obj 147 17 inlet;
#X obj 147 45 sel 0;
#X obj 201 346 sel 0;
#X msg 228 403 0;
#X obj 228 432 outlet;
#X obj 201 323 change;
#X obj 26 24 inlet;
#X obj 255 22 inlet;
#X obj 43 476 pack f \$1;
#X obj 43 502 outlet;
#X obj 201 250 list append;
#X obj 43 212 list;
#X obj 62 282 sel;
#X obj 146 274 t l;
#X obj 43 327 list;
#X obj 43 358 list split 1;
#X obj 77 302 list prepend;
#X obj 43 168 t b f b;
#X obj 352 436 outlet;
#X obj 26 76 b;
#X obj 201 302 list length;
#X msg 147 68 0;
#X msg 182 70 1;
#X obj 104 175 t l;
#X obj 201 272 t l l;
#X obj 43 385 t f f;
#X obj 43 430 spigot;
#X obj 76 407 !=;
#X obj 43 234 t b l f;
#X obj 62 255 drip;
#X obj 324 86 declare -stdlib zexy;
#X obj 43 142 demultiplex;
#X obj 260 403 f;
#X obj 162 193 t f b f;
#X obj 26 50 route clear stop;
#X obj 149 447 f;
#X obj 134 474 f;
#X obj 201 378 t b b;
#X obj 74 70 t b b;
#X connect 0 0 1 0;
#X connect 1 0 21 0;
#X connect 1 1 22 0;
#X connect 1 1 32 1;
#X connect 2 0 37 0;
#X connect 3 0 4 0;
#X connect 5 0 2 0;
#X connect 6 0 34 0;
#X connect 7 0 8 1;
#X connect 8 0 9 0;
#X connect 10 0 23 0;
#X connect 10 0 24 0;
#X connect 11 0 28 0;
#X connect 12 1 16 0;
#X connect 13 0 16 1;
#X connect 14 0 15 0;
#X connect 15 0 25 0;
#X connect 15 1 23 0;
#X connect 15 2 23 0;
#X connect 15 2 24 0;
#X connect 16 0 13 0;
#X connect 16 0 14 1;
#X connect 17 0 11 0;
#X connect 17 1 12 1;
#X connect 17 2 14 1;
#X connect 17 2 16 1;
#X connect 19 0 23 0;
#X connect 20 0 5 0;
#X connect 21 0 31 1;
#X connect 22 0 31 1;
#X connect 23 0 10 1;
#X connect 23 0 11 1;
#X connect 23 0 35 0;
#X connect 24 0 20 0;
#X connect 24 1 18 0;
#X connect 25 0 26 0;
#X connect 25 1 10 0;
#X connect 25 1 27 0;
#X connect 26 0 8 0;
#X connect 27 0 26 1;
#X connect 28 0 14 0;
#X connect 28 1 29 0;
#X connect 28 2 27 1;
#X connect 29 0 12 0;
#X connect 31 0 17 0;
#X connect 31 1 33 0;
#X connect 32 0 4 0;
#X connect 33 0 8 0;
#X connect 33 1 32 0;
#X connect 33 2 10 0;
#X connect 34 0 19 0;
#X connect 34 1 38 0;
#X connect 34 2 31 0;
#X connect 35 0 36 1;
#X connect 36 0 9 0;
#X connect 37 0 36 0;
#X connect 37 1 3 0;
#X connect 38 0 23 0;
#X connect 38 1 24 0;
