#N canvas 686 62 603 502 10;
#X obj 161 145 instr/mooglop~;
#X obj 110 88 mtof~;
#X text 50 390 args: resonance \, fixed voltage \, last 3 are args
for gabsaver;
#X text 13 11 inlets: signal to filter \, control voltage in (frequency)
\, messages for control: res(0-4) and fcv (30 - 15000);
#X msg 410 105 res 2;
#X msg 452 103 fcv 50;
#X obj 449 253 print;
#X text 219 444 2nd outlet: messages;
#X floatatom 379 50 5 0 0 0 - - - 0;
#X obj 211 300 shadylib/outputc~;
#X obj 126 111 shadylib/blsaw~;
#X obj 275 93 shadylib/operator~ 500 0;
#X obj 111 49 shadylib/smoother~;
#X obj 260 52 shadylib/smoother~;
#X connect 0 0 9 0;
#X connect 0 0 9 1;
#X connect 0 1 6 0;
#X connect 1 0 10 0;
#X connect 4 0 0 2;
#X connect 5 0 0 2;
#X connect 8 0 11 1;
#X connect 10 0 0 0;
#X connect 11 0 0 1;
#X connect 12 0 1 0;
#X connect 13 0 11 0;
