#N canvas 604 37 635 659 10;
#X declare -lib zexy;
#X obj 43 132 inlet~;
#X obj 47 457 block~ 1;
#X obj 477 209 inlet~;
#X obj 197 267 *~;
#X obj 183 213 delread~ \$0-feedback;
#X obj 221 508 delwrite~ \$0-feedback 0.1;
#X obj 301 83 loadbang;
#X obj 317 163 stoms;
#X msg 324 128 1;
#N canvas 799 61 531 510 2stage 0;
#X obj 143 188 rpole~;
#X obj 141 164 rzero_rev~;
#X obj 150 258 rpole~;
#X obj 147 221 rzero_rev~;
#X obj 251 7 inlet~;
#X obj 147 28 inlet~;
#X obj 171 429 outlet~;
#X connect 0 0 3 0;
#X connect 1 0 0 0;
#X connect 2 0 6 0;
#X connect 3 0 2 0;
#X connect 4 0 1 1;
#X connect 4 0 0 1;
#X connect 4 0 3 1;
#X connect 4 0 2 1;
#X connect 5 0 1 0;
#X restore 191 293 pd 2stage;
#N canvas 799 61 531 510 4stage 0;
#X obj 143 188 rpole~;
#X obj 141 164 rzero_rev~;
#X obj 150 258 rpole~;
#X obj 147 221 rzero_rev~;
#X obj 251 7 inlet~;
#X obj 147 28 inlet~;
#X obj 171 429 outlet~;
#X connect 0 0 3 0;
#X connect 1 0 0 0;
#X connect 2 0 6 0;
#X connect 3 0 2 0;
#X connect 4 0 1 1;
#X connect 4 0 0 1;
#X connect 4 0 3 1;
#X connect 4 0 2 1;
#X connect 5 0 1 0;
#X restore 228 321 pd 4stage;
#N canvas 896 164 450 300 8stage 0;
#N canvas 799 61 531 510 stage 0;
#X obj 143 188 rpole~;
#X obj 141 164 rzero_rev~;
#X obj 150 258 rpole~;
#X obj 147 221 rzero_rev~;
#X obj 251 7 inlet~;
#X obj 147 28 inlet~;
#X obj 171 429 outlet~;
#X connect 0 0 3 0;
#X connect 1 0 0 0;
#X connect 2 0 6 0;
#X connect 3 0 2 0;
#X connect 4 0 1 1;
#X connect 4 0 0 1;
#X connect 4 0 3 1;
#X connect 4 0 2 1;
#X connect 5 0 1 0;
#X restore 148 137 pd stage;
#N canvas 799 61 531 510 stage 0;
#X obj 143 188 rpole~;
#X obj 141 164 rzero_rev~;
#X obj 150 258 rpole~;
#X obj 147 221 rzero_rev~;
#X obj 251 7 inlet~;
#X obj 147 28 inlet~;
#X obj 171 429 outlet~;
#X connect 0 0 3 0;
#X connect 1 0 0 0;
#X connect 2 0 6 0;
#X connect 3 0 2 0;
#X connect 4 0 1 1;
#X connect 4 0 0 1;
#X connect 4 0 3 1;
#X connect 4 0 2 1;
#X connect 5 0 1 0;
#X restore 151 160 pd stage;
#X obj 222 76 inlet~;
#X obj 146 68 inlet~;
#X obj 162 204 outlet~;
#X connect 0 0 1 0;
#X connect 1 0 4 0;
#X connect 2 0 0 1;
#X connect 2 0 1 1;
#X connect 3 0 0 0;
#X restore 265 346 pd 8stage;
#N canvas 805 281 450 300 16stage 0;
#X obj 48 15 inlet~;
#N canvas 896 164 450 300 stage 0;
#N canvas 799 61 531 510 stage 0;
#X obj 143 188 rpole~;
#X obj 141 164 rzero_rev~;
#X obj 150 258 rpole~;
#X obj 147 221 rzero_rev~;
#X obj 251 7 inlet~;
#X obj 147 28 inlet~;
#X obj 171 429 outlet~;
#X connect 0 0 3 0;
#X connect 1 0 0 0;
#X connect 2 0 6 0;
#X connect 3 0 2 0;
#X connect 4 0 1 1;
#X connect 4 0 0 1;
#X connect 4 0 3 1;
#X connect 4 0 2 1;
#X connect 5 0 1 0;
#X restore 148 137 pd stage;
#N canvas 799 61 531 510 stage 0;
#X obj 143 188 rpole~;
#X obj 141 164 rzero_rev~;
#X obj 150 258 rpole~;
#X obj 147 221 rzero_rev~;
#X obj 251 7 inlet~;
#X obj 147 28 inlet~;
#X obj 171 429 outlet~;
#X connect 0 0 3 0;
#X connect 1 0 0 0;
#X connect 2 0 6 0;
#X connect 3 0 2 0;
#X connect 4 0 1 1;
#X connect 4 0 0 1;
#X connect 4 0 3 1;
#X connect 4 0 2 1;
#X connect 5 0 1 0;
#X restore 151 160 pd stage;
#X obj 222 76 inlet~;
#X obj 146 68 inlet~;
#X obj 162 204 outlet~;
#X connect 0 0 1 0;
#X connect 1 0 4 0;
#X connect 2 0 0 1;
#X connect 2 0 1 1;
#X connect 3 0 0 0;
#X restore 54 60 pd stage;
#N canvas 896 164 450 300 stage 0;
#N canvas 799 61 531 510 stage 0;
#X obj 143 188 rpole~;
#X obj 141 164 rzero_rev~;
#X obj 150 258 rpole~;
#X obj 147 221 rzero_rev~;
#X obj 251 7 inlet~;
#X obj 147 28 inlet~;
#X obj 171 429 outlet~;
#X connect 0 0 3 0;
#X connect 1 0 0 0;
#X connect 2 0 6 0;
#X connect 3 0 2 0;
#X connect 4 0 1 1;
#X connect 4 0 0 1;
#X connect 4 0 3 1;
#X connect 4 0 2 1;
#X connect 5 0 1 0;
#X restore 148 137 pd stage;
#N canvas 799 61 531 510 stage 0;
#X obj 143 188 rpole~;
#X obj 141 164 rzero_rev~;
#X obj 150 258 rpole~;
#X obj 147 221 rzero_rev~;
#X obj 251 7 inlet~;
#X obj 147 28 inlet~;
#X obj 171 429 outlet~;
#X connect 0 0 3 0;
#X connect 1 0 0 0;
#X connect 2 0 6 0;
#X connect 3 0 2 0;
#X connect 4 0 1 1;
#X connect 4 0 0 1;
#X connect 4 0 3 1;
#X connect 4 0 2 1;
#X connect 5 0 1 0;
#X restore 151 160 pd stage;
#X obj 222 76 inlet~;
#X obj 146 68 inlet~;
#X obj 162 204 outlet~;
#X connect 0 0 1 0;
#X connect 1 0 4 0;
#X connect 2 0 0 1;
#X connect 2 0 1 1;
#X connect 3 0 0 0;
#X restore 56 102 pd stage;
#X obj 57 154 outlet~;
#X obj 165 55 inlet~;
#X connect 0 0 1 0;
#X connect 1 0 2 0;
#X connect 2 0 3 0;
#X connect 4 0 1 1;
#X connect 4 0 2 1;
#X restore 302 372 pd 16stage;
#N canvas 805 281 450 300 24stage 0;
#X obj 48 15 inlet~;
#N canvas 896 164 450 300 stage 0;
#N canvas 799 61 531 510 stage 0;
#X obj 143 188 rpole~;
#X obj 141 164 rzero_rev~;
#X obj 150 258 rpole~;
#X obj 147 221 rzero_rev~;
#X obj 251 7 inlet~;
#X obj 147 28 inlet~;
#X obj 171 429 outlet~;
#X connect 0 0 3 0;
#X connect 1 0 0 0;
#X connect 2 0 6 0;
#X connect 3 0 2 0;
#X connect 4 0 1 1;
#X connect 4 0 0 1;
#X connect 4 0 3 1;
#X connect 4 0 2 1;
#X connect 5 0 1 0;
#X restore 148 137 pd stage;
#N canvas 799 61 531 510 stage 0;
#X obj 143 188 rpole~;
#X obj 141 164 rzero_rev~;
#X obj 150 258 rpole~;
#X obj 147 221 rzero_rev~;
#X obj 251 7 inlet~;
#X obj 147 28 inlet~;
#X obj 171 429 outlet~;
#X connect 0 0 3 0;
#X connect 1 0 0 0;
#X connect 2 0 6 0;
#X connect 3 0 2 0;
#X connect 4 0 1 1;
#X connect 4 0 0 1;
#X connect 4 0 3 1;
#X connect 4 0 2 1;
#X connect 5 0 1 0;
#X restore 151 160 pd stage;
#X obj 222 76 inlet~;
#X obj 146 68 inlet~;
#X obj 162 204 outlet~;
#X connect 0 0 1 0;
#X connect 1 0 4 0;
#X connect 2 0 0 1;
#X connect 2 0 1 1;
#X connect 3 0 0 0;
#X restore 54 60 pd stage;
#N canvas 896 164 450 300 stage 0;
#N canvas 799 61 531 510 stage 0;
#X obj 143 188 rpole~;
#X obj 141 164 rzero_rev~;
#X obj 150 258 rpole~;
#X obj 147 221 rzero_rev~;
#X obj 251 7 inlet~;
#X obj 147 28 inlet~;
#X obj 171 429 outlet~;
#X connect 0 0 3 0;
#X connect 1 0 0 0;
#X connect 2 0 6 0;
#X connect 3 0 2 0;
#X connect 4 0 1 1;
#X connect 4 0 0 1;
#X connect 4 0 3 1;
#X connect 4 0 2 1;
#X connect 5 0 1 0;
#X restore 148 137 pd stage;
#N canvas 799 61 531 510 stage 0;
#X obj 143 188 rpole~;
#X obj 141 164 rzero_rev~;
#X obj 150 258 rpole~;
#X obj 147 221 rzero_rev~;
#X obj 251 7 inlet~;
#X obj 147 28 inlet~;
#X obj 171 429 outlet~;
#X connect 0 0 3 0;
#X connect 1 0 0 0;
#X connect 2 0 6 0;
#X connect 3 0 2 0;
#X connect 4 0 1 1;
#X connect 4 0 0 1;
#X connect 4 0 3 1;
#X connect 4 0 2 1;
#X connect 5 0 1 0;
#X restore 151 160 pd stage;
#X obj 222 76 inlet~;
#X obj 146 68 inlet~;
#X obj 162 204 outlet~;
#X connect 0 0 1 0;
#X connect 1 0 4 0;
#X connect 2 0 0 1;
#X connect 2 0 1 1;
#X connect 3 0 0 0;
#X restore 56 102 pd stage;
#X obj 57 154 outlet~;
#X obj 165 55 inlet~;
#X connect 0 0 1 0;
#X connect 1 0 2 0;
#X connect 2 0 3 0;
#X connect 4 0 1 1;
#X connect 4 0 2 1;
#X restore 329 409 pd 24stage;
#X obj 136 516 +~;
#X obj 539 128 inlet;
#X obj 136 633 outlet~;
#X obj 404 112 inlet~;
#X obj 378 178 shadylib/scaler~ -2 1;
#X obj 136 555 *~ 0.5;
#X obj 73 208 rminus~ 1;
#X obj 437 320 abs~;
#X obj 484 252 clip~ -1 1;
#X obj 70 236 q8_sqrt~;
#X obj 28 279 *~;
#X obj 416 146 clip~ 0 1;
#X obj 179 481 hip~ 5;
#X obj 106 92 declare -lib zexy;
#X obj 154 454 multiplex~ 0 1 2 3 4 5;
#X connect 0 0 24 0;
#X connect 2 0 22 0;
#X connect 3 0 9 0;
#X connect 4 0 3 0;
#X connect 6 0 8 0;
#X connect 7 0 4 0;
#X connect 8 0 7 0;
#X connect 9 0 10 0;
#X connect 9 0 28 1;
#X connect 10 0 11 0;
#X connect 10 0 28 2;
#X connect 11 0 12 0;
#X connect 11 0 28 3;
#X connect 12 0 13 0;
#X connect 12 0 28 4;
#X connect 13 0 28 5;
#X connect 14 0 19 0;
#X connect 15 0 28 0;
#X connect 17 0 25 0;
#X connect 18 0 13 1;
#X connect 18 0 11 1;
#X connect 18 0 10 1;
#X connect 18 0 9 1;
#X connect 19 0 16 0;
#X connect 20 0 23 0;
#X connect 21 0 20 0;
#X connect 22 0 21 0;
#X connect 22 0 3 1;
#X connect 23 0 24 1;
#X connect 24 0 14 0;
#X connect 24 0 9 0;
#X connect 25 0 18 0;
#X connect 26 0 5 0;
#X connect 28 0 14 1;
#X connect 28 0 26 0;
