#N canvas 604 37 635 659 10;
#X obj 135 181 inlet~;
#X obj 47 457 block~ 1;
#X obj 477 209 inlet~;
#X obj 209 259 *~;
#X obj 203 225 delread~ \$0-feedback;
#X obj 221 508 delwrite~ \$0-feedback 0.1;
#X obj 301 83 loadbang;
#X obj 317 163 stoms;
#X msg 324 128 1;
#N canvas 799 61 531 510 2stage 0;
#X obj 143 188 rpole~;
#X obj 141 164 rzero_rev~;
#X obj 150 258 rpole~;
#X obj 147 221 rzero_rev~;
#X obj 251 7 inlet~;
#X obj 147 28 inlet~;
#X obj 171 429 outlet~;
#X connect 0 0 3 0;
#X connect 1 0 0 0;
#X connect 2 0 6 0;
#X connect 3 0 2 0;
#X connect 4 0 1 1;
#X connect 4 0 0 1;
#X connect 4 0 3 1;
#X connect 4 0 2 1;
#X connect 5 0 1 0;
#X restore 145 286 pd 2stage;
#N canvas 799 61 531 510 4stage 0;
#X obj 143 188 rpole~;
#X obj 141 164 rzero_rev~;
#X obj 150 258 rpole~;
#X obj 147 221 rzero_rev~;
#X obj 251 7 inlet~;
#X obj 147 28 inlet~;
#X obj 171 429 outlet~;
#X connect 0 0 3 0;
#X connect 1 0 0 0;
#X connect 2 0 6 0;
#X connect 3 0 2 0;
#X connect 4 0 1 1;
#X connect 4 0 0 1;
#X connect 4 0 3 1;
#X connect 4 0 2 1;
#X connect 5 0 1 0;
#X restore 165 314 pd 4stage;
#N canvas 896 164 450 300 8stage 0;
#N canvas 799 61 531 510 stage 0;
#X obj 143 188 rpole~;
#X obj 141 164 rzero_rev~;
#X obj 150 258 rpole~;
#X obj 147 221 rzero_rev~;
#X obj 251 7 inlet~;
#X obj 147 28 inlet~;
#X obj 171 429 outlet~;
#X connect 0 0 3 0;
#X connect 1 0 0 0;
#X connect 2 0 6 0;
#X connect 3 0 2 0;
#X connect 4 0 1 1;
#X connect 4 0 0 1;
#X connect 4 0 3 1;
#X connect 4 0 2 1;
#X connect 5 0 1 0;
#X restore 148 137 pd stage;
#N canvas 799 61 531 510 stage 0;
#X obj 143 188 rpole~;
#X obj 141 164 rzero_rev~;
#X obj 150 258 rpole~;
#X obj 147 221 rzero_rev~;
#X obj 251 7 inlet~;
#X obj 147 28 inlet~;
#X obj 171 429 outlet~;
#X connect 0 0 3 0;
#X connect 1 0 0 0;
#X connect 2 0 6 0;
#X connect 3 0 2 0;
#X connect 4 0 1 1;
#X connect 4 0 0 1;
#X connect 4 0 3 1;
#X connect 4 0 2 1;
#X connect 5 0 1 0;
#X restore 151 160 pd stage;
#X obj 222 76 inlet~;
#X obj 146 68 inlet~;
#X obj 162 204 outlet~;
#X connect 0 0 1 0;
#X connect 1 0 4 0;
#X connect 2 0 0 1;
#X connect 2 0 1 1;
#X connect 3 0 0 0;
#X restore 187 339 pd 8stage;
#N canvas 805 281 450 300 16stage 0;
#X obj 48 15 inlet~;
#N canvas 896 164 450 300 stage 0;
#N canvas 799 61 531 510 stage 0;
#X obj 143 188 rpole~;
#X obj 141 164 rzero_rev~;
#X obj 150 258 rpole~;
#X obj 147 221 rzero_rev~;
#X obj 251 7 inlet~;
#X obj 147 28 inlet~;
#X obj 171 429 outlet~;
#X connect 0 0 3 0;
#X connect 1 0 0 0;
#X connect 2 0 6 0;
#X connect 3 0 2 0;
#X connect 4 0 1 1;
#X connect 4 0 0 1;
#X connect 4 0 3 1;
#X connect 4 0 2 1;
#X connect 5 0 1 0;
#X restore 148 137 pd stage;
#N canvas 799 61 531 510 stage 0;
#X obj 143 188 rpole~;
#X obj 141 164 rzero_rev~;
#X obj 150 258 rpole~;
#X obj 147 221 rzero_rev~;
#X obj 251 7 inlet~;
#X obj 147 28 inlet~;
#X obj 171 429 outlet~;
#X connect 0 0 3 0;
#X connect 1 0 0 0;
#X connect 2 0 6 0;
#X connect 3 0 2 0;
#X connect 4 0 1 1;
#X connect 4 0 0 1;
#X connect 4 0 3 1;
#X connect 4 0 2 1;
#X connect 5 0 1 0;
#X restore 151 160 pd stage;
#X obj 222 76 inlet~;
#X obj 146 68 inlet~;
#X obj 162 204 outlet~;
#X connect 0 0 1 0;
#X connect 1 0 4 0;
#X connect 2 0 0 1;
#X connect 2 0 1 1;
#X connect 3 0 0 0;
#X restore 54 60 pd stage;
#N canvas 896 164 450 300 stage 0;
#N canvas 799 61 531 510 stage 0;
#X obj 143 188 rpole~;
#X obj 141 164 rzero_rev~;
#X obj 150 258 rpole~;
#X obj 147 221 rzero_rev~;
#X obj 251 7 inlet~;
#X obj 147 28 inlet~;
#X obj 171 429 outlet~;
#X connect 0 0 3 0;
#X connect 1 0 0 0;
#X connect 2 0 6 0;
#X connect 3 0 2 0;
#X connect 4 0 1 1;
#X connect 4 0 0 1;
#X connect 4 0 3 1;
#X connect 4 0 2 1;
#X connect 5 0 1 0;
#X restore 148 137 pd stage;
#N canvas 799 61 531 510 stage 0;
#X obj 143 188 rpole~;
#X obj 141 164 rzero_rev~;
#X obj 150 258 rpole~;
#X obj 147 221 rzero_rev~;
#X obj 251 7 inlet~;
#X obj 147 28 inlet~;
#X obj 171 429 outlet~;
#X connect 0 0 3 0;
#X connect 1 0 0 0;
#X connect 2 0 6 0;
#X connect 3 0 2 0;
#X connect 4 0 1 1;
#X connect 4 0 0 1;
#X connect 4 0 3 1;
#X connect 4 0 2 1;
#X connect 5 0 1 0;
#X restore 151 160 pd stage;
#X obj 222 76 inlet~;
#X obj 146 68 inlet~;
#X obj 162 204 outlet~;
#X connect 0 0 1 0;
#X connect 1 0 4 0;
#X connect 2 0 0 1;
#X connect 2 0 1 1;
#X connect 3 0 0 0;
#X restore 56 102 pd stage;
#X obj 57 154 outlet~;
#X obj 165 55 inlet~;
#X connect 0 0 1 0;
#X connect 1 0 2 0;
#X connect 2 0 3 0;
#X connect 4 0 1 1;
#X connect 4 0 2 1;
#X restore 214 365 pd 16stage;
#N canvas 805 281 450 300 24stage 0;
#X obj 48 15 inlet~;
#N canvas 896 164 450 300 stage 0;
#N canvas 799 61 531 510 stage 0;
#X obj 143 188 rpole~;
#X obj 141 164 rzero_rev~;
#X obj 150 258 rpole~;
#X obj 147 221 rzero_rev~;
#X obj 251 7 inlet~;
#X obj 147 28 inlet~;
#X obj 171 429 outlet~;
#X connect 0 0 3 0;
#X connect 1 0 0 0;
#X connect 2 0 6 0;
#X connect 3 0 2 0;
#X connect 4 0 1 1;
#X connect 4 0 0 1;
#X connect 4 0 3 1;
#X connect 4 0 2 1;
#X connect 5 0 1 0;
#X restore 148 137 pd stage;
#N canvas 799 61 531 510 stage 0;
#X obj 143 188 rpole~;
#X obj 141 164 rzero_rev~;
#X obj 150 258 rpole~;
#X obj 147 221 rzero_rev~;
#X obj 251 7 inlet~;
#X obj 147 28 inlet~;
#X obj 171 429 outlet~;
#X connect 0 0 3 0;
#X connect 1 0 0 0;
#X connect 2 0 6 0;
#X connect 3 0 2 0;
#X connect 4 0 1 1;
#X connect 4 0 0 1;
#X connect 4 0 3 1;
#X connect 4 0 2 1;
#X connect 5 0 1 0;
#X restore 151 160 pd stage;
#X obj 222 76 inlet~;
#X obj 146 68 inlet~;
#X obj 162 204 outlet~;
#X connect 0 0 1 0;
#X connect 1 0 4 0;
#X connect 2 0 0 1;
#X connect 2 0 1 1;
#X connect 3 0 0 0;
#X restore 54 60 pd stage;
#N canvas 896 164 450 300 stage 0;
#N canvas 799 61 531 510 stage 0;
#X obj 143 188 rpole~;
#X obj 141 164 rzero_rev~;
#X obj 150 258 rpole~;
#X obj 147 221 rzero_rev~;
#X obj 251 7 inlet~;
#X obj 147 28 inlet~;
#X obj 171 429 outlet~;
#X connect 0 0 3 0;
#X connect 1 0 0 0;
#X connect 2 0 6 0;
#X connect 3 0 2 0;
#X connect 4 0 1 1;
#X connect 4 0 0 1;
#X connect 4 0 3 1;
#X connect 4 0 2 1;
#X connect 5 0 1 0;
#X restore 148 137 pd stage;
#N canvas 799 61 531 510 stage 0;
#X obj 143 188 rpole~;
#X obj 141 164 rzero_rev~;
#X obj 150 258 rpole~;
#X obj 147 221 rzero_rev~;
#X obj 251 7 inlet~;
#X obj 147 28 inlet~;
#X obj 171 429 outlet~;
#X connect 0 0 3 0;
#X connect 1 0 0 0;
#X connect 2 0 6 0;
#X connect 3 0 2 0;
#X connect 4 0 1 1;
#X connect 4 0 0 1;
#X connect 4 0 3 1;
#X connect 4 0 2 1;
#X connect 5 0 1 0;
#X restore 151 160 pd stage;
#X obj 222 76 inlet~;
#X obj 146 68 inlet~;
#X obj 162 204 outlet~;
#X connect 0 0 1 0;
#X connect 1 0 4 0;
#X connect 2 0 0 1;
#X connect 2 0 1 1;
#X connect 3 0 0 0;
#X restore 56 102 pd stage;
#X obj 57 154 outlet~;
#X obj 165 55 inlet~;
#X connect 0 0 1 0;
#X connect 1 0 2 0;
#X connect 2 0 3 0;
#X connect 4 0 1 1;
#X connect 4 0 2 1;
#X restore 245 403 pd 24stage;
#X obj 136 516 +~;
#X obj 539 128 inlet;
#X obj 137 549 outlet~;
#X obj 391 169 inlet~;
#X obj 375 228 clip~ -1 1;
#X obj 383 195 scaler~ -2 1;
#X obj 154 454 zexy/multiplex~ 0 1 2 3 4 5;
#X connect 0 0 14 0;
#X connect 0 0 9 0;
#X connect 2 0 3 1;
#X connect 3 0 9 0;
#X connect 4 0 3 0;
#X connect 6 0 8 0;
#X connect 7 0 4 0;
#X connect 8 0 7 0;
#X connect 9 0 10 0;
#X connect 9 0 20 1;
#X connect 10 0 11 0;
#X connect 10 0 20 2;
#X connect 11 0 12 0;
#X connect 11 0 20 3;
#X connect 12 0 13 0;
#X connect 12 0 20 4;
#X connect 13 0 20 5;
#X connect 14 0 16 0;
#X connect 15 0 20 0;
#X connect 17 0 19 0;
#X connect 18 0 9 1;
#X connect 18 0 10 1;
#X connect 18 0 11 1;
#X connect 18 0 12 1;
#X connect 18 0 13 1;
#X connect 19 0 18 0;
#X connect 20 0 14 1;
#X connect 20 0 5 0;
