#N canvas 152 189 630 394 10;
#X obj 43 82 sndfread~;
#X floatatom 165 15 5 0 0 0 - - -, f 5;
#X floatatom 248 11 5 0 0 0 - - -, f 5;
#X msg 318 5 0.25;
#X floatatom 106 10 5 0 0 0 - - -, f 5;
#X floatatom 401 28 5 0 0 0 - - -, f 5;
#X floatatom 469 26 5 0 0 0 - - -, f 5;
#X msg 516 24 0.25;
#X floatatom 338 27 5 0 0 0 - - -, f 5;
#X obj 278 159 hradio 15 1 0 6 empty empty empty 0 -8 0 10 -262144
-1 -1 5;
#X obj 151 192 instr/phaser24~;
#X text 470 82 feedback;
#X text 63 57 coefficient;
#X obj 56 238 shadylib/outputc~;
#X obj 92 36 shadylib/operator~ 0.09 0.14 0.36;
#X obj 331 54 shadylib/operator~ 0.24 0.51 0.29;
#X obj 212 217 oscope~;
#X obj 33 205 instr/phaser24~;
#X text 479 149 24-stage phaser;
#X text 441 182 right inlet: 0 is bypass \, 1 is 2-stage \, 2 is 4-stage
\, 3 is 8-stage \, 4 is 16-stage \, 5 is 24-stage;
#X connect 0 0 17 0;
#X connect 0 1 10 0;
#X connect 1 0 14 1;
#X connect 2 0 14 2;
#X connect 3 0 14 3;
#X connect 4 0 14 0;
#X connect 5 0 15 1;
#X connect 6 0 15 2;
#X connect 7 0 15 3;
#X connect 8 0 15 0;
#X connect 9 0 10 3;
#X connect 9 0 17 3;
#X connect 10 0 13 1;
#X connect 10 0 16 0;
#X connect 14 0 10 1;
#X connect 14 0 17 1;
#X connect 15 0 10 2;
#X connect 15 0 17 2;
#X connect 17 0 13 0;
