#N canvas 182 283 527 374 10;
#X declare -lib zexy -lib iemlib;
#X msg 223 236 read \$1;
#X msg 82 238 write \$1;
#X obj 214 6 loadbang;
#X obj 227 148 list append \$1;
#X obj 83 218 symbol;
#X obj 69 19 inlet;
#X obj 55 144 list prepend replace;
#X obj 68 171 list trim;
#X obj 83 192 t b a;
#X msg 186 212 goto \$1 \, this;
#X obj 113 307 outlet;
#X obj 186 167 f \$2;
#X obj 216 32 t b b;
#X obj 61 122 route save reset;
#X obj 284 235 until;
#X msg 329 255 clear;
#X msg 287 267 add;
#X obj 377 273 f;
#X obj 288 212 t b f b;
#X msg 344 302 goto \$1;
#X obj 294 60 declare -lib zexy -lib iemlib;
#X obj 228 174 mergefilename /;
#X obj 91 267 msgfile;
#X obj 231 117 pdcontrol;
#X msg 236 89 dir 1;
#X connect 0 0 22 0;
#X connect 1 0 22 0;
#X connect 2 0 12 0;
#X connect 3 0 21 0;
#X connect 4 0 1 0;
#X connect 5 0 13 0;
#X connect 6 0 7 0;
#X connect 7 0 8 0;
#X connect 8 0 4 0;
#X connect 8 1 22 0;
#X connect 9 0 22 0;
#X connect 11 0 9 0;
#X connect 11 0 17 1;
#X connect 12 0 11 0;
#X connect 12 1 24 0;
#X connect 13 0 6 0;
#X connect 13 1 18 0;
#X connect 13 2 9 0;
#X connect 13 2 17 1;
#X connect 14 0 16 0;
#X connect 15 0 22 0;
#X connect 16 0 22 0;
#X connect 17 0 19 0;
#X connect 18 0 17 0;
#X connect 18 1 14 0;
#X connect 18 2 15 0;
#X connect 19 0 22 0;
#X connect 21 0 4 1;
#X connect 21 0 0 0;
#X connect 22 0 10 0;
#X connect 23 0 3 0;
#X connect 24 0 23 0;
