#N canvas 597 160 598 468 10;
#X obj 106 208 hsl 128 15 0 127 0 0 empty empty empty -2 -8 0 10 -262144
-1 -1 0 1;
#X obj 107 187 hsl 128 15 0 127 0 0 empty empty empty -2 -8 0 10 -262144
-1 -1 0 1;
#X obj 109 133 hradio 15 1 0 8 empty empty preset_number 0 -8 0 10
-262144 -1 -1 0;
#X obj 109 155 tgl 15 0 empty empty empty 17 7 0 10 -262144 -1 -1 0
1;
#X obj 106 229 bng 15 250 50 0 empty empty save_preset 17 7 0 10 -262144
-1 -1;
#X obj 20 247 pack f f f;
#X obj 34 209 f;
#X obj 31 278 list prepend save;
#X obj 69 305 list trim;
#X obj 117 376 unpack f f f;
#X text -63 36 in order to re-make a file with the appropriate # of
lines:;
#X obj 129 346 presetter afile.txt;
#X msg -50 56 reset 8;
#X floatatom 133 155 5 0 0 0 - - -;
#X obj 284 161 + 1;
#X connect 0 0 5 2;
#X connect 1 0 5 1;
#X connect 2 0 11 0;
#X connect 2 0 14 0;
#X connect 3 0 6 1;
#X connect 4 0 6 0;
#X connect 5 0 7 0;
#X connect 6 0 5 0;
#X connect 7 0 8 0;
#X connect 8 0 11 0;
#X connect 9 0 3 0;
#X connect 9 1 1 0;
#X connect 9 2 0 0;
#X connect 11 0 9 0;
#X connect 12 0 11 0;
#X connect 14 0 13 0;
#X coords 0 -1 1 1 150 150 1 100 100;
