#N canvas 476 91 450 300 10;
#X obj 171 64 inlet;
#X obj 190 184 osc~;
#X obj 182 160 line~;
#X obj 193 124 pack f 5;
#X obj 256 128 pack f 5;
#X obj 198 213 *~;
#X obj 253 153 line~;
#X obj 235 267 outlet~;
#X obj 185 100 unpack f f f;
#X obj 242 238 *~ 0.5;
#X obj 301 237 *~ 0.5;
#X obj 325 181 1-0switch;
#X obj 305 271 outlet~;
#X connect 0 0 8 0;
#X connect 1 0 5 0;
#X connect 2 0 1 0;
#X connect 3 0 2 0;
#X connect 4 0 6 0;
#X connect 5 0 9 0;
#X connect 5 0 10 0;
#X connect 6 0 5 1;
#X connect 8 0 3 0;
#X connect 8 1 4 0;
#X connect 8 2 11 0;
#X connect 8 2 9 1;
#X connect 9 0 7 0;
#X connect 10 0 12 0;
#X connect 11 0 10 1;
