#N canvas 101 220 594 558 10;
#X obj 232 406 osc~;
#X obj 265 428 *~;
#X obj 273 490 outlet~;
#X obj 203 116 inlet;
#X obj 296 208 del 5;
#X obj 388 174 b;
#X obj 331 240 f 5;
#X obj 281 229 f 500;
#X msg 330 262 1 \$1;
#X msg 379 242 0.75;
#X obj 77 21 loadbang;
#X obj 74 47 f \$1;
#X obj 81 71 sel 0;
#X msg 110 92 attack \$1;
#X obj 190 67 sel 0;
#X obj 183 43 f \$2;
#X msg 212 90 decay \$1;
#X obj 272 66 sel 0;
#X obj 265 42 f \$3;
#X obj 245 248 * 0;
#X msg 294 89 pitchenv \$1;
#X obj 210 263 -;
#X obj 214 227 t f f;
#X obj 234 380 max~;
#X obj 212 203 mtof;
#X msg 287 259 0 \$1;
#X obj 177 137 route attack decay pitchenv;
#X obj 290 293 shadylib/rexpline~;
#X obj 222 354 shadylib/scaler~;
#X obj 276 458 shadylib/switchnramp~ 7 0;
#X connect 0 0 1 0;
#X connect 1 0 29 0;
#X connect 3 0 26 0;
#X connect 4 0 7 0;
#X connect 5 0 6 0;
#X connect 5 0 9 0;
#X connect 5 0 4 0;
#X connect 5 0 29 1;
#X connect 6 0 8 0;
#X connect 7 0 25 0;
#X connect 8 0 27 0;
#X connect 9 0 0 1;
#X connect 10 0 11 0;
#X connect 10 0 15 0;
#X connect 10 0 18 0;
#X connect 11 0 12 0;
#X connect 12 1 13 0;
#X connect 13 0 26 0;
#X connect 14 1 16 0;
#X connect 15 0 14 0;
#X connect 16 0 26 0;
#X connect 17 1 20 0;
#X connect 18 0 17 0;
#X connect 19 0 21 1;
#X connect 19 0 28 1;
#X connect 20 0 26 0;
#X connect 21 0 28 2;
#X connect 22 0 21 0;
#X connect 22 1 19 0;
#X connect 23 0 0 0;
#X connect 24 0 22 0;
#X connect 25 0 27 0;
#X connect 26 0 4 1;
#X connect 26 0 6 1;
#X connect 26 1 7 1;
#X connect 26 2 19 1;
#X connect 26 3 5 0;
#X connect 26 3 24 0;
#X connect 27 0 1 1;
#X connect 27 0 28 0;
#X connect 28 0 23 0;
#X connect 29 0 2 0;
