#N canvas 101 220 594 558 10;
#X declare -path shadylib;
#X obj 232 406 osc~;
#X obj 290 293 rexpline~;
#X obj 265 428 *~;
#X obj 273 490 outlet~;
#X obj 203 116 inlet;
#X obj 296 208 del 5;
#X obj 388 174 b;
#X obj 331 240 f 5;
#X obj 281 229 f 500;
#X msg 330 262 1 \$1;
#X msg 379 242 0.75;
#X obj 276 458 switchnramp~ 7 0;
#X obj 77 21 loadbang;
#X obj 74 47 f \$1;
#X obj 81 71 sel 0;
#X msg 110 92 attack \$1;
#X obj 190 67 sel 0;
#X obj 183 43 f \$2;
#X msg 212 90 decay \$1;
#X obj 272 66 sel 0;
#X obj 265 42 f \$3;
#X obj 245 248 * 0;
#X msg 294 89 pitchenv \$1;
#X obj 210 263 -;
#X obj 214 227 t f f;
#X obj 222 354 scaler~;
#X obj 234 380 max~;
#X obj 177 137 route attack decay pitchenv save;
#X msg 451 277 dump;
#X obj 449 401 lmap;
#X obj 391 75 declare -path shadylib;
#X obj 356 339 prepender attack decay pitchenv;
#X obj 472 430 outlet;
#X obj 212 203 mtof;
#X msg 287 259 0 \$1;
#X connect 0 0 2 0;
#X connect 1 0 2 1;
#X connect 1 0 25 0;
#X connect 2 0 11 0;
#X connect 4 0 27 0;
#X connect 5 0 8 0;
#X connect 6 0 7 0;
#X connect 6 0 10 0;
#X connect 6 0 11 1;
#X connect 6 0 5 0;
#X connect 7 0 9 0;
#X connect 8 0 34 0;
#X connect 9 0 1 0;
#X connect 10 0 0 1;
#X connect 11 0 3 0;
#X connect 12 0 13 0;
#X connect 12 0 17 0;
#X connect 12 0 20 0;
#X connect 13 0 14 0;
#X connect 14 1 15 0;
#X connect 15 0 27 0;
#X connect 16 1 18 0;
#X connect 17 0 16 0;
#X connect 18 0 27 0;
#X connect 19 1 22 0;
#X connect 20 0 19 0;
#X connect 21 0 23 1;
#X connect 21 0 25 1;
#X connect 22 0 27 0;
#X connect 23 0 25 2;
#X connect 24 0 23 0;
#X connect 24 1 21 0;
#X connect 25 0 26 0;
#X connect 26 0 0 0;
#X connect 27 0 5 1;
#X connect 27 0 7 1;
#X connect 27 0 31 0;
#X connect 27 1 8 1;
#X connect 27 1 31 1;
#X connect 27 2 21 1;
#X connect 27 2 31 2;
#X connect 27 3 28 0;
#X connect 27 4 6 0;
#X connect 27 4 33 0;
#X connect 28 0 29 0;
#X connect 29 2 32 0;
#X connect 31 0 29 0;
#X connect 33 0 24 0;
#X connect 34 0 1 0;
