#N canvas 344 250 594 475 10;
#X obj 249 325 osc~;
#X obj 301 307 rexpline~;
#X obj 282 345 *~;
#X obj 290 409 outlet~;
#X obj 183 113 inlet;
#X obj 212 179 mtof;
#X obj 287 210 del 5;
#X obj 320 161 b;
#X obj 331 240 f 5;
#X obj 281 229 f 500;
#X msg 281 263 0 \$1;
#X msg 330 262 1 \$1;
#X msg 379 242 0.75;
#X obj 293 377 switchnramp~ 7 0;
#X obj 77 21 loadbang;
#X obj 74 47 f \$1;
#X obj 81 71 sel 0;
#X msg 103 94 attack \$1;
#X obj 190 67 sel 0;
#X obj 183 43 f \$2;
#X msg 212 90 decay \$1;
#X obj 165 139 route attack decay pitchenv;
#X obj 198 263 *~ 0;
#X obj 272 66 sel 0;
#X obj 265 42 f \$3;
#X obj 246 225 * 0;
#X msg 294 89 pitchenv \$1;
#X obj 213 286 +~ 0;
#X obj 233 247 -;
#X obj 215 204 t f f;
#X msg 293 184 stop \, bang;
#X connect 0 0 2 0;
#X connect 1 0 2 1;
#X connect 1 0 22 0;
#X connect 2 0 13 0;
#X connect 4 0 21 0;
#X connect 5 0 29 0;
#X connect 6 0 9 0;
#X connect 7 0 8 0;
#X connect 7 0 12 0;
#X connect 7 0 13 1;
#X connect 7 0 30 0;
#X connect 8 0 11 0;
#X connect 9 0 10 0;
#X connect 10 0 1 0;
#X connect 11 0 1 0;
#X connect 12 0 0 1;
#X connect 13 0 3 0;
#X connect 14 0 15 0;
#X connect 14 0 19 0;
#X connect 14 0 24 0;
#X connect 15 0 16 0;
#X connect 16 1 17 0;
#X connect 17 0 21 0;
#X connect 18 1 20 0;
#X connect 19 0 18 0;
#X connect 20 0 21 0;
#X connect 21 0 6 1;
#X connect 21 0 8 1;
#X connect 21 1 9 1;
#X connect 21 2 25 1;
#X connect 21 3 7 0;
#X connect 21 3 5 0;
#X connect 22 0 27 0;
#X connect 23 1 26 0;
#X connect 24 0 23 0;
#X connect 25 0 28 1;
#X connect 25 0 22 1;
#X connect 26 0 21 0;
#X connect 27 0 0 0;
#X connect 28 0 27 1;
#X connect 29 0 28 0;
#X connect 29 1 25 0;
#X connect 30 0 6 0;
