#N canvas 426 91 981 597 10;
#X obj 39 3 inlet;
#X obj 78 248 outlet~;
#N canvas 213 574 450 300 \$0-voices 0;
#X restore 118 182 pd \$0-voices;
#X obj 499 405 s pd-\$0-voices;
#X obj 205 39 inlet;
#X obj 130 148 s \$0-midi;
#X obj 68 324 namecanvas \$0-manyvoice;
#X obj 105 304 s \$0-manyvoice;
#X obj 327 150 iterate \$1;
#X obj 543 189 list;
#X obj 499 163 iterate \$1;
#X obj 500 189 + 1;
#X obj 447 257 list;
#X obj 425 280 list trim;
#X msg 580 348 clear;
#X obj 500 216 list prepend obj 5 40 route;
#X obj 385 22 loadbang;
#X obj 356 101 t b b b;
#X obj 529 271 pack \$0 \$1;
#X obj 319 290 pack f s f f;
#X obj 321 181 t f f;
#X obj 315 207 scaler 50 5;
#X obj 120 97 poly \$1 \$3;
#X obj 383 80 spigot \$1;
#X obj 37 36 route panic;
#X obj 48 117 iterate \$1;
#X obj 53 96 bang;
#X obj 44 165 pack f 0 0;
#X msg 65 71 clear;
#X obj 45 141 + 1;
#X obj 372 183 ggee/getdir 1;
#X obj 367 228 makefilename %s/\$2;
#X obj 344 43 t b b;
#X obj 245 98 s pd-\$0-voices;
#X msg 296 68 loadbang;
#X obj 114 59 unpack f f f;
#X obj 130 126 pack f f f 0.5;
#X msg 558 301 obj 5 5 r \$1-midi \, obj 5 160 /~ \$2 \, obj 5 200
outlet~ \, obj 100 160 /~ \$2 \, obj 100 200 outlet~ \, connect 1 0
2 0 \, connect 3 0 4 0;
#X obj 142 248 outlet~;
#X obj 253 37 inlet;
#X obj 400 253 + 6;
#X msg 222 369 connect 0 0 5 0;
#X msg 202 329 obj \$1 80 \$2 \, connect 5 \$3 \$4 0 \, connect \$4
0 1 0 \, connect \$4 1 3 0;
#X msg 112 276 connect 2 0 1 0 \, connect 2 1 38 0;
#X connect 0 0 24 0;
#X connect 4 0 22 1;
#X connect 8 0 20 0;
#X connect 9 0 15 1;
#X connect 10 0 11 0;
#X connect 11 0 15 0;
#X connect 12 0 13 0;
#X connect 13 0 3 0;
#X connect 14 0 3 0;
#X connect 15 0 9 0;
#X connect 15 0 12 1;
#X connect 16 0 32 0;
#X connect 17 0 43 0;
#X connect 17 0 8 0;
#X connect 17 0 41 0;
#X connect 17 1 12 0;
#X connect 17 2 10 0;
#X connect 17 2 18 0;
#X connect 17 2 30 0;
#X connect 18 0 37 0;
#X connect 19 0 42 0;
#X connect 20 0 21 0;
#X connect 20 1 19 2;
#X connect 20 1 40 0;
#X connect 21 0 19 0;
#X connect 22 0 36 0;
#X connect 22 1 36 1;
#X connect 22 2 36 2;
#X connect 23 0 17 0;
#X connect 24 0 26 0;
#X connect 24 0 28 0;
#X connect 24 1 35 0;
#X connect 25 0 29 0;
#X connect 26 0 25 0;
#X connect 27 0 5 0;
#X connect 28 0 22 0;
#X connect 29 0 27 0;
#X connect 30 0 31 0;
#X connect 31 0 19 1;
#X connect 32 0 34 0;
#X connect 32 1 23 0;
#X connect 34 0 33 0;
#X connect 35 0 22 0;
#X connect 35 1 22 1;
#X connect 35 2 36 3;
#X connect 36 0 5 0;
#X connect 37 0 3 0;
#X connect 39 0 36 3;
#X connect 40 0 19 3;
#X connect 41 0 3 0;
#X connect 42 0 3 0;
#X connect 43 0 7 0;
