#N canvas 70 374 481 427 10;
#X obj 200 62 inlet;
#X obj 104 65 inlet;
#X obj 149 64 inlet;
#X obj 104 104 pack f f;
#X obj 104 154 list prepend 0;
#X obj 104 319 unpack f f;
#X obj 104 373 outlet;
#X obj 161 374 outlet;
#X obj 165 104 == 0;
#X obj 173 186 sel 0;
#X msg 173 214 flush;
#X obj 143 249 bag;
#X obj 143 275 pack f 0;
#X obj 185 130 &&;
#X obj 229 167 loadbang;
#X msg 229 214 1;
#X obj 104 186 route 0;
#X msg 143 214 \$2;
#X connect 0 0 9 0;
#X connect 0 0 13 1;
#X connect 1 0 3 0;
#X connect 2 0 3 1;
#X connect 2 0 8 0;
#X connect 3 0 4 0;
#X connect 4 0 16 0;
#X connect 5 0 6 0;
#X connect 5 1 7 0;
#X connect 8 0 13 0;
#X connect 9 0 10 0;
#X connect 10 0 11 0;
#X connect 11 0 12 0;
#X connect 12 0 5 0;
#X connect 13 0 4 1;
#X connect 14 0 15 0;
#X connect 15 0 11 1;
#X connect 16 0 5 0;
#X connect 16 1 17 0;
#X connect 17 0 11 0;
