#N canvas 443 77 973 612 10;
#X obj 44 225 osc~;
#X obj 129 315 osc~;
#X obj 196 398 osc~;
#X obj 130 459 output~;
#X floatatom 299 35 5 0 136 0 - - -;
#X floatatom 494 37 5 0 0 0 - - -;
#X floatatom 44 26 5 48 72 0 - - -;
#X obj 58 49 + 4;
#X obj 84 48 + 7;
#X text 261 10 0-136 selects different temperaments;
#X text 40 7 Midinote goes in here;
#X text -29 186 output is a frequency \; like [mtof].;
#X text 90 26 Try different major chords!;
#X text 587 452 Tobias Tschiedl \, VIII/2013;
#X text 424 153 http://www.instrument-tuner.com/temperaments.html;
#X text 395 117 <---- Tuning descriptions and;
#X text 393 134 <---- Deviations in cents according to this page here:
;
#X text 490 4 selects the pitch class that will NOT deviate from;
#X floatatom 80 274 5 0 0 0 - - -;
#X obj 77 224 ftom;
#X floatatom 277 471 5 0 0 0 - - -;
#X obj 274 421 ftom;
#X floatatom 162 386 5 0 0 0 - - -;
#X obj 159 336 ftom;
#X obj 130 434 *~ 0.333333;
#X symbolatom 549 78 20 0 0 0 - - -;
#X obj 550 411 print;
#X text 493 16 equal temperament \, i.e. the reference tone (default
C);
#X obj 44 95 temperament;
#X obj 197 289 temperament;
#X obj 132 192 temperament;
#X obj 614 104 pack s f;
#X floatatom 692 77 5 0 0 0 - - -;
#X obj 531 62 bng 15 250 50 0 empty empty empty 17 7 0 10 -262144 -1
-1;
#X text 551 47 name of temperaments file (default temperaments.txt)-
also as second argument;
#X text 727 81 optional line number-also as 1st argument;
#X text 579 379 list of midi deviation;
#X connect 0 0 24 0;
#X connect 1 0 24 0;
#X connect 2 0 24 0;
#X connect 4 0 28 1;
#X connect 4 0 29 1;
#X connect 4 0 30 1;
#X connect 5 0 28 2;
#X connect 5 0 29 2;
#X connect 5 0 30 2;
#X connect 6 0 7 0;
#X connect 6 0 8 0;
#X connect 6 0 28 0;
#X connect 7 0 30 0;
#X connect 8 0 29 0;
#X connect 19 0 18 0;
#X connect 21 0 20 0;
#X connect 23 0 22 0;
#X connect 24 0 3 0;
#X connect 24 0 3 1;
#X connect 25 0 31 0;
#X connect 28 0 0 0;
#X connect 28 0 19 0;
#X connect 29 0 2 0;
#X connect 29 0 21 0;
#X connect 29 1 26 0;
#X connect 30 0 1 0;
#X connect 30 0 23 0;
#X connect 31 0 28 3;
#X connect 31 0 30 3;
#X connect 31 0 29 3;
#X connect 32 0 31 1;
#X connect 33 0 25 0;
