#N canvas 422 23 766 729 10;
#X declare -stdpath list-abs -stdpath zexy;
#X obj 56 209 list-nth;
#X obj 76 83 mod 12;
#X obj 37 39 t f b f;
#X obj 41 249 +;
#X obj 56 149 list-rot;
#X obj 141 81 mod 12;
#X obj 56 124 list;
#X obj 37 -41 inlet;
#X obj 41 272 mtof;
#X obj 91 -33 inlet;
#X obj 41 301 outlet;
#X text 337 330 http://www.instrument-tuner.com/temperaments.html;
#X obj 138 -59 inlet;
#X obj 268 93 list split 12;
#X msg 268 48 goto \$1 \, bang;
#X obj 268 70 msgfile;
#X obj 268 -3 t b b;
#X obj 268 25 \$1;
#X symbolatom 305 179 55 0 0 0 - #0-name #0-dummy;
#X obj 305 115 list2symbol;
#X obj 205 -149 loadbang;
#X floatatom 314 201 7 0 0 0 - #0-0 #0-dummy;
#X obj 108 205 unpack f f f f f f f f f f f f;
#X obj 108 228 s \$0-0;
#X obj 124 247 s \$0-1;
#X obj 140 269 s \$0-2;
#X obj 156 287 s \$0-3;
#X obj 172 310 s \$0-4;
#X obj 188 333 s \$0-5;
#X obj 204 357 s \$0-6;
#X obj 220 379 s \$0-7;
#X obj 236 407 s \$0-8;
#X obj 252 431 s \$0-9;
#X obj 268 460 s \$0-10;
#X obj 285 485 s \$0-11;
#X floatatom 369 201 7 0 0 0 - #0-1 #0-dummy;
#X floatatom 423 201 7 0 0 0 - #0-2 #0-dummy;
#X floatatom 478 201 7 0 0 0 - #0-3 #0-dummy;
#X floatatom 532 201 7 0 0 0 - #0-4 #0-dummy;
#X floatatom 585 201 7 0 0 0 - #0-5 #0-dummy;
#X floatatom 314 221 7 0 0 0 - #0-6 #0-dummy;
#X floatatom 369 221 7 0 0 0 - #0-7 #0-dummy;
#X floatatom 423 221 7 0 0 0 - #0-8 #0-dummy;
#X floatatom 478 221 7 0 0 0 - #0-9 #0-dummy;
#X floatatom 532 221 7 0 0 0 - #0-10 #0-dummy;
#X floatatom 585 221 7 0 0 0 - #0-11 #0-dummy;
#X text 523 221 #;
#X text 414 201 D;
#X text 468 199 #;
#X text 523 200 E;
#X text 576 199 F;
#X obj 305 136 s \$0-name;
#X text 303 220 #;
#X text 359 220 G;
#X text 413 222 #;
#X text 468 220 A;
#X text 576 221 B;
#X text 305 160 Temperament:;
#X text 403 408 Tobias Tschiedl \, VIII/2013;
#X text 337 312 Cent Deviation Tables taken from here:;
#X text 304 201 C;
#X text 359 200 #;
#X obj 101 310 outlet;
#X obj 165 -2 * -1;
#X obj 42 15 f;
#X obj 139 -38 t b f;
#X obj 98 -10 t b f;
#X obj 44 -13 t b f;
#X msg 210 -13 0;
#X msg 317 3 set read \$1 cr;
#X obj 323 -208 inlet;
#X obj 299 -138 t b s;
#X obj 335 -103 symbol \$2;
#X msg 295 25 read temperaments.txt cr;
#X obj 337 -75 sel symbol;
#X msg 405 -109 symbol;
#X obj 361 -132 t b b;
#X msg 310 -50 temperaments.txt;
#X obj 315 -23 symbol;
#X obj 56 179 list-math / 100;
#X obj 310 -167 unpack s f;
#X obj 450 -69 declare -stdpath list-abs -stdpath zexy;
#X connect 0 0 3 1;
#X connect 1 0 0 1;
#X connect 2 0 3 0;
#X connect 2 1 6 0;
#X connect 2 2 1 0;
#X connect 3 0 8 0;
#X connect 4 0 22 0;
#X connect 4 0 79 0;
#X connect 5 0 4 1;
#X connect 6 0 4 0;
#X connect 7 0 67 0;
#X connect 8 0 10 0;
#X connect 9 0 66 0;
#X connect 12 0 65 0;
#X connect 13 0 6 1;
#X connect 13 1 19 0;
#X connect 14 0 15 0;
#X connect 15 0 13 0;
#X connect 16 0 17 0;
#X connect 16 1 73 0;
#X connect 17 0 14 0;
#X connect 19 0 51 0;
#X connect 20 0 16 0;
#X connect 20 0 68 0;
#X connect 20 0 76 0;
#X connect 22 0 23 0;
#X connect 22 1 24 0;
#X connect 22 2 25 0;
#X connect 22 3 26 0;
#X connect 22 4 27 0;
#X connect 22 5 28 0;
#X connect 22 6 29 0;
#X connect 22 7 30 0;
#X connect 22 8 31 0;
#X connect 22 9 32 0;
#X connect 22 10 33 0;
#X connect 22 11 34 0;
#X connect 63 0 5 0;
#X connect 64 0 2 0;
#X connect 65 0 64 0;
#X connect 65 1 63 0;
#X connect 66 0 64 0;
#X connect 66 1 14 0;
#X connect 67 0 64 0;
#X connect 67 1 64 1;
#X connect 68 0 5 0;
#X connect 69 0 73 0;
#X connect 70 0 80 0;
#X connect 71 0 16 0;
#X connect 71 1 72 0;
#X connect 72 0 74 0;
#X connect 73 0 15 0;
#X connect 74 0 77 0;
#X connect 74 1 69 0;
#X connect 75 0 74 1;
#X connect 76 0 72 0;
#X connect 76 1 75 0;
#X connect 77 0 78 0;
#X connect 78 0 69 0;
#X connect 79 0 62 0;
#X connect 79 0 0 0;
#X connect 80 0 71 0;
#X connect 80 1 17 1;
#X coords 0 -1 1 1 340 85 2 300 160;
