#N canvas 30 163 851 698 10;
#N canvas 218 409 450 300 Lo-pass 0;
#X obj 140 37 inlet~;
#X obj 223 109 *~;
#X obj 226 39 inlet~;
#X obj 223 129 outlet~;
#X obj 182 236 line~;
#X obj 285 209 lop~ 10;
#X obj 153 79 lop~ 101;
#X obj 229 81 lop~ 101;
#X obj 140 57 lop~ 101;
#X obj 226 59 lop~ 101;
#X obj 182 198 pack f 128;
#X obj 340 50 r \$0-stoms;
#X obj 68 106 shadylib/highest~ 512;
#X obj 333 82 * 8;
#X connect 0 0 8 0;
#X connect 1 0 3 0;
#X connect 2 0 9 0;
#X connect 4 0 5 0;
#X connect 5 0 1 1;
#X connect 6 0 12 0;
#X connect 7 0 1 0;
#X connect 8 0 6 0;
#X connect 9 0 7 0;
#X connect 10 0 4 0;
#X connect 11 0 13 0;
#X connect 12 0 10 0;
#X connect 13 0 10 1;
#X restore 160 209 pd Lo-pass 101Hz;
#N canvas 271 279 450 300 b-pass 0;
#X obj 136 43 inlet~;
#X obj 223 109 *~;
#X obj 230 41 inlet~;
#X obj 223 129 outlet~;
#X obj 169 231 line~;
#X obj 136 63 bp~ 154 10;
#X obj 229 62 bp~ 154 10;
#X obj 234 87 bp~ 154 10;
#X obj 137 85 bp~ 154 10;
#X obj 340 44 r \$0-q;
#X obj 245 198 lop~ 10;
#X obj 165 195 pack f 64;
#X obj 343 93 r \$0-stoms;
#X obj 66 105 shadylib/highest~ 512;
#X obj 336 125 * 8;
#X connect 0 0 5 0;
#X connect 1 0 3 0;
#X connect 2 0 6 0;
#X connect 4 0 10 0;
#X connect 5 0 8 0;
#X connect 6 0 7 0;
#X connect 7 0 1 0;
#X connect 8 0 13 0;
#X connect 9 0 6 2;
#X connect 9 0 7 2;
#X connect 9 0 5 2;
#X connect 9 0 8 2;
#X connect 10 0 1 1;
#X connect 11 0 4 0;
#X connect 12 0 14 0;
#X connect 13 0 11 0;
#X connect 14 0 11 1;
#X restore 98 235 pd b-pass 154Hz;
#N canvas 286 405 450 300 b-pass 0;
#X obj 136 35 inlet~;
#X obj 223 109 *~;
#X obj 222 37 inlet~;
#X obj 223 129 outlet~;
#X obj 182 236 line~;
#X obj 222 57 bp~ 208 10;
#X obj 136 55 bp~ 208 10;
#X obj 219 79 bp~ 208 10;
#X obj 133 77 bp~ 208 10;
#X obj 331 48 r \$0-q;
#X obj 281 186 lop~ 10;
#X obj 182 198 pack f 64;
#X obj 350 84 r \$0-stoms;
#X obj 343 116 * 4;
#X obj 69 102 shadylib/highest~ 256;
#X connect 0 0 6 0;
#X connect 1 0 3 0;
#X connect 2 0 5 0;
#X connect 4 0 10 0;
#X connect 5 0 7 0;
#X connect 6 0 8 0;
#X connect 7 0 1 0;
#X connect 8 0 14 0;
#X connect 9 0 5 2;
#X connect 9 0 7 2;
#X connect 9 0 6 2;
#X connect 9 0 8 2;
#X connect 10 0 1 1;
#X connect 11 0 4 0;
#X connect 12 0 13 0;
#X connect 13 0 11 1;
#X connect 14 0 11 0;
#X restore 97 266 pd b-pass 208Hz;
#N canvas 232 289 450 300 b-pass 0;
#X obj 137 38 inlet~;
#X obj 223 109 *~;
#X obj 223 40 inlet~;
#X obj 223 129 outlet~;
#X obj 182 236 line~;
#X obj 223 60 bp~ 285 10;
#X obj 137 58 bp~ 285 10;
#X obj 222 81 bp~ 285 10;
#X obj 136 79 bp~ 285 10;
#X obj 311 54 r \$0-q;
#X obj 306 171 lop~ 10;
#X obj 182 198 pack f 64;
#X obj 328 118 r \$0-stoms;
#X obj 321 150 * 4;
#X obj 67 107 shadylib/highest~ 256;
#X connect 0 0 6 0;
#X connect 1 0 3 0;
#X connect 2 0 5 0;
#X connect 4 0 10 0;
#X connect 5 0 7 0;
#X connect 6 0 8 0;
#X connect 7 0 1 0;
#X connect 8 0 14 0;
#X connect 9 0 5 2;
#X connect 9 0 7 2;
#X connect 9 0 6 2;
#X connect 9 0 8 2;
#X connect 10 0 1 1;
#X connect 11 0 4 0;
#X connect 12 0 13 0;
#X connect 13 0 11 1;
#X connect 14 0 11 0;
#X restore 196 301 pd b-pass 285Hz;
#N canvas 271 279 450 300 b-pass 0;
#X obj 138 45 inlet~;
#X obj 223 109 *~;
#X obj 224 47 inlet~;
#X obj 223 129 outlet~;
#X obj 182 236 line~;
#X obj 138 65 bp~ 395 10;
#X obj 224 67 bp~ 395 10;
#X obj 221 86 bp~ 395 10;
#X obj 137 86 bp~ 395 10;
#X obj 351 89 r \$0-q;
#X obj 244 172 lop~ 10;
#X obj 182 198 pack f 64;
#X obj 328 118 r \$0-stoms;
#X obj 303 145 * 2;
#X obj 67 109 shadylib/highest~ 128;
#X connect 0 0 5 0;
#X connect 1 0 3 0;
#X connect 2 0 6 0;
#X connect 4 0 10 0;
#X connect 5 0 8 0;
#X connect 6 0 7 0;
#X connect 7 0 1 0;
#X connect 8 0 14 0;
#X connect 9 0 6 2;
#X connect 9 0 7 2;
#X connect 9 0 5 2;
#X connect 9 0 8 2;
#X connect 10 0 1 1;
#X connect 11 0 4 0;
#X connect 12 0 13 0;
#X connect 13 0 11 1;
#X connect 14 0 11 0;
#X restore 97 355 pd b-pass 395Hz;
#N canvas 461 398 450 300 b-pass 0;
#X obj 137 35 inlet~;
#X obj 223 109 *~;
#X obj 223 37 inlet~;
#X obj 223 129 outlet~;
#X obj 182 236 line~;
#X obj 355 83 r \$0-q;
#X obj 244 199 lop~ 10;
#X obj 130 178 pack f 64;
#X obj 223 56 bp~ 542 10;
#X obj 221 81 bp~ 542 10;
#X obj 137 55 bp~ 542 10;
#X obj 135 79 bp~ 542 10;
#X obj 328 118 r \$0-stoms;
#X obj 302 140 * 2;
#X obj 56 104 shadylib/highest~ 128;
#X connect 0 0 10 0;
#X connect 1 0 3 0;
#X connect 2 0 8 0;
#X connect 4 0 6 0;
#X connect 5 0 8 2;
#X connect 5 0 9 2;
#X connect 5 0 10 2;
#X connect 5 0 11 2;
#X connect 6 0 1 1;
#X connect 7 0 4 0;
#X connect 8 0 9 0;
#X connect 9 0 1 0;
#X connect 10 0 11 0;
#X connect 11 0 14 0;
#X connect 12 0 13 0;
#X connect 13 0 7 1;
#X connect 14 0 7 0;
#X restore 97 395 pd b-pass 542Hz;
#N canvas 271 279 450 300 b-pass 0;
#X obj 130 40 inlet~;
#X obj 223 109 *~;
#X obj 222 44 inlet~;
#X obj 223 129 outlet~;
#X obj 182 236 line~;
#X obj 326 72 r \$0-q;
#X obj 255 199 lop~ 10;
#X obj 182 198 pack f 64;
#X obj 222 64 bp~ 720 10;
#X obj 126 62 bp~ 720 10;
#X obj 222 86 bp~ 720 10;
#X obj 126 84 bp~ 720 10;
#X obj 309 141 r \$0-stoms;
#X obj 72 103 shadylib/highest~ 64;
#X connect 0 0 9 0;
#X connect 1 0 3 0;
#X connect 2 0 8 0;
#X connect 4 0 6 0;
#X connect 5 0 8 2;
#X connect 5 0 9 2;
#X connect 5 0 10 2;
#X connect 5 0 11 2;
#X connect 6 0 1 1;
#X connect 7 0 4 0;
#X connect 8 0 10 0;
#X connect 9 0 11 0;
#X connect 10 0 1 0;
#X connect 11 0 13 0;
#X connect 12 0 7 1;
#X connect 13 0 7 0;
#X restore 97 435 pd b-pass 720Hz;
#N canvas 271 279 450 300 b-pass 0;
#X obj 137 37 inlet~;
#X obj 223 109 *~;
#X obj 223 39 inlet~;
#X obj 223 129 outlet~;
#X obj 182 236 line~;
#X obj 327 47 r \$0-q;
#X obj 273 167 lop~ 10;
#X obj 182 198 pack f 64;
#X obj 70 103 shadylib/highest~ 64;
#X obj 223 59 bp~ 1013 10;
#X obj 223 80 bp~ 1013 10;
#X obj 137 57 bp~ 1013 10;
#X obj 137 78 bp~ 1013 10;
#X obj 318 195 block~ 32;
#X obj 328 118 r \$0-stoms;
#X obj 324 141 * 0.5;
#X connect 0 0 11 0;
#X connect 1 0 3 0;
#X connect 2 0 9 0;
#X connect 4 0 6 0;
#X connect 5 0 9 2;
#X connect 5 0 10 2;
#X connect 5 0 11 2;
#X connect 5 0 12 2;
#X connect 6 0 1 1;
#X connect 7 0 4 0;
#X connect 8 0 7 0;
#X connect 9 0 10 0;
#X connect 10 0 1 0;
#X connect 11 0 12 0;
#X connect 12 0 8 0;
#X connect 14 0 15 0;
#X connect 15 0 7 1;
#X restore 110 473 pd b-pass 1013Hz;
#N canvas 271 279 450 300 b-pass 0;
#X obj 137 37 inlet~;
#X obj 223 109 *~;
#X obj 223 39 inlet~;
#X obj 223 129 outlet~;
#X obj 182 236 line~;
#X obj 319 77 r \$0-q;
#X obj 225 204 lop~ 10;
#X obj 220 86 bp~ 1490 10;
#X obj 134 82 bp~ 1490 10;
#X obj 223 61 bp~ 1495 10;
#X obj 137 57 bp~ 1495 10;
#X obj 136 190 pack f 64;
#X obj 328 118 r \$0-stoms;
#X obj 317 202 block~ 32;
#X obj 57 108 shadylib/highest~ 32;
#X obj 324 141 * 0.5;
#X connect 0 0 10 0;
#X connect 1 0 3 0;
#X connect 2 0 9 0;
#X connect 4 0 6 0;
#X connect 5 0 7 2;
#X connect 5 0 8 2;
#X connect 5 0 9 2;
#X connect 5 0 10 2;
#X connect 6 0 1 1;
#X connect 7 0 1 0;
#X connect 8 0 14 0;
#X connect 9 0 7 0;
#X connect 10 0 8 0;
#X connect 11 0 4 0;
#X connect 12 0 15 0;
#X connect 14 0 11 0;
#X connect 15 0 11 1;
#X restore 97 515 pd b-pass 1495HZ;
#N canvas 271 279 450 300 b-pass 0;
#X obj 138 23 inlet~;
#X obj 223 109 *~;
#X obj 224 25 inlet~;
#X obj 223 129 outlet~;
#X obj 182 236 line~;
#X obj 224 76 bp~ 2001 10;
#X obj 138 74 bp~ 2001 10;
#X obj 329 36 r \$0-q;
#X obj 270 187 lop~ 10;
#X obj 138 43 bp~ 2001 10;
#X obj 224 45 bp~ 2001 10;
#X obj 182 198 pack f 64;
#X obj 328 118 r \$0-stoms;
#X obj 360 212 block~ 32;
#X obj 324 141 * 0.5;
#X obj 66 102 shadylib/highest~ 32;
#X connect 0 0 9 0;
#X connect 1 0 3 0;
#X connect 2 0 10 0;
#X connect 4 0 8 0;
#X connect 5 0 1 0;
#X connect 6 0 15 0;
#X connect 7 0 5 2;
#X connect 7 0 6 2;
#X connect 7 0 9 2;
#X connect 7 0 10 2;
#X connect 8 0 1 1;
#X connect 9 0 6 0;
#X connect 10 0 5 0;
#X connect 11 0 4 0;
#X connect 12 0 14 0;
#X connect 14 0 11 1;
#X connect 15 0 11 0;
#X restore 96 555 pd b-pass 2001Hz;
#N canvas 271 279 450 300 b-pass 0;
#X obj 137 37 inlet~;
#X obj 223 109 *~;
#X obj 223 39 inlet~;
#X obj 223 129 outlet~;
#X obj 182 236 line~;
#X obj 137 79 bp~ 2546 10;
#X obj 223 81 bp~ 2546 10;
#X obj 327 30 r \$0-q;
#X obj 268 208 lop~ 10;
#X obj 223 59 bp~ 2546 10;
#X obj 137 57 bp~ 2546 10;
#X obj 182 198 pack f 64;
#X obj 328 118 r \$0-stoms;
#X obj 339 164 block~ 32;
#X obj 324 141 * 0.5;
#X obj 154 159 shadylib/highest~ 32;
#X connect 0 0 10 0;
#X connect 1 0 3 0;
#X connect 2 0 9 0;
#X connect 4 0 8 0;
#X connect 5 0 15 0;
#X connect 6 0 1 0;
#X connect 7 0 6 2;
#X connect 7 0 5 2;
#X connect 7 0 9 2;
#X connect 7 0 10 2;
#X connect 8 0 1 1;
#X connect 9 0 6 0;
#X connect 10 0 5 0;
#X connect 11 0 4 0;
#X connect 12 0 14 0;
#X connect 14 0 11 1;
#X connect 15 0 11 0;
#X restore 96 595 pd b-pass 2546Hz;
#N canvas 119 332 450 300 Hi-pass 0;
#X obj 131 10 inlet~;
#X obj 175 250 *~;
#X obj 223 13 inlet~;
#X obj 175 270 outlet~;
#X obj 193 210 line~;
#X obj 193 230 lop~ 10;
#X obj 102 125 bp~ 3330 1.2;
#X obj 230 131 bp~ 3330 1.2;
#X obj 121 144 hip~ 3365;
#X obj 267 203 hip~ 3365;
#X obj 123 103 hip~ 3365;
#X obj 226 107 hip~ 3365;
#X obj 126 77 hip~ 3330;
#X obj 231 82 hip~ 3330;
#X obj 229 59 hip~ 3690;
#X obj 223 33 hip~ 3690;
#X obj 131 30 hip~ 3690;
#X obj 132 56 hip~ 3690;
#X obj 189 188 pack f 64;
#X obj 328 118 r \$0-stoms;
#X obj 297 243 block~ 16;
#X obj 107 166 highest~ 16;
#X connect 0 0 16 0;
#X connect 1 0 3 0;
#X connect 2 0 15 0;
#X connect 4 0 5 0;
#X connect 5 0 1 1;
#X connect 6 0 8 0;
#X connect 7 0 9 0;
#X connect 8 0 21 0;
#X connect 9 0 1 0;
#X connect 10 0 6 0;
#X connect 11 0 7 0;
#X connect 12 0 10 0;
#X connect 13 0 11 0;
#X connect 14 0 13 0;
#X connect 15 0 14 0;
#X connect 16 0 17 0;
#X connect 17 0 12 0;
#X connect 18 0 4 0;
#X connect 19 0 18 1;
#X connect 21 0 18 0;
#X restore 94 620 pd Hi-pass 3330Hz;
#X obj 497 55 loadbang;
#X obj 453 208 s \$0-q;
#X obj 87 136 inlet~;
#X obj 408 388 outlet~;
#X obj 226 116 inlet~;
#X obj 419 104 inlet;
#X obj 467 183 shadylib/if 0 15;
#X obj 467 155 f \$1;
#X obj 383 316 *~ 17;
#X msg 579 124 64;
#X obj 596 145 shadylib/stoms;
#X obj 614 174 s \$0-stoms;
#X connect 0 0 20 0;
#X connect 1 0 20 0;
#X connect 2 0 20 0;
#X connect 3 0 20 0;
#X connect 5 0 20 0;
#X connect 6 0 20 0;
#X connect 7 0 20 0;
#X connect 8 0 20 0;
#X connect 9 0 20 0;
#X connect 10 0 20 0;
#X connect 11 0 20 0;
#X connect 12 0 19 0;
#X connect 12 0 21 0;
#X connect 14 0 0 1;
#X connect 14 0 1 1;
#X connect 14 0 2 1;
#X connect 14 0 3 1;
#X connect 14 0 4 1;
#X connect 14 0 5 1;
#X connect 14 0 6 1;
#X connect 14 0 7 1;
#X connect 14 0 8 1;
#X connect 14 0 9 1;
#X connect 14 0 10 1;
#X connect 14 0 11 1;
#X connect 16 0 0 0;
#X connect 16 0 1 0;
#X connect 16 0 2 0;
#X connect 16 0 3 0;
#X connect 16 0 4 0;
#X connect 16 0 5 0;
#X connect 16 0 6 0;
#X connect 16 0 7 0;
#X connect 16 0 8 0;
#X connect 16 0 9 0;
#X connect 16 0 10 0;
#X connect 16 0 11 0;
#X connect 17 0 19 0;
#X connect 18 0 13 0;
#X connect 19 0 18 0;
#X connect 20 0 15 0;
#X connect 21 0 22 0;
#X connect 22 0 23 0;
