#N canvas 91 130 941 568 10;
#X declare -lib zexy;
#X obj 721 165 spigot;
#X obj 762 142 tgl 15 0 empty empty loop 17 7 0 10 #fcfcfc #000000
#000000 0 1;
#X obj 221 254 shadylib/outputc~;
#X obj 492 64 spigot;
#X obj 530 45 tgl 15 0 empty empty loop 17 7 0 10 #fcfcfc #000000 #000000
0 1;
#X obj 52 121 shadylib/blsaw~;
#X floatatom 215 128 5 0 0 0 - - - 0;
#X obj 125 28 shadylib/sndfread~;
#X obj 688 33 bng 15 250 50 0 empty empty empty 17 7 0 10 #fcfcfc #000000
#000000;
#X obj 299 136 shadylib/sndfread~;
#X floatatom 463 206 5 0 0 0 - - - 0;
#X obj 14 72 shadylib/smoother~;
#X text 287 407 modified patch from pure data forum https://forum.pdpatchrepo.info/topic/11028/attempting-to-make-a-vocoder-help
;
#X obj 659 65 declare -lib zexy;
#X obj 168 163 multiplex~;
#X obj 45 159 multiplex~;
#X msg 491 95 symbol /Applications/Pd-0.51-2-Next.app/Contents/Resources/doc/sound/voice.wav
;
#X obj 355 322 shadylib/dbgr~;
#X obj 223 217 ./vocode~;
#X obj 129 211 ./vocode~;
#X connect 0 0 9 2;
#X connect 1 0 0 1;
#X connect 3 0 7 2;
#X connect 4 0 3 1;
#X connect 5 0 14 0;
#X connect 5 0 15 0;
#X connect 6 0 14 0;
#X connect 6 0 15 0;
#X connect 7 0 15 1;
#X connect 7 1 14 1;
#X connect 7 2 3 0;
#X connect 8 0 16 0;
#X connect 9 0 17 0;
#X connect 9 0 18 1;
#X connect 9 0 19 1;
#X connect 9 2 0 0;
#X connect 10 0 18 2;
#X connect 10 0 19 2;
#X connect 11 0 5 0;
#X connect 14 0 18 0;
#X connect 15 0 19 0;
#X connect 16 0 9 0;
#X connect 18 0 2 1;
#X connect 19 0 2 0;
