#N canvas 321 148 450 300 10;
#X declare -lib iemlib;
#X obj 185 106 s \$1-r\$2;
#X obj 210 50 inlet;
#X obj 191 149 r \$1-\$2;
#X obj 223 187 s \$1-\$3;
#X obj 223 254 outlet;
#X obj 307 66 r \$1-diyglob;
#X obj 175 215 iem_prepend \$3;
#X obj 25 39 declare -lib iemlib;
#X connect 1 0 0 0;
#X connect 2 0 3 0;
#X connect 2 0 6 0;
#X connect 5 0 0 0;
#X connect 6 0 4 0;
