#N canvas 466 53 974 641 10;
#X declare -stdlib zexy;
#X obj -9 207 mono-pureverb;
#X obj 235 137 mono-specdelay;
#X obj 216 235 mono-wetfilter;
#X obj 33 25 perk-clap;
#X obj 37 6 bng 15 250 50 0 empty empty empty 17 7 0 10 -262144 -1
-1;
#X obj 217 41 perk-bell;
#X obj 218 21 bng 15 250 50 0 empty empty empty 17 7 0 10 -262144 -1
-1;
#X obj 411 41 perk-cowbell;
#X obj 412 13 bng 15 250 50 0 empty empty empty 17 7 0 10 -262144 -1
-1;
#X obj 621 28 perk-cymbal;
#X obj 624 0 bng 15 250 50 0 empty empty empty 17 7 0 10 -262144 -1
-1;
#X obj 529 146 bng 15 250 50 0 empty empty empty 17 7 0 10 -262144
-1 -1;
#X obj 526 174 perk-hightom;
#X obj 91 370 zexy/nop~;
#X obj 714 137 bng 15 250 50 0 empty empty empty 17 7 0 10 -262144
-1 -1;
#X obj 711 165 perk-hihat;
#X obj 45 159 hradio 15 1 0 4 empty empty empty 0 -8 0 10 -262144 -1
-1 3;
#X obj 513 219 bng 15 250 50 0 empty empty empty 17 7 0 10 -262144
-1 -1;
#X obj 510 247 perk-lowtom;
#X obj 445 270 bng 15 250 50 0 empty empty empty 17 7 0 10 -262144
-1 -1;
#X obj 442 298 perk-snare;
#X obj 230 379 syn-bellsynth;
#X msg 228 322 440;
#X obj 247 354 t f b;
#X msg 299 464 1;
#X obj 228 545 *~;
#X obj 313 569 print;
#X msg 247 461 0, f 7;
#X msg 656 388 440;
#X obj 652 416 t f b;
#X msg 682 553 1;
#X obj 619 597 *~;
#X msg 664 554 0, f 1;
#X obj 643 436 syn-cz10;
#X msg 124 534 440;
#X obj 120 562 t f b;
#X msg 164 661 1;
#X msg 133 662 0;
#X obj 113 602 syn-detuned3Osc;
#X obj 87 709 *~;
#X obj 94 402 shadylib/outputc~;
#X obj 278 511 shadylib/rexpline~;
#X obj 668 588 shadylib/rexpline~;
#X obj 676 575 shadylib/ar 1 5 5000;
#X obj 301 491 shadylib/ar 1 5 5000;
#X obj 149 683 shadylib/ar 1 5 5000;
#X obj 151 703 shadylib/rexpline~;
#X obj 38 176 demultiplex~ 0 1 2 3;
#X obj 392 583 declare -stdlib zexy;
#X connect 0 0 13 0;
#X connect 1 0 13 0;
#X connect 2 0 13 0;
#X connect 3 0 47 0;
#X connect 4 0 3 0;
#X connect 5 0 13 0;
#X connect 6 0 5 0;
#X connect 7 0 13 0;
#X connect 8 0 7 0;
#X connect 9 0 13 0;
#X connect 10 0 9 0;
#X connect 11 0 12 0;
#X connect 12 0 13 0;
#X connect 13 0 40 0;
#X connect 13 0 40 1;
#X connect 14 0 15 0;
#X connect 15 0 13 0;
#X connect 16 0 47 0;
#X connect 17 0 18 0;
#X connect 18 0 13 0;
#X connect 19 0 20 0;
#X connect 20 0 13 0;
#X connect 21 0 25 0;
#X connect 22 0 23 0;
#X connect 23 0 21 0;
#X connect 23 0 27 0;
#X connect 23 1 24 0;
#X connect 24 0 44 0;
#X connect 25 0 13 0;
#X connect 27 0 44 0;
#X connect 28 0 29 0;
#X connect 29 0 32 0;
#X connect 29 0 33 0;
#X connect 29 1 30 0;
#X connect 30 0 43 0;
#X connect 31 0 13 0;
#X connect 32 0 43 0;
#X connect 33 0 31 0;
#X connect 34 0 35 0;
#X connect 35 0 37 0;
#X connect 35 0 38 0;
#X connect 35 1 36 0;
#X connect 36 0 45 0;
#X connect 37 0 45 0;
#X connect 38 0 39 0;
#X connect 39 0 13 0;
#X connect 41 0 25 1;
#X connect 42 0 31 1;
#X connect 43 0 42 0;
#X connect 44 0 26 0;
#X connect 44 0 41 0;
#X connect 45 0 46 0;
#X connect 46 0 39 1;
#X connect 47 0 13 0;
#X connect 47 1 0 0;
#X connect 47 2 2 0;
#X connect 47 3 1 0;
