#N canvas 370 23 1070 515 10;
#X obj 16 6 inlet~;
#X obj 16 59 outlet~;
#X text 110 29 outlet audio~;
#X text 104 14 inlets audio~ \, control \, add \, multiply;
#X obj 494 141 inlet controls;
#N canvas 564 94 720 612 workings 0;
#X obj 32 505 outlet~;
#X obj 55 114 *~ 1;
#X obj 169 48 r \$0-dry;
#X obj 58 42 inlet~;
#X obj 429 192 s \$0-damping;
#X obj 514 219 * 0.28;
#X obj 515 242 + 0.7;
#X obj 515 263 s \$0-feedback;
#X obj 513 126 - 1;
#X obj 514 170 - 1;
#X obj 515 191 abs;
#N canvas 421 53 842 542 LEFT 0;
#N canvas 0 22 522 372 comb-1 0;
#X obj 216 112 r \$0-damping;
#X obj 152 208 delwrite~ \$0-rev1 26;
#X obj 154 146 lop~ 20000;
#X obj 154 169 *~ 0.5;
#X obj 155 61 delread~ \$0-rev1 25.3061;
#X obj 72 37 inlet~;
#X obj 67 234 outlet~;
#X obj 233 147 r \$0-feedback;
#X connect 0 0 2 1;
#X connect 2 0 3 0;
#X connect 3 0 1 0;
#X connect 3 0 6 0;
#X connect 4 0 2 0;
#X connect 5 0 1 0;
#X connect 7 0 3 1;
#X restore 236 189 pd comb-1;
#N canvas 549 236 494 344 comb-2 0;
#X obj 236 93 r \$0-damping;
#X obj 174 127 lop~ 20000;
#X obj 174 150 *~ 0.5;
#X obj 90 36 inlet~;
#X obj 88 231 outlet~;
#X obj 253 128 r \$0-feedback;
#X obj 169 63 delread~ \$0-rev2 26.9388;
#X obj 171 202 delwrite~ \$0-rev2 27;
#X connect 0 0 1 1;
#X connect 1 0 2 0;
#X connect 2 0 7 0;
#X connect 2 0 4 0;
#X connect 3 0 7 0;
#X connect 5 0 2 1;
#X connect 6 0 1 0;
#X restore 298 189 pd comb-2;
#N canvas 400 75 490 340 comb-3 0;
#X obj 203 102 r \$0-damping;
#X obj 141 136 lop~ 20000;
#X obj 139 165 *~ 0.5;
#X obj 57 43 inlet~;
#X obj 57 248 outlet~;
#X obj 220 137 r \$0-feedback;
#X obj 117 67 delread~ \$0-rev3 28.9569;
#X obj 137 210 delwrite~ \$0-rev3 29;
#X connect 0 0 1 1;
#X connect 1 0 2 0;
#X connect 2 0 7 0;
#X connect 2 0 4 0;
#X connect 3 0 7 0;
#X connect 5 0 2 1;
#X connect 6 0 1 0;
#X restore 359 189 pd comb-3;
#N canvas 746 118 494 344 comb-4 0;
#X obj 244 103 r \$0-damping;
#X obj 182 137 lop~ 20000;
#X obj 182 160 *~ 0.5;
#X obj 90 36 inlet~;
#X obj 88 231 outlet~;
#X obj 261 138 r \$0-feedback;
#X obj 175 73 delread~ \$0-rev4 30.7483;
#X obj 171 206 delwrite~ \$0-rev4 31;
#X connect 0 0 1 1;
#X connect 1 0 2 0;
#X connect 2 0 7 0;
#X connect 2 0 4 0;
#X connect 3 0 7 0;
#X connect 5 0 2 1;
#X connect 6 0 1 0;
#X restore 421 189 pd comb-4;
#N canvas 805 59 474 324 comb-5 0;
#X obj 196 95 r \$0-damping;
#X obj 134 129 lop~ 20000;
#X obj 134 152 *~ 0.5;
#X obj 90 36 inlet~;
#X obj 88 231 outlet~;
#X obj 213 130 r \$0-feedback;
#X obj 135 61 delread~ \$0-rev5 34.2449;
#X obj 132 203 delwrite~ \$0-rev5 35;
#X connect 0 0 1 1;
#X connect 1 0 2 0;
#X connect 2 0 7 0;
#X connect 2 0 4 0;
#X connect 3 0 7 0;
#X connect 5 0 2 1;
#X connect 6 0 1 0;
#X restore 483 189 pd comb-5;
#N canvas 702 107 474 324 comb-6 0;
#X obj 238 87 r \$0-damping;
#X obj 176 121 lop~ 20000;
#X obj 176 144 *~ 0.5;
#X obj 90 36 inlet~;
#X obj 88 231 outlet~;
#X obj 255 122 r \$0-feedback;
#X obj 238 54 delread~ \$0-rev6 33.8095;
#X obj 177 197 delwrite~ \$0-rev6 34;
#X connect 0 0 1 1;
#X connect 1 0 2 0;
#X connect 2 0 4 0;
#X connect 2 0 7 0;
#X connect 3 0 7 0;
#X connect 5 0 2 1;
#X connect 6 0 1 0;
#X restore 545 189 pd comb-6;
#N canvas 742 153 474 324 comb-7 0;
#X obj 193 101 r \$0-damping;
#X obj 131 135 lop~ 20000;
#X obj 131 158 *~ 0.5;
#X obj 80 50 inlet~;
#X obj 88 231 outlet~;
#X obj 210 136 r \$0-feedback;
#X obj 194 70 delread~ \$0-rev7 35.7596;
#X obj 129 207 delwrite~ \$0-rev7 36;
#X connect 0 0 1 1;
#X connect 1 0 2 0;
#X connect 2 0 4 0;
#X connect 2 0 7 0;
#X connect 3 0 7 0;
#X connect 5 0 2 1;
#X connect 6 0 1 0;
#X restore 606 189 pd comb-7;
#N canvas 731 107 478 328 comb-8 0;
#X obj 202 100 r \$0-damping;
#X obj 140 134 lop~ 20000;
#X obj 140 157 *~ 0.5;
#X obj 90 36 inlet~;
#X obj 88 231 outlet~;
#X obj 219 135 r \$0-feedback;
#X obj 204 67 delread~ \$0-rev8 36.6667;
#X obj 140 205 delwrite~ \$0-rev8 26;
#X connect 0 0 1 1;
#X connect 1 0 2 0;
#X connect 2 0 4 0;
#X connect 2 0 7 0;
#X connect 3 0 7 0;
#X connect 5 0 2 1;
#X connect 6 0 1 0;
#X restore 668 189 pd comb-8;
#N canvas 588 127 648 562 allpass-1 0;
#X obj 186 65 inlet~;
#X obj 245 422 *~ 0.5;
#X obj 213 389 delread~ \$0-fbcf-1 12.6077;
#X obj 175 490 outlet~;
#X obj 437 474 delwrite~ \$0-fbcf-1 13;
#X obj 168 391 *~ -1;
#X connect 0 0 5 0;
#X connect 0 0 4 0;
#X connect 1 0 4 0;
#X connect 2 0 1 0;
#X connect 2 0 3 0;
#X connect 5 0 3 0;
#X restore 241 319 pd allpass-1;
#N canvas 0 23 640 554 allpass-2 0;
#X obj 186 65 inlet~;
#X obj 245 422 *~ 0.5;
#X obj 175 490 outlet~;
#X obj 168 391 *~ -1;
#X obj 213 389 delread~ \$0-fbcf-2 10;
#X obj 439 474 delwrite~ \$0-fbcf-2 11;
#X connect 0 0 3 0;
#X connect 0 0 5 0;
#X connect 1 0 5 0;
#X connect 3 0 2 0;
#X connect 4 0 1 0;
#X connect 4 0 2 0;
#X restore 241 339 pd allpass-2;
#N canvas 0 22 644 558 allpass-3 0;
#X obj 186 65 inlet~;
#X obj 245 422 *~ 0.5;
#X obj 175 490 outlet~;
#X obj 168 391 *~ -1;
#X obj 213 389 delread~ \$0-fbcf-3 7.77324;
#X obj 437 474 delwrite~ \$0-fbcf-3 8;
#X connect 0 0 3 0;
#X connect 0 0 5 0;
#X connect 1 0 5 0;
#X connect 3 0 2 0;
#X connect 4 0 1 0;
#X connect 4 0 2 0;
#X restore 240 360 pd allpass-3;
#N canvas 0 22 636 550 allpass-4 0;
#X obj 186 65 inlet~;
#X obj 245 422 *~ 0.5;
#X obj 175 490 outlet~;
#X obj 168 391 *~ -1;
#X obj 214 389 delread~ \$0-fbcf-4 5.10204;
#X obj 437 474 delwrite~ \$0-fbcf-4 6;
#X connect 0 0 3 0;
#X connect 0 0 5 0;
#X connect 1 0 5 0;
#X connect 3 0 2 0;
#X connect 4 0 1 0;
#X connect 4 0 2 0;
#X restore 242 381 pd allpass-4;
#X obj 234 90 *~ 0.05;
#X obj 244 469 outlet~;
#X obj 217 18 inlet~;
#X obj 241 299 *~ 0.25;
#X connect 0 0 15 0;
#X connect 1 0 15 0;
#X connect 2 0 15 0;
#X connect 3 0 15 0;
#X connect 4 0 15 0;
#X connect 5 0 15 0;
#X connect 6 0 15 0;
#X connect 7 0 15 0;
#X connect 8 0 9 0;
#X connect 9 0 10 0;
#X connect 10 0 11 0;
#X connect 11 0 13 0;
#X connect 12 0 0 0;
#X connect 12 0 1 0;
#X connect 12 0 2 0;
#X connect 12 0 3 0;
#X connect 12 0 4 0;
#X connect 12 0 5 0;
#X connect 12 0 6 0;
#X connect 12 0 7 0;
#X connect 14 0 12 0;
#X connect 15 0 8 0;
#X restore 145 117 pd LEFT;
#X obj 512 102 r \$0-feedbk;
#X obj 413 35 r \$0-dampen;
#X obj 429 167 * 44100;
#X obj 389 135 expr pow($f1 \, 4);
#X obj 421 58 * 0.9;
#X obj 420 82 + 0.1;
#X obj 513 148 expr pow($f1 \, 2);
#X connect 1 0 0 0;
#X connect 2 0 1 1;
#X connect 3 0 1 0;
#X connect 3 0 11 0;
#X connect 5 0 6 0;
#X connect 6 0 7 0;
#X connect 8 0 18 0;
#X connect 9 0 10 0;
#X connect 10 0 5 0;
#X connect 11 0 0 0;
#X connect 12 0 8 0;
#X connect 13 0 16 0;
#X connect 14 0 4 0;
#X connect 15 0 14 0;
#X connect 16 0 17 0;
#X connect 17 0 15 0;
#X connect 18 0 9 0;
#X restore 14 32 pd workings;
#X obj 645 165 loadbang;
#X obj 645 189 t b b;
#X obj 674 214 s \$0-loadbang;
#X obj 125 129 hsl 60 10 0 1 0 0 \$0-a \$0-ra brightness -2 -7 0 10
-208647 -262144 -355 3304 1;
#X obj 125 152 hsl 60 10 0 1 0 0 \$0-c \$0-rc dry -2 -7 0 10 -208647
-262144 -355 0 1;
#X obj 212 129 hsl 60 10 0 1 0 0 \$0-b \$0-rb roomsize -2 -7 0 10 -208647
-262144 -355 3540 1;
#X obj 105 126 cnv 12 15 13 empty empty 0 1 6 0 12 -33289 -262144 0
;
#X obj 105 149 cnv 12 15 13 empty empty 2 1 6 0 12 -33289 -262144 0
;
#X obj 192 126 cnv 12 15 13 empty empty 1 1 6 0 12 -33289 -262144 0
;
#X obj 212 152 hsl 60 10 0 1 0 0 \$0-d \$0-rd wet -2 -7 0 10 -208647
-262144 -355 0 1;
#X obj 192 149 cnv 12 15 13 empty empty 3 1 6 0 12 -33289 -262144 0
;
#X msg 580 238 0.56 0.6 1 0.6;
#X obj 583 266 unpack f f f f;
#N canvas 629 32 778 610 rgb 0;
#X obj 296 207 * 256;
#X obj 344 180 * 256;
#X obj 346 201 * 256;
#X obj 312 270 +;
#X obj 298 228 t b f;
#X obj 312 293 +;
#X obj 346 223 t b f;
#X obj 252 186 int;
#X msg 263 68 0;
#X obj 252 163 * -1;
#X obj 296 162 * -1;
#X obj 343 158 * -1;
#X obj 103 123 vsl 10 40 1 255 0 0 ertteetyeyterttretretrrtrtrtrtrt
hhghghghghghghgggggh empty 0 -8 0 10 -4160 -262144 -1 0 0;
#X obj 115 123 vsl 10 40 1 255 0 0 ertteetyeyterttretretrrtrtrtrtrt
hhghghghghghghgggggh empty 0 -8 0 10 -4034 -262144 -1 0 0;
#X obj 127 123 vsl 10 40 1 255 0 0 ertteetyeyterttretretrrtrtrtrtrt
hhghghghghghghgggggh empty 0 -8 0 10 -258113 -262144 -1 0 0;
#X obj 252 144 int;
#X obj 293 142 int;
#X obj 342 138 int;
#X msg 344 372 color \$1 0 28;
#X obj 354 449 s \$0-diyglob;
#X connect 0 0 4 0;
#X connect 1 0 2 0;
#X connect 2 0 6 0;
#X connect 3 0 5 0;
#X connect 4 0 3 0;
#X connect 4 1 3 1;
#X connect 5 0 18 0;
#X connect 6 0 3 0;
#X connect 6 1 5 1;
#X connect 7 0 3 0;
#X connect 8 0 12 0;
#X connect 8 0 13 0;
#X connect 8 0 14 0;
#X connect 9 0 7 0;
#X connect 10 0 0 0;
#X connect 11 0 1 0;
#X connect 12 0 15 0;
#X connect 13 0 16 0;
#X connect 14 0 17 0;
#X connect 15 0 9 0;
#X connect 16 0 10 0;
#X connect 17 0 11 0;
#X connect 18 0 19 0;
#X coords 0 -1 1 1 40 70 1 100 100;
#X restore 186 258 pd rgb;
#X obj 370 340 diy-gabs \$0 a dampen;
#X obj 427 363 diy-gabs \$0 b feedbk;
#X obj 454 392 diy-gabs \$0 c dry;
#X obj 511 415 diy-gabs \$0 d wet;
#X obj 449 311 route dampen feedbk dry wet;
#X obj 497 446 outlet;
#X connect 0 0 5 0;
#X connect 4 0 24 0;
#X connect 5 0 1 0;
#X connect 6 0 7 0;
#X connect 7 0 17 0;
#X connect 7 1 8 0;
#X connect 17 0 18 0;
#X connect 18 0 20 0;
#X connect 18 1 21 0;
#X connect 20 0 25 0;
#X connect 21 0 25 0;
#X connect 22 0 25 0;
#X connect 23 0 25 0;
#X connect 24 0 20 0;
#X connect 24 1 21 0;
#X connect 24 2 22 0;
#X connect 24 3 23 0;
#X coords 0 -1 1 1 180 65 1 100 100;
