#N canvas 193 207 964 330 10;
#X obj 16 6 inlet~;
#X obj 16 59 outlet~;
#X obj 369 13 inlet controls;
#X obj 533 64 loadbang;
#X obj 533 88 t b b;
#X obj 562 113 s \$0-loadbang;
#X obj 125 129 hsl 60 10 0 1 0 0 \$0-a \$0-ra delay -2 -7 0 10 -260946
-262144 -355 2891 1;
#X obj 125 152 hsl 60 10 0 1 0 0 \$0-c \$0-rc gain -2 -7 0 10 -260946
-262144 -355 2891 1;
#X obj 212 129 hsl 60 10 0 1 0 0 \$0-b \$0-rb q -2 -7 0 10 -260946
-262144 -355 2360 1;
#X obj 105 126 cnv 12 15 13 empty empty 0 1 6 0 12 -33289 -262144 0
;
#X obj 105 149 cnv 12 15 13 empty empty 2 1 6 0 12 -33289 -262144 0
;
#X obj 192 126 cnv 12 15 13 empty empty 1 1 6 0 12 -33289 -262144 0
;
#N canvas 0 23 667 699 workings 0;
#X obj 40 36 inlet~ signal;
#X obj 225 584 outlet~;
#X obj 287 435 r \$0-gain;
#N canvas 0 22 462 312 rh_scalelog 0;
#X obj 20 155 exp;
#X obj 20 107 *;
#X obj 20 130 +;
#X obj 98 87 log;
#X obj 194 84 log;
#X obj 123 123 t b f;
#X obj 123 145 -;
#X obj 20 183 outlet;
#X obj 20 19 inlet;
#X obj 98 23 inlet;
#X obj 194 24 inlet;
#X connect 0 0 7 0;
#X connect 1 0 2 0;
#X connect 2 0 0 0;
#X connect 3 0 2 1;
#X connect 3 0 5 0;
#X connect 4 0 6 0;
#X connect 5 0 6 0;
#X connect 5 1 6 1;
#X connect 6 0 1 1;
#X connect 8 0 1 0;
#X connect 9 0 3 0;
#X connect 10 0 4 0;
#X restore 287 505 pd rh_scalelog;
#X msg 334 481 0.1;
#X msg 380 481 10;
#X obj 225 553 *~;
#N canvas 421 52 716 678 wetness 0;
#X obj 152 247 bp~ 4430 3.5;
#X obj 150 108 bp~ 7040 3.5;
#X obj 150 177 bp~ 5920 3.5;
#X obj 153 317 bp~ 2090 3.5;
#X obj 152 387 bp~ 988 3.5;
#X obj 153 455 bp~ 587 3.5;
#X obj 155 524 bp~ 349 3.5;
#X obj 150 64 inlet~;
#X obj 473 407 * 0.25;
#X obj 44 618 outlet~;
#X obj 44 558 *~ 1;
#X obj 441 -1 r \$0-delay;
#X obj 472 379 * 10;
#X obj 530 245 line~;
#X obj 468 355 + 0.2;
#X msg 484 113 \$1 10;
#X obj 154 503 vd~ \$0-filt-1;
#X obj 151 433 vd~ \$0-filt-1;
#X obj 153 363 vd~ \$0-filt-1;
#X obj 152 294 vd~ \$0-filt-1;
#X obj 152 223 vd~ \$0-filt-1;
#X obj 151 154 vd~ \$0-filt-1;
#X obj 440 161 *~ 0.15;
#X obj 441 183 *~ 0.3;
#X obj 441 207 *~ 0.45;
#X obj 447 228 *~ 0.6;
#X obj 451 252 *~ 0.75;
#X obj 477 82 * 1000;
#X obj 452 26 t f f;
#X obj 478 52 *;
#X obj 152 130 delwrite~ \$0-filt-1 1001;
#X obj 45 589 *~;
#X obj 553 363 * 0.75;
#X obj 537 435 + 0.25;
#X obj 553 328 r \$0-qs;
#X connect 0 0 10 0;
#X connect 1 0 10 0;
#X connect 1 0 30 0;
#X connect 2 0 10 0;
#X connect 3 0 10 0;
#X connect 4 0 10 0;
#X connect 5 0 10 0;
#X connect 6 0 10 0;
#X connect 7 0 1 0;
#X connect 8 0 10 1;
#X connect 10 0 31 0;
#X connect 11 0 28 0;
#X connect 12 0 1 2;
#X connect 12 0 2 2;
#X connect 12 0 0 2;
#X connect 12 0 3 2;
#X connect 12 0 4 2;
#X connect 12 0 5 2;
#X connect 12 0 6 2;
#X connect 12 0 8 0;
#X connect 13 0 22 0;
#X connect 13 0 23 0;
#X connect 13 0 24 0;
#X connect 13 0 25 0;
#X connect 13 0 26 0;
#X connect 13 0 16 0;
#X connect 14 0 12 0;
#X connect 15 0 13 0;
#X connect 16 0 6 0;
#X connect 17 0 5 0;
#X connect 18 0 4 0;
#X connect 19 0 3 0;
#X connect 20 0 0 0;
#X connect 21 0 2 0;
#X connect 22 0 21 0;
#X connect 23 0 20 0;
#X connect 24 0 19 0;
#X connect 25 0 18 0;
#X connect 26 0 17 0;
#X connect 27 0 15 0;
#X connect 28 0 29 0;
#X connect 28 1 29 1;
#X connect 29 0 27 0;
#X connect 31 0 9 0;
#X connect 32 0 33 0;
#X connect 33 0 31 1;
#X connect 34 0 14 0;
#X connect 34 0 32 0;
#X restore 47 179 pd wetness;
#X obj 334 453 r \$0-loadbang;
#X connect 0 0 7 0;
#X connect 2 0 3 0;
#X connect 3 0 6 1;
#X connect 4 0 3 1;
#X connect 5 0 3 2;
#X connect 6 0 1 0;
#X connect 7 0 6 0;
#X connect 8 0 4 0;
#X connect 8 0 5 0;
#X restore 17 30 pd workings;
#X msg 490 131 0.49 0.4 0.49;
#X obj 384 264 diy-gabs \$0 a delay;
#X obj 468 235 diy-gabs \$0 b qs;
#X obj 528 209 diy-gabs \$0 c gain;
#X obj 508 168 unpack f f f;
#N canvas 629 32 778 610 rgb 0;
#X obj 296 207 * 256;
#X obj 344 180 * 256;
#X obj 346 201 * 256;
#X obj 312 270 +;
#X obj 298 228 t b f;
#X obj 312 293 +;
#X obj 346 223 t b f;
#X obj 252 186 int;
#X msg 263 68 0;
#X obj 252 163 * -1;
#X obj 296 162 * -1;
#X obj 343 158 * -1;
#X obj 103 123 vsl 10 40 1 255 0 0 ertteetyeyterttretretrrtrtrtrtrt
hhghghghghghghgggggh empty 0 -8 0 10 -4160 -262144 -1 0 0;
#X obj 115 123 vsl 10 40 1 255 0 0 ertteetyeyterttretretrrtrtrtrtrt
hhghghghghghghgggggh empty 0 -8 0 10 -4034 -262144 -1 0 0;
#X obj 127 123 vsl 10 40 1 255 0 0 ertteetyeyterttretretrrtrtrtrtrt
hhghghghghghghgggggh empty 0 -8 0 10 -258113 -262144 -1 0 0;
#X obj 252 144 int;
#X obj 293 142 int;
#X obj 342 138 int;
#X msg 344 372 color \$1 0 28;
#X obj 354 449 s \$0-diyglob;
#X connect 0 0 4 0;
#X connect 1 0 2 0;
#X connect 2 0 6 0;
#X connect 3 0 5 0;
#X connect 4 0 3 0;
#X connect 4 1 3 1;
#X connect 5 0 18 0;
#X connect 6 0 3 0;
#X connect 6 1 5 1;
#X connect 7 0 3 0;
#X connect 8 0 12 0;
#X connect 8 0 13 0;
#X connect 8 0 14 0;
#X connect 9 0 7 0;
#X connect 10 0 0 0;
#X connect 11 0 1 0;
#X connect 12 0 15 0;
#X connect 13 0 16 0;
#X connect 14 0 17 0;
#X connect 15 0 9 0;
#X connect 16 0 10 0;
#X connect 17 0 11 0;
#X connect 18 0 19 0;
#X coords 0 -1 1 1 40 70 1 100 100;
#X restore 181 226 pd rgb;
#X obj 319 154 route delay qs gain;
#X obj 460 290 outlet;
#X connect 0 0 12 0;
#X connect 2 0 19 0;
#X connect 3 0 4 0;
#X connect 4 0 13 0;
#X connect 4 1 5 0;
#X connect 12 0 1 0;
#X connect 13 0 17 0;
#X connect 14 0 20 0;
#X connect 15 0 20 0;
#X connect 16 0 20 0;
#X connect 17 0 14 0;
#X connect 17 1 15 0;
#X connect 17 2 16 0;
#X connect 19 0 14 0;
#X connect 19 1 15 0;
#X connect 19 2 16 0;
#X coords 0 -1 1 1 180 65 1 100 100;
