#N canvas 286 392 1003 421 10;
#X obj 9 51 outlet~;
#X obj 589 10 loadbang;
#X obj 125 129 hsl 60 10 0 1 0 0 \$0-a \$0-ra pitch -2 -7 0 10 -3776
-262144 -355 2596 1;
#X obj 125 152 hsl 60 10 0 1 0 0 \$0-c \$0-rc hipass1 -2 -7 0 10 -3776
-262144 -355 1475 1;
#X obj 212 129 hsl 60 10 0 1 0 0 \$0-b \$0-rb filters -2 -7 0 10 -3776
-262144 -355 3835 1;
#X obj 212 152 hsl 60 10 0 1 0 0 \$0-d \$0-rd hipass2 -2 -7 0 10 -3776
-262144 -355 4130 1;
#X obj 125 175 hsl 60 10 0 1 0 0 \$0-e \$0-re duration -2 -7 0 10 -3776
-262144 -355 3835 1;
#X obj 105 126 cnv 12 15 13 empty empty 0 1 6 0 12 -33289 -262144 0
;
#X obj 105 149 cnv 12 15 13 empty empty 2 1 6 0 12 -33289 -262144 0
;
#X obj 105 172 cnv 12 15 13 empty empty 4 1 6 0 12 -33289 -262144 0
;
#X obj 192 126 cnv 12 15 13 empty empty 1 1 6 0 12 -33289 -262144 0
;
#X obj 192 149 cnv 12 15 13 empty empty 3 1 6 0 12 -33289 -262144 0
;
#X text 118 40 outlet audio~;
#X obj 8 7 inlet;
#X text 112 26 inlets trigger \, control \, add \, multiply;
#N canvas 396 125 866 632 cymbal-909 0;
#X obj 377 46 inlet trigger;
#X obj 276 232 vline~;
#X obj 276 259 *~;
#X obj 302 388 hip~ 3000;
#X obj 263 356 *~;
#X obj 218 116 hip~ 2000;
#X obj 396 232 vline~;
#X obj 396 259 *~;
#X obj 515 232 vline~;
#X obj 515 259 *~;
#X obj 297 357 *~;
#X obj 371 357 *~;
#X obj 513 292 *~;
#X obj 214 332 bp~ 2000 3;
#X obj 299 332 bp~ 8000 3;
#X obj 383 331 bp~ 15000 3;
#X obj 399 290 *~;
#X obj 277 288 *~;
#X obj 388 133 t b b b;
#N canvas 0 22 1078 573 osc2 0;
#X obj 313 276 *~;
#X obj 392 275 *~;
#X obj 499 274 *~;
#X obj 363 275 *~;
#X obj 475 275 *~;
#X obj 419 277 *~;
#X obj 289 276 *~;
#X obj 337 275 *~;
#X obj 447 276 *~;
#X obj 207 277 *~;
#X obj 235 277 *~;
#X obj 264 277 *~;
#X obj 365 406 *~ 0.05;
#X obj 195 93 expr~ 1.99*(($v1 > 0.5) -0.5);
#X obj 303 114 expr~ 1.99*(($v1 > 0.5) -0.5);
#X obj 403 92 expr~ 1.99*(($v1 > 0.5) -0.5);
#X obj 508 112 expr~ 1.99*(($v1 > 0.5) -0.5);
#X obj 611 89 expr~ 1.99*(($v1 > 0.5) -0.5);
#X obj 721 114 expr~ 1.99*(($v1 > 0.5) -0.5);
#X obj 195 70 phasor~ 293;
#X obj 301 69 phasor~ 1511;
#X obj 405 67 phasor~ 1021;
#X obj 510 67 phasor~ 631;
#X obj 616 69 phasor~ 1277;
#X obj 724 70 phasor~ 2293;
#X obj 366 430 outlet~;
#X obj 194 24 r \$0-pitcho;
#X obj 303 22 r \$0-pitcho;
#X obj 403 22 r \$0-pitcho;
#X obj 511 22 r \$0-pitcho;
#X obj 620 20 r \$0-pitcho;
#X obj 720 20 r \$0-pitcho;
#X obj 194 45 * 293;
#X obj 304 42 * 1511;
#X obj 403 43 * 1021;
#X obj 511 42 * 631;
#X obj 620 41 * 1277;
#X obj 719 41 * 2293;
#X connect 0 0 12 0;
#X connect 1 0 12 0;
#X connect 2 0 12 0;
#X connect 3 0 12 0;
#X connect 4 0 12 0;
#X connect 5 0 12 0;
#X connect 6 0 12 0;
#X connect 7 0 12 0;
#X connect 8 0 12 0;
#X connect 9 0 12 0;
#X connect 10 0 12 0;
#X connect 11 0 12 0;
#X connect 12 0 25 0;
#X connect 13 0 0 0;
#X connect 13 0 5 0;
#X connect 13 0 6 0;
#X connect 13 0 9 0;
#X connect 14 0 0 1;
#X connect 14 0 3 0;
#X connect 14 0 8 0;
#X connect 14 0 11 0;
#X connect 15 0 1 0;
#X connect 15 0 3 1;
#X connect 15 0 6 1;
#X connect 15 0 10 0;
#X connect 16 0 1 1;
#X connect 16 0 4 0;
#X connect 16 0 7 0;
#X connect 16 0 9 1;
#X connect 17 0 2 0;
#X connect 17 0 4 1;
#X connect 17 0 8 1;
#X connect 17 0 10 1;
#X connect 18 0 2 1;
#X connect 18 0 5 1;
#X connect 18 0 7 1;
#X connect 18 0 11 1;
#X connect 19 0 13 0;
#X connect 20 0 14 0;
#X connect 21 0 15 0;
#X connect 22 0 16 0;
#X connect 23 0 17 0;
#X connect 24 0 18 0;
#X connect 26 0 32 0;
#X connect 27 0 33 0;
#X connect 28 0 34 0;
#X connect 29 0 35 0;
#X connect 30 0 36 0;
#X connect 31 0 37 0;
#X connect 32 0 19 0;
#X connect 33 0 20 0;
#X connect 34 0 21 0;
#X connect 35 0 22 0;
#X connect 36 0 23 0;
#X connect 37 0 24 0;
#X restore 154 22 pd osc2;
#N canvas 0 22 955 526 osc1 0;
#X obj 318 275 *~;
#X obj 406 263 *~;
#X obj 501 259 *~;
#X obj 375 273 *~;
#X obj 470 257 *~;
#X obj 438 258 *~;
#X obj 286 277 *~;
#X obj 345 273 *~;
#X obj 249 288 *~;
#X obj 155 286 *~;
#X obj 183 286 *~;
#X obj 212 286 *~;
#X obj 422 417 *~ 0.05;
#X obj -29 98 expr~ 1.99*(($v1 > 0.5) -0.5);
#X obj 116 125 expr~ 1.99*(($v1 > 0.5) -0.5);
#X obj 279 98 expr~ 1.99*(($v1 > 0.5) -0.5);
#X obj 393 128 expr~ 1.99*(($v1 > 0.5) -0.5);
#X obj 526 106 expr~ 1.99*(($v1 > 0.5) -0.5);
#X obj 612 143 expr~ 1.99*(($v1 > 0.5) -0.5);
#X obj -27 62 phasor~ 431;
#X obj 121 61 phasor~ 337;
#X obj 278 74 phasor~ 509;
#X obj 389 70 phasor~ 821;
#X obj 521 79 phasor~ 1669;
#X obj 629 82 phasor~ 3049;
#X obj 423 446 outlet~;
#X obj -17 35 * 431;
#X obj 124 37 * 337;
#X obj 280 50 * 509;
#X obj 392 46 * 821;
#X obj -14 8 r \$0-pitcho;
#X obj 123 17 r \$0-pitcho;
#X obj 278 26 r \$0-pitcho;
#X obj 392 25 r \$0-pitcho;
#X obj 519 34 r \$0-pitcho;
#X obj 519 55 * 1669;
#X obj 635 38 r \$0-pitcho;
#X obj 635 59 * 3049;
#X connect 0 0 12 0;
#X connect 1 0 12 0;
#X connect 2 0 12 0;
#X connect 3 0 12 0;
#X connect 4 0 12 0;
#X connect 5 0 12 0;
#X connect 6 0 12 0;
#X connect 7 0 12 0;
#X connect 8 0 12 0;
#X connect 9 0 12 0;
#X connect 10 0 12 0;
#X connect 11 0 12 0;
#X connect 12 0 25 0;
#X connect 13 0 0 0;
#X connect 13 0 5 0;
#X connect 13 0 6 0;
#X connect 13 0 9 0;
#X connect 14 0 0 1;
#X connect 14 0 3 0;
#X connect 14 0 8 0;
#X connect 14 0 11 0;
#X connect 15 0 1 0;
#X connect 15 0 3 1;
#X connect 15 0 6 1;
#X connect 15 0 10 0;
#X connect 16 0 1 1;
#X connect 16 0 4 0;
#X connect 16 0 7 0;
#X connect 16 0 9 1;
#X connect 17 0 2 0;
#X connect 17 0 4 1;
#X connect 17 0 8 1;
#X connect 17 0 10 1;
#X connect 18 0 2 1;
#X connect 18 0 5 1;
#X connect 18 0 7 1;
#X connect 18 0 11 1;
#X connect 19 0 13 0;
#X connect 20 0 14 0;
#X connect 21 0 15 0;
#X connect 22 0 16 0;
#X connect 23 0 17 0;
#X connect 24 0 18 0;
#X connect 26 0 19 0;
#X connect 27 0 20 0;
#X connect 28 0 21 0;
#X connect 29 0 22 0;
#X connect 30 0 26 0;
#X connect 31 0 27 0;
#X connect 32 0 28 0;
#X connect 33 0 29 0;
#X connect 34 0 35 0;
#X connect 35 0 23 0;
#X connect 36 0 37 0;
#X connect 37 0 24 0;
#X restore 96 24 pd osc1;
#X obj 316 537 outlet~;
#X obj 512 178 f 3000;
#X obj 667 471 s \$0-pitcho;
#X obj 557 83 r \$0-duration;
#X msg 652 187 1;
#X msg 396 204 1 0 15 \, 0 70 15;
#X msg 275 202 1 10 0 \, 0 30 10;
#X msg 514 203 1 0 2 \, 0 \$1 2;
#X obj 574 344 * 2000;
#X obj 584 369 * 8000;
#X obj 597 395 * 15000;
#X obj 578 317 r \$0-filto;
#X obj 699 312 s \$0-filto;
#N canvas 0 22 462 312 rh_scalelog 0;
#X obj 20 155 exp;
#X obj 20 107 *;
#X obj 20 130 +;
#X obj 98 87 log;
#X obj 194 84 log;
#X obj 123 123 t b f;
#X obj 123 145 -;
#X obj 20 183 outlet;
#X obj 20 19 inlet;
#X obj 98 23 inlet;
#X obj 194 24 inlet;
#X connect 0 0 7 0;
#X connect 1 0 2 0;
#X connect 2 0 0 0;
#X connect 3 0 2 1;
#X connect 3 0 5 0;
#X connect 4 0 6 0;
#X connect 5 0 6 0;
#X connect 5 1 6 1;
#X connect 6 0 1 1;
#X connect 8 0 1 0;
#X connect 9 0 3 0;
#X connect 10 0 4 0;
#X restore 399 464 pd rh_scalelog;
#X msg 446 440 1000;
#X obj 302 406 lop~ 20000;
#X obj 698 290 + 0.75;
#X obj 697 246 r \$0-filters;
#X obj 663 396 r \$0-pitch;
#N canvas 0 22 462 312 rh_scalelog 0;
#X obj 20 155 exp;
#X obj 20 107 *;
#X obj 20 130 +;
#X obj 98 87 log;
#X obj 194 84 log;
#X obj 123 123 t b f;
#X obj 123 145 -;
#X obj 20 183 outlet;
#X obj 20 19 inlet;
#X obj 98 23 inlet;
#X obj 194 24 inlet;
#X connect 0 0 7 0;
#X connect 1 0 2 0;
#X connect 2 0 0 0;
#X connect 3 0 2 1;
#X connect 3 0 5 0;
#X connect 4 0 6 0;
#X connect 5 0 6 0;
#X connect 5 1 6 1;
#X connect 6 0 1 1;
#X connect 8 0 1 0;
#X connect 9 0 3 0;
#X connect 10 0 4 0;
#X restore 535 158 pd rh_scalelog;
#X msg 630 133 3000;
#X msg 582 134 500;
#N canvas 0 22 462 312 rh_scalelog 0;
#X obj 20 155 exp;
#X obj 20 107 *;
#X obj 20 130 +;
#X obj 98 87 log;
#X obj 194 84 log;
#X obj 123 123 t b f;
#X obj 123 145 -;
#X obj 20 183 outlet;
#X obj 20 19 inlet;
#X obj 98 23 inlet;
#X obj 194 24 inlet;
#X connect 0 0 7 0;
#X connect 1 0 2 0;
#X connect 2 0 0 0;
#X connect 3 0 2 1;
#X connect 3 0 5 0;
#X connect 4 0 6 0;
#X connect 5 0 6 0;
#X connect 5 1 6 1;
#X connect 6 0 1 1;
#X connect 8 0 1 0;
#X connect 9 0 3 0;
#X connect 10 0 4 0;
#X restore 225 70 pd rh_scalelog;
#X msg 272 46 500;
#X msg 319 45 5000;
#X obj 407 390 r \$0-hipass2;
#X obj 211 1 r \$0-hipass1;
#X obj 697 267 * 2;
#X obj 670 446 + 2;
#X obj 669 423 * 4;
#X obj 302 426 *~ 0.35;
#X obj 672 80 + 50;
#X obj 675 104 delay;
#X msg 677 126 0;
#X obj 377 79 t b b;
#X obj 381 108 delay 10;
#X obj 498 89 f;
#X obj 654 211 switch~ 1024 4 1;
#X msg 492 439 40000;
#X obj 273 18 r \$0-loadbang;
#X obj 583 105 r \$0-loadbang;
#X obj 446 412 r \$0-loadbang;
#X connect 0 0 55 0;
#X connect 1 0 2 0;
#X connect 1 0 2 1;
#X connect 2 0 17 0;
#X connect 2 0 17 1;
#X connect 3 0 36 0;
#X connect 4 0 3 0;
#X connect 5 0 13 0;
#X connect 5 0 14 0;
#X connect 5 0 15 0;
#X connect 6 0 7 0;
#X connect 6 0 7 1;
#X connect 7 0 16 0;
#X connect 7 0 16 1;
#X connect 8 0 9 0;
#X connect 8 0 9 1;
#X connect 9 0 12 0;
#X connect 9 0 12 1;
#X connect 10 0 3 0;
#X connect 11 0 3 0;
#X connect 12 0 11 1;
#X connect 13 0 4 0;
#X connect 14 0 10 0;
#X connect 15 0 11 0;
#X connect 16 0 10 1;
#X connect 17 0 4 1;
#X connect 18 1 27 0;
#X connect 18 1 26 0;
#X connect 18 1 22 0;
#X connect 19 0 5 0;
#X connect 20 0 5 0;
#X connect 22 0 28 0;
#X connect 24 0 40 0;
#X connect 25 0 58 0;
#X connect 26 0 6 0;
#X connect 27 0 1 0;
#X connect 28 0 8 0;
#X connect 29 0 13 1;
#X connect 30 0 14 1;
#X connect 31 0 15 1;
#X connect 32 0 29 0;
#X connect 32 0 30 0;
#X connect 32 0 31 0;
#X connect 34 0 3 1;
#X connect 35 0 34 1;
#X connect 36 0 51 0;
#X connect 37 0 33 0;
#X connect 38 0 48 0;
#X connect 39 0 50 0;
#X connect 40 0 22 1;
#X connect 40 0 57 1;
#X connect 41 0 40 2;
#X connect 42 0 40 1;
#X connect 43 0 5 1;
#X connect 44 0 43 1;
#X connect 45 0 43 2;
#X connect 46 0 34 0;
#X connect 47 0 43 0;
#X connect 48 0 37 0;
#X connect 49 0 23 0;
#X connect 50 0 49 0;
#X connect 51 0 21 0;
#X connect 52 0 53 0;
#X connect 53 0 54 0;
#X connect 54 0 58 0;
#X connect 55 0 56 0;
#X connect 55 1 57 0;
#X connect 55 1 25 0;
#X connect 56 0 18 0;
#X connect 57 0 52 0;
#X connect 59 0 34 2;
#X connect 60 0 44 0;
#X connect 60 0 45 0;
#X connect 61 0 42 0;
#X connect 61 0 41 0;
#X connect 62 0 35 0;
#X connect 62 0 59 0;
#X restore 6 29 pd cymbal-909;
#X msg 589 55 0.44 0.65 0.25 0.7 0.65 0.45;
#X text 147 290 ichabod@gmail.com;
#X text 136 249 originally;
#X text 128 267 by stefan "ichabod";
#X obj 589 35 t b b;
#X obj 622 87 s \$0-loadbang;
#X obj 317 141 diy-gabs \$0 a pitch;
#X obj 393 42 inlet controls;
#X obj 486 75 unpack f f f f f f;
#X obj 337 164 diy-gabs \$0 b filters;
#X obj 343 186 diy-gabs \$0 c hipass1;
#X obj 333 207 diy-gabs \$0 d hipass2;
#X obj 340 229 diy-gabs \$0 e duration;
#N canvas 629 32 778 610 rgb 0;
#X obj 296 207 * 256;
#X obj 344 180 * 256;
#X obj 346 201 * 256;
#X obj 312 270 +;
#X obj 298 228 t b f;
#X obj 312 293 +;
#X obj 346 223 t b f;
#X obj 252 186 int;
#X msg 263 68 0;
#X obj 252 163 * -1;
#X obj 296 162 * -1;
#X obj 343 158 * -1;
#X obj 103 123 vsl 10 40 1 255 0 0 ertteetyeyterttretretrrtrtrtrtrt
hhghghghghghghgggggh empty 0 -8 0 10 -4160 -262144 -1 0 0;
#X obj 115 123 vsl 10 40 1 255 0 0 ertteetyeyterttretretrrtrtrtrtrt
hhghghghghghghgggggh empty 0 -8 0 10 -4034 -262144 -1 0 0;
#X obj 127 123 vsl 10 40 1 255 0 0 ertteetyeyterttretretrrtrtrtrtrt
hhghghghghghghgggggh empty 0 -8 0 10 -258113 -262144 -1 0 0;
#X obj 252 144 int;
#X obj 293 142 int;
#X obj 342 138 int;
#X msg 344 372 color \$1 0 28;
#X obj 354 449 s \$0-diyglob;
#X connect 0 0 4 0;
#X connect 1 0 2 0;
#X connect 2 0 6 0;
#X connect 3 0 5 0;
#X connect 4 0 3 0;
#X connect 4 1 3 1;
#X connect 5 0 18 0;
#X connect 6 0 3 0;
#X connect 6 1 5 1;
#X connect 7 0 3 0;
#X connect 8 0 12 0;
#X connect 8 0 13 0;
#X connect 8 0 14 0;
#X connect 9 0 7 0;
#X connect 10 0 0 0;
#X connect 11 0 1 0;
#X connect 12 0 15 0;
#X connect 13 0 16 0;
#X connect 14 0 17 0;
#X connect 15 0 9 0;
#X connect 16 0 10 0;
#X connect 17 0 11 0;
#X connect 18 0 19 0;
#X coords 0 -1 1 1 40 70 1 100 100;
#X restore 246 318 pd rgb;
#X obj 346 113 route pitch filters hipass1 hipass2 duration;
#X obj 441 292 outlet;
#X connect 1 0 20 0;
#X connect 13 0 15 0;
#X connect 15 0 0 0;
#X connect 16 0 24 0;
#X connect 20 0 16 0;
#X connect 20 1 21 0;
#X connect 22 0 31 0;
#X connect 23 0 30 0;
#X connect 24 0 22 0;
#X connect 24 1 25 0;
#X connect 24 2 26 0;
#X connect 24 3 27 0;
#X connect 24 4 28 0;
#X connect 25 0 31 0;
#X connect 26 0 31 0;
#X connect 27 0 31 0;
#X connect 28 0 31 0;
#X connect 30 0 22 0;
#X connect 30 1 25 0;
#X connect 30 2 26 0;
#X connect 30 3 27 0;
#X connect 30 4 28 0;
#X coords 0 -1 1 1 180 89 1 100 100;
