#N canvas 149 67 987 349 10;
#X obj 9 51 outlet~;
#X obj 125 129 hsl 60 10 0 1 0 0 \$0-a \$0-ra pitch -2 -7 0 10 -4096
-262144 -355 2891 1;
#X obj 105 126 cnv 12 15 13 empty empty 0 1 6 0 12 -33289 -262144 0
;
#X text 118 40 outlet audio~;
#X obj 8 7 inlet;
#X text 112 26 inlets trigger \, control \, add \, multiply;
#N canvas 144 40 898 721 workings 0;
#X obj 242 19 vline~;
#X obj 242 40 *~;
#X obj 178 81 +~ 140;
#X obj 221 81 +~ 275;
#X obj 263 81 +~ 455;
#X obj 404 108 *~;
#X obj 382 -42 t b b;
#X obj 311 259 *~ 30;
#X obj 272 259 *~ 40;
#X obj 361 259 *~ 10;
#X obj 281 178 vcf~ 75;
#X obj 342 178 vcf~ 64;
#X obj 390 178 vcf~ 55;
#X obj 213 176 vcf~ 150;
#X obj 228 259 *~ 300;
#X obj 458 24 vline~;
#X obj 458 45 *~;
#X obj 471 70 *~;
#X msg 457 2 1 0 0 \, 0 50 1;
#X obj 406 78 lop~ 1200;
#X obj 305 81 +~ 645;
#X obj 347 81 +~ 1155;
#X obj 409 259 *~ 7;
#X obj 438 178 vcf~ 45;
#X msg 241 -3 6 1 0 \, 0 100 1;
#X obj 332 479 outlet~;
#X obj 361 -136 inlet bang;
#X obj 556 140 switch~;
#X msg 551 75 1;
#X msg 582 75 0;
#X obj 641 71 sel 0;
#X obj 362 -78 t b b b;
#N canvas 0 22 741 549 noise 0;
#X obj 260 259 +~;
#X obj 261 281 wrap~;
#X obj 260 342 -~ 0.5;
#X obj 260 322 wrap~;
#X msg 327 146 0;
#X obj 258 166 phasor~ 0.01;
#X obj 292 217 *~ 6789;
#X obj 261 302 *~ 98765;
#X obj 260 399 outlet~;
#X obj 329 122 inlet;
#X obj 261 364 *~ 2;
#X obj 258 186 *~ 10000;
#X connect 0 0 1 0;
#X connect 1 0 7 0;
#X connect 2 0 10 0;
#X connect 3 0 2 0;
#X connect 4 0 5 1;
#X connect 5 0 11 0;
#X connect 6 0 0 1;
#X connect 7 0 3 0;
#X connect 9 0 4 0;
#X connect 10 0 8 0;
#X connect 11 0 0 0;
#X connect 11 0 6 0;
#X restore 363 11 pd noise;
#X obj 366 33 *~ 9.99999e+06;
#X obj 360 56 clip~ -0.5 0.5;
#X obj 323 343 *~;
#X msg 406 304 1 5;
#X obj 406 327 vline~;
#X msg 641 14 1 0 \, 0 150;
#X obj 640 36 line 1 150;
#X obj 642 94 del 5;
#X msg 611 183 0 4;
#X obj 27 -44 * 140;
#X obj 68 -38 * 275;
#X obj 106 -28 * 455;
#X obj 148 -15 * 645;
#X obj 197 -9 * 1155;
#X obj 87 -147 r \$0-pitch;
#X obj 89 -96 + 0.4;
#X obj 87 -120 * 0.6;
#X obj 307 315 *~ 1;
#X connect 0 0 1 0;
#X connect 0 0 1 1;
#X connect 1 0 2 0;
#X connect 1 0 3 0;
#X connect 1 0 4 0;
#X connect 1 0 20 0;
#X connect 1 0 21 0;
#X connect 2 0 13 1;
#X connect 3 0 10 1;
#X connect 4 0 11 1;
#X connect 5 0 10 0;
#X connect 5 0 11 0;
#X connect 5 0 12 0;
#X connect 5 0 13 0;
#X connect 5 0 23 0;
#X connect 6 0 18 0;
#X connect 6 1 24 0;
#X connect 7 0 50 0;
#X connect 8 0 50 0;
#X connect 9 0 50 0;
#X connect 10 0 8 0;
#X connect 11 0 7 0;
#X connect 12 0 9 0;
#X connect 13 0 14 0;
#X connect 14 0 50 0;
#X connect 15 0 16 0;
#X connect 15 0 16 1;
#X connect 16 0 17 0;
#X connect 16 0 17 1;
#X connect 17 0 5 0;
#X connect 18 0 15 0;
#X connect 19 0 5 1;
#X connect 20 0 12 1;
#X connect 21 0 23 1;
#X connect 22 0 50 0;
#X connect 23 0 22 0;
#X connect 24 0 0 0;
#X connect 26 0 31 0;
#X connect 28 0 27 0;
#X connect 29 0 27 0;
#X connect 30 0 40 0;
#X connect 30 0 41 0;
#X connect 31 0 38 0;
#X connect 31 0 32 0;
#X connect 31 0 36 0;
#X connect 31 1 6 0;
#X connect 31 2 28 0;
#X connect 32 0 33 0;
#X connect 33 0 34 0;
#X connect 34 0 19 0;
#X connect 35 0 25 0;
#X connect 36 0 37 0;
#X connect 37 0 35 1;
#X connect 38 0 39 0;
#X connect 39 0 30 0;
#X connect 40 0 29 0;
#X connect 41 0 37 0;
#X connect 42 0 2 1;
#X connect 43 0 3 1;
#X connect 44 0 4 1;
#X connect 45 0 20 1;
#X connect 46 0 21 1;
#X connect 47 0 49 0;
#X connect 48 0 42 0;
#X connect 48 0 43 0;
#X connect 48 0 44 0;
#X connect 48 0 45 0;
#X connect 48 0 46 0;
#X connect 49 0 48 0;
#X connect 50 0 35 0;
#X restore 8 29 pd workings;
#X text 177 217 ichabod@gmail.com;
#X text 166 176 originally;
#X text 158 194 by stefan "ichabod";
#X obj 499 35 loadbang;
#X obj 389 49 inlet controls;
#X obj 502 57 t b b;
#X obj 528 83 s \$0-loadbang;
#X msg 505 107 0.49;
#N canvas 629 32 778 610 rgb 0;
#X obj 296 207 * 256;
#X obj 344 180 * 256;
#X obj 346 201 * 256;
#X obj 312 270 +;
#X obj 298 228 t b f;
#X obj 312 293 +;
#X obj 346 223 t b f;
#X obj 252 186 int;
#X msg 263 68 0;
#X obj 252 163 * -1;
#X obj 296 162 * -1;
#X obj 343 158 * -1;
#X obj 103 123 vsl 10 40 1 255 0 0 ertteetyeyterttretretrrtrtrtrtrt
hhghghghghghghgggggh empty 0 -8 0 10 -4160 -262144 -1 0 0;
#X obj 115 123 vsl 10 40 1 255 0 0 ertteetyeyterttretretrrtrtrtrtrt
hhghghghghghghgggggh empty 0 -8 0 10 -4034 -262144 -1 0 0;
#X obj 127 123 vsl 10 40 1 255 0 0 ertteetyeyterttretretrrtrtrtrtrt
hhghghghghghghgggggh empty 0 -8 0 10 -258113 -262144 -1 0 0;
#X obj 252 144 int;
#X obj 293 142 int;
#X obj 342 138 int;
#X msg 344 372 color \$1 0 28;
#X obj 354 449 s \$0-diyglob;
#X connect 0 0 4 0;
#X connect 1 0 2 0;
#X connect 2 0 6 0;
#X connect 3 0 5 0;
#X connect 4 0 3 0;
#X connect 4 1 3 1;
#X connect 5 0 18 0;
#X connect 6 0 3 0;
#X connect 6 1 5 1;
#X connect 7 0 3 0;
#X connect 8 0 12 0;
#X connect 8 0 13 0;
#X connect 8 0 14 0;
#X connect 9 0 7 0;
#X connect 10 0 0 0;
#X connect 11 0 1 0;
#X connect 12 0 15 0;
#X connect 13 0 16 0;
#X connect 14 0 17 0;
#X connect 15 0 9 0;
#X connect 16 0 10 0;
#X connect 17 0 11 0;
#X connect 18 0 19 0;
#X coords 0 -1 1 1 40 70 1 100 100;
#X restore 307 228 pd rgb;
#X obj 413 149 diy-gabs \$0 a pitch;
#X obj 397 189 outlet;
#X obj 367 92 route pitch;
#X connect 4 0 6 0;
#X connect 6 0 0 0;
#X connect 10 0 12 0;
#X connect 11 0 18 0;
#X connect 12 0 14 0;
#X connect 12 1 13 0;
#X connect 14 0 16 0;
#X connect 16 0 17 0;
#X connect 18 0 16 0;
#X coords 0 -1 1 1 180 44 1 100 100;
