#N canvas 143 23 971 389 10;
#X obj 9 51 outlet~;
#X obj 677 9 loadbang;
#X obj 125 129 hsl 60 10 0 1 0 0 \$0-a \$0-ra pitch -2 -7 0 10 -226452
-262144 -355 1770 1;
#X obj 125 152 hsl 60 10 0 1 0 0 \$0-c \$0-rc decay2 -2 -7 0 10 -226452
-262144 -355 4425 1;
#X obj 212 129 hsl 60 10 0 1 0 0 \$0-b \$0-rb decay1 -2 -7 0 10 -226452
-262144 -355 590 1;
#X obj 212 152 hsl 60 10 0 1 0 0 \$0-d \$0-rd vcf -2 -7 0 10 -226452
-262144 -355 1770 1;
#X obj 125 175 hsl 60 10 0 1 0 0 \$0-e \$0-re vcfQ -2 -7 0 10 -226452
-262144 -355 0 1;
#X obj 105 126 cnv 12 15 13 empty empty 0 1 6 0 12 -33289 -262144 0
;
#X obj 105 149 cnv 12 15 13 empty empty 2 1 6 0 12 -33289 -262144 0
;
#X obj 105 172 cnv 12 15 13 empty empty 4 1 6 0 12 -33289 -262144 0
;
#X obj 192 126 cnv 12 15 13 empty empty 1 1 6 0 12 -33289 -262144 0
;
#X obj 192 149 cnv 12 15 13 empty empty 3 1 6 0 12 -33289 -262144 0
;
#X text 118 40 outlet audio~;
#X obj 410 53 inlet controls;
#X obj 8 7 inlet;
#X text 112 26 inlets trigger \, control \, add \, multiply;
#N canvas 141 67 1006 527 cowbell 0;
#X obj 78 106 sig~;
#X obj 183 118 sig~;
#X obj 271 301 *~;
#X obj 328 233 vline~;
#X obj 350 133 f;
#X obj 183 169 *~ 0.5;
#X obj 182 94 * 1.44;
#X obj 326 257 *~;
#X obj 438 153 + 4;
#X msg 344 209 0 \, 1 4 \, 0.2 \$1 4 \, 0 \$2 \$3;
#X obj 345 181 pack 50 480 54;
#X obj 275 462 outlet~;
#X obj 578 278 +;
#X obj 593 236 t b f;
#X obj 578 256 f;
#X obj 557 345 delay;
#X obj 556 320 f;
#X msg 557 366 0;
#X obj 566 404 switch~;
#X obj 274 329 vcf~ 1;
#X obj 547 297 b;
#X obj 183 138 tabosc4~ \$0-cowwave;
#X msg 388 28 1;
#X obj 328 28 t b b;
#N canvas 0 22 828 515 cow-wave 0;
#X obj 242 122 f;
#X obj 270 122 + 1;
#X msg 264 91 0;
#X obj 398 223 ==;
#X obj 215 54 t b b;
#X obj 400 244 expr $f1 * 2 - 1;
#X msg 272 49 bang;
#X obj 186 294 f \$0;
#X obj 237 150 sel 256;
#X obj 281 173 expr $f1 \; if ($f1 > 104 \, 1 \, 0) \; if ($f1 > 232
\, 0 \, 1);
#X obj 310 89 f \$0;
#X obj 485 90 inlet~;
#X obj 615 98 inlet;
#X obj 543 282 outlet~;
#X obj 212 101 until;
#X msg 211 77 257;
#X obj 383 42 table \$0-cowwave 259;
#X msg 185 318 \; \$1-cowwave 100 -0.99 -0.97 -0.94 -0.9 -0.8 -0.5
0 0.5 0.8 0.9 0.94 0.97 0.99 \; \$1-cowwave 228 0.99 0.97 0.94 0.9
0.8 0.5 0 -0.5 -0.8 -0.9 -0.94 -0.97 -0.99;
#X obj 227 289 tabwrite \$0-cowwave;
#X msg 310 112 \; \$1-cowwave const -1;
#X obj 485 141 tabosc4~ \$0-cowwave;
#X obj 214 29 r \$0-loadbang;
#X connect 0 0 1 0;
#X connect 0 0 8 0;
#X connect 1 0 0 1;
#X connect 2 0 0 1;
#X connect 3 0 5 0;
#X connect 4 0 15 0;
#X connect 4 1 2 0;
#X connect 4 1 10 0;
#X connect 5 0 18 0;
#X connect 6 0 4 0;
#X connect 7 0 17 0;
#X connect 8 0 7 0;
#X connect 8 1 9 0;
#X connect 9 0 18 1;
#X connect 9 1 3 0;
#X connect 9 2 3 1;
#X connect 10 0 19 0;
#X connect 11 0 20 0;
#X connect 12 0 20 1;
#X connect 14 0 0 0;
#X connect 15 0 14 0;
#X connect 20 0 13 0;
#X connect 21 0 4 0;
#X restore 79 131 pd cow-wave;
#X obj 387 48 s \$0-cow-switch-on;
#N canvas 0 22 462 312 rh_scalelog 0;
#X obj 20 155 exp;
#X obj 20 107 *;
#X obj 20 130 +;
#X obj 98 87 log;
#X obj 194 84 log;
#X obj 123 123 t b f;
#X obj 123 145 -;
#X obj 20 183 outlet;
#X obj 20 19 inlet;
#X obj 98 23 inlet;
#X obj 194 24 inlet;
#X connect 0 0 7 0;
#X connect 1 0 2 0;
#X connect 2 0 0 0;
#X connect 3 0 2 1;
#X connect 3 0 5 0;
#X connect 4 0 6 0;
#X connect 5 0 6 0;
#X connect 5 1 6 1;
#X connect 6 0 1 1;
#X connect 8 0 1 0;
#X connect 9 0 3 0;
#X connect 10 0 4 0;
#X restore 682 94 pd rh_scalelog;
#X msg 724 73 10;
#X msg 775 68 2000;
#X obj 678 15 r \$0-decay1;
#X obj 681 119 s \$0-decayd1;
#X obj 405 76 r \$0-decayd1;
#X obj 643 304 r \$0-cow-switch-on;
#X obj 479 104 r \$0-decayd2;
#N canvas 0 22 462 312 rh_scalelog 0;
#X obj 20 155 exp;
#X obj 20 107 *;
#X obj 20 130 +;
#X obj 98 87 log;
#X obj 194 84 log;
#X obj 123 123 t b f;
#X obj 123 145 -;
#X obj 20 183 outlet;
#X obj 20 19 inlet;
#X obj 98 23 inlet;
#X obj 194 24 inlet;
#X connect 0 0 7 0;
#X connect 1 0 2 0;
#X connect 2 0 0 0;
#X connect 3 0 2 1;
#X connect 3 0 5 0;
#X connect 4 0 6 0;
#X connect 5 0 6 0;
#X connect 5 1 6 1;
#X connect 6 0 1 1;
#X connect 8 0 1 0;
#X connect 9 0 3 0;
#X connect 10 0 4 0;
#X restore 824 93 pd rh_scalelog;
#X msg 866 72 10;
#X msg 917 67 2000;
#X obj 820 14 r \$0-decay2;
#X obj 822 118 s \$0-decayd2;
#N canvas 0 22 462 312 rh_scalelog 0;
#X obj 20 155 exp;
#X obj 20 107 *;
#X obj 20 130 +;
#X obj 98 87 log;
#X obj 194 84 log;
#X obj 123 123 t b f;
#X obj 123 145 -;
#X obj 20 183 outlet;
#X obj 20 19 inlet;
#X obj 98 23 inlet;
#X obj 194 24 inlet;
#X connect 0 0 7 0;
#X connect 1 0 2 0;
#X connect 2 0 0 0;
#X connect 3 0 2 1;
#X connect 3 0 5 0;
#X connect 4 0 6 0;
#X connect 5 0 6 0;
#X connect 5 1 6 1;
#X connect 6 0 1 1;
#X connect 8 0 1 0;
#X connect 9 0 3 0;
#X connect 10 0 4 0;
#X restore 799 271 pd rh_scalelog;
#N canvas 0 22 462 312 rh_scalelog 0;
#X obj 20 155 exp;
#X obj 20 107 *;
#X obj 20 130 +;
#X obj 98 87 log;
#X obj 194 84 log;
#X obj 123 123 t b f;
#X obj 123 145 -;
#X obj 20 183 outlet;
#X obj 20 19 inlet;
#X obj 98 23 inlet;
#X obj 194 24 inlet;
#X connect 0 0 7 0;
#X connect 1 0 2 0;
#X connect 2 0 0 0;
#X connect 3 0 2 1;
#X connect 3 0 5 0;
#X connect 4 0 6 0;
#X connect 5 0 6 0;
#X connect 5 1 6 1;
#X connect 6 0 1 1;
#X connect 8 0 1 0;
#X connect 9 0 3 0;
#X connect 10 0 4 0;
#X restore 808 403 pd rh_scalelog;
#X msg 849 381 100;
#X msg 901 376 2000;
#X obj 806 428 s \$0-cowbell-vcf;
#X obj 373 256 r \$0-cowbell-vcf;
#X obj 275 351 *~ 2;
#X obj 797 296 s \$0-pitchd;
#X obj 795 191 r \$0-pitch;
#X obj 79 56 r \$0-pitchd;
#X obj 804 324 r \$0-vcf;
#X msg 892 245 10000;
#X msg 840 249 100;
#X obj 329 5 inlet;
#X obj 275 435 tanh~;
#X obj 318 358 * 2;
#X obj 376 318 * 10;
#X obj 376 341 + 1;
#X obj 375 296 r \$0-vcfQ;
#X obj 726 42 r \$0-loadbang;
#X obj 869 41 r \$0-loadbang;
#X obj 844 219 r \$0-loadbang;
#X obj 853 351 r \$0-loadbang;
#X connect 0 0 24 0;
#X connect 1 0 21 0;
#X connect 2 0 19 0;
#X connect 3 0 7 0;
#X connect 3 0 7 1;
#X connect 4 0 10 0;
#X connect 5 0 2 0;
#X connect 6 0 1 0;
#X connect 7 0 2 1;
#X connect 8 0 10 2;
#X connect 8 0 13 0;
#X connect 9 0 3 0;
#X connect 10 0 9 0;
#X connect 12 0 16 1;
#X connect 13 0 14 0;
#X connect 13 1 12 1;
#X connect 14 0 12 0;
#X connect 15 0 17 0;
#X connect 16 0 15 0;
#X connect 17 0 18 0;
#X connect 19 0 45 0;
#X connect 20 0 16 0;
#X connect 21 0 5 0;
#X connect 22 0 25 0;
#X connect 23 0 4 0;
#X connect 23 1 22 0;
#X connect 24 0 5 0;
#X connect 26 0 30 0;
#X connect 27 0 26 1;
#X connect 28 0 26 2;
#X connect 29 0 26 0;
#X connect 31 0 4 1;
#X connect 31 0 8 0;
#X connect 32 0 18 0;
#X connect 32 0 20 0;
#X connect 33 0 10 1;
#X connect 33 0 14 0;
#X connect 34 0 38 0;
#X connect 35 0 34 1;
#X connect 36 0 34 2;
#X connect 37 0 34 0;
#X connect 39 0 46 0;
#X connect 40 0 43 0;
#X connect 41 0 40 1;
#X connect 42 0 40 2;
#X connect 44 0 19 1;
#X connect 45 0 53 0;
#X connect 47 0 39 0;
#X connect 48 0 6 0;
#X connect 48 0 0 0;
#X connect 49 0 40 0;
#X connect 50 0 39 2;
#X connect 51 0 39 1;
#X connect 52 0 23 0;
#X connect 53 0 11 0;
#X connect 54 0 45 1;
#X connect 55 0 56 0;
#X connect 56 0 54 1;
#X connect 56 0 19 2;
#X connect 57 0 55 0;
#X connect 58 0 27 0;
#X connect 58 0 28 0;
#X connect 59 0 35 0;
#X connect 59 0 36 0;
#X connect 60 0 51 0;
#X connect 60 0 50 0;
#X connect 61 0 41 0;
#X connect 61 0 42 0;
#X restore 8 27 pd cowbell;
#X text 88 333 hard.off@gmail.com;
#X obj 677 30 t b b;
#X obj 714 88 s \$0-loadbang;
#X obj 421 128 diy-gabs \$0 a pitch;
#X obj 446 151 diy-gabs \$0 b decay1;
#X obj 476 174 diy-gabs \$0 c decay2;
#X obj 513 198 diy-gabs \$0 d vcf;
#X obj 580 218 diy-gabs \$0 e vcfQ;
#N canvas 629 32 778 610 rgb 0;
#X obj 296 207 * 256;
#X obj 344 180 * 256;
#X obj 346 201 * 256;
#X obj 312 270 +;
#X obj 298 228 t b f;
#X obj 312 293 +;
#X obj 346 223 t b f;
#X obj 252 186 int;
#X msg 263 68 0;
#X obj 252 163 * -1;
#X obj 296 162 * -1;
#X obj 343 158 * -1;
#X obj 103 123 vsl 10 40 1 255 0 0 ertteetyeyterttretretrrtrtrtrtrt
hhghghghghghghgggggh empty 0 -8 0 10 -4160 -262144 -1 0 0;
#X obj 115 123 vsl 10 40 1 255 0 0 ertteetyeyterttretretrrtrtrtrtrt
hhghghghghghghgggggh empty 0 -8 0 10 -4034 -262144 -1 0 0;
#X obj 127 123 vsl 10 40 1 255 0 0 ertteetyeyterttretretrrtrtrtrtrt
hhghghghghghghgggggh empty 0 -8 0 10 -258113 -262144 -1 0 0;
#X obj 252 144 int;
#X obj 293 142 int;
#X obj 342 138 int;
#X msg 344 372 color \$1 0 28;
#X obj 354 449 s \$0-diyglob;
#X connect 0 0 4 0;
#X connect 1 0 2 0;
#X connect 2 0 6 0;
#X connect 3 0 5 0;
#X connect 4 0 3 0;
#X connect 4 1 3 1;
#X connect 5 0 18 0;
#X connect 6 0 3 0;
#X connect 6 1 5 1;
#X connect 7 0 3 0;
#X connect 8 0 12 0;
#X connect 8 0 13 0;
#X connect 8 0 14 0;
#X connect 9 0 7 0;
#X connect 10 0 0 0;
#X connect 11 0 1 0;
#X connect 12 0 15 0;
#X connect 13 0 16 0;
#X connect 14 0 17 0;
#X connect 15 0 9 0;
#X connect 16 0 10 0;
#X connect 17 0 11 0;
#X connect 18 0 19 0;
#X coords 0 -1 1 1 40 70 1 100 100;
#X restore 275 264 pd rgb;
#X obj 602 75 unpack f f f f f;
#X msg 676 54 0.3 0.1 0.75 0.3 0;
#X obj 422 106 route pitch decay1 decay2 vcf vcfQ;
#X obj 456 271 outlet;
#X connect 1 0 18 0;
#X connect 13 0 28 0;
#X connect 14 0 16 0;
#X connect 16 0 0 0;
#X connect 18 0 27 0;
#X connect 18 1 19 0;
#X connect 20 0 29 0;
#X connect 21 0 29 0;
#X connect 22 0 29 0;
#X connect 23 0 29 0;
#X connect 24 0 29 0;
#X connect 26 0 20 0;
#X connect 26 1 21 0;
#X connect 26 2 22 0;
#X connect 26 3 23 0;
#X connect 26 4 24 0;
#X connect 27 0 26 0;
#X connect 28 0 20 0;
#X connect 28 1 21 0;
#X connect 28 2 22 0;
#X connect 28 3 23 0;
#X connect 28 4 24 0;
#X coords 0 -1 1 1 180 89 1 100 100;
