#N canvas 22 77 1240 459 10;
#X obj 9 51 outlet~;
#X obj 953 65 loadbang;
#X obj 125 129 hsl 60 10 0 1 0 0 \$0-a \$0-ra pitch -2 -7 0 10 -4032
-262144 -355 2655 1;
#X obj 125 152 hsl 60 10 0 1 0 0 \$0-c \$0-rc ratioB -2 -7 0 10 -4032
-262144 -355 5310 1;
#X obj 212 129 hsl 60 10 0 1 0 0 \$0-b \$0-rb ratioA -2 -7 0 10 -4032
-262144 -355 5900 1;
#X obj 212 152 hsl 60 10 0 1 0 0 \$0-d \$0-rd noise -2 -7 0 10 -4032
-262144 -355 3540 1;
#X obj 125 175 hsl 60 10 0 1 0 0 \$0-e \$0-re noisepitch -2 -7 0 10
-4032 -262144 -355 3245 1;
#X obj 125 198 hsl 60 10 0 1 0 0 \$0-g \$0-rg attack -2 -7 0 10 -4032
-262144 -355 2360 1;
#X obj 212 175 hsl 60 10 0 1 0 0 \$0-f \$0-rf snap -2 -7 0 10 -4032
-262144 -355 590 1;
#X obj 212 198 hsl 60 10 0 1 0 0 \$0-h \$0-rh release -2 -7 0 10 -4032
-262144 -355 3245 1;
#X obj 125 221 hsl 60 10 0 1 0 0 \$0-i \$0-ri filter -2 -7 0 10 -4032
-262144 -355 4130 1;
#X obj 125 244 hsl 60 10 0 1 0 0 \$0-k \$0-rk lowpass -2 -7 0 10 -4032
-262144 -355 4720 1;
#X obj 212 221 hsl 60 10 0 1 0 0 \$0-j \$0-rj filterQ -2 -7 0 10 -4032
-262144 -355 3540 1;
#X obj 105 126 cnv 12 15 13 empty empty 0 1 6 0 12 -33289 -262144 0
;
#X obj 105 149 cnv 12 15 13 empty empty 2 1 6 0 12 -33289 -262144 0
;
#X obj 105 172 cnv 12 15 13 empty empty 4 1 6 0 12 -33289 -262144 0
;
#X obj 105 195 cnv 12 15 13 empty empty 6 1 6 0 12 -33289 -262144 0
;
#X obj 105 218 cnv 12 15 13 empty empty 8 1 6 0 12 -33289 -262144 0
;
#X obj 105 241 cnv 12 15 13 empty empty 10 1 6 0 12 -33289 -262144
0;
#X obj 192 126 cnv 12 15 13 empty empty 1 1 6 0 12 -33289 -262144 0
;
#X obj 192 149 cnv 12 15 13 empty empty 3 1 6 0 12 -33289 -262144 0
;
#X obj 192 172 cnv 12 15 13 empty empty 5 1 6 0 12 -33289 -262144 0
;
#X obj 192 195 cnv 12 15 13 empty empty 7 1 6 0 12 -33289 -262144 0
;
#X obj 192 218 cnv 12 15 13 empty empty 9 1 6 0 12 -33289 -262144 0
;
#X text 118 40 outlet audio~;
#X obj 8 7 inlet;
#X text 112 26 inlets trigger \, control \, add \, multiply;
#X obj 953 88 t b b;
#N canvas 157 34 799 710 hihat 0;
#X obj 92 617 outlet~;
#X obj 38 444 hip~ 3700;
#X obj 89 519 *~;
#X obj 94 491 hip~;
#N canvas 0 22 832 517 3-detuned-squares 0;
#X obj 34 86 *~ 10000;
#X obj 34 64 osc~ 1047;
#X obj 193 87 *~ 10000;
#X obj 193 65 osc~ 1109;
#X obj 349 77 *~ 10000;
#X obj 350 56 osc~ 1397;
#X obj 187 268 outlet~;
#X obj 441 17 inlet;
#X obj 41 125 clip~ -1 1;
#X obj 196 121 clip~ -1 1;
#X obj 348 115 clip~ -1 1;
#X obj 41 25 inlet~;
#X obj 199 25 inlet~;
#X obj 357 15 inlet~;
#X connect 0 0 8 0;
#X connect 1 0 0 0;
#X connect 2 0 9 0;
#X connect 3 0 2 0;
#X connect 4 0 10 0;
#X connect 5 0 4 0;
#X connect 7 0 1 1;
#X connect 7 0 3 1;
#X connect 7 0 5 1;
#X connect 8 0 6 0;
#X connect 9 0 6 0;
#X connect 10 0 6 0;
#X connect 11 0 1 0;
#X connect 12 0 3 0;
#X connect 13 0 5 0;
#X restore 41 148 pd 3-detuned-squares;
#X obj 310 202 line;
#X msg 362 177 0 370;
#X msg 298 179 0 \, 1 21;
#X obj 430 317 vline~;
#X obj 425 177 f;
#X obj 396 373 *~;
#X msg 418 211 0 \, 1 \$1;
#X obj 498 195 pack 0 0 0;
#X msg 476 233 1 \, 0 \$3 \$2;
#X obj 325 139 delay 10;
#X obj 312 226 * 5650;
#X obj 505 537 switch~;
#X obj 470 482 delay;
#X msg 471 506 0;
#X obj 472 459 f;
#X msg 435 508 1;
#X obj 415 423 t b;
#X obj 536 321 f;
#X obj 572 292 t b f;
#X obj 536 357 +;
#X obj 413 402 r \$0-hit-hat;
#X msg 641 46 1;
#X obj 611 90 s \$0-hit-hat;
#X obj 612 7 t b b;
#X obj 85 541 lop~ 3000;
#X obj 261 355 f 4000;
#X msg 260 385 \$1 \, 44000 100;
#X obj 130 470 line;
#X obj 43 326 *~;
#X msg 281 101 0;
#X obj 639 69 s \$0-hat-switch-on;
#X obj 506 513 r \$0-hat-switch-on;
#X obj 310 45 r \$0-hit-hat;
#X obj 602 135 r \$0-release;
#X obj 299 280 r \$0-snap;
#X obj 123 254 r \$0-filter;
#X obj 114 234 r \$0-noise;
#N canvas 0 22 462 312 rh_scalelog 0;
#X obj 20 155 exp;
#X obj 20 107 *;
#X obj 20 130 +;
#X obj 98 87 log;
#X obj 194 84 log;
#X obj 123 123 t b f;
#X obj 123 145 -;
#X obj 20 183 outlet;
#X obj 20 19 inlet;
#X obj 98 23 inlet;
#X obj 194 24 inlet;
#X connect 0 0 7 0;
#X connect 1 0 2 0;
#X connect 2 0 0 0;
#X connect 3 0 2 1;
#X connect 3 0 5 0;
#X connect 4 0 6 0;
#X connect 5 0 6 0;
#X connect 5 1 6 1;
#X connect 6 0 1 1;
#X connect 8 0 1 0;
#X connect 9 0 3 0;
#X connect 10 0 4 0;
#X restore 605 210 pd rh_scalelog;
#X msg 652 186 1;
#X msg 698 185 10000;
#N canvas 0 22 462 312 rh_scalelog 0;
#X obj 20 155 exp;
#X obj 20 107 *;
#X obj 20 130 +;
#X obj 98 87 log;
#X obj 194 84 log;
#X obj 123 123 t b f;
#X obj 123 145 -;
#X obj 20 183 outlet;
#X obj 20 19 inlet;
#X obj 98 23 inlet;
#X obj 194 24 inlet;
#X connect 0 0 7 0;
#X connect 1 0 2 0;
#X connect 2 0 0 0;
#X connect 3 0 2 1;
#X connect 3 0 5 0;
#X connect 4 0 6 0;
#X connect 5 0 6 0;
#X connect 5 1 6 1;
#X connect 6 0 1 1;
#X connect 8 0 1 0;
#X connect 9 0 3 0;
#X connect 10 0 4 0;
#X restore 466 87 pd rh_scalelog;
#X msg 513 63 1;
#N canvas 0 22 462 312 rh_scalelog 0;
#X obj 20 155 exp;
#X obj 20 107 *;
#X obj 20 130 +;
#X obj 98 87 log;
#X obj 194 84 log;
#X obj 123 123 t b f;
#X obj 123 145 -;
#X obj 20 183 outlet;
#X obj 20 19 inlet;
#X obj 98 23 inlet;
#X obj 194 24 inlet;
#X connect 0 0 7 0;
#X connect 1 0 2 0;
#X connect 2 0 0 0;
#X connect 3 0 2 1;
#X connect 3 0 5 0;
#X connect 4 0 6 0;
#X connect 5 0 6 0;
#X connect 5 1 6 1;
#X connect 6 0 1 1;
#X connect 8 0 1 0;
#X connect 9 0 3 0;
#X connect 10 0 4 0;
#X restore 309 624 pd rh_scalelog;
#X obj 328 553 r \$0-lowpass;
#X obj 455 14 r \$0-attack;
#X obj 470 114 + 1;
#N canvas 0 22 462 312 rh_scalelog 0;
#X obj 20 155 exp;
#X obj 20 107 *;
#X obj 20 130 +;
#X obj 98 87 log;
#X obj 194 84 log;
#X obj 123 123 t b f;
#X obj 123 145 -;
#X obj 20 183 outlet;
#X obj 20 19 inlet;
#X obj 98 23 inlet;
#X obj 194 24 inlet;
#X connect 0 0 7 0;
#X connect 1 0 2 0;
#X connect 2 0 0 0;
#X connect 3 0 2 1;
#X connect 3 0 5 0;
#X connect 4 0 6 0;
#X connect 5 0 6 0;
#X connect 5 1 6 1;
#X connect 6 0 1 1;
#X connect 8 0 1 0;
#X connect 9 0 3 0;
#X connect 10 0 4 0;
#X restore 70 324 pd rh_scalelog;
#X msg 165 299 20000;
#X obj 24 388 bp~ 10000 1;
#X obj 22 412 bp~ 10000 0.5;
#X msg 355 600 100;
#X msg 402 598 20000;
#X obj 311 68 t b b;
#N canvas 0 22 462 312 rh_scalelog 0;
#X obj 20 155 exp;
#X obj 20 107 *;
#X obj 20 130 +;
#X obj 98 87 log;
#X obj 194 84 log;
#X obj 123 123 t b f;
#X obj 123 145 -;
#X obj 20 183 outlet;
#X obj 20 19 inlet;
#X obj 98 23 inlet;
#X obj 194 24 inlet;
#X connect 0 0 7 0;
#X connect 1 0 2 0;
#X connect 2 0 0 0;
#X connect 3 0 2 1;
#X connect 3 0 5 0;
#X connect 4 0 6 0;
#X connect 5 0 6 0;
#X connect 5 1 6 1;
#X connect 6 0 1 1;
#X connect 8 0 1 0;
#X connect 9 0 3 0;
#X connect 10 0 4 0;
#X restore 113 412 pd rh_scalelog;
#X msg 208 387 10;
#N canvas 0 22 462 312 rh_scalelog 0;
#X obj 20 155 exp;
#X obj 20 107 *;
#X obj 20 130 +;
#X obj 98 87 log;
#X obj 194 84 log;
#X obj 123 123 t b f;
#X obj 123 145 -;
#X obj 20 183 outlet;
#X obj 20 19 inlet;
#X obj 98 23 inlet;
#X obj 194 24 inlet;
#X connect 0 0 7 0;
#X connect 1 0 2 0;
#X connect 2 0 0 0;
#X connect 3 0 2 1;
#X connect 3 0 5 0;
#X connect 4 0 6 0;
#X connect 5 0 6 0;
#X connect 5 1 6 1;
#X connect 6 0 1 1;
#X connect 8 0 1 0;
#X connect 9 0 3 0;
#X connect 10 0 4 0;
#X restore 313 307 pd rh_scalelog;
#X msg 408 282 20000;
#X obj 72 -30 r \$0-pitch;
#X msg 560 62 1000;
#X msg 361 283 1000;
#N canvas 0 22 466 316 rh_scalelog 0;
#X obj 20 155 exp;
#X obj 20 107 *;
#X obj 20 130 +;
#X obj 98 87 log;
#X obj 194 84 log;
#X obj 123 123 t b f;
#X obj 123 145 -;
#X obj 20 183 outlet;
#X obj 20 19 inlet;
#X obj 98 23 inlet;
#X obj 194 24 inlet;
#X connect 0 0 7 0;
#X connect 1 0 2 0;
#X connect 2 0 0 0;
#X connect 3 0 2 1;
#X connect 3 0 5 0;
#X connect 4 0 6 0;
#X connect 5 0 6 0;
#X connect 5 1 6 1;
#X connect 6 0 1 1;
#X connect 8 0 1 0;
#X connect 9 0 3 0;
#X connect 10 0 4 0;
#X restore 109 23 pd rh_scalelog;
#X msg 161 386 3;
#X msg 117 299 1000;
#N canvas 0 22 466 316 rh_scalelog 0;
#X obj 20 155 exp;
#X obj 20 107 *;
#X obj 20 130 +;
#X obj 98 87 log;
#X obj 194 84 log;
#X obj 123 123 t b f;
#X obj 123 145 -;
#X obj 20 183 outlet;
#X obj 20 19 inlet;
#X obj 98 23 inlet;
#X obj 194 24 inlet;
#X connect 0 0 7 0;
#X connect 1 0 2 0;
#X connect 2 0 0 0;
#X connect 3 0 2 1;
#X connect 3 0 5 0;
#X connect 4 0 6 0;
#X connect 5 0 6 0;
#X connect 5 1 6 1;
#X connect 6 0 1 1;
#X connect 8 0 1 0;
#X connect 9 0 3 0;
#X connect 10 0 4 0;
#X restore 85 193 pd rh_scalelog;
#X msg 202 182 100;
#X msg 204 162 0.1;
#X obj 88 171 r \$0-noisepitch;
#X obj 66 214 tabosc4~ \$0-hatnoise;
#X obj 613 -14 inlet;
#X obj 147 47 r \$0-ratioA;
#X obj 206 70 r \$0-ratioB;
#X obj 112 341 r \$0-filterQ;
#X obj 93 596 tanh~;
#X obj 120 86 *~;
#X obj 108 53 sig~;
#X obj 150 94 *~;
#X obj 40 168 *~ 0.5;
#X obj 148 67 + 1;
#X obj 206 89 + 1;
#X obj 653 158 r \$0-loadbang;
#X obj 360 255 r \$0-loadbang;
#X obj 175 359 r \$0-loadbang;
#X obj 136 274 r \$0-loadbang;
#X obj 187 132 r \$0-loadbang;
#X obj 169 -27 r \$0-loadbang;
#X obj 371 574 r \$0-loadbang;
#X obj 518 35 r \$0-loadbang;
#X msg 155 -3 200;
#X msg 204 -2 1000;
#X connect 1 0 3 0;
#X connect 2 0 29 0;
#X connect 3 0 2 0;
#X connect 4 0 81 0;
#X connect 5 0 15 0;
#X connect 6 0 5 0;
#X connect 7 0 5 0;
#X connect 8 0 10 0;
#X connect 8 0 10 1;
#X connect 9 0 11 0;
#X connect 10 0 2 1;
#X connect 11 0 8 0;
#X connect 12 0 13 0;
#X connect 13 0 8 0;
#X connect 14 0 6 0;
#X connect 15 0 1 1;
#X connect 17 0 18 0;
#X connect 18 0 16 0;
#X connect 19 0 17 0;
#X connect 20 0 16 0;
#X connect 21 0 19 0;
#X connect 21 0 20 0;
#X connect 22 0 24 0;
#X connect 23 0 22 0;
#X connect 23 1 24 1;
#X connect 24 0 19 1;
#X connect 25 0 21 0;
#X connect 26 0 35 0;
#X connect 28 0 27 0;
#X connect 28 1 26 0;
#X connect 29 0 77 0;
#X connect 30 0 31 0;
#X connect 31 0 32 0;
#X connect 32 0 3 1;
#X connect 33 0 53 0;
#X connect 34 0 4 3;
#X connect 36 0 16 0;
#X connect 37 0 57 0;
#X connect 38 0 42 0;
#X connect 39 0 60 0;
#X connect 40 0 51 0;
#X connect 41 0 33 1;
#X connect 42 0 12 2;
#X connect 42 0 22 0;
#X connect 43 0 42 1;
#X connect 44 0 42 2;
#X connect 45 0 50 0;
#X connect 46 0 45 1;
#X connect 47 0 29 1;
#X connect 48 0 47 0;
#X connect 49 0 45 0;
#X connect 50 0 9 1;
#X connect 50 0 12 1;
#X connect 50 0 23 0;
#X connect 51 0 53 1;
#X connect 51 0 54 1;
#X connect 52 0 51 2;
#X connect 53 0 54 0;
#X connect 54 0 1 0;
#X connect 55 0 47 1;
#X connect 56 0 47 2;
#X connect 57 0 7 0;
#X connect 57 0 12 0;
#X connect 57 0 14 0;
#X connect 57 0 30 0;
#X connect 57 0 34 0;
#X connect 57 1 9 0;
#X connect 58 0 53 2;
#X connect 59 0 58 2;
#X connect 60 0 30 1;
#X connect 61 0 60 2;
#X connect 62 0 65 0;
#X connect 63 0 45 2;
#X connect 64 0 60 1;
#X connect 65 0 79 0;
#X connect 66 0 58 1;
#X connect 67 0 51 1;
#X connect 68 0 72 0;
#X connect 69 0 68 2;
#X connect 70 0 68 1;
#X connect 71 0 68 0;
#X connect 72 0 33 0;
#X connect 73 0 28 0;
#X connect 74 0 82 0;
#X connect 75 0 83 0;
#X connect 76 0 58 0;
#X connect 77 0 0 0;
#X connect 78 0 4 1;
#X connect 79 0 78 0;
#X connect 79 0 4 0;
#X connect 79 0 80 0;
#X connect 80 0 4 2;
#X connect 81 0 53 0;
#X connect 82 0 78 1;
#X connect 83 0 80 1;
#X connect 84 0 43 0;
#X connect 84 0 44 0;
#X connect 85 0 64 0;
#X connect 85 0 61 0;
#X connect 86 0 66 0;
#X connect 86 0 59 0;
#X connect 87 0 67 0;
#X connect 87 0 52 0;
#X connect 88 0 70 0;
#X connect 88 0 69 0;
#X connect 89 0 92 0;
#X connect 89 0 93 0;
#X connect 90 0 55 0;
#X connect 90 0 56 0;
#X connect 91 0 46 0;
#X connect 91 0 63 0;
#X connect 92 0 65 1;
#X connect 93 0 65 2;
#X restore 10 28 pd hihat;
#N canvas 0 22 414 354 makenoise 0;
#X obj 183 77 until;
#X msg 185 55 8195;
#X obj 182 105 f;
#X obj 211 104 + 1;
#X obj 182 129 t f b;
#X obj 208 153 random 20000;
#X obj 208 178 / 10000;
#X obj 209 204 - 1;
#X obj 175 237 pack 0 0;
#X obj 175 262 s \$0-hatnoise;
#X obj 72 314 table \$0-hatnoise 8195;
#X msg 223 75 0;
#X obj 183 28 r \$0-loadbang;
#X connect 0 0 2 0;
#X connect 1 0 0 0;
#X connect 2 0 3 0;
#X connect 2 0 4 0;
#X connect 3 0 2 1;
#X connect 4 0 8 0;
#X connect 4 1 5 0;
#X connect 5 0 6 0;
#X connect 6 0 7 0;
#X connect 7 0 8 1;
#X connect 8 0 9 0;
#X connect 11 0 2 1;
#X connect 12 0 1 0;
#X restore 64 64 pd makenoise;
#X obj 987 117 s \$0-loadbang;
#N canvas 629 32 778 610 rgb 0;
#X obj 296 207 * 256;
#X obj 344 180 * 256;
#X obj 346 201 * 256;
#X obj 312 270 +;
#X obj 298 228 t b f;
#X obj 312 293 +;
#X obj 346 223 t b f;
#X obj 252 186 int;
#X msg 263 68 0;
#X obj 252 163 * -1;
#X obj 296 162 * -1;
#X obj 343 158 * -1;
#X obj 103 123 vsl 10 40 1 255 0 0 ertteetyeyterttretretrrtrtrtrtrt
hhghghghghghghgggggh empty 0 -8 0 10 -4160 -262144 -1 0 0;
#X obj 115 123 vsl 10 40 1 255 0 0 ertteetyeyterttretretrrtrtrtrtrt
hhghghghghghghgggggh empty 0 -8 0 10 -4034 -262144 -1 0 0;
#X obj 127 123 vsl 10 40 1 255 0 0 ertteetyeyterttretretrrtrtrtrtrt
hhghghghghghghgggggh empty 0 -8 0 10 -258113 -262144 -1 0 0;
#X obj 252 144 int;
#X obj 293 142 int;
#X obj 342 138 int;
#X msg 344 372 color \$1 0 28;
#X obj 354 449 s \$0-diyglob;
#X connect 0 0 4 0;
#X connect 1 0 2 0;
#X connect 2 0 6 0;
#X connect 3 0 5 0;
#X connect 4 0 3 0;
#X connect 4 1 3 1;
#X connect 5 0 18 0;
#X connect 6 0 3 0;
#X connect 6 1 5 1;
#X connect 7 0 3 0;
#X connect 8 0 12 0;
#X connect 8 0 13 0;
#X connect 8 0 14 0;
#X connect 9 0 7 0;
#X connect 10 0 0 0;
#X connect 11 0 1 0;
#X connect 12 0 15 0;
#X connect 13 0 16 0;
#X connect 14 0 17 0;
#X connect 15 0 9 0;
#X connect 16 0 10 0;
#X connect 17 0 11 0;
#X connect 18 0 19 0;
#X coords 0 -1 1 1 40 70 1 100 100;
#X restore 297 218 pd rgb;
#X obj 341 98 diy-gabs \$0 a pitch;
#X obj 351 128 diy-gabs \$0 b ratioA;
#X obj 380 172 diy-gabs \$0 d noise;
#X obj 367 150 diy-gabs \$0 c ratioB;
#X obj 395 194 diy-gabs \$0 e noisepitch;
#X obj 407 220 diy-gabs \$0 f snap;
#X obj 420 244 diy-gabs \$0 g attack;
#X obj 436 264 diy-gabs \$0 h release;
#X obj 448 285 diy-gabs \$0 i filter;
#X obj 670 114 diy-gabs \$0 j filterQ;
#X obj 698 133 diy-gabs \$0 k lowpass;
#X msg 905 146 0.45 1 0.9 0.6 0.55 0.1 0.4 0.55 0.7 0.6 0.8;
#X obj 480 8 inlet controls;
#X obj 890 178 unpack f f f f f f f f f f f;
#X obj 384 325 outlet;
#X obj 472 57 route pitch ratioA ratioB noise noisepitch snap attack
release filter filterQ lowpass;
#X connect 1 0 27 0;
#X connect 25 0 28 0;
#X connect 27 0 43 0;
#X connect 27 1 30 0;
#X connect 28 0 0 0;
#X connect 32 0 46 0;
#X connect 33 0 46 0;
#X connect 34 0 46 0;
#X connect 35 0 46 0;
#X connect 36 0 46 0;
#X connect 37 0 46 0;
#X connect 38 0 46 0;
#X connect 39 0 46 0;
#X connect 40 0 46 0;
#X connect 41 0 46 0;
#X connect 42 0 46 0;
#X connect 43 0 45 0;
#X connect 44 0 47 0;
#X connect 45 0 32 0;
#X connect 45 1 33 0;
#X connect 45 2 35 0;
#X connect 45 3 34 0;
#X connect 45 4 36 0;
#X connect 45 5 37 0;
#X connect 45 6 38 0;
#X connect 45 7 39 0;
#X connect 45 8 40 0;
#X connect 45 9 41 0;
#X connect 45 10 42 0;
#X connect 47 0 32 0;
#X connect 47 1 33 0;
#X connect 47 2 35 0;
#X connect 47 3 34 0;
#X connect 47 4 36 0;
#X connect 47 5 37 0;
#X connect 47 6 38 0;
#X connect 47 7 39 0;
#X connect 47 8 40 0;
#X connect 47 9 41 0;
#X connect 47 10 42 0;
#X coords 0 -1 1 1 180 158 1 100 100;
