#N canvas 23 35 1206 470 10;
#X obj 9 51 outlet~;
#X obj 893 37 loadbang;
#X obj 125 129 hsl 60 10 0 1 0 0 \$0-a \$0-ra pitch -2 -7 0 10 -64
-262144 -355 2891 1;
#X obj 125 152 hsl 60 10 0 1 0 0 \$0-c \$0-rc bandpass -2 -7 0 10 -64
-262144 -355 4130 1;
#X obj 212 129 hsl 60 10 0 1 0 0 \$0-b \$0-rb noise -2 -7 0 10 -64
-262144 -355 4720 1;
#X obj 212 152 hsl 60 10 0 1 0 0 \$0-d \$0-rd bandpassQ -2 -7 0 10
-64 -262144 -355 3540 1;
#X obj 125 175 hsl 60 10 0 1 0 0 \$0-e \$0-re decay -2 -7 0 10 -64
-262144 -355 3245 1;
#X obj 125 198 hsl 60 10 0 1 0 0 \$0-g \$0-rg attack -2 -7 0 10 -64
-262144 -355 3245 1;
#X obj 212 175 hsl 60 10 0 1 0 0 \$0-f \$0-rf bodyDecay -2 -7 0 10
-64 -262144 -355 2478 1;
#X obj 212 198 hsl 60 10 0 1 0 0 \$0-h \$0-rh lowpass -2 -7 0 10 -64
-262144 -355 3540 1;
#X obj 125 221 hsl 60 10 0 1 0 0 \$0-i \$0-ri xfade -2 -7 0 10 -64
-262144 -355 2065 1;
#X obj 212 221 hsl 60 10 0 1 0 0 \$0-j \$0-rj gain -2 -7 0 10 -64 -262144
-355 2655 1;
#X obj 105 126 cnv 12 15 13 empty empty 0 1 6 0 12 -33289 -262144 0
;
#X obj 105 149 cnv 12 15 13 empty empty 2 1 6 0 12 -33289 -262144 0
;
#X obj 105 172 cnv 12 15 13 empty empty 4 1 6 0 12 -33289 -262144 0
;
#X obj 105 195 cnv 12 15 13 empty empty 6 1 6 0 12 -33289 -262144 0
;
#X obj 105 218 cnv 12 15 13 empty empty 8 1 6 0 12 -33289 -262144 0
;
#X obj 192 126 cnv 12 15 13 empty empty 1 1 6 0 12 -33289 -262144 0
;
#X obj 192 149 cnv 12 15 13 empty empty 3 1 6 0 12 -33289 -262144 0
;
#X obj 192 172 cnv 12 15 13 empty empty 5 1 6 0 12 -33289 -262144 0
;
#X obj 192 195 cnv 12 15 13 empty empty 7 1 6 0 12 -33289 -262144 0
;
#X obj 192 218 cnv 12 15 13 empty empty 9 1 6 0 12 -33289 -262144 0
;
#X text 118 40 outlet audio~;
#X obj 8 7 inlet;
#X text 112 26 inlets trigger \, control \, add \, multiply;
#X obj 893 60 t b b;
#N canvas 212 32 936 701 snare 0;
#X obj 250 564 outlet~;
#X obj 41 384 *~;
#X obj 51 267 lop~;
#X obj 256 457 +~;
#X obj 135 230 r \$0-hit-snare;
#X obj 624 291 switch~;
#X obj 625 109 +;
#X obj 622 84 f;
#X obj 633 51 t b f;
#X obj 589 236 delay;
#X msg 590 260 0;
#N canvas 0 22 718 566 vead~ 0;
#X obj 158 65 max 0.1;
#X obj 258 65 max 0.1;
#X text 156 22 attack (ms);
#X text 256 22 decay (ms);
#X text 86 22 trigger;
#X obj 87 45 inlet;
#X obj 158 45 inlet;
#X obj 258 45 inlet;
#X obj 144 467 outlet~;
#X obj 87 65 b;
#X obj 93 222 pack 3 4;
#X obj 87 195 f 3;
#X obj 281 314 vline~;
#X text 137 299 attack;
#X text 334 294 decay;
#X obj 89 333 tabread~ \$0-ead;
#X obj 90 302 vline~;
#X msg 87 261 1000 \, 0 \$1 0 \, 1000 0 \$1;
#X msg 281 261 0 \, 1000 0 \$1 \, 0 \$2 \$1;
#X obj 87 359 *~ -1;
#X obj 89 386 +~ 1;
#X obj 284 340 tabread~ \$0-ead;
#X connect 0 0 11 1;
#X connect 1 0 10 1;
#X connect 5 0 9 0;
#X connect 6 0 0 0;
#X connect 7 0 1 0;
#X connect 9 0 11 0;
#X connect 10 0 17 0;
#X connect 10 0 18 0;
#X connect 11 0 10 0;
#X connect 12 0 21 0;
#X connect 15 0 19 0;
#X connect 16 0 15 0;
#X connect 17 0 16 0;
#X connect 18 0 12 0;
#X connect 19 0 20 0;
#X connect 20 0 8 0;
#X connect 21 0 8 0;
#X restore 136 299 pd vead~;
#X obj 314 120 osc~ 330;
#X obj 376 119 osc~ 180;
#X obj 348 215 +~;
#X obj 339 343 *~;
#X obj 317 96 * 330;
#X obj 387 93 * 180;
#X obj 386 191 r \$0-hit-snare;
#N canvas 350 119 887 581 vead~ 0;
#X obj 281 314 vline~;
#X text 156 22 attack (ms);
#X text 256 22 decay (ms);
#X text 86 22 trigger;
#X obj 87 45 inlet;
#X obj 158 45 inlet;
#X obj 258 45 inlet;
#X obj 144 467 outlet~;
#X text 133 301 attack;
#X text 324 314 decay;
#X obj 87 195 f 3;
#X obj 582 240 expr pow($f1 \, 6);
#X obj 577 203 / 1000;
#X obj 539 146 f;
#X obj 566 148 + 1;
#X obj 539 124 until;
#X msg 577 118 0;
#X obj 539 68 t f b;
#X obj 538 181 t f f;
#X obj 671 149 table \$0-ead 1000;
#X obj 542 348 s \$0-ead;
#X obj 534 301 pack 0 0;
#X msg 538 36 1000;
#X obj 90 302 vline~;
#X msg 87 261 1000 \, 0 \$1 0 \, 1000 0 \$1;
#X msg 280 261 0 \, 1000 0 \$1 \, 0 \$2 \$1;
#X obj 87 359 *~ -1;
#X obj 89 386 +~ 1;
#X obj 87 215 pack 50 100;
#X obj 258 65 max 10;
#X obj 158 65 max 1;
#X obj 284 340 tabread4~ \$0-ead;
#X obj 89 332 tabread4~ \$0-ead;
#X obj 434 263 +;
#X msg 404 339 0 5;
#X obj 403 373 vline~;
#X obj 140 435 *~;
#X msg 435 338 1 1;
#X obj 87 65 t b b;
#X obj 418 305 delay 100;
#X obj 376 289 t b;
#X obj 368 143 t b f;
#X obj 537 13 r \$0-loadbang;
#X connect 0 0 31 0;
#X connect 4 0 38 0;
#X connect 5 0 30 0;
#X connect 6 0 29 0;
#X connect 10 0 28 0;
#X connect 11 0 21 1;
#X connect 12 0 11 0;
#X connect 13 0 14 0;
#X connect 13 0 18 0;
#X connect 14 0 13 1;
#X connect 15 0 13 0;
#X connect 16 0 13 1;
#X connect 17 0 15 0;
#X connect 17 1 16 0;
#X connect 18 0 21 0;
#X connect 18 1 12 0;
#X connect 21 0 20 0;
#X connect 22 0 17 0;
#X connect 23 0 32 0;
#X connect 24 0 23 0;
#X connect 25 0 0 0;
#X connect 26 0 27 0;
#X connect 27 0 36 0;
#X connect 28 0 25 0;
#X connect 28 0 24 0;
#X connect 29 0 28 1;
#X connect 29 0 41 0;
#X connect 30 0 10 1;
#X connect 30 0 33 0;
#X connect 31 0 36 0;
#X connect 32 0 26 0;
#X connect 33 0 39 1;
#X connect 34 0 35 0;
#X connect 35 0 36 1;
#X connect 36 0 7 0;
#X connect 37 0 35 0;
#X connect 38 0 10 0;
#X connect 38 1 40 0;
#X connect 39 0 34 0;
#X connect 40 0 39 0;
#X connect 40 0 37 0;
#X connect 41 0 33 0;
#X connect 41 1 33 1;
#X connect 42 0 22 0;
#X restore 386 279 pd vead~;
#X obj 531 152 r \$0-hit-snare;
#X obj 591 213 f;
#X msg 554 262 1;
#X obj 534 177 t b;
#X obj 55 302 bp~ 6000 4;
#X obj 92 362 *~;
#X obj 1 137 expr (($f1 / 100) + 1) * $f2;
#X obj 1 118 f;
#X obj 207 76 t b f;
#X obj 72 241 *;
#X obj 72 219 f;
#X obj 129 188 t b f;
#X text 726 140 decay;
#X text 725 131 body;
#X obj 646 172 +;
#X obj 645 142 f;
#X obj 684 136 t b f;
#X obj 0 165 tabosc4~ \$0-snarenoise;
#X obj 58 37 s \$0-hit-snare;
#X msg 102 -4 1;
#X obj 57 -24 t b b;
#X obj 323 33 r \$0-pitch;
#X obj 104 18 s \$0-switch-on;
#X obj 627 269 r \$0-switch-on;
#X obj 460 -39 r \$0-attack;
#N canvas 0 22 462 312 rh_scalelog 0;
#X obj 20 155 exp;
#X obj 20 107 *;
#X obj 20 130 +;
#X obj 98 87 log;
#X obj 194 84 log;
#X obj 123 123 t b f;
#X obj 123 145 -;
#X obj 20 183 outlet;
#X obj 20 19 inlet;
#X obj 98 23 inlet;
#X obj 194 24 inlet;
#X connect 0 0 7 0;
#X connect 1 0 2 0;
#X connect 2 0 0 0;
#X connect 3 0 2 1;
#X connect 3 0 5 0;
#X connect 4 0 6 0;
#X connect 5 0 6 0;
#X connect 5 1 6 1;
#X connect 6 0 1 1;
#X connect 8 0 1 0;
#X connect 9 0 3 0;
#X connect 10 0 4 0;
#X restore 465 33 pd rh_scalelog;
#X msg 512 9 1;
#X msg 556 7 100;
#N canvas 0 22 462 312 rh_scalelog 0;
#X obj 20 155 exp;
#X obj 20 107 *;
#X obj 20 130 +;
#X obj 98 87 log;
#X obj 194 84 log;
#X obj 123 123 t b f;
#X obj 123 145 -;
#X obj 20 183 outlet;
#X obj 20 19 inlet;
#X obj 98 23 inlet;
#X obj 194 24 inlet;
#X connect 0 0 7 0;
#X connect 1 0 2 0;
#X connect 2 0 0 0;
#X connect 3 0 2 1;
#X connect 3 0 5 0;
#X connect 4 0 6 0;
#X connect 5 0 6 0;
#X connect 5 1 6 1;
#X connect 6 0 1 1;
#X connect 8 0 1 0;
#X connect 9 0 3 0;
#X connect 10 0 4 0;
#X restore 651 23 pd rh_scalelog;
#X obj 468 62 s \$0-attack2;
#X obj 160 251 r \$0-attack2;
#X obj 181 272 r \$0-decay2;
#X obj 615 -27 r \$0-decay;
#X obj 675 51 s \$0-decay2;
#N canvas 0 22 462 312 rh_scalelog 0;
#X obj 20 155 exp;
#X obj 20 107 *;
#X obj 20 130 +;
#X obj 98 87 log;
#X obj 194 84 log;
#X obj 123 123 t b f;
#X obj 123 145 -;
#X obj 20 183 outlet;
#X obj 20 19 inlet;
#X obj 98 23 inlet;
#X obj 194 24 inlet;
#X connect 0 0 7 0;
#X connect 1 0 2 0;
#X connect 2 0 0 0;
#X connect 3 0 2 1;
#X connect 3 0 5 0;
#X connect 4 0 6 0;
#X connect 5 0 6 0;
#X connect 5 1 6 1;
#X connect 6 0 1 1;
#X connect 8 0 1 0;
#X connect 9 0 3 0;
#X connect 10 0 4 0;
#X restore 684 116 pd rh_scalelog;
#X msg 738 92 1;
#X msg 781 90 1000;
#X obj 205 -30 r \$0-noise;
#N canvas 0 22 462 312 rh_scalelog 0;
#X obj 20 155 exp;
#X obj 20 107 *;
#X obj 20 130 +;
#X obj 98 87 log;
#X obj 194 84 log;
#X obj 123 123 t b f;
#X obj 123 145 -;
#X obj 20 183 outlet;
#X obj 20 19 inlet;
#X obj 98 23 inlet;
#X obj 194 24 inlet;
#X connect 0 0 7 0;
#X connect 1 0 2 0;
#X connect 2 0 0 0;
#X connect 3 0 2 1;
#X connect 3 0 5 0;
#X connect 4 0 6 0;
#X connect 5 0 6 0;
#X connect 5 1 6 1;
#X connect 6 0 1 1;
#X connect 8 0 1 0;
#X connect 9 0 3 0;
#X connect 10 0 4 0;
#X restore 183 192 pd rh_scalelog;
#X msg 230 168 100;
#X msg 276 167 20000;
#X obj 324 56 * 2;
#X obj 0 66 r \$0-pitch;
#X obj 1 89 * 2;
#N canvas 0 22 462 312 rh_scalelog 0;
#X obj 20 155 exp;
#X obj 20 107 *;
#X obj 20 130 +;
#X obj 98 87 log;
#X obj 194 84 log;
#X obj 123 123 t b f;
#X obj 123 145 -;
#X obj 20 183 outlet;
#X obj 20 19 inlet;
#X obj 98 23 inlet;
#X obj 194 24 inlet;
#X connect 0 0 7 0;
#X connect 1 0 2 0;
#X connect 2 0 0 0;
#X connect 3 0 2 1;
#X connect 3 0 5 0;
#X connect 4 0 6 0;
#X connect 5 0 6 0;
#X connect 5 1 6 1;
#X connect 6 0 1 1;
#X connect 8 0 1 0;
#X connect 9 0 3 0;
#X connect 10 0 4 0;
#X restore 204 42 pd rh_scalelog;
#X msg 295 16 100;
#X obj 183 126 r \$0-lowpass;
#N canvas 0 22 462 312 rh_scalelog 0;
#X obj 20 155 exp;
#X obj 20 107 *;
#X obj 20 130 +;
#X obj 98 87 log;
#X obj 194 84 log;
#X obj 123 123 t b f;
#X obj 123 145 -;
#X obj 20 183 outlet;
#X obj 20 19 inlet;
#X obj 98 23 inlet;
#X obj 194 24 inlet;
#X connect 0 0 7 0;
#X connect 1 0 2 0;
#X connect 2 0 0 0;
#X connect 3 0 2 1;
#X connect 3 0 5 0;
#X connect 4 0 6 0;
#X connect 5 0 6 0;
#X connect 5 1 6 1;
#X connect 6 0 1 1;
#X connect 8 0 1 0;
#X connect 9 0 3 0;
#X connect 10 0 4 0;
#X restore 488 372 pd rh_scalelog;
#X obj 489 302 r \$0-bandpass;
#X obj 488 397 s \$0-bp;
#X obj 82 274 r \$0-bp;
#N canvas 0 22 462 312 rh_scalelog 0;
#X obj 20 155 exp;
#X obj 20 107 *;
#X obj 20 130 +;
#X obj 98 87 log;
#X obj 194 84 log;
#X obj 123 123 t b f;
#X obj 123 145 -;
#X obj 20 183 outlet;
#X obj 20 19 inlet;
#X obj 98 23 inlet;
#X obj 194 24 inlet;
#X connect 0 0 7 0;
#X connect 1 0 2 0;
#X connect 2 0 0 0;
#X connect 3 0 2 1;
#X connect 3 0 5 0;
#X connect 4 0 6 0;
#X connect 5 0 6 0;
#X connect 5 1 6 1;
#X connect 6 0 1 1;
#X connect 8 0 1 0;
#X connect 9 0 3 0;
#X connect 10 0 4 0;
#X restore 510 499 pd rh_scalelog;
#X msg 557 474 1;
#X msg 603 474 10;
#X obj 510 523 s \$0-bpq;
#X obj 100 251 r \$0-bpq;
#X msg 537 349 1000;
#X msg 580 345 10000;
#X msg 248 17 0.1;
#X msg 742 -5 5000;
#X msg 697 -2 100;
#X obj 405 212 r \$0-attack2;
#X obj 431 245 r \$0-bdecay2;
#X obj 712 170 s \$0-bdecay2;
#X msg 400 26 0.25;
#X obj 56 -46 inlet;
#X obj 675 70 r \$0-bodyDecay;
#X obj 508 429 r \$0-bandpassQ;
#X obj 273 425 *~ 1;
#X obj 178 424 *~ 1;
#N canvas 380 310 510 360 xfade 0;
#X obj 93 148 t b f;
#X obj 142 150 t b f;
#X obj 170 1 inlet;
#X obj 78 255 outlet;
#X obj 144 267 outlet;
#X obj 182 71 t f b;
#X msg 220 145 0.5;
#X obj 80 226 * 2;
#X obj 103 189 f 0.5;
#X obj 148 188 f 0.5;
#X obj 137 121 moses 0.5;
#X obj 145 221 expr 1 - $f1;
#X obj 145 241 * 2;
#X connect 0 0 9 0;
#X connect 0 1 8 0;
#X connect 1 0 8 0;
#X connect 1 1 9 0;
#X connect 2 0 5 0;
#X connect 5 0 10 0;
#X connect 5 1 6 0;
#X connect 6 0 8 1;
#X connect 6 0 9 1;
#X connect 7 0 3 0;
#X connect 8 0 7 0;
#X connect 9 0 11 0;
#X connect 10 0 0 0;
#X connect 10 1 1 0;
#X connect 11 0 12 0;
#X connect 12 0 4 0;
#X restore 219 391 pd xfade;
#X obj 223 367 r \$0-xfade;
#X obj 256 520 *~;
#X obj 314 425 r \$0-gain;
#N canvas 0 22 462 312 rh_scalelog 0;
#X obj 20 155 exp;
#X obj 20 107 *;
#X obj 20 130 +;
#X obj 98 87 log;
#X obj 194 84 log;
#X obj 123 123 t b f;
#X obj 123 145 -;
#X obj 20 183 outlet;
#X obj 20 19 inlet;
#X obj 98 23 inlet;
#X obj 194 24 inlet;
#X connect 0 0 7 0;
#X connect 1 0 2 0;
#X connect 2 0 0 0;
#X connect 3 0 2 1;
#X connect 3 0 5 0;
#X connect 4 0 6 0;
#X connect 5 0 6 0;
#X connect 5 1 6 1;
#X connect 6 0 1 1;
#X connect 8 0 1 0;
#X connect 9 0 3 0;
#X connect 10 0 4 0;
#X restore 314 506 pd rh_scalelog;
#X obj 253 543 tanh~;
#X msg 408 479 10;
#X msg 361 482 0.1;
#X obj 256 487 *~ 1.3;
#X obj 250 -10 r \$0-loadbang;
#X obj 512 -20 r \$0-loadbang;
#X obj 697 -30 r \$0-loadbang;
#X obj 775 67 r \$0-loadbang;
#X obj 582 317 r \$0-loadbang;
#X obj 613 431 r \$0-loadbang;
#X obj 360 453 r \$0-loadbang;
#X obj 240 143 r \$0-loadbang;
#X connect 1 0 89 0;
#X connect 2 0 24 0;
#X connect 3 0 98 0;
#X connect 4 0 11 0;
#X connect 6 0 35 0;
#X connect 7 0 6 0;
#X connect 8 0 7 0;
#X connect 8 1 6 1;
#X connect 9 0 10 0;
#X connect 10 0 5 0;
#X connect 11 0 25 0;
#X connect 11 0 25 1;
#X connect 12 0 14 0;
#X connect 13 0 14 1;
#X connect 14 0 15 0;
#X connect 15 0 88 0;
#X connect 16 0 12 0;
#X connect 17 0 13 0;
#X connect 18 0 19 0;
#X connect 19 0 15 1;
#X connect 20 0 23 0;
#X connect 21 0 9 0;
#X connect 22 0 5 0;
#X connect 23 0 21 0;
#X connect 23 0 22 0;
#X connect 24 0 1 0;
#X connect 25 0 1 1;
#X connect 26 0 37 0;
#X connect 27 0 26 0;
#X connect 28 0 27 0;
#X connect 28 1 26 1;
#X connect 29 0 2 1;
#X connect 30 0 29 0;
#X connect 31 0 30 0;
#X connect 31 1 29 1;
#X connect 34 0 21 1;
#X connect 35 0 34 0;
#X connect 36 0 35 0;
#X connect 36 1 34 1;
#X connect 36 1 83 0;
#X connect 37 0 2 0;
#X connect 39 0 42 0;
#X connect 40 0 38 0;
#X connect 40 1 39 0;
#X connect 40 1 84 0;
#X connect 41 0 61 0;
#X connect 43 0 5 0;
#X connect 44 0 45 0;
#X connect 45 0 7 0;
#X connect 45 0 49 0;
#X connect 46 0 45 1;
#X connect 47 0 45 2;
#X connect 48 0 8 0;
#X connect 48 0 53 0;
#X connect 50 0 11 1;
#X connect 51 0 11 2;
#X connect 52 0 48 0;
#X connect 54 0 36 0;
#X connect 55 0 54 1;
#X connect 56 0 54 2;
#X connect 57 0 64 0;
#X connect 58 0 30 0;
#X connect 59 0 58 1;
#X connect 60 0 58 2;
#X connect 61 0 16 0;
#X connect 61 0 17 0;
#X connect 61 0 31 0;
#X connect 62 0 63 0;
#X connect 63 0 27 0;
#X connect 64 0 28 0;
#X connect 65 0 64 2;
#X connect 66 0 58 0;
#X connect 67 0 69 0;
#X connect 68 0 67 0;
#X connect 70 0 24 1;
#X connect 71 0 74 0;
#X connect 72 0 71 1;
#X connect 73 0 71 2;
#X connect 75 0 24 2;
#X connect 76 0 67 1;
#X connect 77 0 67 2;
#X connect 78 0 64 1;
#X connect 79 0 48 2;
#X connect 80 0 48 1;
#X connect 81 0 19 1;
#X connect 82 0 19 2;
#X connect 84 0 13 1;
#X connect 84 0 12 1;
#X connect 84 0 37 1;
#X connect 85 0 40 0;
#X connect 86 0 54 0;
#X connect 87 0 71 0;
#X connect 88 0 3 1;
#X connect 89 0 3 0;
#X connect 90 0 89 1;
#X connect 90 1 88 1;
#X connect 91 0 90 0;
#X connect 92 0 95 0;
#X connect 93 0 94 0;
#X connect 94 0 92 1;
#X connect 95 0 0 0;
#X connect 96 0 94 2;
#X connect 97 0 94 1;
#X connect 98 0 92 0;
#X connect 99 0 78 0;
#X connect 99 0 65 0;
#X connect 100 0 46 0;
#X connect 100 0 47 0;
#X connect 101 0 80 0;
#X connect 101 0 79 0;
#X connect 102 0 55 0;
#X connect 102 0 56 0;
#X connect 103 0 76 0;
#X connect 103 0 77 0;
#X connect 104 0 72 0;
#X connect 104 0 73 0;
#X connect 105 0 97 0;
#X connect 105 0 96 0;
#X connect 106 0 59 0;
#X connect 106 0 60 0;
#X restore 10 30 pd snare;
#N canvas 0 22 429 362 snare-makenoise 0;
#X obj 73 313 table \$0-snarenoise 8195;
#X obj 183 77 until;
#X msg 185 55 8195;
#X obj 182 105 f;
#X obj 211 104 + 1;
#X obj 182 129 t f b;
#X obj 208 153 random 20000;
#X obj 208 178 / 10000;
#X obj 209 204 - 1;
#X obj 175 237 pack 0 0;
#X obj 175 261 s \$0-snarenoise;
#X obj 183 23 r \$0-loadbang;
#X connect 1 0 3 0;
#X connect 2 0 1 0;
#X connect 3 0 4 0;
#X connect 3 0 5 0;
#X connect 4 0 3 1;
#X connect 5 0 9 0;
#X connect 5 1 6 0;
#X connect 6 0 7 0;
#X connect 7 0 8 0;
#X connect 8 0 9 1;
#X connect 9 0 10 0;
#X connect 11 0 2 0;
#X restore 146 66 pd snare-makenoise;
#X msg 845 137 0.49 0.8 0.7 0.6 0.55 0.42 0.55 0.6 0.35 0.45;
#X obj 930 165 s \$0-loadbang;
#N canvas 629 32 778 610 rgb 0;
#X obj 296 207 * 256;
#X obj 344 180 * 256;
#X obj 346 201 * 256;
#X obj 312 270 +;
#X obj 298 228 t b f;
#X obj 312 293 +;
#X obj 346 223 t b f;
#X obj 252 186 int;
#X msg 263 68 0;
#X obj 252 163 * -1;
#X obj 296 162 * -1;
#X obj 343 158 * -1;
#X obj 103 123 vsl 10 40 1 255 0 0 ertteetyeyterttretretrrtrtrtrtrt
hhghghghghghghgggggh empty 0 -8 0 10 -4160 -262144 -1 0 0;
#X obj 115 123 vsl 10 40 1 255 0 0 ertteetyeyterttretretrrtrtrtrtrt
hhghghghghghghgggggh empty 0 -8 0 10 -4034 -262144 -1 0 0;
#X obj 127 123 vsl 10 40 1 255 0 0 ertteetyeyterttretretrrtrtrtrtrt
hhghghghghghghgggggh empty 0 -8 0 10 -258113 -262144 -1 0 0;
#X obj 252 144 int;
#X obj 293 142 int;
#X obj 342 138 int;
#X msg 344 372 color \$1 0 28;
#X obj 354 449 s \$0-diyglob;
#X connect 0 0 4 0;
#X connect 1 0 2 0;
#X connect 2 0 6 0;
#X connect 3 0 5 0;
#X connect 4 0 3 0;
#X connect 4 1 3 1;
#X connect 5 0 18 0;
#X connect 6 0 3 0;
#X connect 6 1 5 1;
#X connect 7 0 3 0;
#X connect 8 0 12 0;
#X connect 8 0 13 0;
#X connect 8 0 14 0;
#X connect 9 0 7 0;
#X connect 10 0 0 0;
#X connect 11 0 1 0;
#X connect 12 0 15 0;
#X connect 13 0 16 0;
#X connect 14 0 17 0;
#X connect 15 0 9 0;
#X connect 16 0 10 0;
#X connect 17 0 11 0;
#X connect 18 0 19 0;
#X coords 0 -1 1 1 40 70 1 100 100;
#X restore 346 200 pd rgb;
#X obj 480 8 inlet controls;
#X obj 480 102 diy-gabs \$0 a pitch;
#X obj 496 126 diy-gabs \$0 b noise;
#X obj 515 149 diy-gabs \$0 c bandpass;
#X obj 542 171 diy-gabs \$0 d bandpassQ;
#X obj 586 190 diy-gabs \$0 e decay;
#X obj 621 215 diy-gabs \$0 f bodyDecay;
#X obj 653 240 diy-gabs \$0 g attack;
#X obj 683 268 diy-gabs \$0 h lowpass;
#X obj 707 292 diy-gabs \$0 i xfade;
#X obj 736 315 diy-gabs \$0 j gain;
#X obj 758 163 unpack f f f f f f f f f f;
#X obj 624 370 outlet;
#X obj 485 56 route pitch noise bandpass bandpassQ decay bodyDecay
attack lowpass xfade gain;
#X connect 1 0 25 0;
#X connect 23 0 26 0;
#X connect 25 0 28 0;
#X connect 25 1 29 0;
#X connect 26 0 0 0;
#X connect 28 0 42 0;
#X connect 31 0 44 0;
#X connect 32 0 43 0;
#X connect 33 0 43 0;
#X connect 34 0 43 0;
#X connect 35 0 43 0;
#X connect 36 0 43 0;
#X connect 37 0 43 0;
#X connect 38 0 43 0;
#X connect 39 0 43 0;
#X connect 40 0 43 0;
#X connect 41 0 43 0;
#X connect 42 0 32 0;
#X connect 42 1 33 0;
#X connect 42 2 34 0;
#X connect 42 3 35 0;
#X connect 42 4 36 0;
#X connect 42 5 37 0;
#X connect 42 6 38 0;
#X connect 42 7 39 0;
#X connect 42 8 40 0;
#X connect 42 9 41 0;
#X connect 44 0 32 0;
#X connect 44 1 33 0;
#X connect 44 2 34 0;
#X connect 44 3 35 0;
#X connect 44 4 36 0;
#X connect 44 5 37 0;
#X connect 44 6 38 0;
#X connect 44 7 39 0;
#X connect 44 8 40 0;
#X connect 44 9 41 0;
#X coords 0 -1 1 1 180 135 1 100 100;
