#N canvas 153 28 977 396 10;
#X obj 9 51 outlet~;
#X obj 125 129 hsl 60 10 0 1 0 0 \$0-a \$0-ra pitch -2 -7 0 10 -3904
-262144 -355 1770 1;
#X obj 212 129 hsl 60 10 0 1 0 0 \$0-b \$0-rb duration -2 -7 0 10 -3904
-262144 -355 4130 1;
#X obj 105 126 cnv 12 15 13 empty empty 0 1 6 0 12 -33289 -262144 0
;
#X obj 192 126 cnv 12 15 13 empty empty 1 1 6 0 12 -33289 -262144 0
;
#X text 118 40 outlet audio~;
#X obj 469 33 inlet controls;
#N canvas 585 31 645 708 additive-bell 0;
#X obj 220 661 outlet~;
#X obj 46 45 r \$0-pitch;
#N canvas 186 273 859 481 partial 0;
#X obj 465 234 sqrt;
#X text 46 209 relative frequency;
#X obj 17 341 *~;
#X obj 227 322 line~;
#X obj 227 349 *~;
#X obj 227 376 *~;
#X msg 227 285 0 \$1;
#X obj 465 261 sqrt;
#X obj 227 158 t b b;
#X text 303 209 relative duration;
#X msg 465 288 \$1 5;
#X obj 227 185 del 5;
#X obj 465 207 * 0.1;
#X text 550 178 get amplitude from argument 1;
#X text 524 206 normalize to 0.1;
#X text 516 233 take fourth root (square root twice);
#X text 544 250 because we'll raise line~ output to;
#X text 543 267 fourth power;
#X text 515 292 attack time 5 msec;
#X text 280 184 decay after 5 msec;
#X text 469 157 attack;
#X obj 227 258 *;
#X text 264 258 actual duration;
#X obj 16 246 *;
#X obj 17 314 osc~;
#X text 49 252 times global freq.;
#X text 60 279 plus detune;
#X text 271 285 decay msg to line~;
#X text 266 350 raise to fourth power for;
#X text 267 368 natural-sounding decay shape;
#X text 256 75 1 amplitude \; 2 relative duration \; 3 relative frequency
\; 4 detune;
#X obj 56 30 inlet;
#X obj 226 211 f;
#X obj 465 180 f;
#X obj 17 200 f;
#X obj 72 113 unpack 0 0 0 0;
#X obj 17 279 +;
#X obj 53 62 route trigger freq duration;
#X obj 17 368 outlet~;
#X text 282 50 route:;
#X msg 73 300 0.25;
#X connect 0 0 7 0;
#X connect 2 0 38 0;
#X connect 3 0 4 0;
#X connect 3 0 4 1;
#X connect 4 0 5 0;
#X connect 4 0 5 1;
#X connect 5 0 2 1;
#X connect 6 0 3 0;
#X connect 7 0 10 0;
#X connect 8 0 11 0;
#X connect 8 1 33 0;
#X connect 10 0 3 0;
#X connect 11 0 32 0;
#X connect 12 0 0 0;
#X connect 21 0 6 0;
#X connect 23 0 36 0;
#X connect 24 0 2 0;
#X connect 31 0 37 0;
#X connect 32 0 21 0;
#X connect 33 0 12 0;
#X connect 34 0 23 0;
#X connect 35 0 33 1;
#X connect 35 1 32 1;
#X connect 35 2 34 1;
#X connect 35 3 36 1;
#X connect 36 0 24 0;
#X connect 37 0 34 0;
#X connect 37 0 8 0;
#X connect 37 0 40 0;
#X connect 37 1 23 1;
#X connect 37 2 21 1;
#X connect 37 3 35 0;
#X connect 40 0 24 1;
#X restore 119 199 pd partial;
#X msg 359 159 1 1 0.56 0;
#X msg 372 183 0.67 0.9 0.56 1;
#X msg 383 208 1 0.65 0.92 0;
#X msg 390 237 1.8 0.55 0.92 1.7;
#X msg 403 267 2.67 0.325 1.19 0;
#X msg 413 291 1.67 0.35 1.7 0;
#X msg 420 319 1.46 0.25 2 0;
#X msg 427 345 1.33 0.2 2.74 0;
#X msg 431 373 1 0.1 3.76 0;
#X msg 434 401 1.33 0.075 4.07 0;
#N canvas 186 273 823 445 partial 0;
#X obj 465 234 sqrt;
#X text 46 209 relative frequency;
#X obj 17 341 *~;
#X obj 227 322 line~;
#X obj 227 349 *~;
#X obj 227 376 *~;
#X msg 227 285 0 \$1;
#X obj 465 261 sqrt;
#X obj 227 158 t b b;
#X text 303 209 relative duration;
#X msg 465 288 \$1 5;
#X obj 227 185 del 5;
#X obj 465 207 * 0.1;
#X text 550 178 get amplitude from argument 1;
#X text 524 206 normalize to 0.1;
#X text 516 233 take fourth root (square root twice);
#X text 544 250 because we'll raise line~ output to;
#X text 543 267 fourth power;
#X text 515 292 attack time 5 msec;
#X text 280 184 decay after 5 msec;
#X text 469 157 attack;
#X obj 227 258 *;
#X text 264 258 actual duration;
#X obj 16 246 *;
#X obj 17 314 osc~;
#X text 49 252 times global freq.;
#X text 60 279 plus detune;
#X text 271 285 decay msg to line~;
#X text 266 350 raise to fourth power for;
#X text 267 368 natural-sounding decay shape;
#X text 256 75 1 amplitude \; 2 relative duration \; 3 relative frequency
\; 4 detune;
#X obj 56 30 inlet;
#X obj 226 211 f;
#X obj 465 180 f;
#X obj 17 200 f;
#X obj 72 113 unpack 0 0 0 0;
#X obj 17 279 +;
#X obj 53 62 route trigger freq duration;
#X obj 17 368 outlet~;
#X text 282 50 route:;
#X msg 73 300 0.25;
#X connect 0 0 7 0;
#X connect 2 0 38 0;
#X connect 3 0 4 0;
#X connect 3 0 4 1;
#X connect 4 0 5 0;
#X connect 4 0 5 1;
#X connect 5 0 2 1;
#X connect 6 0 3 0;
#X connect 7 0 10 0;
#X connect 8 0 11 0;
#X connect 8 1 33 0;
#X connect 10 0 3 0;
#X connect 11 0 32 0;
#X connect 12 0 0 0;
#X connect 21 0 6 0;
#X connect 23 0 36 0;
#X connect 24 0 2 0;
#X connect 31 0 37 0;
#X connect 32 0 21 0;
#X connect 33 0 12 0;
#X connect 34 0 23 0;
#X connect 35 0 33 1;
#X connect 35 1 32 1;
#X connect 35 2 34 1;
#X connect 35 3 36 1;
#X connect 36 0 24 0;
#X connect 37 0 34 0;
#X connect 37 0 8 0;
#X connect 37 0 40 0;
#X connect 37 1 23 1;
#X connect 37 2 21 1;
#X connect 37 3 35 0;
#X connect 40 0 24 1;
#X restore 144 229 pd partial;
#N canvas 186 273 827 449 partial 0;
#X obj 465 234 sqrt;
#X text 46 209 relative frequency;
#X obj 17 341 *~;
#X obj 227 322 line~;
#X obj 227 349 *~;
#X obj 227 376 *~;
#X msg 227 285 0 \$1;
#X obj 465 261 sqrt;
#X obj 227 158 t b b;
#X text 303 209 relative duration;
#X msg 465 288 \$1 5;
#X obj 227 185 del 5;
#X obj 465 207 * 0.1;
#X text 550 178 get amplitude from argument 1;
#X text 524 206 normalize to 0.1;
#X text 516 233 take fourth root (square root twice);
#X text 544 250 because we'll raise line~ output to;
#X text 543 267 fourth power;
#X text 515 292 attack time 5 msec;
#X text 280 184 decay after 5 msec;
#X text 469 157 attack;
#X obj 227 258 *;
#X text 264 258 actual duration;
#X obj 16 246 *;
#X obj 17 314 osc~;
#X text 49 252 times global freq.;
#X text 60 279 plus detune;
#X text 271 285 decay msg to line~;
#X text 266 350 raise to fourth power for;
#X text 267 368 natural-sounding decay shape;
#X text 256 75 1 amplitude \; 2 relative duration \; 3 relative frequency
\; 4 detune;
#X obj 56 30 inlet;
#X obj 226 211 f;
#X obj 465 180 f;
#X obj 17 200 f;
#X obj 72 113 unpack 0 0 0 0;
#X obj 17 279 +;
#X obj 53 62 route trigger freq duration;
#X obj 17 368 outlet~;
#X text 282 50 route:;
#X msg 73 300 0.25;
#X connect 0 0 7 0;
#X connect 2 0 38 0;
#X connect 3 0 4 0;
#X connect 3 0 4 1;
#X connect 4 0 5 0;
#X connect 4 0 5 1;
#X connect 5 0 2 1;
#X connect 6 0 3 0;
#X connect 7 0 10 0;
#X connect 8 0 11 0;
#X connect 8 1 33 0;
#X connect 10 0 3 0;
#X connect 11 0 32 0;
#X connect 12 0 0 0;
#X connect 21 0 6 0;
#X connect 23 0 36 0;
#X connect 24 0 2 0;
#X connect 31 0 37 0;
#X connect 32 0 21 0;
#X connect 33 0 12 0;
#X connect 34 0 23 0;
#X connect 35 0 33 1;
#X connect 35 1 32 1;
#X connect 35 2 34 1;
#X connect 35 3 36 1;
#X connect 36 0 24 0;
#X connect 37 0 34 0;
#X connect 37 0 8 0;
#X connect 37 0 40 0;
#X connect 37 1 23 1;
#X connect 37 2 21 1;
#X connect 37 3 35 0;
#X connect 40 0 24 1;
#X restore 163 256 pd partial;
#N canvas 186 273 827 449 partial 0;
#X obj 465 234 sqrt;
#X text 46 209 relative frequency;
#X obj 17 341 *~;
#X obj 227 322 line~;
#X obj 227 349 *~;
#X obj 227 376 *~;
#X msg 227 285 0 \$1;
#X obj 465 261 sqrt;
#X obj 227 158 t b b;
#X text 303 209 relative duration;
#X msg 465 288 \$1 5;
#X obj 227 185 del 5;
#X obj 465 207 * 0.1;
#X text 550 178 get amplitude from argument 1;
#X text 524 206 normalize to 0.1;
#X text 516 233 take fourth root (square root twice);
#X text 544 250 because we'll raise line~ output to;
#X text 543 267 fourth power;
#X text 515 292 attack time 5 msec;
#X text 280 184 decay after 5 msec;
#X text 469 157 attack;
#X obj 227 258 *;
#X text 264 258 actual duration;
#X obj 16 246 *;
#X obj 17 314 osc~;
#X text 49 252 times global freq.;
#X text 60 279 plus detune;
#X text 271 285 decay msg to line~;
#X text 266 350 raise to fourth power for;
#X text 267 368 natural-sounding decay shape;
#X text 256 75 1 amplitude \; 2 relative duration \; 3 relative frequency
\; 4 detune;
#X obj 56 30 inlet;
#X obj 226 211 f;
#X obj 465 180 f;
#X obj 17 200 f;
#X obj 72 113 unpack 0 0 0 0;
#X obj 17 279 +;
#X obj 53 62 route trigger freq duration;
#X obj 17 368 outlet~;
#X text 282 50 route:;
#X msg 73 300 0.25;
#X connect 0 0 7 0;
#X connect 2 0 38 0;
#X connect 3 0 4 0;
#X connect 3 0 4 1;
#X connect 4 0 5 0;
#X connect 4 0 5 1;
#X connect 5 0 2 1;
#X connect 6 0 3 0;
#X connect 7 0 10 0;
#X connect 8 0 11 0;
#X connect 8 1 33 0;
#X connect 10 0 3 0;
#X connect 11 0 32 0;
#X connect 12 0 0 0;
#X connect 21 0 6 0;
#X connect 23 0 36 0;
#X connect 24 0 2 0;
#X connect 31 0 37 0;
#X connect 32 0 21 0;
#X connect 33 0 12 0;
#X connect 34 0 23 0;
#X connect 35 0 33 1;
#X connect 35 1 32 1;
#X connect 35 2 34 1;
#X connect 35 3 36 1;
#X connect 36 0 24 0;
#X connect 37 0 34 0;
#X connect 37 0 8 0;
#X connect 37 0 40 0;
#X connect 37 1 23 1;
#X connect 37 2 21 1;
#X connect 37 3 35 0;
#X connect 40 0 24 1;
#X restore 188 286 pd partial;
#N canvas 186 273 827 449 partial 0;
#X obj 465 234 sqrt;
#X text 46 209 relative frequency;
#X obj 17 341 *~;
#X obj 227 322 line~;
#X obj 227 349 *~;
#X obj 227 376 *~;
#X msg 227 285 0 \$1;
#X obj 465 261 sqrt;
#X obj 227 158 t b b;
#X text 303 209 relative duration;
#X msg 465 288 \$1 5;
#X obj 227 185 del 5;
#X obj 465 207 * 0.1;
#X text 550 178 get amplitude from argument 1;
#X text 524 206 normalize to 0.1;
#X text 516 233 take fourth root (square root twice);
#X text 544 250 because we'll raise line~ output to;
#X text 543 267 fourth power;
#X text 515 292 attack time 5 msec;
#X text 280 184 decay after 5 msec;
#X text 469 157 attack;
#X obj 227 258 *;
#X text 264 258 actual duration;
#X obj 16 246 *;
#X obj 17 314 osc~;
#X text 49 252 times global freq.;
#X text 60 279 plus detune;
#X text 271 285 decay msg to line~;
#X text 266 350 raise to fourth power for;
#X text 267 368 natural-sounding decay shape;
#X text 256 75 1 amplitude \; 2 relative duration \; 3 relative frequency
\; 4 detune;
#X obj 56 30 inlet;
#X obj 226 211 f;
#X obj 465 180 f;
#X obj 17 200 f;
#X obj 72 113 unpack 0 0 0 0;
#X obj 17 279 +;
#X obj 53 62 route trigger freq duration;
#X obj 17 368 outlet~;
#X text 282 50 route:;
#X msg 73 300 0.25;
#X connect 0 0 7 0;
#X connect 2 0 38 0;
#X connect 3 0 4 0;
#X connect 3 0 4 1;
#X connect 4 0 5 0;
#X connect 4 0 5 1;
#X connect 5 0 2 1;
#X connect 6 0 3 0;
#X connect 7 0 10 0;
#X connect 8 0 11 0;
#X connect 8 1 33 0;
#X connect 10 0 3 0;
#X connect 11 0 32 0;
#X connect 12 0 0 0;
#X connect 21 0 6 0;
#X connect 23 0 36 0;
#X connect 24 0 2 0;
#X connect 31 0 37 0;
#X connect 32 0 21 0;
#X connect 33 0 12 0;
#X connect 34 0 23 0;
#X connect 35 0 33 1;
#X connect 35 1 32 1;
#X connect 35 2 34 1;
#X connect 35 3 36 1;
#X connect 36 0 24 0;
#X connect 37 0 34 0;
#X connect 37 0 8 0;
#X connect 37 0 40 0;
#X connect 37 1 23 1;
#X connect 37 2 21 1;
#X connect 37 3 35 0;
#X connect 40 0 24 1;
#X restore 205 318 pd partial;
#N canvas 186 273 831 453 partial 0;
#X obj 465 234 sqrt;
#X text 46 209 relative frequency;
#X obj 17 341 *~;
#X obj 227 322 line~;
#X obj 227 349 *~;
#X obj 227 376 *~;
#X msg 227 285 0 \$1;
#X obj 465 261 sqrt;
#X obj 227 158 t b b;
#X text 303 209 relative duration;
#X msg 465 288 \$1 5;
#X obj 227 185 del 5;
#X obj 465 207 * 0.1;
#X text 550 178 get amplitude from argument 1;
#X text 524 206 normalize to 0.1;
#X text 516 233 take fourth root (square root twice);
#X text 544 250 because we'll raise line~ output to;
#X text 543 267 fourth power;
#X text 515 292 attack time 5 msec;
#X text 280 184 decay after 5 msec;
#X text 469 157 attack;
#X obj 227 258 *;
#X text 264 258 actual duration;
#X obj 16 246 *;
#X obj 17 314 osc~;
#X text 49 252 times global freq.;
#X text 60 279 plus detune;
#X text 271 285 decay msg to line~;
#X text 266 350 raise to fourth power for;
#X text 267 368 natural-sounding decay shape;
#X text 256 75 1 amplitude \; 2 relative duration \; 3 relative frequency
\; 4 detune;
#X obj 56 30 inlet;
#X obj 226 211 f;
#X obj 465 180 f;
#X obj 17 200 f;
#X obj 72 113 unpack 0 0 0 0;
#X obj 17 279 +;
#X obj 53 62 route trigger freq duration;
#X obj 17 368 outlet~;
#X text 282 50 route:;
#X msg 73 300 0.25;
#X connect 0 0 7 0;
#X connect 2 0 38 0;
#X connect 3 0 4 0;
#X connect 3 0 4 1;
#X connect 4 0 5 0;
#X connect 4 0 5 1;
#X connect 5 0 2 1;
#X connect 6 0 3 0;
#X connect 7 0 10 0;
#X connect 8 0 11 0;
#X connect 8 1 33 0;
#X connect 10 0 3 0;
#X connect 11 0 32 0;
#X connect 12 0 0 0;
#X connect 21 0 6 0;
#X connect 23 0 36 0;
#X connect 24 0 2 0;
#X connect 31 0 37 0;
#X connect 32 0 21 0;
#X connect 33 0 12 0;
#X connect 34 0 23 0;
#X connect 35 0 33 1;
#X connect 35 1 32 1;
#X connect 35 2 34 1;
#X connect 35 3 36 1;
#X connect 36 0 24 0;
#X connect 37 0 34 0;
#X connect 37 0 8 0;
#X connect 37 0 40 0;
#X connect 37 1 23 1;
#X connect 37 2 21 1;
#X connect 37 3 35 0;
#X connect 40 0 24 1;
#X restore 230 348 pd partial;
#N canvas 186 273 831 453 partial 0;
#X obj 465 234 sqrt;
#X text 46 209 relative frequency;
#X obj 17 341 *~;
#X obj 227 322 line~;
#X obj 227 349 *~;
#X obj 227 376 *~;
#X msg 227 285 0 \$1;
#X obj 465 261 sqrt;
#X obj 227 158 t b b;
#X text 303 209 relative duration;
#X msg 465 288 \$1 5;
#X obj 227 185 del 5;
#X obj 465 207 * 0.1;
#X text 550 178 get amplitude from argument 1;
#X text 524 206 normalize to 0.1;
#X text 516 233 take fourth root (square root twice);
#X text 544 250 because we'll raise line~ output to;
#X text 543 267 fourth power;
#X text 515 292 attack time 5 msec;
#X text 280 184 decay after 5 msec;
#X text 469 157 attack;
#X obj 227 258 *;
#X text 264 258 actual duration;
#X obj 16 246 *;
#X obj 17 314 osc~;
#X text 49 252 times global freq.;
#X text 60 279 plus detune;
#X text 271 285 decay msg to line~;
#X text 266 350 raise to fourth power for;
#X text 267 368 natural-sounding decay shape;
#X text 256 75 1 amplitude \; 2 relative duration \; 3 relative frequency
\; 4 detune;
#X obj 56 30 inlet;
#X obj 226 211 f;
#X obj 465 180 f;
#X obj 17 200 f;
#X obj 72 113 unpack 0 0 0 0;
#X obj 17 279 +;
#X obj 53 62 route trigger freq duration;
#X obj 17 368 outlet~;
#X text 282 50 route:;
#X msg 73 300 0.25;
#X connect 0 0 7 0;
#X connect 2 0 38 0;
#X connect 3 0 4 0;
#X connect 3 0 4 1;
#X connect 4 0 5 0;
#X connect 4 0 5 1;
#X connect 5 0 2 1;
#X connect 6 0 3 0;
#X connect 7 0 10 0;
#X connect 8 0 11 0;
#X connect 8 1 33 0;
#X connect 10 0 3 0;
#X connect 11 0 32 0;
#X connect 12 0 0 0;
#X connect 21 0 6 0;
#X connect 23 0 36 0;
#X connect 24 0 2 0;
#X connect 31 0 37 0;
#X connect 32 0 21 0;
#X connect 33 0 12 0;
#X connect 34 0 23 0;
#X connect 35 0 33 1;
#X connect 35 1 32 1;
#X connect 35 2 34 1;
#X connect 35 3 36 1;
#X connect 36 0 24 0;
#X connect 37 0 34 0;
#X connect 37 0 8 0;
#X connect 37 0 40 0;
#X connect 37 1 23 1;
#X connect 37 2 21 1;
#X connect 37 3 35 0;
#X connect 40 0 24 1;
#X restore 249 375 pd partial;
#N canvas 186 273 827 449 partial 0;
#X obj 465 234 sqrt;
#X text 46 209 relative frequency;
#X obj 17 341 *~;
#X obj 227 322 line~;
#X obj 227 349 *~;
#X obj 227 376 *~;
#X msg 227 285 0 \$1;
#X obj 465 261 sqrt;
#X obj 227 158 t b b;
#X text 303 209 relative duration;
#X msg 465 288 \$1 5;
#X obj 227 185 del 5;
#X obj 465 207 * 0.1;
#X text 550 178 get amplitude from argument 1;
#X text 524 206 normalize to 0.1;
#X text 516 233 take fourth root (square root twice);
#X text 544 250 because we'll raise line~ output to;
#X text 543 267 fourth power;
#X text 515 292 attack time 5 msec;
#X text 280 184 decay after 5 msec;
#X text 469 157 attack;
#X obj 227 258 *;
#X text 264 258 actual duration;
#X obj 16 246 *;
#X obj 17 314 osc~;
#X text 49 252 times global freq.;
#X text 60 279 plus detune;
#X text 271 285 decay msg to line~;
#X text 266 350 raise to fourth power for;
#X text 267 368 natural-sounding decay shape;
#X text 256 75 1 amplitude \; 2 relative duration \; 3 relative frequency
\; 4 detune;
#X obj 56 30 inlet;
#X obj 226 211 f;
#X obj 465 180 f;
#X obj 17 200 f;
#X obj 72 113 unpack 0 0 0 0;
#X obj 17 279 +;
#X obj 53 62 route trigger freq duration;
#X obj 17 368 outlet~;
#X text 282 50 route:;
#X msg 73 300 0.25;
#X connect 0 0 7 0;
#X connect 2 0 38 0;
#X connect 3 0 4 0;
#X connect 3 0 4 1;
#X connect 4 0 5 0;
#X connect 4 0 5 1;
#X connect 5 0 2 1;
#X connect 6 0 3 0;
#X connect 7 0 10 0;
#X connect 8 0 11 0;
#X connect 8 1 33 0;
#X connect 10 0 3 0;
#X connect 11 0 32 0;
#X connect 12 0 0 0;
#X connect 21 0 6 0;
#X connect 23 0 36 0;
#X connect 24 0 2 0;
#X connect 31 0 37 0;
#X connect 32 0 21 0;
#X connect 33 0 12 0;
#X connect 34 0 23 0;
#X connect 35 0 33 1;
#X connect 35 1 32 1;
#X connect 35 2 34 1;
#X connect 35 3 36 1;
#X connect 36 0 24 0;
#X connect 37 0 34 0;
#X connect 37 0 8 0;
#X connect 37 0 40 0;
#X connect 37 1 23 1;
#X connect 37 2 21 1;
#X connect 37 3 35 0;
#X connect 40 0 24 1;
#X restore 274 405 pd partial;
#N canvas 186 273 827 449 partial 0;
#X obj 465 234 sqrt;
#X text 46 209 relative frequency;
#X obj 17 341 *~;
#X obj 227 322 line~;
#X obj 227 349 *~;
#X obj 227 376 *~;
#X msg 227 285 0 \$1;
#X obj 465 261 sqrt;
#X obj 227 158 t b b;
#X text 303 209 relative duration;
#X msg 465 288 \$1 5;
#X obj 227 185 del 5;
#X obj 465 207 * 0.1;
#X text 550 178 get amplitude from argument 1;
#X text 524 206 normalize to 0.1;
#X text 516 233 take fourth root (square root twice);
#X text 544 250 because we'll raise line~ output to;
#X text 543 267 fourth power;
#X text 515 292 attack time 5 msec;
#X text 280 184 decay after 5 msec;
#X text 469 157 attack;
#X obj 227 258 *;
#X text 264 258 actual duration;
#X obj 16 246 *;
#X obj 17 314 osc~;
#X text 49 252 times global freq.;
#X text 60 279 plus detune;
#X text 271 285 decay msg to line~;
#X text 266 350 raise to fourth power for;
#X text 267 368 natural-sounding decay shape;
#X text 256 75 1 amplitude \; 2 relative duration \; 3 relative frequency
\; 4 detune;
#X obj 56 30 inlet;
#X obj 226 211 f;
#X obj 465 180 f;
#X obj 17 200 f;
#X obj 72 113 unpack 0 0 0 0;
#X obj 17 279 +;
#X obj 53 62 route trigger freq duration;
#X obj 17 368 outlet~;
#X text 282 50 route:;
#X msg 73 300 0.25;
#X connect 0 0 7 0;
#X connect 2 0 38 0;
#X connect 3 0 4 0;
#X connect 3 0 4 1;
#X connect 4 0 5 0;
#X connect 4 0 5 1;
#X connect 5 0 2 1;
#X connect 6 0 3 0;
#X connect 7 0 10 0;
#X connect 8 0 11 0;
#X connect 8 1 33 0;
#X connect 10 0 3 0;
#X connect 11 0 32 0;
#X connect 12 0 0 0;
#X connect 21 0 6 0;
#X connect 23 0 36 0;
#X connect 24 0 2 0;
#X connect 31 0 37 0;
#X connect 32 0 21 0;
#X connect 33 0 12 0;
#X connect 34 0 23 0;
#X connect 35 0 33 1;
#X connect 35 1 32 1;
#X connect 35 2 34 1;
#X connect 35 3 36 1;
#X connect 36 0 24 0;
#X connect 37 0 34 0;
#X connect 37 0 8 0;
#X connect 37 0 40 0;
#X connect 37 1 23 1;
#X connect 37 2 21 1;
#X connect 37 3 35 0;
#X connect 40 0 24 1;
#X restore 294 435 pd partial;
#N canvas 186 273 827 449 partial 0;
#X obj 465 234 sqrt;
#X text 46 209 relative frequency;
#X obj 17 341 *~;
#X obj 227 322 line~;
#X obj 227 349 *~;
#X obj 227 376 *~;
#X msg 227 285 0 \$1;
#X obj 465 261 sqrt;
#X obj 227 158 t b b;
#X text 303 209 relative duration;
#X msg 465 288 \$1 5;
#X obj 227 185 del 5;
#X obj 465 207 * 0.1;
#X text 550 178 get amplitude from argument 1;
#X text 524 206 normalize to 0.1;
#X text 516 233 take fourth root (square root twice);
#X text 544 250 because we'll raise line~ output to;
#X text 543 267 fourth power;
#X text 515 292 attack time 5 msec;
#X text 280 184 decay after 5 msec;
#X text 469 157 attack;
#X obj 227 258 *;
#X text 264 258 actual duration;
#X obj 16 246 *;
#X obj 17 314 osc~;
#X text 49 252 times global freq.;
#X text 60 279 plus detune;
#X text 271 285 decay msg to line~;
#X text 266 350 raise to fourth power for;
#X text 267 368 natural-sounding decay shape;
#X text 256 75 1 amplitude \; 2 relative duration \; 3 relative frequency
\; 4 detune;
#X obj 56 30 inlet;
#X obj 226 211 f;
#X obj 465 180 f;
#X obj 17 200 f;
#X obj 72 113 unpack 0 0 0 0;
#X obj 17 279 +;
#X obj 53 62 route trigger freq duration;
#X obj 17 368 outlet~;
#X text 282 50 route:;
#X msg 73 300 0.25;
#X connect 0 0 7 0;
#X connect 2 0 38 0;
#X connect 3 0 4 0;
#X connect 3 0 4 1;
#X connect 4 0 5 0;
#X connect 4 0 5 1;
#X connect 5 0 2 1;
#X connect 6 0 3 0;
#X connect 7 0 10 0;
#X connect 8 0 11 0;
#X connect 8 1 33 0;
#X connect 10 0 3 0;
#X connect 11 0 32 0;
#X connect 12 0 0 0;
#X connect 21 0 6 0;
#X connect 23 0 36 0;
#X connect 24 0 2 0;
#X connect 31 0 37 0;
#X connect 32 0 21 0;
#X connect 33 0 12 0;
#X connect 34 0 23 0;
#X connect 35 0 33 1;
#X connect 35 1 32 1;
#X connect 35 2 34 1;
#X connect 35 3 36 1;
#X connect 36 0 24 0;
#X connect 37 0 34 0;
#X connect 37 0 8 0;
#X connect 37 0 40 0;
#X connect 37 1 23 1;
#X connect 37 2 21 1;
#X connect 37 3 35 0;
#X connect 40 0 24 1;
#X restore 319 465 pd partial;
#X obj 147 11 r \$0-duration;
#X msg 148 151 duration \$1;
#X obj 123 167 t a;
#X obj 231 530 +~;
#X msg 79 142 freq \$1;
#X obj 50 117 mtof;
#X obj 29 162 inlet;
#N canvas 0 22 466 316 rh_scalelog 0;
#X obj 20 155 exp;
#X obj 20 107 *;
#X obj 20 130 +;
#X obj 98 87 log;
#X obj 194 84 log;
#X obj 123 123 t b f;
#X obj 123 145 -;
#X obj 20 183 outlet;
#X obj 20 19 inlet;
#X obj 98 23 inlet;
#X obj 194 24 inlet;
#X connect 0 0 7 0;
#X connect 1 0 2 0;
#X connect 2 0 0 0;
#X connect 3 0 2 1;
#X connect 3 0 5 0;
#X connect 4 0 6 0;
#X connect 5 0 6 0;
#X connect 5 1 6 1;
#X connect 6 0 1 1;
#X connect 8 0 1 0;
#X connect 9 0 3 0;
#X connect 10 0 4 0;
#X restore 148 105 pd rh_scalelog;
#X msg 196 82 50;
#X msg 241 81 5000;
#X obj 46 76 * 70;
#X obj 47 97 + 40;
#X msg 40 241 trigger bang;
#X obj 222 572 *~;
#X msg 91 533 0 5 \, 1 5 5;
#X obj 90 560 vline~;
#X obj 28 192 t b b;
#X obj 50 215 delay 5;
#X obj 195 53 r \$0-loadbang;
#X obj 269 136 r \$0-loadbang;
#X connect 1 0 32 0;
#X connect 2 0 25 0;
#X connect 3 0 2 0;
#X connect 4 0 13 0;
#X connect 5 0 14 0;
#X connect 6 0 15 0;
#X connect 7 0 16 0;
#X connect 8 0 17 0;
#X connect 9 0 18 0;
#X connect 10 0 19 0;
#X connect 11 0 20 0;
#X connect 12 0 21 0;
#X connect 13 0 25 0;
#X connect 14 0 25 0;
#X connect 15 0 25 0;
#X connect 16 0 25 0;
#X connect 17 0 25 0;
#X connect 18 0 25 0;
#X connect 19 0 25 0;
#X connect 20 0 25 0;
#X connect 21 0 25 0;
#X connect 22 0 29 0;
#X connect 23 0 24 0;
#X connect 24 0 2 0;
#X connect 24 0 13 0;
#X connect 24 0 14 0;
#X connect 24 0 15 0;
#X connect 24 0 16 0;
#X connect 24 0 17 0;
#X connect 24 0 18 0;
#X connect 24 0 19 0;
#X connect 24 0 20 0;
#X connect 24 0 21 0;
#X connect 25 0 35 1;
#X connect 26 0 24 0;
#X connect 27 0 26 0;
#X connect 28 0 38 0;
#X connect 29 0 23 0;
#X connect 30 0 29 1;
#X connect 31 0 29 2;
#X connect 32 0 33 0;
#X connect 33 0 27 0;
#X connect 34 0 24 0;
#X connect 35 0 0 0;
#X connect 36 0 37 0;
#X connect 37 0 35 0;
#X connect 38 0 36 0;
#X connect 38 1 39 0;
#X connect 39 0 34 0;
#X connect 40 0 30 0;
#X connect 40 0 31 0;
#X connect 41 0 3 0;
#X connect 41 0 4 0;
#X connect 41 0 5 0;
#X connect 41 0 6 0;
#X connect 41 0 7 0;
#X connect 41 0 8 0;
#X connect 41 0 9 0;
#X connect 41 0 10 0;
#X connect 41 0 11 0;
#X connect 41 0 12 0;
#X restore 6 29 pd additive-bell;
#X obj 8 7 inlet;
#X text 112 26 inlets trigger \, control \, add \, multiply;
#X obj 752 22 loadbang;
#X obj 763 61 t b b;
#X obj 789 87 s \$0-loadbang;
#X obj 437 135 diy-gabs \$0 a pitch;
#X obj 477 163 diy-gabs \$0 b duration;
#N canvas 629 32 778 610 rgb 0;
#X obj 296 207 * 256;
#X obj 344 180 * 256;
#X obj 346 201 * 256;
#X obj 312 270 +;
#X obj 298 228 t b f;
#X obj 312 293 +;
#X obj 346 223 t b f;
#X obj 252 186 int;
#X msg 263 68 0;
#X obj 252 163 * -1;
#X obj 296 162 * -1;
#X obj 343 158 * -1;
#X obj 103 123 vsl 10 40 1 255 0 0 ertteetyeyterttretretrrtrtrtrtrt
hhghghghghghghgggggh empty 0 -8 0 10 -4160 -262144 -1 0 0;
#X obj 115 123 vsl 10 40 1 255 0 0 ertteetyeyterttretretrrtrtrtrtrt
hhghghghghghghgggggh empty 0 -8 0 10 -4034 -262144 -1 0 0;
#X obj 127 123 vsl 10 40 1 255 0 0 ertteetyeyterttretretrrtrtrtrtrt
hhghghghghghghgggggh empty 0 -8 0 10 -258113 -262144 -1 0 0;
#X obj 252 144 int;
#X obj 293 142 int;
#X obj 342 138 int;
#X msg 344 372 color \$1 0 28;
#X obj 354 449 s \$0-diyglob;
#X connect 0 0 4 0;
#X connect 1 0 2 0;
#X connect 2 0 6 0;
#X connect 3 0 5 0;
#X connect 4 0 3 0;
#X connect 4 1 3 1;
#X connect 5 0 18 0;
#X connect 6 0 3 0;
#X connect 6 1 5 1;
#X connect 7 0 3 0;
#X connect 8 0 12 0;
#X connect 8 0 13 0;
#X connect 8 0 14 0;
#X connect 9 0 7 0;
#X connect 10 0 0 0;
#X connect 11 0 1 0;
#X connect 12 0 15 0;
#X connect 13 0 16 0;
#X connect 14 0 17 0;
#X connect 15 0 9 0;
#X connect 16 0 10 0;
#X connect 17 0 11 0;
#X connect 18 0 19 0;
#X coords 0 -1 1 1 40 70 1 100 100;
#X restore 216 288 pd rgb;
#X msg 702 101 0.3 0.7;
#X obj 646 131 unpack f f;
#X obj 482 68 route pitch duration;
#X obj 547 295 outlet;
#X connect 6 0 18 0;
#X connect 7 0 0 0;
#X connect 8 0 7 0;
#X connect 10 0 11 0;
#X connect 11 0 16 0;
#X connect 11 1 12 0;
#X connect 13 0 19 0;
#X connect 14 0 19 0;
#X connect 16 0 17 0;
#X connect 17 0 13 0;
#X connect 17 1 14 0;
#X connect 18 0 13 0;
#X connect 18 1 14 0;
#X coords 0 -1 1 1 180 65 1 100 100;
