#N canvas 56 223 997 368 10;
#X obj 9 51 outlet~;
#X obj 125 129 hsl 60 10 0 1 0 0 \$0-a \$0-ra pitch -2 -7 0 10 -44160
-262144 -355 2891 1;
#X obj 105 126 cnv 12 15 13 empty empty 0 1 6 0 12 -33289 -262144 0
;
#X text 118 40 outlet audio~;
#X obj 8 7 inlet;
#X text 112 26 inlets trigger \, control \, add \, multiply;
#N canvas 144 40 719 674 workings 0;
#X obj 227 30 vline~;
#X obj 227 51 *~;
#X obj 163 92 +~ 140;
#X obj 206 92 +~ 275;
#X obj 248 92 +~ 455;
#X obj 389 119 *~;
#X obj 367 -31 t b b;
#X obj 443 35 vline~;
#X obj 443 56 *~;
#X obj 456 81 *~;
#X msg 442 13 1 0 0 \, 0 50 1;
#X obj 391 89 lop~ 1200;
#X obj 290 92 +~ 645;
#X obj 332 92 +~ 1155;
#X msg 226 8 6 1 0 \, 0 100 1;
#X obj 292 326 *~ 0.7;
#X obj 317 490 outlet~;
#X obj 346 -125 inlet bang;
#X obj 541 151 switch~;
#X msg 536 86 1;
#X msg 567 86 0;
#X obj 626 82 sel 0;
#X obj 347 -67 t b b b;
#N canvas 0 22 729 537 noise 0;
#X obj 260 259 +~;
#X obj 261 281 wrap~;
#X obj 260 342 -~ 0.5;
#X obj 260 322 wrap~;
#X msg 327 146 0;
#X obj 258 166 phasor~ 0.01;
#X obj 259 187 *~ 10000;
#X obj 292 217 *~ 6789;
#X obj 261 302 *~ 98765;
#X obj 260 399 outlet~;
#X obj 329 122 inlet;
#X obj 261 364 *~ 2;
#X connect 0 0 1 0;
#X connect 1 0 8 0;
#X connect 2 0 11 0;
#X connect 3 0 2 0;
#X connect 4 0 5 1;
#X connect 5 0 6 0;
#X connect 6 0 0 0;
#X connect 6 0 7 0;
#X connect 7 0 0 1;
#X connect 8 0 3 0;
#X connect 10 0 4 0;
#X connect 11 0 9 0;
#X restore 348 22 pd noise;
#X obj 351 44 *~ 9.99999e+06;
#X obj 345 67 clip~ -0.5 0.5;
#X obj 308 354 *~;
#X msg 391 315 1 5;
#X obj 391 338 vline~;
#X msg 626 25 1 0 \, 0 150;
#X obj 625 47 line 1 150;
#X obj 627 105 del 5;
#X msg 596 194 0 4;
#X obj 72 -136 r \$0-pitch;
#X obj 72 -113 + 0.5;
#X obj 12 -33 * 190;
#X obj 53 -27 * 360;
#X obj 91 -17 * 590;
#X obj 133 -4 * 825;
#X obj 182 2 * 1470;
#X obj 198 188 vcf~ 90;
#X obj 265 189 vcf~ 55;
#X obj 327 189 vcf~ 40;
#X obj 375 189 vcf~ 35;
#X obj 423 189 vcf~ 30;
#X obj 212 270 *~ 200;
#X obj 257 270 *~ 30;
#X obj 296 270 *~ 20;
#X obj 348 272 *~ 8;
#X obj 394 269 *~ 3;
#X connect 0 0 1 0;
#X connect 0 0 1 1;
#X connect 1 0 2 0;
#X connect 1 0 3 0;
#X connect 1 0 4 0;
#X connect 1 0 12 0;
#X connect 1 0 13 0;
#X connect 2 0 40 1;
#X connect 3 0 41 1;
#X connect 4 0 42 1;
#X connect 5 0 40 0;
#X connect 5 0 41 0;
#X connect 5 0 42 0;
#X connect 5 0 43 0;
#X connect 5 0 44 0;
#X connect 6 0 10 0;
#X connect 6 1 14 0;
#X connect 7 0 8 0;
#X connect 7 0 8 1;
#X connect 8 0 9 0;
#X connect 8 0 9 1;
#X connect 9 0 5 0;
#X connect 10 0 7 0;
#X connect 11 0 5 1;
#X connect 12 0 43 1;
#X connect 13 0 44 1;
#X connect 14 0 0 0;
#X connect 15 0 26 0;
#X connect 17 0 22 0;
#X connect 19 0 18 0;
#X connect 20 0 18 0;
#X connect 21 0 31 0;
#X connect 21 0 32 0;
#X connect 22 0 29 0;
#X connect 22 0 23 0;
#X connect 22 0 27 0;
#X connect 22 1 6 0;
#X connect 22 2 19 0;
#X connect 23 0 24 0;
#X connect 24 0 25 0;
#X connect 25 0 11 0;
#X connect 26 0 16 0;
#X connect 27 0 28 0;
#X connect 28 0 26 1;
#X connect 29 0 30 0;
#X connect 30 0 21 0;
#X connect 31 0 20 0;
#X connect 32 0 28 0;
#X connect 33 0 34 0;
#X connect 34 0 35 0;
#X connect 34 0 36 0;
#X connect 34 0 37 0;
#X connect 34 0 38 0;
#X connect 34 0 39 0;
#X connect 35 0 2 1;
#X connect 36 0 3 1;
#X connect 37 0 4 1;
#X connect 38 0 12 1;
#X connect 39 0 13 1;
#X connect 40 0 45 0;
#X connect 41 0 46 0;
#X connect 42 0 47 0;
#X connect 43 0 48 0;
#X connect 44 0 49 0;
#X connect 45 0 15 0;
#X connect 46 0 15 0;
#X connect 47 0 15 0;
#X connect 48 0 15 0;
#X connect 49 0 15 0;
#X restore 8 29 pd workings;
#X text 177 217 ichabod@gmail.com;
#X text 166 176 originally;
#X text 158 195 by stefan "ichabod";
#X obj 605 93 loadbang;
#X obj 427 65 inlet controls;
#X obj 608 115 t b b;
#X obj 634 141 s \$0-loadbang;
#N canvas 629 32 778 610 rgb 0;
#X obj 296 207 * 256;
#X obj 344 180 * 256;
#X obj 346 201 * 256;
#X obj 312 270 +;
#X obj 298 228 t b f;
#X obj 312 293 +;
#X obj 346 223 t b f;
#X obj 252 186 int;
#X msg 263 68 0;
#X obj 252 163 * -1;
#X obj 296 162 * -1;
#X obj 343 158 * -1;
#X obj 103 123 vsl 10 40 1 255 0 0 ertteetyeyterttretretrrtrtrtrtrt
hhghghghghghghgggggh empty 0 -8 0 10 -4160 -262144 -1 0 0;
#X obj 115 123 vsl 10 40 1 255 0 0 ertteetyeyterttretretrrtrtrtrtrt
hhghghghghghghgggggh empty 0 -8 0 10 -4034 -262144 -1 0 0;
#X obj 127 123 vsl 10 40 1 255 0 0 ertteetyeyterttretretrrtrtrtrtrt
hhghghghghghghgggggh empty 0 -8 0 10 -258113 -262144 -1 0 0;
#X obj 252 144 int;
#X obj 293 142 int;
#X obj 342 138 int;
#X msg 344 372 color \$1 0 28;
#X obj 354 449 s \$0-diyglob;
#X connect 0 0 4 0;
#X connect 1 0 2 0;
#X connect 2 0 6 0;
#X connect 3 0 5 0;
#X connect 4 0 3 0;
#X connect 4 1 3 1;
#X connect 5 0 18 0;
#X connect 6 0 3 0;
#X connect 6 1 5 1;
#X connect 7 0 3 0;
#X connect 8 0 12 0;
#X connect 8 0 13 0;
#X connect 8 0 14 0;
#X connect 9 0 7 0;
#X connect 10 0 0 0;
#X connect 11 0 1 0;
#X connect 12 0 15 0;
#X connect 13 0 16 0;
#X connect 14 0 17 0;
#X connect 15 0 9 0;
#X connect 16 0 10 0;
#X connect 17 0 11 0;
#X connect 18 0 19 0;
#X coords 0 -1 1 1 40 70 1 100 100;
#X restore 179 254 pd rgb;
#X msg 611 165 0.49;
#X obj 425 188 diy-gabs \$0 a pitch;
#X obj 441 133 route pitch;
#X obj 452 227 outlet;
#X connect 4 0 6 0;
#X connect 6 0 0 0;
#X connect 10 0 12 0;
#X connect 11 0 17 0;
#X connect 12 0 15 0;
#X connect 12 1 13 0;
#X connect 15 0 16 0;
#X connect 16 0 18 0;
#X connect 17 0 16 0;
#X coords 0 -1 1 1 180 44 1 100 100;
