#N canvas 236 62 1054 490 10;
#X obj 9 51 outlet~;
#X obj 722 8 loadbang;
#X text 118 40 outlet audio~;
#X obj 8 7 inlet;
#X text 112 26 inlets trigger \, control \, add \, multiply;
#X obj 723 29 t b b;
#N canvas 365 30 817 738 clap 0;
#X obj 211 320 vline~;
#X msg 210 301 \$1 1;
#X obj 179 373 *~;
#X obj -1 239 vline~;
#X obj 4 295 *~;
#X msg 51 106 bang;
#X obj 297 335 vline~;
#X obj 190 191 * 0.001;
#X obj 215 241 *;
#X obj 276 169 random 2;
#X obj 276 189 expr $f1 * 2 - 1;
#X obj 189 122 f;
#X obj 219 121 + 1;
#X obj 191 145 * 73652;
#X obj 197 349 osc~;
#X obj 126 432 *~;
#X obj 253 420 *~;
#X obj 255 449 *~ 0.2;
#X obj 143 463 *~;
#X obj 209 279 + 1000;
#X obj 186 170 mod 1000;
#X obj 297 290 f 120;
#X obj 2 267 *~;
#X obj 215 259 * 500;
#X obj 67 150 delay 10;
#X obj 174 532 vcf~ 3;
#X obj 308 478 vline~;
#X obj 258 91 metro 1;
#X obj 181 393 hip~ 800;
#X obj 396 376 f 120;
#X msg 6 579 1;
#X obj 42 579 delay 120;
#X msg 43 603 0;
#X msg 196 90 0;
#X obj 189 697 outlet~;
#X obj 93 555 + 4;
#X obj 5 547 b;
#X obj 297 268 b;
#X msg 294 311 0 \, 4 4 \, 0 \$1 4;
#X obj 50 60 r \$0-trigger;
#X obj 256 60 r \$0-clap-switch;
#X obj 7 635 s \$0-clap-switch;
#N canvas 0 22 462 312 rh_scalelog 0;
#X obj 20 155 exp;
#X obj 20 107 *;
#X obj 20 130 +;
#X obj 98 87 log;
#X obj 194 84 log;
#X obj 123 123 t b f;
#X obj 123 145 -;
#X obj 20 183 outlet;
#X obj 20 19 inlet;
#X obj 98 23 inlet;
#X obj 194 24 inlet;
#X connect 0 0 7 0;
#X connect 1 0 2 0;
#X connect 2 0 0 0;
#X connect 3 0 2 1;
#X connect 3 0 5 0;
#X connect 4 0 6 0;
#X connect 5 0 6 0;
#X connect 5 1 6 1;
#X connect 6 0 1 1;
#X connect 8 0 1 0;
#X connect 9 0 3 0;
#X connect 10 0 4 0;
#X restore 367 136 pd rh_scalelog;
#X obj 368 61 r \$0-pitch;
#N canvas 0 22 462 312 rh_scalelog 0;
#X obj 20 155 exp;
#X obj 20 107 *;
#X obj 20 130 +;
#X obj 98 87 log;
#X obj 194 84 log;
#X obj 123 123 t b f;
#X obj 123 145 -;
#X obj 20 183 outlet;
#X obj 20 19 inlet;
#X obj 98 23 inlet;
#X obj 194 24 inlet;
#X connect 0 0 7 0;
#X connect 1 0 2 0;
#X connect 2 0 0 0;
#X connect 3 0 2 1;
#X connect 3 0 5 0;
#X connect 4 0 6 0;
#X connect 5 0 6 0;
#X connect 5 1 6 1;
#X connect 6 0 1 1;
#X connect 8 0 1 0;
#X connect 9 0 3 0;
#X connect 10 0 4 0;
#X restore 550 164 pd rh_scalelog;
#X obj 546 85 r \$0-decay;
#N canvas 0 22 462 312 rh_scalelog 0;
#X obj 20 155 exp;
#X obj 20 107 *;
#X obj 20 130 +;
#X obj 98 87 log;
#X obj 194 84 log;
#X obj 123 123 t b f;
#X obj 123 145 -;
#X obj 20 183 outlet;
#X obj 20 19 inlet;
#X obj 98 23 inlet;
#X obj 194 24 inlet;
#X connect 0 0 7 0;
#X connect 1 0 2 0;
#X connect 2 0 0 0;
#X connect 3 0 2 1;
#X connect 3 0 5 0;
#X connect 4 0 6 0;
#X connect 5 0 6 0;
#X connect 5 1 6 1;
#X connect 6 0 1 1;
#X connect 8 0 1 0;
#X connect 9 0 3 0;
#X connect 10 0 4 0;
#X restore 292 624 pd rh_scalelog;
#X msg 334 603 0.5;
#X msg 385 598 10;
#X obj 386 244 r \$0-decayd;
#X obj 472 310 r \$0-decayd;
#X obj 93 532 r \$0-decayd;
#X obj 549 190 s \$0-decayd;
#X msg 592 143 10;
#X msg 643 138 2000;
#X msg 310 456 \$3 \, \$2 \$1;
#N canvas 0 22 462 312 rh_scalelog 0;
#X obj 20 155 exp;
#X obj 20 107 *;
#X obj 20 130 +;
#X obj 98 87 log;
#X obj 194 84 log;
#X obj 123 123 t b f;
#X obj 123 145 -;
#X obj 20 183 outlet;
#X obj 20 19 inlet;
#X obj 98 23 inlet;
#X obj 194 24 inlet;
#X connect 0 0 7 0;
#X connect 1 0 2 0;
#X connect 2 0 0 0;
#X connect 3 0 2 1;
#X connect 3 0 5 0;
#X connect 4 0 6 0;
#X connect 5 0 6 0;
#X connect 5 1 6 1;
#X connect 6 0 1 1;
#X connect 8 0 1 0;
#X connect 9 0 3 0;
#X connect 10 0 4 0;
#X restore 571 343 pd rh_scalelog;
#N canvas 0 22 462 312 rh_scalelog 0;
#X obj 20 155 exp;
#X obj 20 107 *;
#X obj 20 130 +;
#X obj 98 87 log;
#X obj 194 84 log;
#X obj 123 123 t b f;
#X obj 123 145 -;
#X obj 20 183 outlet;
#X obj 20 19 inlet;
#X obj 98 23 inlet;
#X obj 194 24 inlet;
#X connect 0 0 7 0;
#X connect 1 0 2 0;
#X connect 2 0 0 0;
#X connect 3 0 2 1;
#X connect 3 0 5 0;
#X connect 4 0 6 0;
#X connect 5 0 6 0;
#X connect 5 1 6 1;
#X connect 6 0 1 1;
#X connect 8 0 1 0;
#X connect 9 0 3 0;
#X connect 10 0 4 0;
#X restore 543 464 pd rh_scalelog;
#X obj 315 436 pack 0 0 0;
#X msg 461 111 10000;
#X msg 407 114 100;
#X msg 665 318 10000;
#X msg 585 442 10;
#X msg 636 439 10000;
#X msg 612 322 10;
#X obj 89 9 inlet;
#X obj 89 31 s \$0-trigger;
#X obj 190 668 tanh~;
#X obj 251 573 r \$0-filterQ;
#X obj 571 270 r \$0-filterTo;
#X obj 543 388 r \$0-filterFrom;
#X obj 294 649 * 0.4;
#X obj 51 86 t b b b;
#X obj 507 582 r \$0-clap-switch;
#X msg 113 192 0.25;
#X obj 153 257 samphold~;
#X obj 164 233 noise~;
#X obj 507 613 switch~;
#X msg 1 219 0 \, 1 2 \, 0 15 2;
#X obj 43 286 vline~;
#X obj 60 338 *~;
#X obj 46 314 *~;
#X msg 45 266 0 \, 1 2 \, 0 15 2;
#X obj 88 324 vline~;
#X obj 105 376 *~;
#X obj 91 352 *~;
#X msg 90 304 0 \, 1 2 \, 0 15 2;
#X obj 89 243 delay 10;
#X obj 97 431 *~;
#X obj 68 433 *~;
#N canvas 0 22 462 312 rh_scalelog 0;
#X obj 20 155 exp;
#X obj 20 107 *;
#X obj 20 130 +;
#X obj 98 87 log;
#X obj 194 84 log;
#X obj 123 123 t b f;
#X obj 123 145 -;
#X obj 20 183 outlet;
#X obj 20 19 inlet;
#X obj 98 23 inlet;
#X obj 194 24 inlet;
#X connect 0 0 7 0;
#X connect 1 0 2 0;
#X connect 2 0 0 0;
#X connect 3 0 2 1;
#X connect 3 0 5 0;
#X connect 4 0 6 0;
#X connect 5 0 6 0;
#X connect 5 1 6 1;
#X connect 6 0 1 1;
#X connect 8 0 1 0;
#X connect 9 0 3 0;
#X connect 10 0 4 0;
#X restore 658 548 pd rh_scalelog;
#X msg 752 523 50;
#N canvas 0 22 462 312 rh_scalelog 0;
#X obj 20 155 exp;
#X obj 20 107 *;
#X obj 20 130 +;
#X obj 98 87 log;
#X obj 194 84 log;
#X obj 123 123 t b f;
#X obj 123 145 -;
#X obj 20 183 outlet;
#X obj 20 19 inlet;
#X obj 98 23 inlet;
#X obj 194 24 inlet;
#X connect 0 0 7 0;
#X connect 1 0 2 0;
#X connect 2 0 0 0;
#X connect 3 0 2 1;
#X connect 3 0 5 0;
#X connect 4 0 6 0;
#X connect 5 0 6 0;
#X connect 5 1 6 1;
#X connect 6 0 1 1;
#X connect 8 0 1 0;
#X connect 9 0 3 0;
#X connect 10 0 4 0;
#X restore 648 668 pd rh_scalelog;
#X msg 742 643 50;
#X obj 653 468 r \$0-delay1;
#X obj 656 597 r \$0-delay2;
#X obj 661 569 s \$0-delay1d;
#X obj 647 689 s \$0-delay2d;
#X obj 158 70 r \$0-delay2d;
#X msg 688 646 5;
#X msg 698 526 5;
#X obj 133 50 r \$0-delay1d;
#X obj 412 84 r \$0-loadbang;
#X obj 595 112 r \$0-loadbang;
#X obj 616 291 r \$0-loadbang;
#X obj 703 496 r \$0-loadbang;
#X obj 693 616 r \$0-loadbang;
#X obj 337 572 r \$0-loadbang;
#X obj 587 413 r \$0-loadbang;
#X obj 182 583 *~ 1;
#X connect 0 0 14 0;
#X connect 1 0 0 0;
#X connect 2 0 28 0;
#X connect 3 0 22 0;
#X connect 3 0 22 1;
#X connect 4 0 89 0;
#X connect 5 0 24 0;
#X connect 5 0 78 0;
#X connect 6 0 16 1;
#X connect 6 0 18 1;
#X connect 7 0 8 0;
#X connect 8 0 23 0;
#X connect 9 0 10 0;
#X connect 10 0 8 1;
#X connect 11 0 12 0;
#X connect 11 0 13 0;
#X connect 12 0 11 1;
#X connect 13 0 20 0;
#X connect 14 0 2 1;
#X connect 15 0 18 0;
#X connect 16 0 17 0;
#X connect 17 0 25 0;
#X connect 18 0 25 0;
#X connect 19 0 1 0;
#X connect 20 0 7 0;
#X connect 21 0 38 0;
#X connect 22 0 4 1;
#X connect 22 0 4 0;
#X connect 23 0 19 0;
#X connect 24 0 82 0;
#X connect 24 0 87 0;
#X connect 25 0 109 0;
#X connect 26 0 25 1;
#X connect 27 0 9 0;
#X connect 27 0 11 0;
#X connect 28 0 15 1;
#X connect 28 0 16 0;
#X connect 28 0 88 1;
#X connect 28 0 89 1;
#X connect 29 0 58 0;
#X connect 30 0 41 0;
#X connect 31 0 32 0;
#X connect 32 0 41 0;
#X connect 33 0 11 1;
#X connect 35 0 31 1;
#X connect 36 0 30 0;
#X connect 36 0 31 0;
#X connect 37 0 21 0;
#X connect 37 0 29 0;
#X connect 38 0 6 0;
#X connect 39 0 72 0;
#X connect 40 0 27 0;
#X connect 40 0 33 0;
#X connect 42 0 19 1;
#X connect 43 0 42 0;
#X connect 44 0 52 0;
#X connect 45 0 44 0;
#X connect 46 0 25 2;
#X connect 46 0 71 0;
#X connect 47 0 46 1;
#X connect 48 0 46 2;
#X connect 49 0 21 1;
#X connect 50 0 29 1;
#X connect 51 0 35 0;
#X connect 53 0 44 1;
#X connect 54 0 44 2;
#X connect 55 0 26 0;
#X connect 56 0 58 1;
#X connect 57 0 58 2;
#X connect 58 0 55 0;
#X connect 59 0 42 2;
#X connect 60 0 42 1;
#X connect 61 0 56 2;
#X connect 62 0 57 1;
#X connect 63 0 57 2;
#X connect 64 0 56 1;
#X connect 65 0 66 0;
#X connect 67 0 34 0;
#X connect 68 0 46 0;
#X connect 69 0 56 0;
#X connect 70 0 57 0;
#X connect 71 0 109 1;
#X connect 72 0 5 0;
#X connect 72 1 37 0;
#X connect 72 2 36 0;
#X connect 72 2 74 0;
#X connect 73 0 77 0;
#X connect 74 0 14 1;
#X connect 75 0 2 0;
#X connect 76 0 75 1;
#X connect 76 0 75 0;
#X connect 78 0 3 0;
#X connect 79 0 81 0;
#X connect 79 0 81 1;
#X connect 80 0 88 0;
#X connect 81 0 80 1;
#X connect 81 0 80 0;
#X connect 82 0 79 0;
#X connect 83 0 85 0;
#X connect 83 0 85 1;
#X connect 84 0 15 0;
#X connect 85 0 84 1;
#X connect 85 0 84 0;
#X connect 86 0 83 0;
#X connect 87 0 86 0;
#X connect 88 0 18 0;
#X connect 89 0 18 0;
#X connect 90 0 96 0;
#X connect 91 0 90 2;
#X connect 92 0 97 0;
#X connect 93 0 92 2;
#X connect 94 0 90 0;
#X connect 95 0 92 0;
#X connect 98 0 87 1;
#X connect 99 0 92 1;
#X connect 100 0 90 1;
#X connect 101 0 24 1;
#X connect 102 0 60 0;
#X connect 102 0 59 0;
#X connect 103 0 53 0;
#X connect 103 0 54 0;
#X connect 104 0 64 0;
#X connect 104 0 61 0;
#X connect 105 0 100 0;
#X connect 105 0 91 0;
#X connect 106 0 99 0;
#X connect 106 0 93 0;
#X connect 107 0 47 0;
#X connect 107 0 48 0;
#X connect 108 0 62 0;
#X connect 108 0 63 0;
#X connect 109 0 67 0;
#X restore 10 28 pd clap;
#X obj 125 129 hsl 60 10 0 1 0 0 \$0-a \$0-ra pitch -2 -7 0 10 -258107
-262144 -355 3245 1;
#X obj 125 152 hsl 60 10 0 1 0 0 \$0-c \$0-rc filterFrom -2 -7 0 10
-258107 -262144 -355 5310 1;
#X obj 212 129 hsl 60 10 0 1 0 0 \$0-b \$0-rb filterQ -2 -7 0 10 -258107
-262144 -355 1180 1;
#X obj 212 152 hsl 60 10 0 1 0 0 \$0-d \$0-rd filterTo -2 -7 0 10 -258107
-262144 -355 885 1;
#X obj 125 175 hsl 60 10 0 1 0 0 \$0-e \$0-re delay1 -2 -7 0 10 -258107
-262144 -355 1770 1;
#X obj 125 198 hsl 60 10 0 1 0 0 \$0-g \$0-rg decay -2 -7 0 10 -258107
-262144 -355 3481 1;
#X obj 212 175 hsl 60 10 0 1 0 0 \$0-f \$0-rf delay2 -2 -7 0 10 -258107
-262144 -355 1770 1;
#X obj 105 126 cnv 12 15 13 empty empty 0 1 6 0 12 -33289 -262144 0
;
#X obj 105 149 cnv 12 15 13 empty empty 2 1 6 0 12 -33289 -262144 0
;
#X obj 105 172 cnv 12 15 13 empty empty 4 1 6 0 12 -33289 -262144 0
;
#X obj 105 195 cnv 12 15 13 empty empty 6 1 6 0 12 -33289 -262144 0
;
#X obj 192 126 cnv 12 15 13 empty empty 1 1 6 0 12 -33289 -262144 0
;
#X obj 192 149 cnv 12 15 13 empty empty 3 1 6 0 12 -33289 -262144 0
;
#X obj 192 172 cnv 12 15 13 empty empty 5 1 6 0 12 -33289 -262144 0
;
#X obj 874 78 s \$0-loadbang;
#X obj 339 59 inlet controls;
#X obj 331 125 diy-gabs \$0 a pitch;
#X obj 381 148 diy-gabs \$0 b filterQ;
#X obj 414 170 diy-gabs \$0 c filterFrom;
#X obj 469 190 diy-gabs \$0 d filterTo;
#X obj 510 218 diy-gabs \$0 e delay1;
#X obj 538 240 diy-gabs \$0 f delay2;
#X obj 561 266 diy-gabs \$0 g decay;
#X obj 407 296 instr/gabsaver \$1 \$2 \$3;
#N canvas 629 32 778 610 rgb 0;
#X obj 296 207 * 256;
#X obj 344 180 * 256;
#X obj 346 201 * 256;
#X obj 312 270 +;
#X obj 298 228 t b f;
#X obj 312 293 +;
#X obj 346 223 t b f;
#X obj 252 186 int;
#X msg 263 68 0;
#X obj 252 163 * -1;
#X obj 296 162 * -1;
#X obj 343 158 * -1;
#X obj 103 123 vsl 10 40 1 255 0 0 ertteetyeyterttretretrrtrtrtrtrt
hhghghghghghghgggggh empty 0 -8 0 10 -4160 -262144 -1 0 0;
#X obj 115 123 vsl 10 40 1 255 0 0 ertteetyeyterttretretrrtrtrtrtrt
hhghghghghghghgggggh empty 0 -8 0 10 -4034 -262144 -1 0 0;
#X obj 127 123 vsl 10 40 1 255 0 0 ertteetyeyterttretretrrtrtrtrtrt
hhghghghghghghgggggh empty 0 -8 0 10 -258113 -262144 -1 0 0;
#X obj 252 144 int;
#X obj 293 142 int;
#X obj 342 138 int;
#X msg 344 372 color \$1 0 28;
#X obj 354 449 s \$0-diyglob;
#X connect 0 0 4 0;
#X connect 1 0 2 0;
#X connect 2 0 6 0;
#X connect 3 0 5 0;
#X connect 4 0 3 0;
#X connect 4 1 3 1;
#X connect 5 0 18 0;
#X connect 6 0 3 0;
#X connect 6 1 5 1;
#X connect 7 0 3 0;
#X connect 8 0 12 0;
#X connect 8 0 13 0;
#X connect 8 0 14 0;
#X connect 9 0 7 0;
#X connect 10 0 0 0;
#X connect 11 0 1 0;
#X connect 12 0 15 0;
#X connect 13 0 16 0;
#X connect 14 0 17 0;
#X connect 15 0 9 0;
#X connect 16 0 10 0;
#X connect 17 0 11 0;
#X connect 18 0 19 0;
#X coords 0 -1 1 1 40 70 1 100 100;
#X restore 226 298 pd rgb;
#X msg 715 48 0.55 0.2 0.9 0.15 0.3 0.3 0.59;
#X obj 338 88 route pitch filterQ filterFrom filterTo delay1 delay2
decay disable;
#X obj 713 72 unpack f f f f f f f;
#X connect 1 0 5 0;
#X connect 3 0 6 0;
#X connect 5 0 32 0;
#X connect 5 1 21 0;
#X connect 6 0 0 0;
#X connect 22 0 33 0;
#X connect 23 0 30 0;
#X connect 24 0 30 0;
#X connect 25 0 30 0;
#X connect 26 0 30 0;
#X connect 27 0 30 0;
#X connect 28 0 30 0;
#X connect 29 0 30 0;
#X connect 30 0 33 0;
#X connect 32 0 34 0;
#X connect 33 0 23 0;
#X connect 33 1 24 0;
#X connect 33 2 25 0;
#X connect 33 3 26 0;
#X connect 33 4 27 0;
#X connect 33 5 28 0;
#X connect 33 6 29 0;
#X connect 33 7 30 1;
#X connect 34 0 23 0;
#X connect 34 1 24 0;
#X connect 34 2 25 0;
#X connect 34 3 26 0;
#X connect 34 4 27 0;
#X connect 34 5 28 0;
#X connect 34 6 29 0;
#X coords 0 -1 1 1 180 112 1 100 100;
