#N canvas 242 45 972 361 10;
#X obj 16 6 inlet~;
#X obj 16 59 outlet~;
#N canvas 294 40 555 679 workings 0;
#X obj 225 580 outlet~;
#X obj 305 472 r \$0-gain;
#N canvas 0 22 462 312 rh_scalelog 0;
#X obj 20 155 exp;
#X obj 20 107 *;
#X obj 20 130 +;
#X obj 98 87 log;
#X obj 194 84 log;
#X obj 123 123 t b f;
#X obj 123 145 -;
#X obj 20 183 outlet;
#X obj 20 19 inlet;
#X obj 98 23 inlet;
#X obj 194 24 inlet;
#X connect 0 0 7 0;
#X connect 1 0 2 0;
#X connect 2 0 0 0;
#X connect 3 0 2 1;
#X connect 3 0 5 0;
#X connect 4 0 6 0;
#X connect 5 0 6 0;
#X connect 5 1 6 1;
#X connect 6 0 1 1;
#X connect 8 0 1 0;
#X connect 9 0 3 0;
#X connect 10 0 4 0;
#X restore 305 542 pd rh_scalelog;
#X msg 352 518 0.1;
#X msg 398 518 10;
#X obj 225 553 *~;
#X obj 352 490 r \$0-loadbang;
#X obj 188 247 lop~ 500;
#X obj 247 246 hip~ 500;
#X obj 108 246 lop~ 500;
#X obj 47 246 hip~ 500;
#X msg 269 185 \$1 20;
#X obj 268 205 line 0 2;
#X obj 269 142 + 30;
#X obj 268 117 * 60;
#X obj 277 286 delwrite~ \$0-del 50;
#X obj 416 244 + 1;
#X obj 416 223 * 45;
#X obj 414 284 line~;
#X msg 417 265 \$1 20;
#X obj 415 327 vd~ \$0-del;
#X obj 417 180 r \$0-width;
#X obj 47 132 inlet~;
#X obj 268 95 r \$0-rolloff;
#X obj 129 483 *~;
#X obj 141 577 outlet~;
#X obj 125 130 inlet~;
#X obj 269 163 mtof;
#X obj 416 201 sqr;
#X connect 1 0 2 0;
#X connect 2 0 5 1;
#X connect 2 0 24 1;
#X connect 3 0 2 1;
#X connect 4 0 2 2;
#X connect 5 0 0 0;
#X connect 6 0 3 0;
#X connect 6 0 4 0;
#X connect 7 0 5 0;
#X connect 8 0 15 0;
#X connect 9 0 24 0;
#X connect 10 0 24 0;
#X connect 11 0 12 0;
#X connect 12 0 10 1;
#X connect 12 0 9 1;
#X connect 12 0 7 1;
#X connect 12 0 8 1;
#X connect 13 0 27 0;
#X connect 14 0 13 0;
#X connect 16 0 19 0;
#X connect 17 0 16 0;
#X connect 18 0 20 0;
#X connect 19 0 18 0;
#X connect 20 0 5 0;
#X connect 21 0 28 0;
#X connect 22 0 9 0;
#X connect 22 0 10 0;
#X connect 23 0 14 0;
#X connect 24 0 25 0;
#X connect 26 0 7 0;
#X connect 26 0 8 0;
#X connect 27 0 11 0;
#X connect 28 0 17 0;
#X restore 25 32 pd workings;
#X obj 730 24 loadbang;
#X obj 730 48 t b b;
#X obj 759 73 s \$0-loadbang;
#X obj 125 129 hsl 60 10 0 1 0 0 \$0-a \$0-ra width -2 -7 0 10 -233536
-262144 -355 1180 1;
#X obj 125 152 hsl 60 10 0 1 0 0 \$0-c \$0-rc gain -2 -7 0 10 -233536
-262144 -355 2891 1;
#X obj 212 129 hsl 60 10 0 1 0 0 \$0-b \$0-rb rolloff -2 -7 0 10 -233536
-262144 -355 2360 1;
#X obj 105 126 cnv 12 15 13 empty empty 0 1 6 0 12 -33289 -262144 0
;
#X obj 105 149 cnv 12 15 13 empty empty 2 1 6 0 12 -33289 -262144 0
;
#X obj 192 126 cnv 12 15 13 empty empty 1 1 6 0 12 -33289 -262144 0
;
#X obj 95 5 inlet~;
#X obj 95 58 outlet~;
#X msg 687 91 0.2 0.4 0.49;
#X obj 480 8 inlet controls;
#N canvas 629 32 778 610 rgb 0;
#X obj 296 207 * 256;
#X obj 344 180 * 256;
#X obj 346 201 * 256;
#X obj 312 270 +;
#X obj 298 228 t b f;
#X obj 312 293 +;
#X obj 346 223 t b f;
#X obj 252 186 int;
#X msg 263 68 0;
#X obj 252 163 * -1;
#X obj 296 162 * -1;
#X obj 343 158 * -1;
#X obj 103 123 vsl 10 40 1 255 0 0 ertteetyeyterttretretrrtrtrtrtrt
hhghghghghghghgggggh empty 0 -8 0 10 -4160 -262144 -1 0 0;
#X obj 115 123 vsl 10 40 1 255 0 0 ertteetyeyterttretretrrtrtrtrtrt
hhghghghghghghgggggh empty 0 -8 0 10 -4034 -262144 -1 0 0;
#X obj 127 123 vsl 10 40 1 255 0 0 ertteetyeyterttretretrrtrtrtrtrt
hhghghghghghghgggggh empty 0 -8 0 10 -258113 -262144 -1 0 0;
#X obj 252 144 int;
#X obj 293 142 int;
#X obj 342 138 int;
#X msg 344 372 color \$1 0 28;
#X obj 354 449 s \$0-diyglob;
#X connect 0 0 4 0;
#X connect 1 0 2 0;
#X connect 2 0 6 0;
#X connect 3 0 5 0;
#X connect 4 0 3 0;
#X connect 4 1 3 1;
#X connect 5 0 18 0;
#X connect 6 0 3 0;
#X connect 6 1 5 1;
#X connect 7 0 3 0;
#X connect 8 0 12 0;
#X connect 8 0 13 0;
#X connect 8 0 14 0;
#X connect 9 0 7 0;
#X connect 10 0 0 0;
#X connect 11 0 1 0;
#X connect 12 0 15 0;
#X connect 13 0 16 0;
#X connect 14 0 17 0;
#X connect 15 0 9 0;
#X connect 16 0 10 0;
#X connect 17 0 11 0;
#X connect 18 0 19 0;
#X coords 0 -1 1 1 40 70 1 100 100;
#X restore 203 223 pd rgb;
#X obj 481 100 unpack f f f;
#X obj 378 131 diy-gabs \$0 a width;
#X obj 509 138 diy-gabs \$0 b rolloff;
#X obj 565 167 diy-gabs \$0 c gain;
#X obj 479 200 outlet;
#X obj 482 68 route width rolloff gain;
#X connect 0 0 2 0;
#X connect 2 0 1 0;
#X connect 2 1 13 0;
#X connect 3 0 4 0;
#X connect 4 0 14 0;
#X connect 4 1 5 0;
#X connect 12 0 2 1;
#X connect 14 0 17 0;
#X connect 15 0 22 0;
#X connect 17 0 18 0;
#X connect 17 1 19 0;
#X connect 17 2 20 0;
#X connect 18 0 21 0;
#X connect 19 0 21 0;
#X connect 20 0 21 0;
#X connect 22 0 18 0;
#X connect 22 1 19 0;
#X connect 22 2 20 0;
#X coords 0 -1 1 1 180 65 1 100 100;
