#N canvas 78 324 1021 429 10;
#X obj 17 114 outlet~;
#X obj 668 22 loadbang;
#X obj 126 131 hsl 60 13 0 1 0 0 \$0-a \$0-ra phase -2 -7 0 10 -62
-262144 -355 1770 1;
#X obj 126 158 hsl 60 13 0 1 0 0 \$0-c \$0-rc wave1 -2 -7 0 10 -62
-262144 -355 3540 1;
#X obj 213 131 hsl 60 13 0 1 0 0 \$0-b \$0-rb index -2 -7 0 10 -62
-262144 -355 0 1;
#X obj 213 158 hsl 60 13 0 1 0 0 \$0-d \$0-rd wave2 -2 -7 0 10 -62
-262144 -355 1180 1;
#X obj 126 185 hsl 60 13 0 1 0 0 \$0-e \$0-re wavemix -2 -7 0 10 -62
-262144 -355 2944 1;
#X obj 106 131 cnv 12 15 13 empty empty 0 1 6 0 12 -33289 -262144 0
;
#X obj 106 158 cnv 12 15 13 empty empty 2 1 6 0 12 -33289 -262144 0
;
#X obj 106 185 cnv 12 15 13 empty empty 4 1 6 0 12 -33289 -262144 0
;
#X obj 193 131 cnv 12 15 13 empty empty 1 1 6 0 12 -33289 -262144 0
;
#X obj 193 158 cnv 12 15 13 empty empty 3 1 6 0 12 -33289 -262144 0
;
#X text 110 29 outlet audio~;
#X obj 369 13 inlet controls;
#X text 104 14 inlets pitch \, control \, add \, multiply;
#X obj 17 29 s \$0-pitch;
#X obj 16 6 inlet;
#N canvas 77 23 893 719 cz-1000 0;
#X obj 386 136 pow 0.15;
#X obj 387 86 line;
#X msg 386 66 \$1 50;
#X obj 387 44 + 1;
#X obj 259 207 wrap~;
#X obj 259 184 *~ 4;
#X obj 220 538 *~;
#X obj 284 483 +~ 0.25;
#X obj 284 505 cos~;
#X obj 283 463 +~;
#X obj 371 300 *~;
#X obj 386 211 expr 0.5 / (1 - $f1);
#X obj 256 418 *~;
#X obj 256 334 *~ -1;
#X obj 256 356 +~ 1;
#X obj 256 380 *~;
#X obj 387 108 / 102;
#X obj 371 325 expr~ (1 - $v1) - 1;
#X obj 361 373 *~;
#X obj 436 401 expr 0.5 / $f1;
#X obj 403 279 -~ 1;
#X obj 361 393 *~;
#X obj 361 416 *~ -1;
#X obj 361 437 expr~ 0.5 - $v1;
#N canvas 0 22 828 638 waveshaper 0;
#X obj 434 111 *~ -1;
#X obj 434 136 +~ 1;
#X obj 410 197 min~;
#X obj 409 225 *~ 2;
#X obj 293 310 outlet~;
#X obj 300 146 *~ 2;
#X obj 300 170 min~ 1;
#X obj 402 -146 inlet;
#X obj 401 -86 == 1;
#X obj 222 -8 *~ 1;
#X obj 282 -14 *~ 0;
#X obj 337 -14 *~ 0;
#X obj 197 -182 inlet~;
#X obj 440 -86 == 2;
#X obj 362 -88 == 0;
#X connect 0 0 1 0;
#X connect 1 0 2 1;
#X connect 2 0 3 0;
#X connect 3 0 4 0;
#X connect 5 0 6 0;
#X connect 6 0 4 0;
#X connect 7 0 8 0;
#X connect 7 0 13 0;
#X connect 7 0 14 0;
#X connect 8 0 10 1;
#X connect 9 0 4 0;
#X connect 10 0 5 0;
#X connect 11 0 0 0;
#X connect 11 0 2 0;
#X connect 12 0 9 0;
#X connect 12 0 10 0;
#X connect 12 0 11 0;
#X connect 13 0 11 1;
#X connect 14 0 9 1;
#X restore 158 417 pd waveshaper;
#N canvas 186 22 841 618 waveshaper 0;
#X obj 308 407 outlet~;
#X obj 549 -52 inlet;
#X obj 267 -41 inlet~;
#X obj 549 50 == 4;
#N canvas 0 22 667 497 sawtooth 0;
#X text 225 81 sawtooth;
#X obj 89 113 *~ 1;
#X obj 86 2 inlet~;
#X obj 240 279 outlet~;
#X obj 144 69 inlet;
#X obj 86 49 *~ -1;
#X obj 152 123 switch~ 0;
#X connect 1 0 3 0;
#X connect 2 0 5 0;
#X connect 4 0 1 1;
#X connect 4 0 6 0;
#X connect 5 0 1 0;
#X restore 57 81 pd sawtooth;
#X obj 130 50 == 0;
#N canvas 0 22 490 316 square 0;
#X obj 86 2 inlet~;
#X obj 144 69 inlet;
#X text 211 111 square;
#X obj 88 113 *~ 0;
#X obj 116 239 outlet~;
#X obj 136 154 switch~ 0;
#X obj 87 42 expr~ $v1>0.5;
#X connect 0 0 6 0;
#X connect 1 0 3 1;
#X connect 1 0 5 0;
#X connect 3 0 4 0;
#X connect 6 0 3 0;
#X restore 161 82 pd square;
#X obj 220 50 == 1;
#N canvas 0 22 603 438 pulse 0;
#X obj 86 2 inlet~;
#X obj 209 209 inlet;
#X text 205 86 pulse;
#X obj 87 59 *~;
#X obj 88 81 *~;
#X obj 155 252 *~ 0;
#X obj 241 331 outlet~;
#X obj 195 258 switch~;
#X connect 0 0 3 1;
#X connect 0 0 3 0;
#X connect 1 0 5 1;
#X connect 1 0 7 0;
#X connect 3 0 4 0;
#X connect 3 0 4 1;
#X connect 4 0 5 0;
#X connect 5 0 6 0;
#X restore 269 82 pd pulse;
#X obj 344 42 == 2;
#N canvas 0 22 611 446 saw-pulse 0;
#X obj 86 2 inlet~;
#X obj 156 301 outlet~;
#X obj 129 157 inlet;
#X obj 71 149 cos~;
#X obj 71 131 +~ 0.75;
#X obj 68 92 *~ 0.5;
#X text 127 78 saw-pulse;
#X obj 73 188 *~ 0;
#X obj 69 112 expr~ if ($v1 > 0.25 \, $v1 \, 0);
#X obj 145 200 switch~;
#X connect 0 0 5 0;
#X connect 2 0 7 1;
#X connect 2 0 9 0;
#X connect 3 0 7 0;
#X connect 4 0 3 0;
#X connect 5 0 8 0;
#X connect 7 0 1 0;
#X connect 8 0 4 0;
#X restore 470 79 pd saw-pulse;
#X obj 450 39 == 3;
#N canvas 0 22 607 442 doublesine 0;
#X obj 86 2 inlet~;
#X obj 156 301 outlet~;
#X obj 209 209 inlet;
#X obj 155 252 *~ 0;
#X obj 93 89 cos~;
#X obj 92 52 expr~ if ($v1 > 0.66666 \, ((1-$v1) * 1.5) - 0.25 \, $v1
* 0.75 + 0.25);
#X text 229 116 double sine;
#X obj 226 240 switch~;
#X connect 0 0 5 0;
#X connect 2 0 3 1;
#X connect 2 0 7 0;
#X connect 3 0 1 0;
#X connect 4 0 3 0;
#X connect 5 0 4 0;
#X restore 358 84 pd doublesine;
#X connect 1 0 5 0;
#X connect 1 0 7 0;
#X connect 1 0 9 0;
#X connect 1 0 3 0;
#X connect 1 0 11 0;
#X connect 2 0 4 0;
#X connect 2 0 6 0;
#X connect 2 0 8 0;
#X connect 2 0 10 0;
#X connect 2 0 12 0;
#X connect 3 0 10 1;
#X connect 4 0 0 0;
#X connect 5 0 4 1;
#X connect 6 0 0 0;
#X connect 7 0 6 1;
#X connect 8 0 0 0;
#X connect 9 0 8 1;
#X connect 10 0 0 0;
#X connect 11 0 12 1;
#X connect 12 0 0 0;
#X restore 46 416 pd waveshaper;
#X obj 387 3 r \$0-ctrl-1;
#X obj 547 112 s \$0-ctrl-1;
#X obj 282 137 r \$0-ctrl-2;
#X obj 406 343 r \$0-z-phase;
#X obj 408 162 s \$0-z-phase;
#X obj 550 238 s \$0-ctrl-2;
#X obj 387 24 / 1.5;
#X obj 88 456 *~ 0.5;
#X text 656 393 sawtooth;
#X text 656 411 square;
#X text 657 425 pulse;
#X text 658 441 double sine;
#X text 656 455 sawpulse;
#X obj 554 425 int;
#X obj 554 404 * 4.99;
#X obj 547 92 * 127;
#X obj 547 74 r \$0-phase;
#X obj 554 382 r \$0-wave2;
#X obj 550 294 r \$0-wave1;
#X obj 551 334 int;
#X obj 551 313 * 2.99;
#X text 660 303 saw;
#X text 660 318 trapezoid;
#X text 662 333 triangle;
#X obj 550 191 int;
#X obj 550 170 * 15.99;
#X obj 549 151 r \$0-index;
#X obj 134 2 r \$0-pitch;
#X obj 222 670 outlet~;
#X obj 243 307 r \$0-ctrl-3;
#X obj 91 342 r \$0-ctrl-4;
#X obj 551 354 s \$0-ctrl-3;
#X obj 554 446 s \$0-ctrl-4;
#X obj 567 511 r \$0-wavemix;
#X obj 657 592 - 1;
#X obj 657 614 abs;
#X msg 567 536 \$1 50;
#X obj 566 556 line;
#X obj 655 657 s \$0-w2mix;
#X obj 566 656 s \$0-w1mix;
#X obj 145 477 r \$0-w1mix;
#X obj 555 611 min 0.5;
#X obj 656 636 min 0.5;
#X obj 257 560 r \$0-w2mix;
#X obj 108 502 *~ 0.5;
#X obj 220 584 *~ 0.5;
#X obj 550 214 + 2;
#X obj 225 641 *~ 2;
#X obj 406 361 sel 0;
#X msg 407 380 0.005;
#X obj 349 166 sel 1;
#X msg 349 187 0.999;
#X obj 151 106 min~ 0.5;
#X obj 87 107 max~ 0.5;
#X obj 87 132 -~ 0.5;
#X obj 87 156 *~ 2;
#X obj 151 130 *~ 2;
#X obj 127 62 phasor~ -100;
#X obj 151 176 *~;
#X obj 130 36 * -1;
#X obj 166 153 expr~ $v1<1;
#X obj 390 252 expr~ $v1>$f2;
#X connect 0 0 30 0;
#X connect 0 0 76 0;
#X connect 0 0 87 1;
#X connect 1 0 16 0;
#X connect 2 0 1 0;
#X connect 3 0 2 0;
#X connect 4 0 13 0;
#X connect 4 0 10 0;
#X connect 4 0 87 0;
#X connect 5 0 4 0;
#X connect 6 0 71 0;
#X connect 7 0 8 0;
#X connect 8 0 6 1;
#X connect 9 0 7 0;
#X connect 10 0 17 0;
#X connect 11 0 15 1;
#X connect 12 0 9 0;
#X connect 13 0 14 0;
#X connect 14 0 15 0;
#X connect 15 0 12 0;
#X connect 16 0 0 0;
#X connect 17 0 18 0;
#X connect 18 0 21 0;
#X connect 19 0 18 1;
#X connect 20 0 10 1;
#X connect 20 0 21 1;
#X connect 21 0 22 0;
#X connect 22 0 23 0;
#X connect 23 0 9 0;
#X connect 24 0 6 0;
#X connect 25 0 33 0;
#X connect 26 0 32 0;
#X connect 28 0 5 1;
#X connect 29 0 74 0;
#X connect 32 0 3 0;
#X connect 33 0 70 0;
#X connect 39 0 58 0;
#X connect 40 0 39 0;
#X connect 41 0 27 0;
#X connect 42 0 41 0;
#X connect 43 0 40 0;
#X connect 44 0 46 0;
#X connect 45 0 57 0;
#X connect 46 0 45 0;
#X connect 50 0 72 0;
#X connect 51 0 50 0;
#X connect 52 0 51 0;
#X connect 53 0 85 0;
#X connect 55 0 24 1;
#X connect 56 0 25 1;
#X connect 59 0 62 0;
#X connect 60 0 61 0;
#X connect 61 0 68 0;
#X connect 62 0 63 0;
#X connect 63 0 60 0;
#X connect 63 0 67 0;
#X connect 66 0 70 1;
#X connect 67 0 65 0;
#X connect 68 0 64 0;
#X connect 69 0 71 1;
#X connect 70 0 73 0;
#X connect 71 0 73 0;
#X connect 72 0 31 0;
#X connect 73 0 54 0;
#X connect 74 0 75 0;
#X connect 74 1 19 0;
#X connect 75 0 19 0;
#X connect 76 0 77 0;
#X connect 76 1 11 0;
#X connect 77 0 11 0;
#X connect 78 0 82 0;
#X connect 79 0 80 0;
#X connect 80 0 81 0;
#X connect 81 0 25 0;
#X connect 82 0 84 0;
#X connect 82 0 86 0;
#X connect 83 0 78 0;
#X connect 83 0 79 0;
#X connect 84 0 24 0;
#X connect 84 0 5 0;
#X connect 85 0 83 0;
#X connect 86 0 84 1;
#X connect 87 0 12 1;
#X connect 87 0 20 0;
#X restore 15 80 pd cz-1000;
#X obj 671 45 t b b;
#X obj 720 55 s \$0-loadbang;
#X obj 638 114 unpack f f f f f;
#X msg 669 79 0.3 0 0.6 0.2 0.499;
#N canvas 629 32 778 610 rgb 0;
#X obj 296 207 * 256;
#X obj 344 180 * 256;
#X obj 346 201 * 256;
#X obj 312 270 +;
#X obj 298 228 t b f;
#X obj 312 293 +;
#X obj 346 223 t b f;
#X obj 252 186 int;
#X msg 263 68 0;
#X obj 252 163 * -1;
#X obj 296 162 * -1;
#X obj 343 158 * -1;
#X obj 103 123 vsl 10 40 1 255 0 0 ertteetyeyterttretretrrtrtrtrtrt
hhghghghghghghgggggh empty 0 -8 0 10 -4160 -262144 -1 0 0;
#X obj 115 123 vsl 10 40 1 255 0 0 ertteetyeyterttretretrrtrtrtrtrt
hhghghghghghghgggggh empty 0 -8 0 10 -4034 -262144 -1 0 0;
#X obj 127 123 vsl 10 40 1 255 0 0 ertteetyeyterttretretrrtrtrtrtrt
hhghghghghghghgggggh empty 0 -8 0 10 -258113 -262144 -1 0 0;
#X obj 252 144 int;
#X obj 293 142 int;
#X obj 342 138 int;
#X msg 344 372 color \$1 0 28;
#X obj 354 449 s \$0-diyglob;
#X connect 0 0 4 0;
#X connect 1 0 2 0;
#X connect 2 0 6 0;
#X connect 3 0 5 0;
#X connect 4 0 3 0;
#X connect 4 1 3 1;
#X connect 5 0 18 0;
#X connect 6 0 3 0;
#X connect 6 1 5 1;
#X connect 7 0 3 0;
#X connect 8 0 12 0;
#X connect 8 0 13 0;
#X connect 8 0 14 0;
#X connect 9 0 7 0;
#X connect 10 0 0 0;
#X connect 11 0 1 0;
#X connect 12 0 15 0;
#X connect 13 0 16 0;
#X connect 14 0 17 0;
#X connect 15 0 9 0;
#X connect 16 0 10 0;
#X connect 17 0 11 0;
#X connect 18 0 19 0;
#X coords 0 -1 1 1 40 70 1 100 100;
#X restore 152 231 pd rgb;
#X obj 352 80 diy-gabs \$0 a phase;
#X obj 366 106 diy-gabs \$0 b index;
#X obj 384 136 diy-gabs \$0 c wave1;
#X obj 410 156 diy-gabs \$0 d wave2;
#X obj 459 179 diy-gabs \$0 e wavemix;
#X obj 395 201 outlet;
#X obj 368 47 route phase index wave1 wave2 wavemix;
#X connect 1 0 18 0;
#X connect 13 0 29 0;
#X connect 16 0 15 0;
#X connect 17 0 0 0;
#X connect 18 0 21 0;
#X connect 18 1 19 0;
#X connect 20 0 23 0;
#X connect 20 1 24 0;
#X connect 20 2 25 0;
#X connect 20 3 26 0;
#X connect 20 4 27 0;
#X connect 21 0 20 0;
#X connect 23 0 28 0;
#X connect 24 0 28 0;
#X connect 25 0 28 0;
#X connect 26 0 28 0;
#X connect 27 0 28 0;
#X connect 29 0 23 0;
#X connect 29 1 24 0;
#X connect 29 2 25 0;
#X connect 29 3 26 0;
#X connect 29 4 27 0;
#X coords 0 -1 1 1 180 102 1 100 100;
