#N canvas 40 75 968 337 10;
#X obj 23 95 outlet~;
#X obj 721 46 loadbang;
#X obj 126 131 hsl 60 13 0 1 0 0 \$0-a \$0-ra detuneA -2 -7 0 10 -56
-262144 -355 4190 1;
#X obj 213 131 hsl 60 13 0 1 0 0 \$0-b \$0-rb detuneB -2 -7 0 10 -56
-262144 -355 3810 1;
#X obj 106 131 cnv 12 15 13 empty empty 0 1 6 0 12 -33289 -262144 0
;
#X obj 193 131 cnv 12 15 13 empty empty 1 1 6 0 12 -33289 -262144 0
;
#X text 110 29 outlet audio~;
#X obj 6 44 s \$0-pitch;
#X obj 4 20 inlet;
#X text 104 14 inlets pitch \, control \, add \, multiply;
#N canvas 204 23 753 663 workings 0;
#X obj 240 515 outlet~;
#N canvas 0 23 592 488 voice1 0;
#X obj 220 364 outlet~;
#X obj 292 3 inlet;
#X msg 406 46 0.25;
#X obj 413 17 inlet;
#X obj 209 120 osc~;
#X obj 199 166 *~ 1e+08;
#X obj 199 196 clip~ -1 1;
#X connect 1 0 4 0;
#X connect 2 0 4 1;
#X connect 3 0 2 0;
#X connect 4 0 5 0;
#X connect 5 0 6 0;
#X connect 6 0 0 0;
#X restore 165 371 pd voice1;
#X text 134 141 pitch;
#X obj 290 249 t b f;
#X obj 304 273 t b f;
#X obj 127 163 r \$0-pitch;
#N canvas 0 23 588 484 voice2 0;
#X obj 220 364 outlet~;
#X obj 292 3 inlet;
#X msg 406 46 0.25;
#X obj 413 17 inlet;
#X obj 209 120 osc~;
#X obj 199 166 *~ 1e+08;
#X obj 199 196 clip~ -1 1;
#X connect 1 0 4 0;
#X connect 2 0 4 1;
#X connect 3 0 2 0;
#X connect 4 0 5 0;
#X connect 5 0 6 0;
#X connect 6 0 0 0;
#X restore 227 373 pd voice2;
#N canvas 0 23 584 480 voice3 0;
#X obj 220 364 outlet~;
#X obj 292 3 inlet;
#X msg 406 46 0.25;
#X obj 413 17 inlet;
#X obj 209 120 osc~;
#X obj 199 166 *~ 1e+08;
#X obj 199 196 clip~ -1 1;
#X connect 1 0 4 0;
#X connect 2 0 4 1;
#X connect 3 0 2 0;
#X connect 4 0 5 0;
#X connect 5 0 6 0;
#X connect 6 0 0 0;
#X restore 293 379 pd voice3;
#X obj 218 304 f;
#X obj 264 304 f;
#X obj 231 346 * 1.0415;
#X obj 299 342 * 1.05;
#N canvas 0 22 462 312 rh_scalelog 0;
#X obj 20 155 exp;
#X obj 20 107 *;
#X obj 20 130 +;
#X obj 98 87 log;
#X obj 194 84 log;
#X obj 123 123 t b f;
#X obj 123 145 -;
#X obj 20 183 outlet;
#X obj 20 19 inlet;
#X obj 98 23 inlet;
#X obj 194 24 inlet;
#X connect 0 0 7 0;
#X connect 1 0 2 0;
#X connect 2 0 0 0;
#X connect 3 0 2 1;
#X connect 3 0 5 0;
#X connect 4 0 6 0;
#X connect 5 0 6 0;
#X connect 5 1 6 1;
#X connect 6 0 1 1;
#X connect 8 0 1 0;
#X connect 9 0 3 0;
#X connect 10 0 4 0;
#X restore 340 106 pd rh_scalelog;
#X msg 387 82 0.01;
#X msg 433 82 1;
#X obj 342 137 + 1.01;
#N canvas 0 22 462 312 rh_scalelog 0;
#X obj 20 155 exp;
#X obj 20 107 *;
#X obj 20 130 +;
#X obj 98 87 log;
#X obj 194 84 log;
#X obj 123 123 t b f;
#X obj 123 145 -;
#X obj 20 183 outlet;
#X obj 20 19 inlet;
#X obj 98 23 inlet;
#X obj 194 24 inlet;
#X connect 0 0 7 0;
#X connect 1 0 2 0;
#X connect 2 0 0 0;
#X connect 3 0 2 1;
#X connect 3 0 5 0;
#X connect 4 0 6 0;
#X connect 5 0 6 0;
#X connect 5 1 6 1;
#X connect 6 0 1 1;
#X connect 8 0 1 0;
#X connect 9 0 3 0;
#X connect 10 0 4 0;
#X restore 464 147 pd rh_scalelog;
#X msg 511 123 0.01;
#X msg 557 123 1;
#X obj 460 169 + 1.01;
#X obj 342 14 r \$0-detuneA;
#X obj 472 52 r \$0-detuneB;
#X obj 511 95 r \$0-loadbang;
#X obj 387 54 r \$0-loadbang;
#X obj 242 434 *~ 0.333333;
#X connect 1 0 24 0;
#X connect 3 0 8 0;
#X connect 3 1 10 1;
#X connect 4 0 9 0;
#X connect 4 1 11 1;
#X connect 5 0 1 0;
#X connect 5 0 8 0;
#X connect 5 0 9 0;
#X connect 6 0 24 0;
#X connect 7 0 24 0;
#X connect 8 0 10 0;
#X connect 9 0 11 0;
#X connect 10 0 6 0;
#X connect 11 0 7 0;
#X connect 12 0 15 0;
#X connect 13 0 12 1;
#X connect 14 0 12 2;
#X connect 15 0 3 0;
#X connect 16 0 19 0;
#X connect 17 0 16 1;
#X connect 18 0 16 2;
#X connect 19 0 4 0;
#X connect 20 0 12 0;
#X connect 21 0 16 0;
#X connect 22 0 17 0;
#X connect 22 0 18 0;
#X connect 23 0 13 0;
#X connect 23 0 14 0;
#X connect 24 0 0 0;
#X restore 26 69 pd workings;
#X obj 722 67 t b b;
#X obj 749 92 s \$0-loadbang;
#N canvas 629 32 778 610 rgb 0;
#X obj 296 207 * 256;
#X obj 344 180 * 256;
#X obj 346 201 * 256;
#X obj 312 270 +;
#X obj 298 228 t b f;
#X obj 312 293 +;
#X obj 346 223 t b f;
#X obj 252 186 int;
#X msg 263 68 0;
#X obj 252 163 * -1;
#X obj 296 162 * -1;
#X obj 343 158 * -1;
#X obj 103 123 vsl 10 40 1 255 0 0 ertteetyeyterttretretrrtrtrtrtrt
hhghghghghghghgggggh empty 0 -8 0 10 -4160 -262144 -1 3400 0;
#X obj 115 123 vsl 10 40 1 255 0 0 ertteetyeyterttretretrrtrtrtrtrt
hhghghghghghghgggggh empty 0 -8 0 10 -4034 -262144 -1 0 0;
#X obj 127 123 vsl 10 40 1 255 0 0 ertteetyeyterttretretrrtrtrtrtrt
hhghghghghghghgggggh empty 0 -8 0 10 -258113 -262144 -1 0 0;
#X obj 252 144 int;
#X obj 293 142 int;
#X obj 342 138 int;
#X msg 344 372 color \$1 0 28;
#X obj 354 449 s \$0-diyglob;
#X connect 0 0 4 0;
#X connect 1 0 2 0;
#X connect 2 0 6 0;
#X connect 3 0 5 0;
#X connect 4 0 3 0;
#X connect 4 1 3 1;
#X connect 5 0 18 0;
#X connect 6 0 3 0;
#X connect 6 1 5 1;
#X connect 7 0 3 0;
#X connect 8 0 12 0;
#X connect 8 0 13 0;
#X connect 8 0 14 0;
#X connect 9 0 7 0;
#X connect 10 0 0 0;
#X connect 11 0 1 0;
#X connect 12 0 15 0;
#X connect 13 0 16 0;
#X connect 14 0 17 0;
#X connect 15 0 9 0;
#X connect 16 0 10 0;
#X connect 17 0 11 0;
#X connect 18 0 19 0;
#X coords 0 -1 1 1 40 70 1 100 100;
#X restore 152 231 pd rgb;
#X obj 480 8 inlet controls;
#X msg 712 122 0.1 0.9;
#X obj 698 145 unpack f f;
#X obj 449 113 diy-gabs \$0 a detuneA;
#X obj 533 148 diy-gabs \$0 b detuneB;
#X obj 465 192 outlet;
#X obj 482 68 route detuneA detuneB;
#X connect 1 0 11 0;
#X connect 8 0 7 0;
#X connect 10 0 0 0;
#X connect 11 0 15 0;
#X connect 11 1 12 0;
#X connect 14 0 20 0;
#X connect 15 0 16 0;
#X connect 16 0 17 0;
#X connect 16 1 18 0;
#X connect 17 0 19 0;
#X connect 18 0 19 0;
#X connect 20 0 17 0;
#X connect 20 1 18 0;
#X coords 0 -1 1 1 180 56 1 100 100;
