#N canvas 126 74 956 369 10;
#X obj 23 95 outlet~;
#X obj 756 41 loadbang;
#X obj 126 131 hsl 60 13 0 1 0 0 \$0-a \$0-ra detuneA -2 -7 0 10 -192576
-262144 -355 4337 1;
#X obj 126 158 hsl 60 13 0 1 0 0 \$0-c \$0-rc detuneC -2 -7 0 10 -192576
-262144 -355 3619 1;
#X obj 213 131 hsl 60 13 0 1 0 0 \$0-b \$0-rb detuneB -2 -7 0 10 -192576
-262144 -355 3329 1;
#X obj 106 131 cnv 12 15 13 empty empty 0 1 6 0 12 -33289 -262144 0
;
#X obj 106 158 cnv 12 15 13 empty empty 2 1 6 0 12 -33289 -262144 0
;
#X obj 193 131 cnv 12 15 13 empty empty 1 1 6 0 12 -33289 -262144 0
;
#X text 110 29 outlet audio~;
#X obj 6 44 s \$0-pitch;
#X obj 4 20 inlet;
#N canvas 628 302 631 572 bell-osc 0;
#X obj 323 279 osc~ 180;
#X obj 65 279 osc~ 330;
#X obj 151 149 phasor~ 286;
#X obj 152 246 abs~;
#X obj 151 181 *~ 2;
#X obj 152 213 -~ 1;
#X obj 152 279 -~ 0.5;
#X obj 271 247 abs~;
#X obj 270 182 *~ 2;
#X obj 271 214 -~ 1;
#X obj 248 279 -~ 0.5;
#X obj 65 315 /~ 4;
#X obj 153 315 /~ 4;
#X obj 248 316 /~ 4;
#X obj 325 318 /~ 4;
#X obj 209 367 +~;
#X obj 152 128 *~ 0.735;
#X obj 272 129 *~ 0.5643;
#X obj 271 149 phasor~ 212;
#X obj 325 252 *~ 0.6134;
#X obj 195 488 outlet~;
#X obj 115 5 r \$0-pitch;
#X obj 116 28 * 2;
#X obj 203 57 r \$0-phasor1;
#X obj 330 107 r \$0-phasor2;
#X obj 383 222 r \$0-osc2;
#X connect 0 0 14 0;
#X connect 1 0 11 0;
#X connect 2 0 4 0;
#X connect 3 0 6 0;
#X connect 4 0 5 0;
#X connect 5 0 3 0;
#X connect 6 0 12 0;
#X connect 7 0 10 0;
#X connect 8 0 9 0;
#X connect 9 0 7 0;
#X connect 10 0 13 0;
#X connect 11 0 15 0;
#X connect 12 0 15 0;
#X connect 13 0 15 0;
#X connect 14 0 15 0;
#X connect 15 0 20 0;
#X connect 16 0 2 0;
#X connect 17 0 18 0;
#X connect 18 0 8 0;
#X connect 19 0 0 0;
#X connect 21 0 22 0;
#X connect 22 0 16 0;
#X connect 22 0 17 0;
#X connect 22 0 19 0;
#X connect 22 0 1 0;
#X connect 23 0 16 1;
#X connect 24 0 17 1;
#X connect 25 0 19 1;
#X restore 21 69 pd bell-osc;
#X text 104 14 inlets pitch \, control \, add \, multiply;
#X obj 756 64 t b b;
#X obj 787 89 s \$0-loadbang;
#N canvas 629 32 778 610 rgb 0;
#X obj 296 207 * 256;
#X obj 344 180 * 256;
#X obj 346 201 * 256;
#X obj 312 270 +;
#X obj 298 228 t b f;
#X obj 312 293 +;
#X obj 346 223 t b f;
#X obj 252 186 int;
#X msg 263 68 0;
#X obj 252 163 * -1;
#X obj 296 162 * -1;
#X obj 343 158 * -1;
#X obj 103 123 vsl 10 40 1 255 0 0 ertteetyeyterttretretrrtrtrtrtrt
hhghghghghghghgggggh empty 0 -8 0 10 -4160 -262144 -1 0 0;
#X obj 115 123 vsl 10 40 1 255 0 0 ertteetyeyterttretretrrtrtrtrtrt
hhghghghghghghgggggh empty 0 -8 0 10 -4034 -262144 -1 0 0;
#X obj 127 123 vsl 10 40 1 255 0 0 ertteetyeyterttretretrrtrtrtrtrt
hhghghghghghghgggggh empty 0 -8 0 10 -258113 -262144 -1 0 0;
#X obj 252 144 int;
#X obj 293 142 int;
#X obj 342 138 int;
#X msg 344 372 color \$1 0 28;
#X obj 354 449 s \$0-diyglob;
#X connect 0 0 4 0;
#X connect 1 0 2 0;
#X connect 2 0 6 0;
#X connect 3 0 5 0;
#X connect 4 0 3 0;
#X connect 4 1 3 1;
#X connect 5 0 18 0;
#X connect 6 0 3 0;
#X connect 6 1 5 1;
#X connect 7 0 3 0;
#X connect 8 0 12 0;
#X connect 8 0 13 0;
#X connect 8 0 14 0;
#X connect 9 0 7 0;
#X connect 10 0 0 0;
#X connect 11 0 1 0;
#X connect 12 0 15 0;
#X connect 13 0 16 0;
#X connect 14 0 17 0;
#X connect 15 0 9 0;
#X connect 16 0 10 0;
#X connect 17 0 11 0;
#X connect 18 0 19 0;
#X coords 0 -1 1 1 40 70 1 100 100;
#X restore 142 221 pd rgb;
#X obj 480 8 inlet controls;
#X obj 479 95 diy-gabs \$0 a phasor1;
#X obj 525 116 diy-gabs \$0 b phasor2;
#X obj 562 135 diy-gabs \$0 c osc2;
#X obj 673 91 unpack f f f;
#X msg 756 114 0.735 0.5643 0.6134;
#X obj 505 188 outlet;
#X obj 490 66 route phasor1 phasor2 osc2;
#X connect 1 0 13 0;
#X connect 10 0 9 0;
#X connect 11 0 0 0;
#X connect 13 0 21 0;
#X connect 13 1 14 0;
#X connect 16 0 23 0;
#X connect 17 0 22 0;
#X connect 18 0 22 0;
#X connect 19 0 22 0;
#X connect 20 0 17 0;
#X connect 20 1 18 0;
#X connect 20 2 19 0;
#X connect 21 0 20 0;
#X connect 23 0 17 0;
#X connect 23 1 18 0;
#X connect 23 2 19 0;
#X coords 0 -1 1 1 180 76 1 100 100;
