#N canvas 138 140 847 549 10;
#X msg 671 136 mod \$1;
#X msg 605 135 freq \$1;
#X obj 671 113 / 100;
#X floatatom 671 93 5 0 0 2 mod - -;
#X obj 605 113 / 100;
#X floatatom 605 93 5 0 0 2 freq - -;
#X msg 673 178 freq 0.8 \, mod 1.3;
#X obj 673 158 loadbang;
#X text 481 456 Also see:;
#N canvas 537 164 740 697 REFERENCE 0;
#X text 114 174 Argument 0: name for state saving (required);
#X text 114 214 Inlet 0: audio signal to apply effect on;
#X text 114 234 Inlet 1: method messages. freq <f>: chorus frequency
in Hz. mod <depth>: modulation depth;
#X text 114 267 Outlet 0: chorussed audio signal.;
#X text 122 529 Tags: chorus \, effect;
#X text 114 141 Summary: stereo chorus effect with Roland design;
#X text 113 296 Description: a simple stereo chorus effect. Has four
delay lines inside that are driven by frequency dividers at 1 \, 1/2
\, 1/4 \, 1/8 times the base chorus frequency instead of phase shifters.
This is a design used in some Roland effect units. Default settings
are freq 0.8 \, mod 1.8.;
#X text 114 121 Name: e_chorusr;
#X coords 0 -1 1 1 450 450 1 100 100;
#X restore 5 48 pd REFERENCE;
#X obj 482 207 e_chorusr mychorus;
#X obj 552 456 e_chorus;
#X text 11 11 e_chorusr - stereo chorus effect with Roland design;
#X obj 483 256 outputc~;
#X obj 477 12 sndfread~;
#X obj 505 147 *~ 0.5;
#X connect 0 0 10 1;
#X connect 1 0 10 1;
#X connect 2 0 0 0;
#X connect 3 0 2 0;
#X connect 4 0 1 0;
#X connect 5 0 4 0;
#X connect 6 0 10 1;
#X connect 7 0 6 0;
#X connect 10 0 13 0;
#X connect 10 1 13 1;
#X connect 14 0 15 0;
#X connect 14 1 15 0;
#X connect 15 0 10 0;
