#N canvas 404 306 666 485 10;
#X obj 348 167 sigmund~ pitch;
#N canvas 687 68 655 463 compensate-latency 0;
#X obj 109 87 inlet~;
#X obj 74 314 outlet~;
#X obj 214 135 samplerate~;
#X obj 214 183 /;
#X msg 230 95 bang;
#X msg 214 158 1000 \$1;
#X obj 214 73 loadbang;
#X obj 214 225 * 1024;
#X text 251 267 This calculates the duration of 1024 samples.;
#N canvas 825 378 450 300 writer 0;
#X obj 80 234 delwrite~ \$0-line 100;
#X obj 93 44 inlet~;
#X obj 84 265 outlet~;
#X connect 1 0 0 0;
#X restore 62 257 pd writer;
#N canvas 947 387 450 300 reader 0;
#X obj 127 170 delread~ \$0-line 100;
#X obj 112 77 inlet~;
#X obj 202 79 inlet;
#X obj 105 211 outlet~;
#X connect 0 0 3 0;
#X connect 2 0 0 0;
#X restore 78 280 pd reader;
#X connect 0 0 9 0;
#X connect 2 0 5 0;
#X connect 3 0 7 0;
#X connect 4 0 2 0;
#X connect 5 0 3 0;
#X connect 6 0 2 0;
#X connect 7 0 10 1;
#X connect 9 0 10 0;
#X connect 10 0 1 0;
#X restore 103 224 pd compensate-latency;
#X obj 348 197 moses 40;
#X obj 414 198 moses 100;
#X obj 261 286 -;
#X obj 414 221 t b f;
#X obj 102 59 inlet~;
#X obj 102 402 outlet~;
#X obj 261 59 inlet;
#X text 350 144 analyse pitch;
#X text 293 286 difference between desired pitch and actual pitch;
#X text 280 371 pitchshift by difference;
#X text 109 199 delay by sigmund~'s buffer size;
#X text 249 40 desired pitch;
#X obj 103 368 pitchshift~;
#X connect 0 0 2 0;
#X connect 1 0 14 0;
#X connect 2 1 3 0;
#X connect 3 0 5 0;
#X connect 4 0 14 1;
#X connect 5 0 4 0;
#X connect 5 1 4 1;
#X connect 6 0 1 0;
#X connect 6 0 0 0;
#X connect 8 0 4 0;
#X connect 14 0 7 0;
