#N canvas 25 27 1036 799 10;
#X obj 25 148 sig~;
#X obj 46 121 mtof;
#X obj 46 79 inlet;
#X obj 46 100 unpack f f;
#X obj 113 121 / 127;
#X obj 82 183 sqrt;
#X obj 82 162 / 2000;
#X obj 113 141 s \$0-envelopes;
#X obj 542 708 outlet~;
#X obj 24 171 s~ \$0-f;
#X obj 275 347 r~ \$0-f;
#X obj 225 345 *~;
#X obj 404 291 r \$0-osc1a;
#X obj 404 313 sig~;
#X obj 499 364 sig~;
#X obj 498 340 r \$0-osc1b;
#X obj 543 642 *~;
#X obj 524 432 sig~;
#X obj 504 457 *~;
#X obj 524 410 r \$0-osc1d;
#X obj 82 203 sig~;
#X obj 82 223 s~ \$0-keyscale;
#X obj 459 482 s_blsquare;
#X obj 532 304 clip~ 0.1 0.9;
#X obj 405 339 +~;
#X obj 502 388 +~;
#X obj 425 369 r \$0-osc1c;
#X obj 423 389 sig~;
#X obj 404 413 *~;
#X obj 509 577 +~ 200;
#X obj 509 531 *~;
#X obj 489 616 vcf~ 2.5;
#X obj 627 459 sig~;
#X obj 627 431 r \$0-mod1a;
#X obj 629 484 *~ 3500;
#X obj 510 556 *~;
#X obj 160 279 sig~;
#X obj 160 251 r \$0-mod1b;
#X obj 216 380 +~;
#X obj 258 384 -~;
#X obj 234 247 r~ \$0-keyscale;
#X obj 234 322 *~;
#X obj 235 273 *~ 7;
#X obj 255 294 r~ \$0-e1;
#X obj 533 279 r~ \$0-e2;
#X obj 562 461 r~ \$0-e3;
#X obj 363 246 sig~;
#X obj 363 218 r \$0-mod1c;
#X obj 341 296 *~ 10;
#X obj 340 338 *~;
#N canvas 0 23 600 375 s_blsyncsquare 0;
#X obj 78 30 inlet~;
#X obj 79 78 phasor~;
#X obj 266 29 inlet~;
#X obj 336 30 inlet;
#X text 263 8 pwm~;
#X text 76 10 freq~;
#X text 336 12 phase;
#N canvas 525 283 512 505 sigment 0;
#X obj 71 154 wrap~;
#X obj 71 216 -~ 0.5;
#X obj 71 132 -~;
#X obj 70 52 inlet~;
#X text 70 34 phasor~;
#X obj 70 277 outlet~;
#X text 261 29 phase;
#X obj 259 50 inlet~;
#X obj 70 184 u_splicetrans;
#X obj 159 51 inlet~;
#X obj 70 253 *~ -1;
#X text 161 32 freq~;
#X connect 0 0 8 0;
#X connect 1 0 10 0;
#X connect 2 0 0 0;
#X connect 3 0 2 0;
#X connect 7 0 2 1;
#X connect 8 0 1 0;
#X connect 9 0 8 1;
#X connect 10 0 5 0;
#X restore 82 204 pd sigment -1;
#N canvas 525 283 508 458 sigment 0;
#X obj 71 154 wrap~;
#X obj 71 216 -~ 0.5;
#X obj 71 132 -~;
#X obj 70 52 inlet~;
#X text 70 34 phasor~;
#X obj 70 277 outlet~;
#X text 261 29 phase;
#X obj 259 50 inlet~;
#X obj 70 184 u_splicetrans;
#X obj 159 51 inlet~;
#X text 161 32 freq~;
#X connect 0 0 8 0;
#X connect 1 0 5 0;
#X connect 2 0 0 0;
#X connect 3 0 2 0;
#X connect 7 0 2 1;
#X connect 8 0 1 0;
#X connect 9 0 8 1;
#X restore 185 204 pd sigment 1;
#X obj 81 264 outlet~;
#N canvas 228 198 627 317 LICENSE-BSD 0;
#X text 121 56 This software is copyrighted by Miller Puckette \, Reality
Jockey Ltd. and others. The terms (the "Standard Improved BSD License")
apply to all files associated with the software unless explicitly disclaimed
in individual files.;
#X text 123 148 See the file LICENSE.txt for the full license text.
;
#X restore 440 29 pd LICENSE-BSD;
#X obj 81 144 wrap~;
#X obj 80 106 *~;
#X obj 168 31 inlet~;
#X text 167 12 sync~;
#X connect 0 0 1 0;
#X connect 0 0 7 1;
#X connect 0 0 8 1;
#X connect 1 0 12 0;
#X connect 2 0 8 2;
#X connect 3 0 1 1;
#X connect 7 0 9 0;
#X connect 8 0 9 0;
#X connect 11 0 7 0;
#X connect 11 0 8 0;
#X connect 12 0 11 0;
#X connect 13 0 12 1;
#X restore 312 482 pd s_blsyncsquare;
#X obj 737 435 *~ 5;
#X obj 552 675 *~;
#X text 592 672 extra gain needed;
#X obj 737 375 r \$0-mod3d;
#X text 491 656 ajf2010;
#X obj 654 120 inlet;
#N canvas 0 23 904 787 dispatchers 0;
#X obj 97 -78 inlet;
#X obj 86 -43 route env1a env1d env1s env1r env2a env2d env2s env2r
env3a env3d env3s env3r osc1a osc1b osc1c osc1d osc2a osc2b osc2c osc2d
osc3a osc3b osc3c osc3d mod1a mod1b mod1c mod1d mod2a mod2b mod2c mod2d
mod3a mod3b mod3c mod3d;
#X obj 76 32 s \$0-env1a;
#X obj 92 59 s \$0-env1d;
#X obj 113 82 s \$0-env1s;
#X obj 123 109 s \$0-env1r;
#X obj 142 140 s \$0-env2a;
#X obj 156 163 s \$0-env2d;
#X obj 177 186 s \$0-env2s;
#X obj 187 213 s \$0-env2r;
#X obj 189 256 s \$0-env3a;
#X obj 219 286 s \$0-env3d;
#X obj 240 322 s \$0-env3s;
#X obj 259 362 s \$0-env3r;
#X obj 204 29 s \$0-osc1a;
#X obj 219 60 s \$0-osc1b;
#X obj 239 90 s \$0-osc1c;
#X obj 260 115 s \$0-osc1d;
#X obj 267 139 s \$0-osc2a;
#X obj 282 170 s \$0-osc2b;
#X obj 302 200 s \$0-osc2c;
#X obj 323 225 s \$0-osc2d;
#X obj 333 253 s \$0-osc3a;
#X obj 348 284 s \$0-osc3b;
#X obj 368 314 s \$0-osc3c;
#X obj 389 339 s \$0-osc3d;
#X obj 327 32 s \$0-mod1a;
#X obj 348 60 s \$0-mod1b;
#X obj 364 86 s \$0-mod1c;
#X obj 379 114 s \$0-mod1d;
#X obj 390 141 s \$0-mod2a;
#X obj 411 169 s \$0-mod2b;
#X obj 427 195 s \$0-mod2c;
#X obj 450 225 s \$0-mod2d;
#X obj 464 253 s \$0-mod3a;
#X obj 485 281 s \$0-mod3b;
#X obj 501 307 s \$0-mod3c;
#X obj 524 337 s \$0-mod3d;
#X connect 0 0 1 0;
#X connect 1 0 2 0;
#X connect 1 1 3 0;
#X connect 1 2 4 0;
#X connect 1 3 5 0;
#X connect 1 4 6 0;
#X connect 1 5 7 0;
#X connect 1 6 8 0;
#X connect 1 7 9 0;
#X connect 1 8 10 0;
#X connect 1 9 11 0;
#X connect 1 10 12 0;
#X connect 1 11 13 0;
#X connect 1 12 14 0;
#X connect 1 13 15 0;
#X connect 1 14 16 0;
#X connect 1 15 17 0;
#X connect 1 16 18 0;
#X connect 1 17 19 0;
#X connect 1 18 20 0;
#X connect 1 19 21 0;
#X connect 1 20 22 0;
#X connect 1 21 23 0;
#X connect 1 22 24 0;
#X connect 1 23 25 0;
#X connect 1 24 26 0;
#X connect 1 25 27 0;
#X connect 1 26 28 0;
#X connect 1 27 29 0;
#X connect 1 28 30 0;
#X connect 1 29 31 0;
#X connect 1 30 32 0;
#X connect 1 31 33 0;
#X connect 1 32 34 0;
#X connect 1 33 35 0;
#X connect 1 34 36 0;
#X connect 1 35 37 0;
#X restore 646 174 pd dispatchers;
#N canvas 539 409 901 408 envelopes 0;
#X obj 499 192 t a a;
#X obj 276 189 t a a b;
#X obj 116 74 r \$0-env1a;
#X obj 144 94 r \$0-env1d;
#X obj 172 112 r \$0-env1s;
#X obj 200 130 r \$0-env1r;
#X obj 332 71 r \$0-env2a;
#X obj 360 88 r \$0-env2d;
#X obj 60 54 r \$0-envelopes;
#X obj 276 51 r \$0-envelopes;
#X obj 499 52 r \$0-envelopes;
#X obj 555 72 r \$0-env3a;
#X obj 583 90 r \$0-env3d;
#X obj 611 108 r \$0-env3s;
#X obj 640 126 r \$0-env3r;
#X obj 116 122 * 2000;
#X obj 144 142 * 4000;
#X obj 172 164 * 100;
#X obj 201 185 * 7000;
#X obj 332 122 * 2000;
#X obj 360 142 * 4000;
#X obj 388 164 * 100;
#X obj 417 185 * 7000;
#X obj 555 122 * 2000;
#X obj 583 142 * 4000;
#X obj 611 164 * 100;
#X obj 640 185 * 7000;
#X obj 388 106 r \$0-env2s;
#X obj 417 125 r \$0-env2r;
#X obj 62 264 s~ \$0-e1;
#X obj 276 261 s~ \$0-e2;
#X obj 503 266 s~ \$0-e3;
#X obj 60 210 adsr 1 10 100 50 300;
#X obj 60 184 t a a;
#X obj 63 244 line~;
#X obj 277 242 line~;
#X obj 276 215 adsr 1 10 100 50 300;
#X obj 499 216 adsr 1 10 100 50 400;
#X obj 500 244 line~;
#X connect 0 0 37 0;
#X connect 0 1 37 1;
#X connect 1 0 36 0;
#X connect 1 1 36 1;
#X connect 2 0 15 0;
#X connect 3 0 16 0;
#X connect 4 0 17 0;
#X connect 5 0 18 0;
#X connect 6 0 19 0;
#X connect 7 0 20 0;
#X connect 8 0 33 0;
#X connect 9 0 1 0;
#X connect 10 0 0 0;
#X connect 11 0 23 0;
#X connect 12 0 24 0;
#X connect 13 0 25 0;
#X connect 14 0 26 0;
#X connect 15 0 32 2;
#X connect 16 0 32 3;
#X connect 17 0 32 4;
#X connect 18 0 32 5;
#X connect 19 0 36 2;
#X connect 20 0 36 3;
#X connect 21 0 36 4;
#X connect 22 0 36 5;
#X connect 23 0 37 2;
#X connect 24 0 37 3;
#X connect 25 0 37 4;
#X connect 26 0 37 5;
#X connect 27 0 21 0;
#X connect 28 0 22 0;
#X connect 32 0 34 0;
#X connect 33 0 32 0;
#X connect 33 1 32 1;
#X connect 34 0 29 0;
#X connect 35 0 30 0;
#X connect 36 0 35 0;
#X connect 37 0 38 0;
#X connect 38 0 31 0;
#X restore 608 78 pd envelopes;
#X obj 647 144 list trim;
#X connect 0 0 9 0;
#X connect 1 0 0 0;
#X connect 1 0 6 0;
#X connect 2 0 3 0;
#X connect 3 0 1 0;
#X connect 3 1 4 0;
#X connect 4 0 7 0;
#X connect 5 0 20 0;
#X connect 6 0 5 0;
#X connect 10 0 38 1;
#X connect 10 0 39 1;
#X connect 11 0 38 0;
#X connect 11 0 39 0;
#X connect 12 0 13 0;
#X connect 13 0 24 0;
#X connect 14 0 25 0;
#X connect 15 0 14 0;
#X connect 16 0 52 0;
#X connect 17 0 18 1;
#X connect 18 0 22 1;
#X connect 19 0 17 0;
#X connect 20 0 21 0;
#X connect 22 0 31 0;
#X connect 23 0 25 1;
#X connect 23 0 24 1;
#X connect 24 0 28 0;
#X connect 25 0 18 0;
#X connect 26 0 27 0;
#X connect 27 0 28 1;
#X connect 28 0 50 2;
#X connect 29 0 31 1;
#X connect 30 0 35 0;
#X connect 31 1 16 0;
#X connect 32 0 34 0;
#X connect 33 0 32 0;
#X connect 34 0 35 1;
#X connect 35 0 29 0;
#X connect 36 0 11 0;
#X connect 37 0 36 0;
#X connect 38 0 50 0;
#X connect 39 0 22 0;
#X connect 40 0 42 0;
#X connect 41 0 11 1;
#X connect 42 0 41 0;
#X connect 43 0 41 1;
#X connect 43 0 49 0;
#X connect 44 0 23 0;
#X connect 45 0 16 1;
#X connect 45 0 30 0;
#X connect 45 0 30 1;
#X connect 46 0 48 0;
#X connect 47 0 46 0;
#X connect 48 0 49 1;
#X connect 49 0 50 1;
#X connect 50 0 31 0;
#X connect 51 0 52 1;
#X connect 52 0 8 0;
#X connect 54 0 51 0;
#X connect 56 0 59 0;
#X connect 59 0 57 0;
