#N canvas 215 39 1024 684 10;
#X obj 141 160 sig~;
#X obj 162 129 mtof;
#X obj 162 18 inlet;
#X obj 237 152 / 127;
#X obj 198 197 sqrt;
#X obj 198 160 / 2000;
#X obj 237 189 s \$0-envelopes;
#X obj 198 234 sig~;
#X obj 198 271 s~ \$0-keyscale;
#X obj 77 414 sig~;
#X obj 79 467 *~;
#X obj 121 517 *~;
#X obj 149 288 sig~;
#X obj 148 251 r \$0-mod1b;
#X obj 134 480 r~ \$0-keyscale;
#N canvas 0 22 848 695 vibdel 0;
#X obj 392 194 f 0;
#X msg 392 219 0 \, 1 \$1;
#X obj 409 161 * 3000;
#X obj 394 247 line~;
#X obj 377 105 inlet trig;
#X obj 290 121 inlet~;
#X obj 295 327 outlet~;
#X obj 302 284 *~;
#X obj 410 137 inlet fadein;
#X obj 359 284 *~;
#X connect 0 0 1 0;
#X connect 1 0 3 0;
#X connect 2 0 0 1;
#X connect 3 0 9 1;
#X connect 3 0 9 0;
#X connect 4 0 0 0;
#X connect 5 0 7 0;
#X connect 7 0 6 0;
#X connect 8 0 2 0;
#X connect 9 0 7 1;
#X restore 149 325 pd vibdel;
#X obj 198 310 r \$0-mod1c;
#X obj 134 554 +~;
#X obj 149 251 * 100;
#X obj 79 356 r \$0-mod1a;
#X obj 141 197 *~ 0.5;
#X obj 162 55 t a b b b b;
#X obj 237 78 > 0;
#X obj 162 92 unpack f f f;
#X obj 237 115 sel 1;
#X obj 123 550 s~ \$0-f0;
#N canvas 0 22 450 300 lfo 0;
#X obj 99 104 *~ -1;
#X obj 77 155 min~;
#X obj 99 129 +~ 1;
#X obj 77 80 phasor~ 6;
#X obj 77 177 -~ 0.25;
#X obj 77 199 *~ 2;
#X obj 77 221 outlet~;
#X obj 132 34 t b;
#X msg 132 54 0;
#X obj 132 14 inlet phasesync;
#X obj 78 54 inlet~ f;
#X connect 0 0 2 0;
#X connect 1 0 4 0;
#X connect 2 0 1 1;
#X connect 3 0 0 0;
#X connect 3 0 1 0;
#X connect 4 0 5 0;
#X connect 5 0 6 0;
#X connect 7 0 8 0;
#X connect 8 0 3 1;
#X connect 9 0 7 0;
#X connect 10 0 3 0;
#X restore 79 430 pd lfo;
#X obj 361 638 *~;
#X text 430 554 ajf;
#X obj 421 603 r~ \$0-e1;
#X obj 378 685 outlet~;
#X obj 349 215 r~ \$0-f0;
#X obj 79 387 * 10;
#X obj 637 417 r \$0-mod2a;
#X obj 504 524 r \$0-mod3a;
#X obj 502 545 * 4000;
#X obj 378 391 s_blsaw;
#X obj 519 366 s_blsaw;
#X obj 532 319 -~;
#X obj 363 491 *~ 0.33;
#X obj 533 504 +~ 30;
#X obj 354 513 vcf~ 1.6;
#N canvas 0 22 348 187 oct 0;
#X obj 86 133 pow;
#X obj 86 108 swap 2;
#X obj 88 65 - 2;
#X obj 88 13 inlet;
#X obj 86 162 outlet;
#X obj 166 11 loadbang;
#X msg 166 36 2;
#X obj 87 88 int;
#X obj 87 42 * 4;
#X connect 0 0 4 0;
#X connect 1 0 0 0;
#X connect 1 1 0 1;
#X connect 2 0 7 0;
#X connect 3 0 8 0;
#X connect 5 0 6 0;
#X connect 6 0 8 0;
#X connect 7 0 1 0;
#X connect 8 0 2 0;
#X restore 360 286 pd oct;
#X obj 533 338 *~;
#N canvas 0 22 348 187 oct 0;
#X obj 88 114 pow;
#X obj 88 89 swap 2;
#X obj 88 65 - 2;
#X obj 88 13 inlet;
#X obj 88 143 outlet;
#X obj 166 11 loadbang;
#X msg 166 36 2;
#X obj 87 42 * 6;
#X connect 0 0 4 0;
#X connect 1 0 0 0;
#X connect 1 1 0 1;
#X connect 2 0 1 0;
#X connect 3 0 7 0;
#X connect 5 0 6 0;
#X connect 6 0 7 0;
#X connect 7 0 2 0;
#X restore 584 263 pd oct;
#X obj 576 291 sig~;
#X text 166 633 improved junoish \, ajf 2010;
#X obj 355 534 vcf~ 1.6;
#X obj 452 362 s_blsquare;
#N canvas 0 23 348 187 oct 0;
#X obj 88 114 pow;
#X obj 88 89 swap 2;
#X obj 88 65 - 2;
#X obj 88 13 inlet;
#X obj 88 143 outlet;
#X obj 166 11 loadbang;
#X msg 166 36 2;
#X obj 86 42 * 4;
#X connect 0 0 4 0;
#X connect 1 0 0 0;
#X connect 1 1 0 1;
#X connect 2 0 1 0;
#X connect 3 0 7 0;
#X connect 5 0 6 0;
#X connect 6 0 7 0;
#X connect 7 0 2 0;
#X restore 434 264 pd oct;
#X obj 475 538 + 1;
#X obj 469 505 * 5;
#X obj 430 466 r \$0-mod2b;
#X text 430 446 resonance;
#X obj 595 237 r \$0-osc3a;
#X obj 366 252 r \$0-osc1a;
#N canvas 0 22 450 300 xf 0;
#X obj 76 87 inlet~;
#X obj 142 87 inlet~;
#X obj 77 198 outlet~;
#X obj 141 136 -~;
#X obj 141 156 *~;
#X obj 201 87 inlet~;
#X connect 0 0 3 1;
#X connect 0 0 2 0;
#X connect 1 0 3 0;
#X connect 3 0 4 0;
#X connect 4 0 2 0;
#X connect 5 0 4 1;
#X restore 377 448 pd xf;
#X obj 398 366 r \$0-osc1b;
#X obj 402 419 sig~;
#N canvas 0 23 450 300 xf 0;
#X obj 76 87 inlet~;
#X obj 142 87 inlet~;
#X obj 77 198 outlet~;
#X obj 141 136 -~;
#X obj 141 156 *~;
#X obj 201 87 inlet~;
#X connect 0 0 3 1;
#X connect 0 0 2 0;
#X connect 1 0 3 0;
#X connect 3 0 4 0;
#X connect 4 0 2 0;
#X connect 5 0 4 1;
#X restore 384 471 pd xf;
#X obj 429 430 sig~;
#X obj 438 399 r \$0-osc2b;
#X obj 502 143 r \$0-osc2c;
#X obj 535 180 sig~;
#X obj 557 101 r~ \$0-keyscale;
#X obj 557 133 *~ 30;
#X obj 557 212 *~;
#X obj 557 249 *~;
#X obj 506 410 r~ \$0-e2;
#X obj 478 267 r \$0-osc2d;
#X obj 447 229 r \$0-osc2a;
#X obj 357 556 vcf~ 1.6;
#X obj 561 394 r \$0-mod2c;
#X obj 541 490 *~ 5000;
#X obj 501 574 + 10;
#X obj 358 595 hip~ 10;
#X obj 356 618 hip~ 10;
#X text 274 318 pwm mod;
#X obj 213 303 r \$0-mod1d;
#X obj 198 382 +~ 0.5;
#X obj 478 342 +~ 0.02;
#X obj 431 488 * 4;
#X obj 424 515 + 0.125;
#X obj 604 184 r~ \$0-e3;
#X obj 291 374 r \$0-osc2c;
#X obj 248 342 r~ \$0-keyscale;
#X obj 258 433 *~;
#X obj 249 373 *~ 2;
#N canvas 0 22 450 300 xf 0;
#X obj 76 87 inlet~;
#X obj 142 87 inlet~;
#X obj 77 198 outlet~;
#X obj 141 136 -~;
#X obj 141 156 *~;
#X obj 201 87 inlet~;
#X connect 0 0 3 1;
#X connect 0 0 2 0;
#X connect 1 0 3 0;
#X connect 3 0 4 0;
#X connect 4 0 2 0;
#X connect 5 0 4 1;
#X restore 226 510 pd xf;
#X obj 254 481 sig~;
#X obj 254 451 r \$0-mod2d;
#X text 340 17 A Juno/Jupiter style analogue voice engine for 80s style
synthesiser sounds \, ajf 2010;
#X obj 471 595 r \$0-mod3b;
#X obj 471 632 sig~;
#X obj 475 603 * 3;
#X obj 371 666 *~;
#X obj 735 116 inlet;
#N canvas 0 23 904 787 dispatchers 0;
#X obj 97 -78 inlet;
#X obj 86 -43 route env1a env1d env1s env1r env2a env2d env2s env2r
env3a env3d env3s env3r osc1a osc1b osc1c osc1d osc2a osc2b osc2c osc2d
osc3a osc3b osc3c osc3d mod1a mod1b mod1c mod1d mod2a mod2b mod2c mod2d
mod3a mod3b mod3c mod3d;
#X obj 76 32 s \$0-env1a;
#X obj 92 59 s \$0-env1d;
#X obj 113 82 s \$0-env1s;
#X obj 123 109 s \$0-env1r;
#X obj 142 140 s \$0-env2a;
#X obj 156 163 s \$0-env2d;
#X obj 177 186 s \$0-env2s;
#X obj 187 213 s \$0-env2r;
#X obj 189 256 s \$0-env3a;
#X obj 219 286 s \$0-env3d;
#X obj 240 322 s \$0-env3s;
#X obj 259 362 s \$0-env3r;
#X obj 204 29 s \$0-osc1a;
#X obj 219 60 s \$0-osc1b;
#X obj 239 90 s \$0-osc1c;
#X obj 260 115 s \$0-osc1d;
#X obj 267 139 s \$0-osc2a;
#X obj 282 170 s \$0-osc2b;
#X obj 302 200 s \$0-osc2c;
#X obj 323 225 s \$0-osc2d;
#X obj 333 253 s \$0-osc3a;
#X obj 348 284 s \$0-osc3b;
#X obj 368 314 s \$0-osc3c;
#X obj 389 339 s \$0-osc3d;
#X obj 327 32 s \$0-mod1a;
#X obj 348 60 s \$0-mod1b;
#X obj 364 86 s \$0-mod1c;
#X obj 379 114 s \$0-mod1d;
#X obj 390 141 s \$0-mod2a;
#X obj 411 169 s \$0-mod2b;
#X obj 427 195 s \$0-mod2c;
#X obj 450 225 s \$0-mod2d;
#X obj 464 253 s \$0-mod3a;
#X obj 485 281 s \$0-mod3b;
#X obj 501 307 s \$0-mod3c;
#X obj 524 337 s \$0-mod3d;
#X connect 0 0 1 0;
#X connect 1 0 2 0;
#X connect 1 1 3 0;
#X connect 1 2 4 0;
#X connect 1 3 5 0;
#X connect 1 4 6 0;
#X connect 1 5 7 0;
#X connect 1 6 8 0;
#X connect 1 7 9 0;
#X connect 1 8 10 0;
#X connect 1 9 11 0;
#X connect 1 10 12 0;
#X connect 1 11 13 0;
#X connect 1 12 14 0;
#X connect 1 13 15 0;
#X connect 1 14 16 0;
#X connect 1 15 17 0;
#X connect 1 16 18 0;
#X connect 1 17 19 0;
#X connect 1 18 20 0;
#X connect 1 19 21 0;
#X connect 1 20 22 0;
#X connect 1 21 23 0;
#X connect 1 22 24 0;
#X connect 1 23 25 0;
#X connect 1 24 26 0;
#X connect 1 25 27 0;
#X connect 1 26 28 0;
#X connect 1 27 29 0;
#X connect 1 28 30 0;
#X connect 1 29 31 0;
#X connect 1 30 32 0;
#X connect 1 31 33 0;
#X connect 1 32 34 0;
#X connect 1 33 35 0;
#X connect 1 34 36 0;
#X connect 1 35 37 0;
#X restore 727 170 pd dispatchers;
#N canvas 539 409 901 408 envelopes 0;
#X obj 499 192 t a a;
#X obj 276 189 t a a b;
#X obj 116 74 r \$0-env1a;
#X obj 144 94 r \$0-env1d;
#X obj 172 112 r \$0-env1s;
#X obj 200 130 r \$0-env1r;
#X obj 332 71 r \$0-env2a;
#X obj 360 88 r \$0-env2d;
#X obj 60 54 r \$0-envelopes;
#X obj 276 51 r \$0-envelopes;
#X obj 499 52 r \$0-envelopes;
#X obj 555 72 r \$0-env3a;
#X obj 583 90 r \$0-env3d;
#X obj 611 108 r \$0-env3s;
#X obj 640 126 r \$0-env3r;
#X obj 116 122 * 2000;
#X obj 144 142 * 4000;
#X obj 172 164 * 100;
#X obj 201 185 * 7000;
#X obj 332 122 * 2000;
#X obj 360 142 * 4000;
#X obj 388 164 * 100;
#X obj 417 185 * 7000;
#X obj 555 122 * 2000;
#X obj 583 142 * 4000;
#X obj 611 164 * 100;
#X obj 640 185 * 7000;
#X obj 388 106 r \$0-env2s;
#X obj 417 125 r \$0-env2r;
#X obj 62 264 s~ \$0-e1;
#X obj 276 261 s~ \$0-e2;
#X obj 503 266 s~ \$0-e3;
#X obj 60 210 adsr 1 10 100 50 300;
#X obj 60 184 t a a;
#X obj 63 244 line~;
#X obj 277 242 line~;
#X obj 276 215 adsr 1 10 100 50 300;
#X obj 499 216 adsr 1 10 100 50 400;
#X obj 500 244 line~;
#X connect 0 0 37 0;
#X connect 0 1 37 1;
#X connect 1 0 36 0;
#X connect 1 1 36 1;
#X connect 2 0 15 0;
#X connect 3 0 16 0;
#X connect 4 0 17 0;
#X connect 5 0 18 0;
#X connect 6 0 19 0;
#X connect 7 0 20 0;
#X connect 8 0 33 0;
#X connect 9 0 1 0;
#X connect 10 0 0 0;
#X connect 11 0 23 0;
#X connect 12 0 24 0;
#X connect 13 0 25 0;
#X connect 14 0 26 0;
#X connect 15 0 32 2;
#X connect 16 0 32 3;
#X connect 17 0 32 4;
#X connect 18 0 32 5;
#X connect 19 0 36 2;
#X connect 20 0 36 3;
#X connect 21 0 36 4;
#X connect 22 0 36 5;
#X connect 23 0 37 2;
#X connect 24 0 37 3;
#X connect 25 0 37 4;
#X connect 26 0 37 5;
#X connect 27 0 21 0;
#X connect 28 0 22 0;
#X connect 32 0 34 0;
#X connect 33 0 32 0;
#X connect 33 1 32 1;
#X connect 34 0 29 0;
#X connect 35 0 30 0;
#X connect 36 0 35 0;
#X connect 37 0 38 0;
#X connect 38 0 31 0;
#X restore 689 74 pd envelopes;
#X obj 728 140 list trim;
#X obj 479 288 * 0.25;
#X obj 481 318 *~ 0;
#X obj 422 307 *~ 0;
#X obj 349 326 *~ 0;
#X obj 359 576 *~ 1;
#X obj 533 467 +~ 0;
#X obj 534 437 *~ 1;
#X obj 250 413 *~ 0;
#X obj 198 345 *~ 0;
#X connect 0 0 20 0;
#X connect 1 0 0 0;
#X connect 1 0 5 0;
#X connect 2 0 21 0;
#X connect 3 0 6 0;
#X connect 4 0 7 0;
#X connect 5 0 4 0;
#X connect 7 0 8 0;
#X connect 9 0 26 0;
#X connect 10 0 11 0;
#X connect 11 0 17 0;
#X connect 12 0 15 0;
#X connect 13 0 18 0;
#X connect 14 0 11 1;
#X connect 15 0 10 1;
#X connect 16 0 15 2;
#X connect 17 0 25 0;
#X connect 18 0 12 0;
#X connect 19 0 32 0;
#X connect 20 0 17 1;
#X connect 21 0 23 0;
#X connect 21 1 15 1;
#X connect 22 0 24 0;
#X connect 23 0 1 0;
#X connect 23 1 3 0;
#X connect 23 2 22 0;
#X connect 24 0 26 1;
#X connect 26 0 10 0;
#X connect 26 0 108 0;
#X connect 27 0 95 0;
#X connect 29 0 27 1;
#X connect 31 0 38 0;
#X connect 31 0 102 0;
#X connect 31 0 103 0;
#X connect 32 0 9 0;
#X connect 33 0 105 1;
#X connect 34 0 35 0;
#X connect 35 0 74 0;
#X connect 36 0 56 0;
#X connect 37 0 59 1;
#X connect 38 0 43 0;
#X connect 39 0 41 0;
#X connect 40 0 41 1;
#X connect 40 0 47 1;
#X connect 40 0 71 1;
#X connect 41 0 47 0;
#X connect 42 0 103 1;
#X connect 43 0 37 0;
#X connect 44 0 45 0;
#X connect 45 0 43 1;
#X connect 47 0 71 0;
#X connect 48 0 56 1;
#X connect 49 0 102 1;
#X connect 50 0 104 1;
#X connect 51 0 50 0;
#X connect 52 0 51 0;
#X connect 52 0 81 0;
#X connect 54 0 44 0;
#X connect 55 0 42 0;
#X connect 56 0 59 0;
#X connect 57 0 58 0;
#X connect 58 0 56 2;
#X connect 59 0 39 0;
#X connect 60 0 59 2;
#X connect 61 0 60 0;
#X connect 62 0 63 0;
#X connect 63 0 66 0;
#X connect 64 0 65 0;
#X connect 65 0 66 1;
#X connect 66 0 67 0;
#X connect 67 0 38 1;
#X connect 68 0 106 0;
#X connect 69 0 100 0;
#X connect 70 0 49 0;
#X connect 71 0 104 0;
#X connect 72 0 106 1;
#X connect 73 0 40 0;
#X connect 74 0 75 1;
#X connect 74 0 76 1;
#X connect 75 0 76 0;
#X connect 76 0 27 0;
#X connect 78 0 108 1;
#X connect 79 0 88 0;
#X connect 80 0 48 1;
#X connect 81 0 82 0;
#X connect 82 0 41 2;
#X connect 82 0 47 2;
#X connect 82 0 71 2;
#X connect 83 0 67 1;
#X connect 83 0 86 1;
#X connect 84 0 107 1;
#X connect 85 0 87 0;
#X connect 86 0 88 1;
#X connect 87 0 107 0;
#X connect 88 0 101 0;
#X connect 89 0 88 2;
#X connect 90 0 89 0;
#X connect 92 0 94 0;
#X connect 93 0 95 1;
#X connect 94 0 93 0;
#X connect 95 0 30 0;
#X connect 96 0 99 0;
#X connect 99 0 97 0;
#X connect 100 0 101 1;
#X connect 101 0 80 0;
#X connect 102 0 48 0;
#X connect 103 0 36 0;
#X connect 104 0 75 0;
#X connect 105 0 73 0;
#X connect 106 0 105 0;
#X connect 107 0 86 0;
#X connect 108 0 79 0;
