#N canvas 599 81 756 695 10;
#X obj 58 418 *~;
#X obj 66 176 t b;
#X obj 65 119 inlet;
#X text 256 352 open hh;
#X obj 403 319 line~;
#X obj 373 440 *~;
#X obj 402 93 inlet;
#X obj 375 562 outlet~;
#X obj 54 544 outlet~;
#X obj 405 117 t b b;
#X obj 77 396 *~ 1;
#X obj 221 351 *~ 1;
#X obj 662 79 inlet;
#X msg 324 198 stop;
#X text 94 375 closed HH;
#X text 406 77 bang to trigger OH;
#X text 39 99 bang to trigger CH;
#X text 624 58 OH decay 0..1;
#X obj 564 55 loadbang;
#X msg 565 84 1;
#X text 542 519 damian@frey.co.nz;
#X text 542 504 damian stewart 2008;
#X text 545 550 GPL v3;
#X text 544 475 808 hihats;
#X msg 306 256 0 20;
#X msg 354 252 1 7;
#X obj 553 172 + 100;
#X obj 188 116 bp~ 3462 0.3;
#X obj 187 190 clip~ -1 1;
#X obj 187 168 hip~ 6700;
#X obj 188 142 hip~ 6700;
#X obj 247 60 noise~ 0.3;
#X obj 207 253 hip~ 7029;
#X obj 204 280 lop~ 7029;
#X obj 56 486 *~ 1;
#X obj 207 301 hip~ 3764;
#X obj 55 445 hip~ 4000;
#X obj 47 326 d-lin-to-exp~;
#X obj 352 226 del 8;
#X obj 394 220 del 28;
#X obj 210 91 *~ 0.2;
#X obj 207 220 bp~ 7029 8;
#X msg 388 250 0.8 50;
#X obj 430 275 pack 0 410;
#X obj 406 365 *~;
#X obj 554 146 * 410;
#X obj 440 221 del 34;
#X obj 372 466 *~ 0.6;
#X obj 206 322 lop~ 3764;
#X obj 43 300 vline~;
#X msg 29 275 1 3 \, 0.7 10 3 \, 0 60 13;
#X obj 147 30 d-808brain;
#X obj 405 341 1-0switch~;
#X obj 406 388 1-0switch~;
#X connect 0 0 36 0;
#X connect 1 0 24 0;
#X connect 1 0 13 0;
#X connect 1 0 50 0;
#X connect 2 0 1 0;
#X connect 4 0 52 0;
#X connect 5 0 47 0;
#X connect 6 0 9 0;
#X connect 9 0 38 0;
#X connect 9 0 46 0;
#X connect 9 1 1 0;
#X connect 10 0 0 1;
#X connect 11 0 5 0;
#X connect 12 0 45 0;
#X connect 13 0 39 0;
#X connect 13 0 46 0;
#X connect 18 0 19 0;
#X connect 19 0 45 0;
#X connect 24 0 4 0;
#X connect 25 0 4 0;
#X connect 26 0 43 1;
#X connect 27 0 30 0;
#X connect 28 0 41 0;
#X connect 29 0 28 0;
#X connect 30 0 29 0;
#X connect 31 0 40 0;
#X connect 32 0 33 0;
#X connect 33 0 35 0;
#X connect 34 0 8 0;
#X connect 35 0 48 0;
#X connect 36 0 34 0;
#X connect 37 0 0 0;
#X connect 38 0 25 0;
#X connect 39 0 42 0;
#X connect 40 0 27 0;
#X connect 41 0 32 0;
#X connect 42 0 4 0;
#X connect 43 0 4 0;
#X connect 44 0 53 0;
#X connect 45 0 26 0;
#X connect 46 0 43 0;
#X connect 47 0 7 0;
#X connect 48 0 11 0;
#X connect 48 0 10 0;
#X connect 49 0 37 0;
#X connect 50 0 49 0;
#X connect 51 0 27 0;
#X connect 52 0 44 0;
#X connect 52 0 44 1;
#X connect 53 0 5 1;
