#N canvas 636 171 523 485 10;
#X obj 106 256 line~;
#X obj 94 301 *~;
#X text 11 129 attack;
#X obj 22 26 inlet;
#X obj 21 79 t b;
#X obj 107 280 *~;
#X obj 88 161 +~;
#X obj 97 378 *~ 0.2;
#X msg 22 111 1 2;
#X obj 107 189 del 2.2;
#X msg 106 221 0.3 70;
#X obj 201 191 del 76;
#X obj 96 447 outlet~;
#X text 196 174 release;
#X text 106 176 decay/sus;
#X msg 202 221 0 400;
#X text 323 382 damian@frey.co.nz;
#X text 323 367 damian stewart 2008;
#X text 326 413 GPL v3;
#X text 324 338 808 cowbell;
#X text 19 3 bang to trigger;
#X obj 21 51 route trigger gain;
#X obj 98 415 *~ 0.8;
#X obj 95 347 bp~ 2691 2.6;
#X obj 97 327 bp~ 2691 2.6;
#X obj 193 23 r 808-tuning;
#X obj 178 104 *~ 0.7;
#X obj 200 60 * 539.95;
#X obj 306 61 * 799.957;
#X obj 307 89 d-square~ 799.957;
#X obj 200 81 d-square~ 539.95;
#X connect 0 0 5 0;
#X connect 0 0 5 1;
#X connect 1 0 24 0;
#X connect 3 0 21 0;
#X connect 4 0 8 0;
#X connect 4 0 9 0;
#X connect 4 0 11 0;
#X connect 5 0 1 1;
#X connect 6 0 1 0;
#X connect 7 0 22 0;
#X connect 8 0 0 0;
#X connect 9 0 10 0;
#X connect 10 0 0 0;
#X connect 11 0 15 0;
#X connect 15 0 0 0;
#X connect 21 0 4 0;
#X connect 21 1 22 1;
#X connect 21 2 4 0;
#X connect 22 0 12 0;
#X connect 23 0 7 0;
#X connect 24 0 23 0;
#X connect 25 0 27 0;
#X connect 25 0 28 0;
#X connect 26 0 6 0;
#X connect 27 0 30 0;
#X connect 28 0 29 0;
#X connect 29 0 6 1;
#X connect 30 0 26 0;
