#N canvas 131 47 527 409 10;
#X obj 105 11 r 808-tuning;
#X obj 190 98 *~ 0.7;
#X obj 29 94 *~ 0.9;
#X text 327 166 808 support;
#X text 325 210 damian@frey.co.nz;
#X text 325 195 damian stewart 2008;
#X text 328 241 GPL v3;
#X obj 183 164 * 549.5;
#X obj 190 50 * 539.95;
#X obj 31 49 * 210.2;
#X obj 24 162 * 320.09;
#X obj 24 253 * 379.973;
#X obj 193 255 * 799.957;
#X obj 190 71 d-square~ 539.95;
#X obj 187 187 d-square~ 549.5;
#X obj 32 71 d-square~ 210.2;
#X obj 23 188 d-square~ 320.09;
#X obj 24 276 d-square~ 379.973;
#X obj 194 283 d-square~ 799.957;
#X obj 131 345 outlet~;
#X text 318 75 4;
#X text 282 183 5;
#X text 311 281 6;
#X text 140 79 1;
#X text 124 187 2;
#X text 119 252 3;
#X connect 0 0 7 0;
#X connect 0 0 8 0;
#X connect 0 0 9 0;
#X connect 0 0 10 0;
#X connect 0 0 11 0;
#X connect 0 0 12 0;
#X connect 1 0 19 0;
#X connect 2 0 19 0;
#X connect 7 0 14 0;
#X connect 9 0 15 0;
#X connect 10 0 16 0;
#X connect 11 0 17 0;
#X connect 12 0 18 0;
#X connect 13 0 1 0;
#X connect 14 0 19 0;
#X connect 15 0 2 0;
#X connect 16 0 19 0;
#X connect 17 0 19 0;
#X connect 18 0 19 0;
