#N canvas 559 297 520 429 10;
#X obj 79 238 clip~ -1 1;
#X obj 85 275 outlet~;
#X text 222 201 basic square wave;
#X obj 79 189 +~;
#X obj 283 43 inlet;
#X obj 191 45 loadbang;
#X text 226 225 \$1 = frequency;
#X text 225 240 \$2 = pulsewidth (-1..1);
#X text 66 8 frequency;
#X text 277 18 pulsewidth;
#X text 259 251 (0 = equal (default));
#X text 226 269 \$3 = squariness (higher=more \, default 1000);
#X obj 381 44 inlet;
#X text 367 20 squariness;
#X text 403 312 part of dlib;
#X text 192 378 released under the GNU General Public License v3+;
#X text 281 353 damian@frey.co.nz | www.frey.co.nz;
#X text 282 339 copyright damian stewart 2006-2008;
#X obj 450 41 inlet;
#X text 454 25 phase;
#X obj 78 159 osc~ \$1;
#X obj 79 213 *~ 1000;
#X obj 75 35 inlet;
#X obj 77 139 line~;
#X obj 253 135 line~;
#X obj 277 102 pack \$2 10;
#X obj 79 114 pack \$1 10;
#X obj 133 155 f \$3;
#X obj 132 185 if 0 1000;
#X connect 0 0 1 0;
#X connect 3 0 21 0;
#X connect 4 0 25 0;
#X connect 5 0 25 0;
#X connect 5 0 26 0;
#X connect 5 0 27 0;
#X connect 12 0 21 1;
#X connect 18 0 20 1;
#X connect 20 0 3 0;
#X connect 21 0 0 0;
#X connect 22 0 26 0;
#X connect 23 0 20 0;
#X connect 24 0 3 1;
#X connect 25 0 24 0;
#X connect 26 0 23 0;
#X connect 27 0 28 0;
#X connect 28 0 21 1;
