#N canvas 248 101 746 633 10;
#X declare -stdlib zexy;
#N canvas 875 307 208 203 counter 0;
#X obj 10 16 inlet;
#X obj 10 145 outlet;
#X obj 10 119 f;
#X obj 44 120 + 1;
#X obj 10 96 until;
#X obj 10 44 t b b;
#X obj 54 73 0;
#X obj 10 75 200;
#X connect 0 0 5 0;
#X connect 2 0 3 0;
#X connect 2 0 1 0;
#X connect 3 0 2 1;
#X connect 4 0 2 0;
#X connect 5 0 7 0;
#X connect 5 1 6 0;
#X connect 6 0 2 1;
#X connect 7 0 4 0;
#X restore 462 213 pd counter;
#X obj 462 191 t b f;
#X obj 167 362 *~;
#X obj 21 418 *~;
#X obj 37 289 line~;
#X obj 37 311 dbtorms~;
#X obj 254 312 osc~ 50;
#X obj 65 260 pack 0 1000;
#N canvas 826 261 287 340 curve 0;
#N canvas 750 295 241 238 gleichung 0;
#X obj 123 85 + 1;
#X obj 78 85 * -1;
#X obj 123 12 inlet;
#X obj 16 5 inlet;
#X obj 16 68 *;
#X obj 16 47 t f f;
#X obj 16 111 *;
#X obj 16 90 t f f;
#X obj 16 137 *;
#X obj 16 166 +;
#X obj 76 135 *;
#X obj 16 24 t f f;
#X obj 16 191 outlet;
#X connect 0 0 10 1;
#X connect 1 0 8 1;
#X connect 2 0 1 0;
#X connect 2 0 0 0;
#X connect 3 0 11 0;
#X connect 4 0 7 0;
#X connect 5 0 4 0;
#X connect 5 1 4 1;
#X connect 6 0 8 0;
#X connect 7 0 6 0;
#X connect 7 1 6 1;
#X connect 8 0 9 0;
#X connect 9 0 12 0;
#X connect 10 0 9 1;
#X connect 11 0 5 0;
#X connect 11 1 10 0;
#X restore 31 52 pd gleichung;
#X obj 31 17 inlet;
#X obj 31 230 outlet;
#X obj 136 12 inlet;
#N canvas 750 295 229 226 gleichung 0;
#X obj 123 85 + 1;
#X obj 78 85 * -1;
#X obj 123 12 inlet;
#X obj 16 5 inlet;
#X obj 16 68 *;
#X obj 16 47 t f f;
#X obj 16 111 *;
#X obj 16 90 t f f;
#X obj 16 137 *;
#X obj 16 166 +;
#X obj 76 135 *;
#X obj 16 24 t f f;
#X obj 16 191 outlet;
#X connect 0 0 10 1;
#X connect 1 0 8 1;
#X connect 2 0 1 0;
#X connect 2 0 0 0;
#X connect 3 0 11 0;
#X connect 4 0 7 0;
#X connect 5 0 4 0;
#X connect 5 1 4 1;
#X connect 6 0 8 0;
#X connect 7 0 6 0;
#X connect 7 1 6 1;
#X connect 8 0 9 0;
#X connect 9 0 12 0;
#X connect 10 0 9 1;
#X connect 11 0 5 0;
#X connect 11 1 10 0;
#X restore 31 72 pd gleichung;
#N canvas 750 295 229 226 gleichung 0;
#X obj 123 85 + 1;
#X obj 78 85 * -1;
#X obj 123 12 inlet;
#X obj 16 5 inlet;
#X obj 16 68 *;
#X obj 16 47 t f f;
#X obj 16 111 *;
#X obj 16 90 t f f;
#X obj 16 137 *;
#X obj 16 166 +;
#X obj 76 135 *;
#X obj 16 24 t f f;
#X obj 16 191 outlet;
#X connect 0 0 10 1;
#X connect 1 0 8 1;
#X connect 2 0 1 0;
#X connect 2 0 0 0;
#X connect 3 0 11 0;
#X connect 4 0 7 0;
#X connect 5 0 4 0;
#X connect 5 1 4 1;
#X connect 6 0 8 0;
#X connect 7 0 6 0;
#X connect 7 1 6 1;
#X connect 8 0 9 0;
#X connect 9 0 12 0;
#X connect 10 0 9 1;
#X connect 11 0 5 0;
#X connect 11 1 10 0;
#X restore 31 92 pd gleichung;
#N canvas 750 295 229 226 gleichung 0;
#X obj 123 85 + 1;
#X obj 78 85 * -1;
#X obj 123 12 inlet;
#X obj 16 5 inlet;
#X obj 16 68 *;
#X obj 16 47 t f f;
#X obj 16 111 *;
#X obj 16 90 t f f;
#X obj 16 137 *;
#X obj 16 166 +;
#X obj 76 135 *;
#X obj 16 24 t f f;
#X obj 16 191 outlet;
#X connect 0 0 10 1;
#X connect 1 0 8 1;
#X connect 2 0 1 0;
#X connect 2 0 0 0;
#X connect 3 0 11 0;
#X connect 4 0 7 0;
#X connect 5 0 4 0;
#X connect 5 1 4 1;
#X connect 6 0 8 0;
#X connect 7 0 6 0;
#X connect 7 1 6 1;
#X connect 8 0 9 0;
#X connect 9 0 12 0;
#X connect 10 0 9 1;
#X connect 11 0 5 0;
#X connect 11 1 10 0;
#X restore 31 112 pd gleichung;
#N canvas 750 295 229 226 gleichung 0;
#X obj 123 85 + 1;
#X obj 78 85 * -1;
#X obj 123 12 inlet;
#X obj 16 5 inlet;
#X obj 16 68 *;
#X obj 16 47 t f f;
#X obj 16 111 *;
#X obj 16 90 t f f;
#X obj 16 137 *;
#X obj 16 166 +;
#X obj 76 135 *;
#X obj 16 24 t f f;
#X obj 16 191 outlet;
#X connect 0 0 10 1;
#X connect 1 0 8 1;
#X connect 2 0 1 0;
#X connect 2 0 0 0;
#X connect 3 0 11 0;
#X connect 4 0 7 0;
#X connect 5 0 4 0;
#X connect 5 1 4 1;
#X connect 6 0 8 0;
#X connect 7 0 6 0;
#X connect 7 1 6 1;
#X connect 8 0 9 0;
#X connect 9 0 12 0;
#X connect 10 0 9 1;
#X connect 11 0 5 0;
#X connect 11 1 10 0;
#X restore 31 132 pd gleichung;
#N canvas 750 295 229 226 gleichung 0;
#X obj 123 85 + 1;
#X obj 78 85 * -1;
#X obj 123 12 inlet;
#X obj 16 5 inlet;
#X obj 16 68 *;
#X obj 16 47 t f f;
#X obj 16 111 *;
#X obj 16 90 t f f;
#X obj 16 137 *;
#X obj 16 166 +;
#X obj 76 135 *;
#X obj 16 24 t f f;
#X obj 16 191 outlet;
#X connect 0 0 10 1;
#X connect 1 0 8 1;
#X connect 2 0 1 0;
#X connect 2 0 0 0;
#X connect 3 0 11 0;
#X connect 4 0 7 0;
#X connect 5 0 4 0;
#X connect 5 1 4 1;
#X connect 6 0 8 0;
#X connect 7 0 6 0;
#X connect 7 1 6 1;
#X connect 8 0 9 0;
#X connect 9 0 12 0;
#X connect 10 0 9 1;
#X connect 11 0 5 0;
#X connect 11 1 10 0;
#X restore 31 152 pd gleichung;
#N canvas 750 295 229 226 gleichung 0;
#X obj 123 85 + 1;
#X obj 78 85 * -1;
#X obj 123 12 inlet;
#X obj 16 5 inlet;
#X obj 16 68 *;
#X obj 16 47 t f f;
#X obj 16 111 *;
#X obj 16 90 t f f;
#X obj 16 137 *;
#X obj 16 166 +;
#X obj 76 135 *;
#X obj 16 24 t f f;
#X obj 16 191 outlet;
#X connect 0 0 10 1;
#X connect 1 0 8 1;
#X connect 2 0 1 0;
#X connect 2 0 0 0;
#X connect 3 0 11 0;
#X connect 4 0 7 0;
#X connect 5 0 4 0;
#X connect 5 1 4 1;
#X connect 6 0 8 0;
#X connect 7 0 6 0;
#X connect 7 1 6 1;
#X connect 8 0 9 0;
#X connect 9 0 12 0;
#X connect 10 0 9 1;
#X connect 11 0 5 0;
#X connect 11 1 10 0;
#X restore 31 172 pd gleichung;
#N canvas 750 295 229 226 gleichung 0;
#X obj 123 85 + 1;
#X obj 78 85 * -1;
#X obj 123 12 inlet;
#X obj 16 5 inlet;
#X obj 16 68 *;
#X obj 16 47 t f f;
#X obj 16 111 *;
#X obj 16 90 t f f;
#X obj 16 137 *;
#X obj 16 166 +;
#X obj 76 135 *;
#X obj 16 24 t f f;
#X obj 16 191 outlet;
#X connect 0 0 10 1;
#X connect 1 0 8 1;
#X connect 2 0 1 0;
#X connect 2 0 0 0;
#X connect 3 0 11 0;
#X connect 4 0 7 0;
#X connect 5 0 4 0;
#X connect 5 1 4 1;
#X connect 6 0 8 0;
#X connect 7 0 6 0;
#X connect 7 1 6 1;
#X connect 8 0 9 0;
#X connect 9 0 12 0;
#X connect 10 0 9 1;
#X connect 11 0 5 0;
#X connect 11 1 10 0;
#X restore 31 192 pd gleichung;
#X obj 136 35 + 0.1;
#X obj 136 58 * 0.6;
#X connect 0 0 4 0;
#X connect 1 0 0 0;
#X connect 3 0 11 0;
#X connect 4 0 5 0;
#X connect 5 0 6 0;
#X connect 6 0 7 0;
#X connect 7 0 8 0;
#X connect 8 0 9 0;
#X connect 9 0 10 0;
#X connect 10 0 2 0;
#X connect 11 0 12 0;
#X connect 12 0 0 1;
#X connect 12 0 4 1;
#X connect 12 0 5 1;
#X connect 12 0 6 1;
#X connect 12 0 7 1;
#X connect 12 0 8 1;
#X connect 12 0 9 1;
#X connect 12 0 10 1;
#X restore 462 339 pd curve;
#X obj 65 239 del 3;
#X obj 462 237 t f f;
#X obj 462 362 tabwrite \$0-attack;
#X obj 21 168 tabplay~ \$0-attack;
#X obj 302 288 f 0.58;
#X obj 21 118 t b;
#X obj 164 128 *;
#X obj 164 167 rmstodb;
#X obj 130 232 exp;
#X obj 130 211 + 5.1;
#X obj 130 189 * 3.2;
#X obj 35 245 f;
#X obj 21 -21 inlet;
#X obj 281 -37 loadbang;
#X obj 338 48 0.4;
#X obj 22 495 outlet~;
#X text 473 415 Author: Roman Haefeli;
#X msg 473 444 version 0.0.1;
#X text 279 65 gain;
#X text 334 65 decay;
#X obj 164 107 t f f;
#X obj 281 47 0.8;
#X obj 457 263 moses 39;
#X obj 462 286 / 40;
#X obj 21 360 *~;
#X obj 295 195 * 10;
#X obj 295 172 t a a;
#X obj 255 227 f 500;
#X obj 21 9 route trigger gain decay click tune;
#X obj 295 144 * 50;
#X floatatom 589 191 5 0 0 0 - - -;
#X obj 475 70 t b a;
#X obj 461 381 table \$0-attack 500;
#X obj 419 96 0.4;
#X text 395 125 click;
#X obj 470 45 1;
#X text 451 72 tune;
#X obj 617 37 bng 15 250 50 0 empty empty empty 17 7 0 10 -262144 -1
-1;
#X msg 396 -5 bang;
#X floatatom 645 159 5 0 0 0 - - -;
#X obj 469 13 bng 15 250 50 0 empty empty empty 17 7 0 10 -262144 -1
-1;
#X msg 614 329 const 0;
#X obj 612 357 s \$0-attack;
#X obj 639 87 / 44100;
#X obj 564 218 * 1;
#X obj 564 166 * 40;
#X floatatom 561 249 5 0 0 0 - - -;
#X floatatom 412 346 5 0 0 0 - - -;
#X floatatom 422 372 5 0 0 0 - - -;
#X obj 563 194 - 0;
#X obj 457 111 t a b;
#X obj 541 88 f 1;
#X obj 510 243 * 1.5;
#X obj 168 226 f 5;
#X obj 193 206 * 5;
#X obj 255 247 pack 500 50 5;
#X floatatom 527 290 5 0 0 0 - - -;
#X obj 630 17 loadbang;
#X obj 640 62 samplerate~;
#X floatatom 212 229 5 0 0 0 - - -;
#X msg 164 248 0 \, 192 \$1 0;
#X msg 256 269 \$1 \, \$2 \$3 0;
#X obj 164 270 line~;
#X obj 254 290 line~;
#X obj 462 316 min 1.2;
#X obj 130 325 1-0switch~;
#X obj 563 135 /;
#X obj 561 112 swap 1;
#X obj 208 156 swap 1;
#X obj 205 181 /;
#X obj 461 150 sqr;
#X obj 484 -27 declare -stdlib zexy;
#X obj 164 300 >~ 30;
#X connect 0 0 10 0;
#X connect 1 0 0 0;
#X connect 1 1 8 1;
#X connect 2 0 3 0;
#X connect 3 0 24 0;
#X connect 4 0 5 0;
#X connect 5 0 3 1;
#X connect 6 0 2 1;
#X connect 7 0 4 0;
#X connect 8 0 11 0;
#X connect 8 0 57 0;
#X connect 9 0 7 0;
#X connect 10 0 31 0;
#X connect 10 1 11 1;
#X connect 12 0 33 0;
#X connect 13 0 6 1;
#X connect 14 0 12 0;
#X connect 14 0 9 0;
#X connect 14 0 13 0;
#X connect 14 0 20 0;
#X connect 14 0 36 0;
#X connect 14 0 62 0;
#X connect 15 0 16 0;
#X connect 16 0 20 1;
#X connect 17 0 7 1;
#X connect 18 0 17 0;
#X connect 19 0 18 0;
#X connect 20 0 4 0;
#X connect 21 0 37 0;
#X connect 22 0 23 0;
#X connect 22 0 30 0;
#X connect 22 0 42 0;
#X connect 22 0 44 0;
#X connect 23 0 19 0;
#X connect 29 0 15 0;
#X connect 29 1 15 1;
#X connect 30 0 29 0;
#X connect 31 0 32 0;
#X connect 32 0 56 0;
#X connect 32 0 73 0;
#X connect 33 0 3 0;
#X connect 34 0 36 1;
#X connect 35 0 34 0;
#X connect 35 1 64 1;
#X connect 36 0 64 0;
#X connect 37 0 14 0;
#X connect 37 1 29 0;
#X connect 37 2 19 0;
#X connect 37 3 42 0;
#X connect 37 4 44 0;
#X connect 38 0 35 0;
#X connect 40 0 42 0;
#X connect 40 1 60 0;
#X connect 42 0 59 0;
#X connect 44 0 38 0;
#X connect 44 0 40 0;
#X connect 44 0 77 0;
#X connect 46 0 50 0;
#X connect 46 0 67 0;
#X connect 47 0 42 0;
#X connect 49 0 44 0;
#X connect 50 0 51 0;
#X connect 52 0 48 0;
#X connect 52 0 53 1;
#X connect 53 0 32 1;
#X connect 53 0 55 0;
#X connect 53 0 61 0;
#X connect 54 0 39 0;
#X connect 54 0 58 0;
#X connect 58 0 53 0;
#X connect 59 0 79 0;
#X connect 59 1 60 0;
#X connect 59 1 50 0;
#X connect 60 0 76 0;
#X connect 61 0 31 1;
#X connect 61 0 65 0;
#X connect 62 0 69 0;
#X connect 63 0 62 1;
#X connect 63 0 64 2;
#X connect 63 0 68 0;
#X connect 64 0 70 0;
#X connect 66 0 67 0;
#X connect 67 0 52 0;
#X connect 69 0 71 0;
#X connect 70 0 72 0;
#X connect 71 0 81 0;
#X connect 72 0 6 0;
#X connect 73 0 8 0;
#X connect 74 0 33 1;
#X connect 75 0 54 0;
#X connect 76 0 75 0;
#X connect 76 1 75 1;
#X connect 77 0 78 0;
#X connect 77 1 78 1;
#X connect 78 0 63 0;
#X connect 79 0 1 0;
#X connect 81 0 2 0;
#X connect 81 0 74 0;
