#N canvas 357 167 1066 636 10;
#X obj 470 21 inlet~;
#X obj 874 34 inlet cmd;
#X obj 100 104 cnv 15 270 60 empty empty empty 20 12 0 14 #404040 #404040
0;
#X text 105 100 SIG;
#X text 346 100 CMD;
#X obj 127 118 cnv 15 65 16 empty empty LESLIE~ 8 8 0 10 #202020 #fcfcfc
0;
#X obj 596 566 outlet~ left;
#X obj 666 13 r \$0_speed;
#X obj 695 566 outlet~ right;
#X obj 245 145 hsl 90 15 0 1 0 0 \$0_dry_slider \$0_rdry empty -2 -8
0 10 #fcfcfc #000000 #000000 0 1;
#X obj 471 311 *~ 0;
#X obj 492 282 r \$0_dry;
#X obj 596 529 *~ 0.2;
#X obj 629 504 r \$0_wet;
#X obj 695 530 *~ 0.2;
#X obj 728 505 r \$0_wet;
#X text 220 144 DRY;
#X text 105 146 L;
#X obj 245 126 hsl 90 15 1 5 0 0 \$0_gain_slider \$0_rgain empty -2
-8 0 10 #fcfcfc #000000 #000000 0 1;
#X obj 139 137 tgl 15 0 \$0_bypass \$0_rbypass empty 17 7 0 10 #fcfcfc
#000000 #000000 0 1;
#X obj 874 66 s \$0_cmd;
#X text 156 136 BYPASS;
#X text 213 125 GAIN;
#X obj 470 91 cyclone/overdrive~;
#X obj 486 58 r \$0_gain;
#N canvas 160 282 370 354 handle_commands 0;
#X obj 106 305 s \$0_rspeed;
#X obj 144 228 / 127;
#X obj 144 252 s \$0_rdry;
#X obj 33 55 loadbang;
#X obj 182 198 s \$0_rgain;
#X obj 220 124 > 0;
#X obj 220 147 s \$0_rbypass;
#X obj 106 35 r \$0_cmd;
#X obj 106 64 route rate dry gain bypass;
#X msg 29 155 0;
#X msg 76 128 1;
#X msg 76 101 0;
#X obj 182 175 expr 4*($f1/127)+1;
#X msg 65 156 0.6;
#X connect 1 0 2 0;
#X connect 3 0 13 0;
#X connect 3 0 9 0;
#X connect 3 0 10 0;
#X connect 3 0 11 0;
#X connect 5 0 6 0;
#X connect 7 0 8 0;
#X connect 8 0 0 0;
#X connect 8 1 1 0;
#X connect 8 2 12 0;
#X connect 8 3 5 0;
#X connect 9 0 0 0;
#X connect 10 0 4 0;
#X connect 11 0 6 0;
#X connect 12 0 4 0;
#X connect 13 0 2 0;
#X restore 177 207 pd handle_commands;
#N canvas 0 23 442 346 handle_bypass 0;
#X obj 119 240 expr 1-$f1;
#X obj 119 278 s \$0_wet;
#X obj 138 30 r \$0_bypass;
#X obj 163 83 sel 0 1;
#X msg 182 127 1;
#X obj 33 151 f;
#X obj 33 30 r \$0_dry_slider;
#X obj 61 151 f;
#X obj 33 178 spigot 0;
#X obj 83 213 zexy/nop;
#X obj 55 278 s \$0_dry;
#X obj 138 128 == 0;
#X obj 301 33 r \$0_gain_slider;
#X obj 301 157 f;
#X obj 337 158 f;
#X obj 270 241 zexy/nop;
#X obj 267 187 spigot 0;
#X obj 270 280 s \$0_gain;
#X connect 0 0 1 0;
#X connect 2 0 3 0;
#X connect 2 0 11 0;
#X connect 3 0 7 0;
#X connect 3 0 14 0;
#X connect 3 1 4 0;
#X connect 4 0 9 0;
#X connect 4 0 15 0;
#X connect 5 0 8 0;
#X connect 6 0 5 0;
#X connect 6 0 7 1;
#X connect 7 0 9 0;
#X connect 8 0 9 0;
#X connect 9 0 10 0;
#X connect 9 0 0 0;
#X connect 11 0 8 1;
#X connect 11 0 16 1;
#X connect 12 0 13 0;
#X connect 12 0 14 1;
#X connect 13 0 16 0;
#X connect 14 0 15 0;
#X connect 15 0 17 0;
#X connect 16 0 15 0;
#X restore 179 240 pd handle_bypass;
#X text 397 310 Dry/wet ->;
#X text 747 16 <- speed control;
#N canvas 5 52 760 685 rotary_speaker 0;
#X obj 339 147 line;
#X text 355 67 LFO Generator;
#X obj 182 42 inlet~ sig;
#X obj 339 91 t f b;
#X obj 59 661 outlet~ left;
#X text 402 116 <- acceleration time;
#X obj 339 23 inlet lfo_freq;
#X obj 181 135 delwrite~ \$0_doppler 5;
#X obj 339 177 phasor~;
#X obj 60 284 cos~;
#X obj 114 400 vd~ \$0_doppler;
#X obj 60 462 *~;
#X obj 508 487 *~;
#X obj 274 302 cos~;
#X obj 274 480 *~;
#X text 28 282 LEFT;
#X text 467 310 RIGHT;
#X text 241 301 BACK;
#X obj 508 309 cos~;
#X obj 509 283 +~ 0.33;
#X obj 273 270 +~ 0.66;
#X obj 508 651 outlet~ right;
#X obj 525 606 delwrite~ \$0_right 5;
#X obj 507 573 zexy/nop~;
#X obj 273 560 zexy/nop~;
#X obj 291 593 delwrite~ \$0_back 5;
#X obj 60 557 zexy/nop~;
#X obj 78 590 delwrite~ \$0_left 5;
#X msg 366 117 1200;
#X text 470 173 Sound moves 50cm in 15ms.;
#X obj 114 347 *~ 0.75;
#X obj 114 373 +~ 2.25;
#X obj 330 414 vd~ \$0_doppler;
#X obj 330 361 *~ 0.75;
#X obj 330 387 +~ 2.25;
#X obj 562 420 vd~ \$0_doppler;
#X obj 562 367 *~ 0.75;
#X obj 562 393 +~ 2.25;
#X obj 99 480 delread~ \$0_back 1.5;
#X obj 114 502 delread~ \$0_right 1.3;
#X obj 312 483 delread~ \$0_left 1.4;
#X obj 327 505 delread~ \$0_right 1.5;
#X obj 546 496 delread~ \$0_left 1.3;
#X obj 561 518 delread~ \$0_back 1.4;
#X obj 88 529 *~ 0.3;
#X obj 301 532 *~ 0.3;
#X obj 535 545 *~ 0.3;
#X obj 59 349 *~ -0.4;
#X obj 59 375 +~ 0.6;
#X obj 275 363 *~ -0.4;
#X obj 275 389 +~ 0.6;
#X obj 507 369 *~ -0.4;
#X obj 507 395 +~ 0.6;
#X connect 0 0 8 0;
#X connect 2 0 7 0;
#X connect 3 0 0 0;
#X connect 3 1 28 0;
#X connect 6 0 3 0;
#X connect 8 0 9 0;
#X connect 8 0 19 0;
#X connect 8 0 20 0;
#X connect 9 0 30 0;
#X connect 9 0 47 0;
#X connect 10 0 11 1;
#X connect 11 0 26 0;
#X connect 12 0 23 0;
#X connect 13 0 33 0;
#X connect 13 0 49 0;
#X connect 14 0 24 0;
#X connect 18 0 36 0;
#X connect 18 0 51 0;
#X connect 19 0 18 0;
#X connect 20 0 13 0;
#X connect 23 0 22 0;
#X connect 23 0 21 0;
#X connect 24 0 25 0;
#X connect 26 0 27 0;
#X connect 26 0 4 0;
#X connect 28 0 0 1;
#X connect 30 0 31 0;
#X connect 31 0 10 0;
#X connect 32 0 14 1;
#X connect 33 0 34 0;
#X connect 34 0 32 0;
#X connect 35 0 12 1;
#X connect 36 0 37 0;
#X connect 37 0 35 0;
#X connect 38 0 44 0;
#X connect 39 0 44 0;
#X connect 40 0 45 0;
#X connect 41 0 45 0;
#X connect 42 0 46 0;
#X connect 43 0 46 0;
#X connect 44 0 26 0;
#X connect 45 0 24 0;
#X connect 46 0 23 0;
#X connect 47 0 48 0;
#X connect 48 0 11 0;
#X connect 49 0 50 0;
#X connect 50 0 14 0;
#X connect 51 0 52 0;
#X connect 52 0 12 0;
#X restore 595 278 pd rotary_speaker;
#X obj 701 203 zexy/nop;
#X obj 840 457 outlet;
#X obj 869 299 r \$0_bypass;
#X obj 832 204 r \$0_gain_slider;
#X obj 829 225 - 1;
#X obj 831 265 * 31.75;
#X obj 765 296 r \$0_dry_slider;
#X obj 787 330 * 127;
#X obj 245 108 hsl 90 15 0 1 0 0 \$0_speed \$0_rspeed empty -2 -8 0
10 #fcfcfc #000000 #000000 0 1;
#X obj 653 62 * 7;
#X text 207 108 SPEED;
#X obj 737 351 shadylib/prepender rate dry gain bypass;
#X connect 0 0 23 0;
#X connect 1 0 20 0;
#X connect 7 0 39 0;
#X connect 7 0 41 0;
#X connect 10 0 6 0;
#X connect 10 0 8 0;
#X connect 11 0 10 1;
#X connect 12 0 6 0;
#X connect 13 0 12 1;
#X connect 14 0 8 0;
#X connect 15 0 14 1;
#X connect 23 0 10 0;
#X connect 23 0 29 0;
#X connect 24 0 23 0;
#X connect 29 0 12 0;
#X connect 29 1 14 0;
#X connect 30 0 29 1;
#X connect 32 0 41 3;
#X connect 33 0 34 0;
#X connect 34 0 35 0;
#X connect 35 0 41 2;
#X connect 36 0 37 0;
#X connect 37 0 41 1;
#X connect 39 0 30 0;
#X connect 41 0 31 0;
#X coords 0 -1 1 1 270 68 1 100 100;
