#N canvas 476 78 803 662 10;
#X obj 402 31 loadbang;
#X obj -50 160 t f f f;
#X obj -31 191 >= 0;
#X obj -5 220 &&;
#X obj -50 277 spigot 0;
#X obj 57 296 > 0;
#X obj 398 243 !=;
#X msg 402 60 -1;
#X obj 398 336 int;
#X floatatom 454 219 5 0 0 0 - - -;
#X obj 398 273 sel 1;
#X text -143 276 Key changed ->;
#X obj 12 329 spigot 0;
#X obj -50 329 spigot 0;
#X obj 21 296 == 0;
#X text -148 329 Key released ->;
#X text 70 329 <- Key pressed;
#X obj 402 89 s \$0_currently_active;
#X obj 436 184 r \$0_currently_active;
#X obj 216 240 ==;
#X obj 216 270 sel 1;
#X obj 216 322 int;
#X floatatom -43 379 5 0 0 0 - - -;
#X floatatom 26 355 5 0 0 0 - - -;
#X obj 371 444 s \$0_currently_active;
#X obj 371 304 t b b;
#X obj 371 336 int;
#X obj -50 398 s \$0_key_released;
#X obj 12 375 s \$0_key_pressed;
#X obj 216 202 r \$0_key_released;
#X obj 359 146 r \$0_key_pressed;
#X obj 359 172 t f f;
#X obj -50 12 inlet note;
#X obj 341 498 outlet active;
#X obj 341 470 + 1;
#X obj -50 38 unpack f f;
#X obj 216 499 outlet note;
#X obj -50 131 - \$1;
#X obj 4 191 < \$2;
#X text 95 34 radio_pads <first_note> <number_of_notes>;
#X obj 216 371 + \$1;
#X obj 398 385 + \$1;
#X msg 216 403 \$1 127;
#X msg 398 418 \$1 0;
#X connect 0 0 7 0;
#X connect 1 0 4 0;
#X connect 1 1 2 0;
#X connect 1 2 38 0;
#X connect 2 0 3 0;
#X connect 3 0 4 1;
#X connect 4 0 12 0;
#X connect 4 0 13 0;
#X connect 5 0 12 1;
#X connect 6 0 10 0;
#X connect 7 0 17 0;
#X connect 8 0 41 0;
#X connect 10 0 25 0;
#X connect 12 0 23 0;
#X connect 12 0 28 0;
#X connect 13 0 22 0;
#X connect 13 0 27 0;
#X connect 14 0 13 1;
#X connect 18 0 6 1;
#X connect 18 0 8 1;
#X connect 18 0 9 0;
#X connect 18 0 19 1;
#X connect 18 0 21 1;
#X connect 19 0 20 0;
#X connect 20 0 21 0;
#X connect 21 0 40 0;
#X connect 25 0 26 0;
#X connect 25 1 8 0;
#X connect 26 0 24 0;
#X connect 26 0 34 0;
#X connect 29 0 19 0;
#X connect 30 0 31 0;
#X connect 31 0 6 0;
#X connect 31 1 26 1;
#X connect 32 0 35 0;
#X connect 34 0 33 0;
#X connect 35 0 37 0;
#X connect 35 1 14 0;
#X connect 35 1 5 0;
#X connect 37 0 1 0;
#X connect 38 0 3 1;
#X connect 40 0 42 0;
#X connect 41 0 43 0;
#X connect 42 0 36 0;
#X connect 43 0 36 0;
