#N canvas 1 52 964 513 10;
#X obj 403 115 delwrite~ \$0_scanner 8;
#X obj 403 317 vd~ \$0_scanner;
#X obj 403 397 +~;
#N canvas 58 69 533 439 scanner_lfo 0;
#X obj 36 -121 phasor~ 7;
#X obj 37 -92 *~ 2;
#X obj 37 -62 -~ 1;
#X obj 52 -32 expr~ $v1>0;
#X obj 38 49 *~;
#X text 88 22 <- Square wave;
#X text 65 48 <- Triangle wave;
#X text 71 -62 <- Sawtooth;
#X obj 52 -5 *~ 2;
#X obj 53 22 -~ 1;
#X obj 38 137 outlet~;
#X connect 0 0 1 0;
#X connect 1 0 2 0;
#X connect 2 0 3 0;
#X connect 2 0 4 0;
#X connect 3 0 8 0;
#X connect 4 0 10 0;
#X connect 8 0 9 0;
#X connect 9 0 4 1;
#X restore 403 144 pd scanner_lfo;
#X obj 403 36 inlet~ signal;
#X obj 424 339 r \$0_wet_level;
#X obj 552 314 r \$0_dry_level;
#X obj 403 431 outlet~;
#X obj 167 305 s \$0_dry_level;
#X obj 133 330 s \$0_wet_level;
#X obj 598 36 inlet cmd;
#X obj 100 104 cnv 15 270 40 empty empty empty 20 12 0 14 -66577 -66577
0;
#X obj 143 116 hradio 15 1 0 7 \$0_scanner_mode \$0_r_scanner_mode
empty 0 -8 0 10 -262144 -1 -1 0;
#X text 142 102 OFF/V1-3/C1-3;
#X text 105 100 SIG;
#X text 344 100 CMD;
#X text 104 132 SIG;
#X obj 598 69 route scanner-mode;
#X obj 598 98 / 18;
#X obj 598 127 int;
#X obj 598 156 s \$0_r_scanner_mode;
#X obj 133 192 r \$0_scanner_mode;
#X obj 202 280 s \$0_total_delay_time;
#X obj 424 201 r \$0_total_delay_time;
#X obj 403 259 *~ 0;
#X obj 424 230 / 2;
#X obj 403 173 +~ 1;
#X obj 403 288 +~ 1;
#X obj 531 352 *~ 0;
#X obj 403 368 *~ 0;
#N canvas 595 393 588 336 scanner_params 0;
#X obj 180 40 inlet mode;
#X obj 191 240 outlet params;
#X obj 180 85 sel 0 1 2 3 4 5 6;
#X msg 20 158 0 1 0;
#X msg 309 158 0.6 0.6 0.1;
#X msg 395 158 0.6 0.6 0.25;
#X msg 483 158 0.6 0.6 0.4;
#X msg 230 158 1 0.2 0.4;
#X msg 146 158 1 0.2 0.25;
#X msg 67 158 1 0.2 0.1;
#X connect 0 0 2 0;
#X connect 2 0 3 0;
#X connect 2 1 9 0;
#X connect 2 2 8 0;
#X connect 2 3 7 0;
#X connect 2 4 4 0;
#X connect 2 5 5 0;
#X connect 2 6 6 0;
#X connect 3 0 1 0;
#X connect 4 0 1 0;
#X connect 5 0 1 0;
#X connect 6 0 1 0;
#X connect 7 0 1 0;
#X connect 8 0 1 0;
#X connect 9 0 1 0;
#X restore 133 221 pd scanner_params;
#X obj 729 69 loadbang;
#X msg 729 98 0;
#X floatatom 571 348 5 0 0 0 - - -, f 5;
#X floatatom 478 412 5 0 0 0 - - -, f 5;
#X obj 133 250 unpack f f f;
#X obj 261 115 cnv 15 65 16 empty empty SCANNER~ 8 8 0 10 -33289 -262144
0;
#X floatatom 460 240 5 0 0 0 - - -, f 5;
#X obj 666 262 outlet;
#X obj 645 212 iemlib/iem_prepend scanner-mode;
#X connect 1 0 29 0;
#X connect 2 0 7 0;
#X connect 3 0 26 0;
#X connect 4 0 0 0;
#X connect 4 0 28 0;
#X connect 5 0 29 1;
#X connect 5 0 34 0;
#X connect 6 0 28 1;
#X connect 6 0 33 0;
#X connect 10 0 17 0;
#X connect 17 0 18 0;
#X connect 18 0 19 0;
#X connect 19 0 20 0;
#X connect 21 0 30 0;
#X connect 21 0 39 0;
#X connect 23 0 25 0;
#X connect 23 0 37 0;
#X connect 24 0 27 0;
#X connect 25 0 24 1;
#X connect 26 0 24 0;
#X connect 27 0 1 0;
#X connect 28 0 2 1;
#X connect 29 0 2 0;
#X connect 30 0 35 0;
#X connect 31 0 32 0;
#X connect 32 0 20 0;
#X connect 35 0 9 0;
#X connect 35 1 8 0;
#X connect 35 2 22 0;
#X connect 39 0 38 0;
#X coords 0 -1 1 1 270 48 1 100 100;
