#N canvas 61 106 943 492 10;
#X obj 323 15 inlet;
#X obj 465 528 outlet~;
#X obj 566 76 unpack f f;
#X obj 623 105 > 0;
#X msg 623 164 \$1 20;
#X obj 623 194 line~;
#X obj 465 485 *~;
#X obj 623 134 * 0.1;
#X obj 382 204 route 1 2 3 4 5 6 7 8 9;
#X obj 509 471 r~ \$0_envelope;
#X obj 622 225 s~ \$0_envelope;
#X obj 566 204 zexy/nop;
#X obj 566 135 spigot;
#X obj 31 331 tonewheel~ -12;
#X msg 574 164 0;
#X obj 889 448 *~;
#N canvas 85 79 918 513 percussion 0;
#X obj 45 27 inlet;
#X obj 45 78 route enable third soft fast trig release;
#X obj 46 555 outlet~ amount second;
#X obj 47 519 vline~;
#X obj 45 159 sel 0;
#X obj 85 159 sel 1 0;
#X obj 339 217 float;
#X obj 412 218 float;
#X obj 259 144 sel 0 1;
#X obj 439 144 sel 0 1;
#X msg 439 178 600;
#X msg 474 178 300;
#X obj 47 489 spigot;
#X obj 80 401 == 0;
#X obj 80 457 &&;
#X obj 88 433 t b f;
#X msg 339 271 \$1 10 \, 0 \$2 10;
#X obj 339 243 pack f f;
#X obj 367 162 t b b;
#X obj 116 401 r \$0_enable;
#X obj 80 371 r \$0_third;
#X obj 113 459 r \$0_reset_second;
#X msg 113 487 0 10;
#X obj 251 554 outlet~ amount second;
#X obj 252 518 vline~;
#X obj 252 488 spigot;
#X obj 285 456 &&;
#X obj 293 432 t b f;
#X obj 321 400 r \$0_enable;
#X obj 285 370 r \$0_third;
#X msg 318 486 0 10;
#X obj 285 400 == 1;
#X obj 318 458 r \$0_reset_third;
#X obj 42 239 s \$0_reset_second;
#X obj 42 215 bang;
#X obj 156 213 bang;
#X obj 156 238 s \$0_reset_third;
#X obj 95 117 s \$0_third;
#X obj 15 117 s \$0_enable;
#X obj 47 346 zexy/nop;
#X obj 252 345 zexy/nop;
#X msg 259 175 2.5;
#X msg 292 176 1.5;
#X connect 0 0 1 0;
#X connect 1 0 4 0;
#X connect 1 0 38 0;
#X connect 1 1 5 0;
#X connect 1 1 37 0;
#X connect 1 2 8 0;
#X connect 1 3 9 0;
#X connect 1 4 18 0;
#X connect 1 5 34 0;
#X connect 1 5 35 0;
#X connect 3 0 2 0;
#X connect 4 0 34 0;
#X connect 4 0 35 0;
#X connect 5 0 34 0;
#X connect 5 1 35 0;
#X connect 6 0 17 0;
#X connect 7 0 17 1;
#X connect 8 0 41 0;
#X connect 8 1 42 0;
#X connect 9 0 10 0;
#X connect 9 1 11 0;
#X connect 10 0 7 1;
#X connect 11 0 7 1;
#X connect 12 0 3 0;
#X connect 13 0 14 0;
#X connect 14 0 12 1;
#X connect 15 0 14 0;
#X connect 15 1 14 1;
#X connect 16 0 40 0;
#X connect 16 0 39 0;
#X connect 17 0 16 0;
#X connect 18 0 6 0;
#X connect 18 1 7 0;
#X connect 19 0 15 0;
#X connect 20 0 13 0;
#X connect 21 0 22 0;
#X connect 22 0 3 0;
#X connect 24 0 23 0;
#X connect 25 0 24 0;
#X connect 26 0 25 1;
#X connect 27 0 26 0;
#X connect 27 1 26 1;
#X connect 28 0 27 0;
#X connect 29 0 31 0;
#X connect 30 0 24 0;
#X connect 31 0 26 0;
#X connect 32 0 30 0;
#X connect 34 0 33 0;
#X connect 35 0 36 0;
#X connect 39 0 12 0;
#X connect 40 0 25 0;
#X connect 41 0 6 1;
#X connect 42 0 6 1;
#X restore 285 205 pd percussion;
#X obj 292 331 perc_tonewheel~ 12;
#X obj 889 475 *~ 0.3;
#X obj 746 156 eadsr~ 20 60 0.8 20;
#X obj 746 102 sel 0 1;
#X msg 746 130 stop;
#X msg 792 130 start;
#X obj 747 184 *~ 0.1;
#X obj 127 331 tonewheel~ 7;
#X obj 211 331 tonewheel~ 0;
#X obj 527 331 tonewheel~ 24;
#X obj 615 331 tonewheel~ 28;
#X obj 703 331 tonewheel~ 31;
#X obj 791 331 tonewheel~ 36;
#X obj 409 331 perc_tonewheel~ 19;
#X obj 323 47 route percussion idrawbar panic idrawbar_sum;
#X obj 953 382 bang;
#X obj 890 407 noise~;
#X obj 953 410 creb/ead~ 2 2;
#X obj 1035 392 expr ($f1/72)*0.025;
#X obj 1035 421 clip 0.01 0.02;
#X obj 888 498 lop~ 1500;
#X connect 0 0 31 0;
#X connect 2 0 12 0;
#X connect 2 1 3 0;
#X connect 3 0 7 0;
#X connect 3 0 12 1;
#X connect 3 0 20 0;
#X connect 3 0 32 0;
#X connect 4 0 5 0;
#X connect 6 0 1 0;
#X connect 7 0 4 0;
#X connect 8 0 13 1;
#X connect 8 1 24 1;
#X connect 8 2 25 1;
#X connect 8 3 17 2;
#X connect 8 4 30 2;
#X connect 8 5 26 1;
#X connect 8 6 27 1;
#X connect 8 7 28 1;
#X connect 8 8 29 1;
#X connect 9 0 6 1;
#X connect 11 0 13 0;
#X connect 11 0 17 0;
#X connect 11 0 24 0;
#X connect 11 0 25 0;
#X connect 11 0 26 0;
#X connect 11 0 27 0;
#X connect 11 0 28 0;
#X connect 11 0 29 0;
#X connect 11 0 30 0;
#X connect 12 0 11 0;
#X connect 13 0 6 0;
#X connect 14 0 5 0;
#X connect 15 0 18 0;
#X connect 16 0 17 1;
#X connect 16 1 30 1;
#X connect 17 0 6 0;
#X connect 18 0 37 0;
#X connect 19 0 23 0;
#X connect 20 0 21 0;
#X connect 20 1 22 0;
#X connect 21 0 19 0;
#X connect 22 0 19 0;
#X connect 23 0 10 0;
#X connect 24 0 6 0;
#X connect 25 0 6 0;
#X connect 26 0 6 0;
#X connect 27 0 6 0;
#X connect 28 0 6 0;
#X connect 29 0 6 0;
#X connect 30 0 6 0;
#X connect 31 0 16 0;
#X connect 31 1 8 0;
#X connect 31 2 14 0;
#X connect 31 2 21 0;
#X connect 31 3 35 0;
#X connect 31 4 2 0;
#X connect 32 0 34 0;
#X connect 33 0 15 0;
#X connect 34 0 15 1;
#X connect 35 0 36 0;
#X connect 36 0 18 1;
#X connect 37 0 1 0;
