#N canvas 412 23 1028 552 10;
#X declare -lib zexy;
#N canvas 125 111 1090 626 drawbar_controller 0;
#X msg 348 148 drawbar 4 \$1;
#X obj 21 120 r \$0_drawbar_1;
#X obj 127 119 r \$0_drawbar_2;
#X obj 240 119 r \$0_drawbar_3;
#X obj 348 119 r \$0_drawbar_4;
#X obj 454 118 r \$0_drawbar_5;
#X obj 564 117 r \$0_drawbar_6;
#X obj 672 117 r \$0_drawbar_7;
#X obj 783 117 r \$0_drawbar_8;
#X obj 897 116 r \$0_drawbar_9;
#X msg 21 149 drawbar 1 \$1;
#X msg 127 148 drawbar 2 \$1;
#X msg 240 148 drawbar 3 \$1;
#X msg 454 147 drawbar 5 \$1;
#X msg 564 146 drawbar 6 \$1;
#X msg 672 146 drawbar 7 \$1;
#X msg 783 146 drawbar 8 \$1;
#X msg 897 145 drawbar 9 \$1;
#X obj 21 97 s \$0_r_drawbar_1;
#X obj 127 96 s \$0_r_drawbar_2;
#X obj 240 96 s \$0_r_drawbar_3;
#X obj 348 96 s \$0_r_drawbar_4;
#X obj 454 95 s \$0_r_drawbar_5;
#X obj 564 94 s \$0_r_drawbar_6;
#X obj 672 94 s \$0_r_drawbar_7;
#X obj 783 94 s \$0_r_drawbar_8;
#X obj 897 93 s \$0_r_drawbar_9;
#X obj 457 10 inlet;
#X obj 457 37 route 1 2 3 4 5 6 7 8 9;
#X obj 32 250 r \$0_drawbar_1;
#X obj 140 249 r \$0_drawbar_2;
#X obj 247 249 r \$0_drawbar_3;
#X obj 353 249 r \$0_drawbar_4;
#X obj 461 247 r \$0_drawbar_5;
#X obj 574 247 r \$0_drawbar_6;
#X obj 683 247 r \$0_drawbar_7;
#X obj 794 247 r \$0_drawbar_8;
#X obj 908 246 r \$0_drawbar_9;
#X obj 908 273 expr ($f1/128)*9;
#X obj 908 298 int;
#X obj 908 324 change;
#X obj 794 276 expr ($f1/128)*9;
#X obj 794 301 int;
#X obj 794 327 change;
#X obj 683 274 expr ($f1/128)*9;
#X obj 683 299 int;
#X obj 683 325 change;
#X obj 574 275 expr ($f1/128)*9;
#X obj 574 303 int;
#X obj 574 326 change;
#X obj 461 276 expr ($f1/128)*9;
#X obj 461 301 int;
#X obj 461 327 change;
#X obj 353 276 expr ($f1/128)*9;
#X obj 353 301 int;
#X obj 353 327 change;
#X obj 247 276 expr ($f1/128)*9;
#X obj 247 301 int;
#X obj 247 327 change;
#X obj 140 276 expr ($f1/128)*9;
#X obj 140 301 int;
#X obj 140 327 change;
#X obj 32 276 expr ($f1/128)*9;
#X obj 32 301 int;
#X obj 32 327 change;
#X msg 32 400 idrawbar 1 \$1;
#X msg 140 400 idrawbar 2 \$1;
#X msg 247 400 idrawbar 3 \$1;
#X msg 353 400 idrawbar 4 \$1;
#X msg 461 400 idrawbar 5 \$1;
#X msg 574 399 idrawbar 6 \$1;
#X msg 683 398 idrawbar 7 \$1;
#X msg 794 400 idrawbar 8 \$1;
#X msg 908 397 idrawbar 9 \$1;
#X obj 412 507 outlet;
#X obj 19 221 zexy/nop;
#X obj 14 457 outlet;
#X obj 731 543 pack f f f f f f f f f;
#X obj 731 571 zexy/sum;
#X obj 731 492 t b f;
#X obj 772 492 t b f;
#X obj 810 492 t b f;
#X obj 851 492 t b f;
#X obj 889 492 t b f;
#X obj 930 492 t b f;
#X obj 968 492 t b f;
#X obj 1009 492 t b f;
#X msg 731 599 idrawbar_sum \$1;
#X obj 32 377 line;
#X msg 32 353 \$1 64;
#X obj 140 376 line;
#X msg 140 352 \$1 64;
#X obj 247 375 line;
#X msg 247 351 \$1 64;
#X obj 353 376 line;
#X msg 353 352 \$1 64;
#X obj 461 374 line;
#X msg 461 351 \$1 64;
#X obj 574 374 line;
#X msg 574 350 \$1 64;
#X obj 683 373 line;
#X msg 683 349 \$1 64;
#X obj 794 376 line;
#X msg 794 352 \$1 64;
#X obj 908 372 line;
#X msg 908 348 \$1 64;
#X connect 0 0 75 0;
#X connect 1 0 10 0;
#X connect 2 0 11 0;
#X connect 3 0 12 0;
#X connect 4 0 0 0;
#X connect 5 0 13 0;
#X connect 6 0 14 0;
#X connect 7 0 15 0;
#X connect 8 0 16 0;
#X connect 9 0 17 0;
#X connect 10 0 75 0;
#X connect 11 0 75 0;
#X connect 12 0 75 0;
#X connect 13 0 75 0;
#X connect 14 0 75 0;
#X connect 15 0 75 0;
#X connect 16 0 75 0;
#X connect 17 0 75 0;
#X connect 27 0 28 0;
#X connect 28 0 18 0;
#X connect 28 1 19 0;
#X connect 28 2 20 0;
#X connect 28 3 21 0;
#X connect 28 4 22 0;
#X connect 28 5 23 0;
#X connect 28 6 24 0;
#X connect 28 7 25 0;
#X connect 28 8 26 0;
#X connect 29 0 62 0;
#X connect 30 0 59 0;
#X connect 31 0 56 0;
#X connect 32 0 53 0;
#X connect 33 0 50 0;
#X connect 34 0 47 0;
#X connect 35 0 44 0;
#X connect 36 0 41 0;
#X connect 37 0 38 0;
#X connect 38 0 39 0;
#X connect 39 0 40 0;
#X connect 40 0 86 0;
#X connect 40 0 105 0;
#X connect 41 0 42 0;
#X connect 42 0 43 0;
#X connect 43 0 85 0;
#X connect 43 0 103 0;
#X connect 44 0 45 0;
#X connect 45 0 46 0;
#X connect 46 0 84 0;
#X connect 46 0 101 0;
#X connect 47 0 48 0;
#X connect 48 0 49 0;
#X connect 49 0 83 0;
#X connect 49 0 99 0;
#X connect 50 0 51 0;
#X connect 51 0 52 0;
#X connect 52 0 82 0;
#X connect 52 0 97 0;
#X connect 53 0 54 0;
#X connect 54 0 55 0;
#X connect 55 0 81 0;
#X connect 55 0 95 0;
#X connect 56 0 57 0;
#X connect 57 0 58 0;
#X connect 58 0 80 0;
#X connect 58 0 93 0;
#X connect 59 0 60 0;
#X connect 60 0 61 0;
#X connect 61 0 79 0;
#X connect 61 0 91 0;
#X connect 62 0 63 0;
#X connect 63 0 64 0;
#X connect 64 0 77 0;
#X connect 64 0 89 0;
#X connect 65 0 74 0;
#X connect 66 0 74 0;
#X connect 67 0 74 0;
#X connect 68 0 74 0;
#X connect 69 0 74 0;
#X connect 70 0 74 0;
#X connect 71 0 74 0;
#X connect 72 0 74 0;
#X connect 73 0 74 0;
#X connect 75 0 76 0;
#X connect 77 0 78 0;
#X connect 78 0 87 0;
#X connect 79 0 77 0;
#X connect 79 1 77 1;
#X connect 80 0 77 0;
#X connect 80 1 77 2;
#X connect 81 0 77 0;
#X connect 81 1 77 3;
#X connect 82 0 77 0;
#X connect 82 1 77 4;
#X connect 83 0 77 0;
#X connect 83 1 77 5;
#X connect 84 0 77 0;
#X connect 84 1 77 6;
#X connect 85 0 77 0;
#X connect 85 1 77 7;
#X connect 86 0 77 0;
#X connect 86 1 77 8;
#X connect 87 0 74 0;
#X connect 88 0 65 0;
#X connect 89 0 88 0;
#X connect 90 0 66 0;
#X connect 91 0 90 0;
#X connect 92 0 67 0;
#X connect 93 0 92 0;
#X connect 94 0 68 0;
#X connect 95 0 94 0;
#X connect 96 0 69 0;
#X connect 97 0 96 0;
#X connect 98 0 70 0;
#X connect 99 0 98 0;
#X connect 100 0 71 0;
#X connect 101 0 100 0;
#X connect 102 0 72 0;
#X connect 103 0 102 0;
#X connect 104 0 73 0;
#X connect 105 0 104 0;
#X restore 580 300 pd drawbar_controller;
#X obj 409 202 pack f f f;
#X obj 409 145 unpack f f;
#X obj 50 54 cnv 15 270 200 empty empty empty 20 12 0 14 -66577 -66577
0;
#X obj 61 86 vsl 15 128 0 127 0 0 \$0_drawbar_1 \$0_r_drawbar_1 16
2 -8 0 8 -180289 -262144 -1 0 0;
#X obj 88 86 vsl 15 128 0 127 0 0 \$0_drawbar_2 \$0_r_drawbar_2 5_1/3
-4 -8 0 8 -168001 -262144 -1 0 0;
#X obj 116 86 vsl 15 128 0 127 0 0 \$0_drawbar_3 \$0_r_drawbar_3 8
5 -8 0 8 -191407 -1 -1 0 0;
#X obj 145 86 vsl 15 128 0 127 0 0 \$0_drawbar_4 \$0_r_drawbar_4 4
4 -8 0 8 -191407 -1 -1 0 0;
#X obj 174 86 vsl 15 128 0 127 0 0 \$0_drawbar_5 \$0_r_drawbar_5 2_2/3
-4 -8 0 8 -33289 -262131 -1 0 0;
#X obj 203 86 vsl 15 128 0 127 0 0 \$0_drawbar_6 \$0_r_drawbar_6 2
5 -8 0 8 -191407 -1 -1 0 0;
#X obj 233 86 vsl 15 128 0 127 0 0 \$0_drawbar_7 \$0_r_drawbar_7 1_3/5
-4 -8 0 8 -33289 -262131 -1 0 0;
#X obj 262 86 vsl 15 128 0 127 0 0 \$0_drawbar_8 \$0_r_drawbar_8 1_1/3
-4 -8 0 8 -33289 -262131 -1 0 0;
#X obj 292 86 vsl 15 128 0 127 0 0 \$0_drawbar_9 \$0_r_drawbar_9 1
5 -8 0 8 -191407 -1 -1 0 0;
#X obj 104 56 cnv 15 120 16 empty empty ORGAN~ 4 8 0 10 -66577 -162280
0;
#X obj 409 111 inlet note;
#X obj 453 597 outlet~ signal;
#X obj 580 111 inlet cmd;
#X obj 248 232 hradio 15 1 0 4 \$0_preset \$0_r_preset empty 0 -8 0
10 -262144 -1 -1 0;
#X text 53 49 NOTE;
#X text 293 49 CMD;
#X text 573 15 Accepted commands:;
#X text 574 50 preset <1-4>;
#X text 246 217 PRESET;
#X obj 62 232 hradio 15 1 0 2 \$0_percussion_enable \$0_r_percussion_enable
empty 0 -8 0 10 -262144 -1 -1 0;
#X obj 151 232 hradio 15 1 0 2 \$0_percussion_soft \$0_r_percussion_soft
empty 0 -8 0 10 -262144 -1 -1 0;
#X obj 107 232 hradio 15 1 0 2 \$0_percussion_third \$0_r_percussion_third
empty 0 -8 0 10 -262144 -1 -1 0;
#X obj 194 232 hradio 15 1 0 2 \$0_percussion_fast \$0_r_percussion_fast
empty 0 -8 0 10 -262144 -1 -1 0;
#X text 103 219 2ND/3D;
#X text 197 219 FAST;
#X text 153 219 SOFT;
#X text 58 219 OFF/ON;
#N canvas 275 445 1088 389 percussion_controller 0;
#X obj 76 39 inlet;
#X obj 77 278 outlet;
#X obj 76 142 s \$0_r_percussion_enable;
#X obj 230 142 s \$0_r_percussion_third;
#X obj 77 171 r \$0_percussion_enable;
#X obj 230 171 r \$0_percussion_third;
#X obj 378 171 r \$0_percussion_soft;
#X obj 521 171 r \$0_percussion_fast;
#X obj 521 142 s \$0_r_percussion_fast;
#X obj 378 142 s \$0_r_percussion_soft;
#X obj 416 36 loadbang;
#X msg 416 63 0;
#N canvas 69 48 482 658 percussion_trigger 0;
#X obj 149 32 inlet note;
#X obj 128 545 outlet cmd;
#X obj 346 29 inlet enable;
#X obj 176 249 cyclone/coll;
#C restore;
#X obj 149 85 t a b;
#X msg 176 125 length;
#X obj 176 280 == 0;
#X obj 79 125 unpack f f f;
#X obj 176 310 &&;
#X obj 148 168 > 0;
#X obj 161 341 &&;
#X msg 50 186 remove \$1;
#X obj 87 157 pack f f;
#X obj 128 372 spigot;
#X msg 128 432 percussion trig \$1;
#X obj 77 318 cyclone/coll;
#C restore;
#X obj 50 251 t b a;
#X msg 50 280 length;
#X msg 78 398 1;
#X msg 47 397 0;
#X obj 47 432 change;
#X obj 77 349 sel 0;
#X obj 47 466 sel 0;
#X msg 47 496 percussion release;
#X obj 252 31 inlet panic;
#X msg 252 112 clear;
#X obj 50 215 multiplex 0 1;
#X connect 0 0 4 0;
#X connect 2 0 8 1;
#X connect 3 0 6 0;
#X connect 4 0 7 0;
#X connect 4 1 5 0;
#X connect 5 0 3 0;
#X connect 6 0 8 0;
#X connect 7 0 11 0;
#X connect 7 0 12 0;
#X connect 7 1 12 1;
#X connect 7 1 13 0;
#X connect 7 2 9 0;
#X connect 8 0 10 1;
#X connect 9 0 10 0;
#X connect 9 0 26 2;
#X connect 10 0 13 1;
#X connect 11 0 26 0;
#X connect 12 0 26 1;
#X connect 13 0 14 0;
#X connect 13 0 18 0;
#X connect 14 0 1 0;
#X connect 15 0 21 0;
#X connect 16 0 17 0;
#X connect 16 1 15 0;
#X connect 17 0 15 0;
#X connect 18 0 20 0;
#X connect 19 0 20 0;
#X connect 20 0 22 0;
#X connect 21 0 19 0;
#X connect 22 0 23 0;
#X connect 23 0 1 0;
#X connect 24 0 25 0;
#X connect 25 0 15 0;
#X connect 25 0 3 0;
#X connect 26 0 3 0;
#X connect 26 0 16 0;
#X restore 681 201 pd percussion_trigger;
#X obj 681 32 inlet note;
#X obj 804 174 r \$0_percussion_enable;
#X msg 77 201 percussion enable \$1;
#X msg 230 201 percussion third \$1;
#X msg 378 201 percussion soft \$1;
#X msg 521 201 percussion fast \$1;
#X obj 76 70 route enable third soft fast panic;
#X obj 673 266 outlet;
#X connect 0 0 19 0;
#X connect 4 0 15 0;
#X connect 5 0 16 0;
#X connect 6 0 17 0;
#X connect 7 0 18 0;
#X connect 10 0 11 0;
#X connect 11 0 2 0;
#X connect 11 0 3 0;
#X connect 11 0 9 0;
#X connect 11 0 8 0;
#X connect 12 0 20 0;
#X connect 13 0 12 0;
#X connect 14 0 12 2;
#X connect 15 0 1 0;
#X connect 16 0 1 0;
#X connect 17 0 1 0;
#X connect 18 0 1 0;
#X connect 19 0 2 0;
#X connect 19 1 3 0;
#X connect 19 2 9 0;
#X connect 19 3 8 0;
#X connect 19 4 12 1;
#X restore 689 271 pd percussion_controller;
#X text 573 67 percussion <enable \, third \, soft \, fast> <0-1>;
#X msg 634 236 panic;
#N canvas 30 23 1185 651 preset_controller 0;
#X obj 32 101 r \$0_drawbar_1;
#X obj 123 101 r \$0_drawbar_2;
#X obj 214 101 r \$0_drawbar_3;
#X obj 305 101 r \$0_drawbar_4;
#X obj 396 101 r \$0_drawbar_5;
#X obj 487 101 r \$0_drawbar_6;
#X obj 579 101 r \$0_drawbar_7;
#X obj 671 101 r \$0_drawbar_8;
#X obj 763 101 r \$0_drawbar_9;
#X obj 396 309 tabwrite \$0_presets_memory;
#X obj 453 256 +;
#X obj 468 199 r \$0_preset;
#X obj 405 337 table \$0_presets_memory;
#X obj 991 356 tabread \$0_presets_memory;
#X obj 972 112 r \$0_preset;
#X obj 972 143 change;
#X obj 991 328 +;
#X obj 931 226 until;
#X obj 931 264 int;
#X obj 866 267 + 1;
#X obj 931 292 t f f;
#X obj 931 385 pack f f;
#X obj 25 562 s \$0_r_drawbar_1;
#X obj 70 589 s \$0_r_drawbar_2;
#X obj 173 567 s \$0_r_drawbar_3;
#X obj 219 599 s \$0_r_drawbar_4;
#X obj 341 574 s \$0_r_drawbar_5;
#X obj 380 603 s \$0_r_drawbar_6;
#X obj 482 566 s \$0_r_drawbar_7;
#X obj 542 601 s \$0_r_drawbar_8;
#X obj 630 568 s \$0_r_drawbar_9;
#X msg 32 130 \$1 0;
#X msg 123 129 \$1 1;
#X msg 214 131 \$1 2;
#X msg 305 131 \$1 3;
#X msg 396 132 \$1 4;
#X msg 487 133 \$1 5;
#X msg 579 135 \$1 6;
#X msg 671 133 \$1 7;
#X msg 763 135 \$1 8;
#X msg 670 266 1;
#X msg 683 301 0;
#X obj 972 172 t b b b f f b;
#X obj 396 226 unpack f f;
#X obj 396 199 spigot 1;
#X msg 974 226 0;
#X obj 468 226 * 20;
#X obj 1006 225 * 20;
#X obj 540 17 r \$0_percussion_enable;
#X obj 684 18 r \$0_percussion_third;
#X obj 825 18 r \$0_percussion_soft;
#X obj 961 18 r \$0_percussion_fast;
#X msg 540 44 \$1 9;
#X msg 684 45 \$1 10;
#X msg 825 47 \$1 11;
#X msg 961 49 \$1 12;
#X obj 934 107 zexy/nop;
#X obj 496 440 route 0 1 2 3 4 5 6 7 8 9 10 11 12;
#X obj 700 599 s \$0_r_percussion_enable;
#X obj 763 569 s \$0_r_percussion_third;
#X obj 892 599 s \$0_r_percussion_soft;
#X obj 950 572 s \$0_r_percussion_fast;
#X msg 943 201 13;
#X obj 175 367 s \$0_r_preset;
#X obj 195 281 loadbang;
#X msg 195 310 1;
#X obj 175 342 - 1;
#X obj 175 34 inlet;
#X connect 0 0 31 0;
#X connect 1 0 32 0;
#X connect 2 0 33 0;
#X connect 3 0 34 0;
#X connect 4 0 35 0;
#X connect 5 0 36 0;
#X connect 6 0 37 0;
#X connect 7 0 38 0;
#X connect 8 0 39 0;
#X connect 10 0 9 1;
#X connect 11 0 46 0;
#X connect 13 0 21 1;
#X connect 14 0 15 0;
#X connect 15 0 42 0;
#X connect 16 0 13 0;
#X connect 17 0 18 0;
#X connect 18 0 19 0;
#X connect 18 0 20 0;
#X connect 19 0 18 1;
#X connect 20 0 21 0;
#X connect 20 1 16 0;
#X connect 21 0 57 0;
#X connect 31 0 44 0;
#X connect 32 0 44 0;
#X connect 33 0 44 0;
#X connect 34 0 44 0;
#X connect 35 0 44 0;
#X connect 36 0 44 0;
#X connect 37 0 44 0;
#X connect 38 0 44 0;
#X connect 39 0 44 0;
#X connect 40 0 44 1;
#X connect 41 0 44 1;
#X connect 42 0 40 0;
#X connect 42 1 62 0;
#X connect 42 2 45 0;
#X connect 42 3 47 0;
#X connect 42 4 41 0;
#X connect 43 0 9 0;
#X connect 43 1 10 0;
#X connect 44 0 43 0;
#X connect 45 0 18 1;
#X connect 46 0 10 1;
#X connect 47 0 16 1;
#X connect 48 0 52 0;
#X connect 49 0 53 0;
#X connect 50 0 54 0;
#X connect 51 0 55 0;
#X connect 52 0 56 0;
#X connect 53 0 56 0;
#X connect 54 0 56 0;
#X connect 55 0 56 0;
#X connect 56 0 44 0;
#X connect 57 0 22 0;
#X connect 57 1 23 0;
#X connect 57 2 24 0;
#X connect 57 3 25 0;
#X connect 57 4 26 0;
#X connect 57 5 27 0;
#X connect 57 6 28 0;
#X connect 57 7 29 0;
#X connect 57 8 30 0;
#X connect 57 9 58 0;
#X connect 57 10 59 0;
#X connect 57 11 60 0;
#X connect 57 12 61 0;
#X connect 62 0 17 0;
#X connect 64 0 65 0;
#X connect 65 0 66 0;
#X connect 66 0 63 0;
#X connect 67 0 66 0;
#X restore 744 237 pd preset_controller;
#X msg 492 129 clear;
#X obj 614 596 outlet cmd;
#X text 573 33 drawbar <1-9> <0-8>;
#X obj 271 425 organ_voice~;
#N canvas 517 126 663 611 registration 0;
#X obj 100 28 inlet drawbars;
#X obj 100 163 route 1 2 3 4 5 6 7 8 9;
#X obj 115 382 t b f;
#X obj 130 358 t b f;
#X obj 145 331 t b f;
#X obj 160 307 t b f;
#X obj 175 282 t b f;
#X obj 190 257 t b f;
#X obj 205 230 t b f;
#X obj 220 206 t b f;
#X obj 100 479 outlet;
#X obj 100 413 pack 0 0 0 0 0 0 0 0 0;
#X obj 100 79 unpack f f;
#X obj 100 133 pack f f;
#X obj 157 106 int;
#X obj 100 53 route idrawbar;
#X obj 100 447 makesymbol %s%s_%s%s%s%s_%s%s%s;
#X connect 0 0 15 0;
#X connect 1 0 11 0;
#X connect 1 1 2 0;
#X connect 1 2 3 0;
#X connect 1 3 4 0;
#X connect 1 4 5 0;
#X connect 1 5 6 0;
#X connect 1 6 7 0;
#X connect 1 7 8 0;
#X connect 1 8 9 0;
#X connect 2 0 11 0;
#X connect 2 1 11 1;
#X connect 3 0 11 0;
#X connect 3 1 11 2;
#X connect 4 0 11 0;
#X connect 4 1 11 3;
#X connect 5 0 11 0;
#X connect 5 1 11 4;
#X connect 6 0 11 0;
#X connect 6 1 11 5;
#X connect 7 0 11 0;
#X connect 7 1 11 6;
#X connect 8 0 11 0;
#X connect 8 1 11 7;
#X connect 9 0 11 0;
#X connect 9 1 11 8;
#X connect 11 0 16 0;
#X connect 12 0 13 0;
#X connect 12 1 14 0;
#X connect 13 0 1 0;
#X connect 14 0 13 1;
#X connect 15 0 12 0;
#X connect 16 0 10 0;
#X restore 730 337 pd registration;
#X obj 730 384 s \$0_r_registration;
#X obj 168 56 cnv 15 110 15 empty \$0_r_registration 88_0335_542 6
8 1 16 -99865 -262144 0;
#X msg 730 362 label \$1;
#X obj 580 206 route drawbar panic percussion preset registration;
#N canvas 60 256 1175 481 decode 0;
#X obj 531 6 inlet registration;
#X obj 510 450 outlet drawbar;
#X obj 967 268 mod 10;
#X obj 967 299 int;
#X obj 860 270 mod 10;
#X obj 860 297 int;
#X obj 860 244 / 10;
#X obj 753 270 mod 10;
#X obj 753 297 int;
#X obj 609 269 mod 10;
#X obj 609 296 int;
#X obj 503 268 mod 10;
#X obj 503 295 int;
#X obj 389 269 mod 10;
#X obj 389 296 int;
#X obj 275 269 mod 10;
#X obj 275 295 int;
#X obj 128 269 mod 10;
#X obj 128 296 int;
#X obj 15 269 mod 10;
#X obj 15 296 int;
#X msg 503 350 drawbar 5 \$1;
#X obj 753 244 / 100;
#X msg 967 354 drawbar 9 \$1;
#X msg 860 352 drawbar 8 \$1;
#X msg 753 351 drawbar 7 \$1;
#X msg 609 351 drawbar 6 \$1;
#X msg 389 351 drawbar 4 \$1;
#X msg 275 351 drawbar 3 \$1;
#X msg 128 351 drawbar 2 \$1;
#X msg 15 351 drawbar 1 \$1;
#X obj 531 95 unpack f f f;
#X text 656 9 88_8888_888;
#X obj 15 243 / 10;
#X obj 275 243 / 1000;
#X obj 389 243 / 100;
#X obj 503 242 / 10;
#X obj 15 323 expr ($f1/8)*127;
#X obj 128 323 expr ($f1/8)*127;
#X obj 275 321 expr ($f1/8)*127;
#X obj 389 323 expr ($f1/8)*127;
#X obj 503 322 expr ($f1/8)*127;
#X obj 609 323 expr ($f1/8)*127;
#X obj 753 324 expr ($f1/8)*127;
#X obj 860 324 expr ($f1/8)*127;
#X obj 967 326 expr ($f1/8)*127;
#X obj 531 71 symbol2list _;
#X connect 0 0 46 0;
#X connect 2 0 3 0;
#X connect 3 0 45 0;
#X connect 4 0 5 0;
#X connect 5 0 44 0;
#X connect 6 0 4 0;
#X connect 7 0 8 0;
#X connect 8 0 43 0;
#X connect 9 0 10 0;
#X connect 10 0 42 0;
#X connect 11 0 12 0;
#X connect 12 0 41 0;
#X connect 13 0 14 0;
#X connect 14 0 40 0;
#X connect 15 0 16 0;
#X connect 16 0 39 0;
#X connect 17 0 18 0;
#X connect 18 0 38 0;
#X connect 19 0 20 0;
#X connect 20 0 37 0;
#X connect 21 0 1 0;
#X connect 22 0 7 0;
#X connect 23 0 1 0;
#X connect 24 0 1 0;
#X connect 25 0 1 0;
#X connect 26 0 1 0;
#X connect 27 0 1 0;
#X connect 28 0 1 0;
#X connect 29 0 1 0;
#X connect 30 0 1 0;
#X connect 31 0 33 0;
#X connect 31 0 17 0;
#X connect 31 1 34 0;
#X connect 31 1 35 0;
#X connect 31 1 36 0;
#X connect 31 1 9 0;
#X connect 31 2 22 0;
#X connect 31 2 6 0;
#X connect 31 2 2 0;
#X connect 33 0 19 0;
#X connect 34 0 15 0;
#X connect 35 0 13 0;
#X connect 36 0 11 0;
#X connect 37 0 30 0;
#X connect 38 0 29 0;
#X connect 39 0 28 0;
#X connect 40 0 27 0;
#X connect 41 0 21 0;
#X connect 42 0 26 0;
#X connect 43 0 25 0;
#X connect 44 0 24 0;
#X connect 45 0 23 0;
#X connect 46 0 31 0;
#X restore 680 167 pd decode registration;
#X obj 440 426 organ_voice~;
#X obj 355 426 organ_voice~;
#X obj 187 424 organ_voice~;
#X obj 103 424 organ_voice~;
#X obj 525 426 organ_voice~;
#X obj 693 426 organ_voice~;
#X obj 609 426 organ_voice~;
#X obj 409 336 route 1 2 3 4 5 6 7 8;
#X obj 409 171 poly 8 1;
#X obj 453 568 *~ 0.5;
#X obj 688 471 list;
#X msg 689 500 \$1\$2 \$3;
#X obj 575 356 zexy/nop;
#X obj 294 25 declare -lib zexy;
#X connect 0 0 55 0;
#X connect 0 1 39 0;
#X connect 0 1 57 0;
#X connect 1 0 31 1;
#X connect 1 0 52 0;
#X connect 2 0 53 0;
#X connect 2 1 53 1;
#X connect 14 0 2 0;
#X connect 16 0 43 0;
#X connect 31 0 57 0;
#X connect 31 0 55 0;
#X connect 31 1 57 0;
#X connect 33 0 31 0;
#X connect 33 0 36 0;
#X connect 33 0 57 0;
#X connect 35 0 53 0;
#X connect 38 0 54 0;
#X connect 39 0 42 0;
#X connect 42 0 40 0;
#X connect 43 0 0 0;
#X connect 43 1 33 0;
#X connect 43 1 35 0;
#X connect 43 2 31 0;
#X connect 43 3 34 0;
#X connect 43 4 44 0;
#X connect 44 0 43 0;
#X connect 45 0 54 0;
#X connect 46 0 54 0;
#X connect 47 0 54 0;
#X connect 48 0 54 0;
#X connect 49 0 54 0;
#X connect 50 0 54 0;
#X connect 51 0 54 0;
#X connect 52 0 48 0;
#X connect 52 1 47 0;
#X connect 52 2 38 0;
#X connect 52 3 46 0;
#X connect 52 4 45 0;
#X connect 52 5 49 0;
#X connect 52 6 51 0;
#X connect 52 7 50 0;
#X connect 53 0 1 0;
#X connect 53 1 1 1;
#X connect 53 2 1 2;
#X connect 54 0 15 0;
#X connect 55 0 56 0;
#X connect 56 0 36 0;
#X connect 57 0 38 0;
#X connect 57 0 45 0;
#X connect 57 0 46 0;
#X connect 57 0 47 0;
#X connect 57 0 48 0;
#X connect 57 0 49 0;
#X connect 57 0 51 0;
#X connect 57 0 50 0;
#X coords 0 -1 1 1 270 208 1 50 50;
