#N canvas 633 267 386 266 10;
#X obj 56 241 outlet~;
#X obj 56 24 inlet pitch;
#X obj 240 24 inlet amount;
#X obj 56 114 osc~;
#X obj 56 59 + \$1;
#X obj 56 87 tonewheel_mtof;
#X obj 240 143 / 8;
#X obj 152 24 inlet~ perc;
#X obj 56 203 *~;
#X obj 151 172 +~ 0;
#X connect 1 0 4 0;
#X connect 2 0 6 0;
#X connect 3 0 8 0;
#X connect 4 0 5 0;
#X connect 5 0 3 0;
#X connect 6 0 9 1;
#X connect 7 0 9 0;
#X connect 8 0 0 0;
#X connect 9 0 8 1;
