#N canvas 537 122 730 635 10;
#X obj 26 84 organ~;
#X msg 289 59 panic;
#X obj 26 355 my_leslie~;
#X obj 26 300 my_scanner~;
#X obj 26 35 notein;
#X obj 26 60 pack f f;
#X obj 315 294 print;
#X obj 328 383 print;
#X obj 303 436 print;
#X floatatom 188 29 5 0 0 0 - - - 0;
#X obj 171 55 makenote 120 1000;
#X text 225 482 from tobias.tanke on the pure data forum https://forum.pdpatchrepo.info/topic/4796/my-clonewheel-organ
;
#X obj 61 455 shadylib/outputc~;
#X connect 0 0 3 0;
#X connect 0 1 6 0;
#X connect 1 0 0 1;
#X connect 2 0 12 0;
#X connect 2 1 12 1;
#X connect 2 2 8 0;
#X connect 3 0 2 0;
#X connect 3 1 7 0;
#X connect 4 0 5 0;
#X connect 4 1 5 1;
#X connect 5 0 0 0;
#X connect 9 0 10 0;
#X connect 10 0 5 0;
#X connect 10 1 5 1;
