#N canvas 537 122 410 541 10;
#X obj 29 100 organ~;
#X msg 292 75 panic;
#X obj 29 371 my_leslie~;
#X obj 29 316 my_scanner~;
#X obj 29 51 notein;
#X obj 29 76 pack f f;
#X obj 98 56 r toleslie;
#X obj 129 451 outputc~;
#X obj 318 310 print;
#X obj 331 399 print;
#X obj 306 452 print;
#X msg 267 52 40 0;
#X msg 192 39 40 127;
#X connect 0 0 3 0;
#X connect 0 1 8 0;
#X connect 1 0 0 1;
#X connect 2 0 7 0;
#X connect 2 1 7 1;
#X connect 2 2 10 0;
#X connect 3 0 2 0;
#X connect 3 1 9 0;
#X connect 4 0 5 0;
#X connect 4 1 5 1;
#X connect 5 0 0 0;
#X connect 6 0 0 0;
#X connect 11 0 5 0;
#X connect 12 0 5 0;
