#N canvas 525 275 398 266 10;
#X obj 56 214 outlet~;
#X obj 56 24 inlet pitch;
#X obj 154 24 inlet amount;
#X obj 56 114 osc~;
#X obj 56 176 *~ 0;
#X obj 56 59 + \$1;
#X obj 56 87 tonewheel_mtof;
#X obj 219 123 change;
#X obj 219 150 switch~;
#X obj 219 96 > 0;
#X obj 154 145 / 8;
#X connect 1 0 5 0;
#X connect 2 0 9 0;
#X connect 2 0 10 0;
#X connect 3 0 4 0;
#X connect 4 0 0 0;
#X connect 5 0 6 0;
#X connect 6 0 3 0;
#X connect 7 0 8 0;
#X connect 9 0 7 0;
#X connect 10 0 4 1;
