#N canvas 0 0 697 419 10;
#X obj 178 366 outlet frequency;
#X obj 222 70 / 12;
#X obj 222 99 int;
#X obj 255 70 mod 12;
#X obj 272 141 route 0 1 2 3 4 5 6 7 8 9 10 11;
#X msg 272 247 0.8173;
#X msg 287 226 0.8659;
#X msg 302 205 0.9178;
#X msg 317 184 0.9722;
#X msg 332 247 1.03;
#X obj 272 290 zexy/nop;
#X msg 349 226 1.0909;
#X msg 363 206 1.1563;
#X msg 378 184 1.225;
#X msg 393 247 1.2973;
#X msg 410 226 1.375;
#X msg 424 206 1.4565;
#X msg 439 184 1.5429;
#X obj 88 142 route 0 1 2 3 4 5 6 7 8 9 10;
#X msg 163 189 16;
#X msg 148 213 8;
#X msg 133 189 4;
#X msg 118 213 2;
#X obj 222 40 t f f;
#X msg 178 213 32;
#X msg 193 189 64;
#X obj 178 329 expr 20*$f1*$f2;
#X obj 178 248 zexy/nop;
#X msg 208 214 128;
#X msg 223 189 256;
#X text 238 286;
#X text 118 124 Number of cogs per wheel;
#X text 274 123 Ratio relative drive motor at 20Hz;
#X obj 222 6 inlet note;
#X text 297 27 Based on the mechanical construction of the hammond
organ the frequencies do not match the equal tempered scale. Only the
A notes are accurate.;
#X connect 1 0 2 0;
#X connect 2 0 18 0;
#X connect 3 0 4 0;
#X connect 4 0 5 0;
#X connect 4 1 6 0;
#X connect 4 2 7 0;
#X connect 4 3 8 0;
#X connect 4 4 9 0;
#X connect 4 5 11 0;
#X connect 4 6 12 0;
#X connect 4 7 13 0;
#X connect 4 8 14 0;
#X connect 4 9 15 0;
#X connect 4 10 16 0;
#X connect 4 11 17 0;
#X connect 5 0 10 0;
#X connect 6 0 10 0;
#X connect 7 0 10 0;
#X connect 8 0 10 0;
#X connect 9 0 10 0;
#X connect 10 0 26 1;
#X connect 11 0 10 0;
#X connect 12 0 10 0;
#X connect 13 0 10 0;
#X connect 14 0 10 0;
#X connect 15 0 10 0;
#X connect 16 0 10 0;
#X connect 17 0 10 0;
#X connect 18 0 22 0;
#X connect 18 1 22 0;
#X connect 18 2 22 0;
#X connect 18 3 21 0;
#X connect 18 4 20 0;
#X connect 18 5 19 0;
#X connect 18 6 24 0;
#X connect 18 7 25 0;
#X connect 18 8 28 0;
#X connect 18 9 29 0;
#X connect 18 10 29 0;
#X connect 18 11 29 0;
#X connect 19 0 27 0;
#X connect 20 0 27 0;
#X connect 21 0 27 0;
#X connect 22 0 27 0;
#X connect 23 0 1 0;
#X connect 23 1 3 0;
#X connect 24 0 27 0;
#X connect 25 0 27 0;
#X connect 26 0 0 0;
#X connect 27 0 26 0;
#X connect 28 0 27 0;
#X connect 29 0 27 0;
#X connect 33 0 23 0;
